  0
SECTION
  2
HEADER
  9
$ACADVER
  1
AC1015
  9
$ACADMAINTVER
 70
     6
  9
$DWGCODEPAGE
  3
ANSI_1250
  9
$INSBASE
 10
0.0
 20
0.0
 30
0.0
  9
$EXTMIN
 10
-218.55
 20
0.0
 30
0.0
  9
$EXTMAX
 10
218.55
 20
651.0
 30
0.0
  9
$LIMMIN
 10
0.0
 20
0.0
  9
$LIMMAX
 10
420.0
 20
297.0
  9
$ORTHOMODE
 70
     0
  9
$REGENMODE
 70
     1
  9
$FILLMODE
 70
     1
  9
$QTEXTMODE
 70
     0
  9
$MIRRTEXT
 70
     1
  9
$LTSCALE
 40
1.0
  9
$ATTMODE
 70
     1
  9
$TEXTSIZE
 40
3.5
  9
$TRACEWID
 40
1.0
  9
$TEXTSTYLE
  7
Standard
  9
$CLAYER
  8
0
  9
$CELTYPE
  6
ByLayer
  9
$CECOLOR
 62
   256
  9
$CELTSCALE
 40
1.0
  9
$DISPSILH
 70
     0
  9
$DIMSCALE
 40
1.0
  9
$DIMASZ
 40
3.302
  9
$DIMEXO
 40
1.0
  9
$DIMDLI
 40
3.75
  9
$DIMRND
 40
0.0
  9
$DIMDLE
 40
0.0
  9
$DIMEXE
 40
1.0
  9
$DIMTP
 40
0.0
  9
$DIMTM
 40
0.0
  9
$DIMTXT
 40
3.5
  9
$DIMCEN
 40
2.5
  9
$DIMTSZ
 40
0.0
  9
$DIMTOL
 70
     0
  9
$DIMLIM
 70
     0
  9
$DIMTIH
 70
     1
  9
$DIMTOH
 70
     1
  9
$DIMSE1
 70
     0
  9
$DIMSE2
 70
     0
  9
$DIMTAD
 70
     1
  9
$DIMZIN
 70
     0
  9
$DIMBLK
  1

  9
$DIMASO
 70
     1
  9
$DIMSHO
 70
     1
  9
$DIMPOST
  1

  9
$DIMAPOST
  1

  9
$DIMALT
 70
     0
  9
$DIMALTD
 70
     3
  9
$DIMALTF
 40
0.0393700787
  9
$DIMLFAC
 40
1.0
  9
$DIMTOFL
 70
     1
  9
$DIMTVP
 40
0.0
  9
$DIMTIX
 70
     0
  9
$DIMSOXD
 70
     0
  9
$DIMSAH
 70
     0
  9
$DIMBLK1
  1

  9
$DIMBLK2
  1

  9
$DIMSTYLE
  2
ISO-25
  9
$DIMCLRD
 70
     0
  9
$DIMCLRE
 70
     0
  9
$DIMCLRT
 70
     0
  9
$DIMTFAC
 40
1.0
  9
$DIMGAP
 40
1.524
  9
$DIMJUST
 70
     0
  9
$DIMSD1
 70
     0
  9
$DIMSD2
 70
     0
  9
$DIMTOLJ
 70
     0
  9
$DIMTZIN
 70
     0
  9
$DIMALTZ
 70
     0
  9
$DIMALTTZ
 70
     0
  9
$DIMUPT
 70
     0
  9
$DIMDEC
 70
     2
  9
$DIMTDEC
 70
     2
  9
$DIMALTU
 70
     2
  9
$DIMALTTD
 70
     3
  9
$DIMTXSTY
  7
Standard
  9
$DIMAUNIT
 70
     0
  9
$DIMADEC
 70
     2
  9
$DIMALTRND
 40
0.0
  9
$DIMAZIN
 70
     0
  9
$DIMDSEP
 70
    44
  9
$DIMATFIT
 70
     3
  9
$DIMFRAC
 70
     0
  9
$DIMLDRBLK
  1

  9
$DIMLUNIT
 70
     2
  9
$DIMLWD
 70
    -2
  9
$DIMLWE
 70
    -2
  9
$DIMTMOVE
 70
     0
  9
$LUNITS
 70
     2
  9
$LUPREC
 70
     2
  9
$SKETCHINC
 40
1.0
  9
$FILLETRAD
 40
10.0
  9
$AUNITS
 70
     0
  9
$AUPREC
 70
     2
  9
$MENU
  1
.
  9
$ELEVATION
 40
0.0
  9
$PELEVATION
 40
0.0
  9
$THICKNESS
 40
0.0
  9
$LIMCHECK
 70
     0
  9
$CHAMFERA
 40
0.0
  9
$CHAMFERB
 40
0.0
  9
$CHAMFERC
 40
0.0
  9
$CHAMFERD
 40
0.0
  9
$SKPOLY
 70
     0
  9
$TDCREATE
 40
2457356.012820428
  9
$TDUCREATE
 40
2457355.971153762
  9
$TDUPDATE
 40
2457356.012946343
  9
$TDUUPDATE
 40
2457355.971279676
  9
$TDINDWG
 40
0.0000000116
  9
$TDUSRTIMER
 40
0.0000000116
  9
$USRTIMER
 70
     1
  9
$ANGBASE
 50
0.0
  9
$ANGDIR
 70
     0
  9
$PDMODE
 70
     0
  9
$PDSIZE
 40
-1.0
  9
$PLINEWID
 40
0.0
  9
$SPLFRAME
 70
     0
  9
$SPLINETYPE
 70
     6
  9
$SPLINESEGS
 70
     8
  9
$HANDSEED
  5
29D
  9
$SURFTAB1
 70
     6
  9
$SURFTAB2
 70
     6
  9
$SURFTYPE
 70
     6
  9
$SURFU
 70
     6
  9
$SURFV
 70
     6
  9
$UCSBASE
  2

  9
$UCSNAME
  2

  9
$UCSORG
 10
0.0
 20
0.0
 30
0.0
  9
$UCSXDIR
 10
1.0
 20
0.0
 30
0.0
  9
$UCSYDIR
 10
0.0
 20
1.0
 30
0.0
  9
$UCSORTHOREF
  2

  9
$UCSORTHOVIEW
 70
     0
  9
$UCSORGTOP
 10
0.0
 20
0.0
 30
0.0
  9
$UCSORGBOTTOM
 10
0.0
 20
0.0
 30
0.0
  9
$UCSORGLEFT
 10
0.0
 20
0.0
 30
0.0
  9
$UCSORGRIGHT
 10
0.0
 20
0.0
 30
0.0
  9
$UCSORGFRONT
 10
0.0
 20
0.0
 30
0.0
  9
$UCSORGBACK
 10
0.0
 20
0.0
 30
0.0
  9
$PUCSBASE
  2

  9
$PUCSNAME
  2

  9
$PUCSORG
 10
0.0
 20
0.0
 30
0.0
  9
$PUCSXDIR
 10
1.0
 20
0.0
 30
0.0
  9
$PUCSYDIR
 10
0.0
 20
1.0
 30
0.0
  9
$PUCSORTHOREF
  2

  9
$PUCSORTHOVIEW
 70
     0
  9
$PUCSORGTOP
 10
0.0
 20
0.0
 30
0.0
  9
$PUCSORGBOTTOM
 10
0.0
 20
0.0
 30
0.0
  9
$PUCSORGLEFT
 10
0.0
 20
0.0
 30
0.0
  9
$PUCSORGRIGHT
 10
0.0
 20
0.0
 30
0.0
  9
$PUCSORGFRONT
 10
0.0
 20
0.0
 30
0.0
  9
$PUCSORGBACK
 10
0.0
 20
0.0
 30
0.0
  9
$USERI1
 70
     0
  9
$USERI2
 70
     0
  9
$USERI3
 70
     0
  9
$USERI4
 70
     0
  9
$USERI5
 70
     0
  9
$USERR1
 40
0.0
  9
$USERR2
 40
0.0
  9
$USERR3
 40
0.0
  9
$USERR4
 40
0.0
  9
$USERR5
 40
0.0
  9
$WORLDVIEW
 70
     1
  9
$SHADEDGE
 70
     3
  9
$SHADEDIF
 70
    70
  9
$TILEMODE
 70
     1
  9
$MAXACTVP
 70
    64
  9
$PINSBASE
 10
0.0
 20
0.0
 30
0.0
  9
$PLIMCHECK
 70
     0
  9
$PEXTMIN
 10
1.0000000000E+20
 20
1.0000000000E+20
 30
1.0000000000E+20
  9
$PEXTMAX
 10
-1.0000000000E+20
 20
-1.0000000000E+20
 30
-1.0000000000E+20
  9
$PLIMMIN
 10
0.0
 20
0.0
  9
$PLIMMAX
 10
420.0
 20
297.0
  9
$UNITMODE
 70
     0
  9
$VISRETAIN
 70
     1
  9
$PLINEGEN
 70
     0
  9
$PSLTSCALE
 70
     1
  9
$TREEDEPTH
 70
  3020
  9
$CMLSTYLE
  2
Standard
  9
$CMLJUST
 70
     0
  9
$CMLSCALE
 40
20.0
  9
$PROXYGRAPHICS
 70
     1
  9
$MEASUREMENT
 70
     1
  9
$CELWEIGHT
370
    -1
  9
$ENDCAPS
280
     0
  9
$JOINSTYLE
280
     0
  9
$LWDISPLAY
290
     1
  9
$INSUNITS
 70
     4
  9
$HYPERLINKBASE
  1

  9
$STYLESHEET
  1

  9
$XEDIT
290
     1
  9
$CEPSNTYPE
380
     0
  9
$PSTYLEMODE
290
     1
  9
$FINGERPRINTGUID
  2
{F7C5792E-211B-4BD4-A01B-B6ACBE6486CB}
  9
$VERSIONGUID
  2
{FAEB1C32-E019-11D5-929B-00C0DF256EC4}
  9
$EXTNAMES
290
     1
  9
$PSVPSCALE
 40
0.0
  9
$OLESTARTUP
290
     0
  0
ENDSEC
  0
SECTION
  2
CLASSES
  0
CLASS
  1
ACDBDICTIONARYWDFLT
  2
AcDbDictionaryWithDefault
  3
ObjectDBX Classes
 90
        0
280
     0
281
     0
  0
CLASS
  1
VISUALSTYLE
  2
AcDbVisualStyle
  3
ObjectDBX Classes
 90
     4095
280
     0
281
     0
  0
CLASS
  1
MATERIAL
  2
AcDbMaterial
  3
ObjectDBX Classes
 90
     1153
280
     0
281
     0
  0
CLASS
  1
SCALE
  2
AcDbScale
  3
ObjectDBX Classes
 90
     1153
280
     0
281
     0
  0
CLASS
  1
TABLESTYLE
  2
AcDbTableStyle
  3
ObjectDBX Classes
 90
     4095
280
     0
281
     0
  0
CLASS
  1
MLEADERSTYLE
  2
AcDbMLeaderStyle
  3
ACDB_MLEADERSTYLE_CLASS
 90
     4095
280
     0
281
     0
  0
CLASS
  1
SUN
  2
AcDbSun
  3
SCENEOE
 90
     1153
280
     0
281
     0
  0
CLASS
  1
ACDBPLACEHOLDER
  2
AcDbPlaceHolder
  3
ObjectDBX Classes
 90
        0
280
     0
281
     0
  0
CLASS
  1
LAYOUT
  2
AcDbLayout
  3
ObjectDBX Classes
 90
        0
280
     0
281
     0
  0
ENDSEC
  0
SECTION
  2
TABLES
  0
TABLE
  2
VPORT
  5
8
330
0
100
AcDbSymbolTable
 70
     1
  0
VPORT
  5
29
330
8
100
AcDbSymbolTableRecord
100
AcDbViewportTableRecord
  2
*Active
 70
     0
 10
0.0
 20
0.0
 11
1.0
 21
1.0
 12
0.0
 22
325.5
 13
0.0
 23
0.0
 14
10.0
 24
10.0
 15
10.0
 25
10.0
 16
0.0
 26
0.0
 36
1.0
 17
0.0
 27
0.0
 37
0.0
 40
664.02
 41
0.6714285714
 42
50.0
 43
0.0
 44
0.0
 50
0.0
 51
0.0
 71
     0
 72
   100
 73
     1
 74
     3
 75
     0
 76
     0
 77
     0
 78
     0
281
     0
 65
     1
110
0.0
120
0.0
130
0.0
111
1.0
121
0.0
131
0.0
112
0.0
122
1.0
132
0.0
 79
     0
146
0.0
  0
ENDTAB
  0
TABLE
  2
LTYPE
  5
5
330
0
100
AcDbSymbolTable
 70
     6
  0
LTYPE
  5
14
330
5
100
AcDbSymbolTableRecord
100
AcDbLinetypeTableRecord
  2
ByBlock
 70
     0
  3

 72
    65
 73
     0
 40
0.0
  0
LTYPE
  5
15
330
5
100
AcDbSymbolTableRecord
100
AcDbLinetypeTableRecord
  2
ByLayer
 70
     0
  3

 72
    65
 73
     0
 40
0.0
  0
LTYPE
  5
16
330
5
100
AcDbSymbolTableRecord
100
AcDbLinetypeTableRecord
  2
Continuous
 70
     0
  3
Solid line
 72
    65
 73
     0
 40
0.0
  0
LTYPE
  5
6E
330
5
100
AcDbSymbolTableRecord
100
AcDbLinetypeTableRecord
  2
HIDDEN
 70
     0
  3
Hidden __ __ __ __ __ __ __ __ __ __ __ __ __ __
 72
    65
 73
     2
 40
1.905
 49
1.27
 74
     0
 49
-0.635
 74
     0
  0
LTYPE
  5
6F
330
5
100
AcDbSymbolTableRecord
100
AcDbLinetypeTableRecord
  2
PHANTOM
 70
     0
  3
Phantom ______  __  __  ______  __  __  ______
 72
    65
 73
     6
 40
12.7
 49
6.35
 74
     0
 49
-1.27
 74
     0
 49
1.27
 74
     0
 49
-1.27
 74
     0
 49
1.27
 74
     0
 49
-1.27
 74
     0
  0
LTYPE
  5
70
330
5
100
AcDbSymbolTableRecord
100
AcDbLinetypeTableRecord
  2
CENTER
 70
     0
  3
Center ____ _ ____ _ ____ _ ____ _ ____ _ ____
 72
    65
 73
     4
 40
10.16
 49
6.35
 74
     0
 49
-1.27
 74
     0
 49
1.27
 74
     0
 49
-1.27
 74
     0
  0
LTYPE
  5
71
330
5
100
AcDbSymbolTableRecord
100
AcDbLinetypeTableRecord
  2
CENTERX2
 70
     0
  3
Center (2x) ________  __  ________  __  _____
 72
    65
 73
     4
 40
20.32
 49
12.7
 74
     0
 49
-2.54
 74
     0
 49
2.54
 74
     0
 49
-2.54
 74
     0
  0
LTYPE
  5
72
330
5
100
AcDbSymbolTableRecord
100
AcDbLinetypeTableRecord
  2
DOT2
 70
     0
  3
Dot (.5x) ........................................
 72
    65
 73
     2
 40
0.635
 49
0.0
 74
     0
 49
-0.635
 74
     0
  0
ENDTAB
  0
TABLE
  2
LAYER
  5
2
330
0
100
AcDbSymbolTable
 70
     1
  0
LAYER
  5
10
330
2
100
AcDbSymbolTableRecord
100
AcDbLayerTableRecord
  2
0
 70
     0
 62
     7
  6
Continuous
370
    -3
390
F
  0
ENDTAB
  0
TABLE
  2
STYLE
  5
3
330
0
100
AcDbSymbolTable
 70
     1
  0
STYLE
  5
11
330
3
100
AcDbSymbolTableRecord
100
AcDbTextStyleTableRecord
  2
Standard
 70
     0
 40
0.0
 41
1.0
 50
0.0
 71
     0
 42
3.5
  3
txt
  4

  0
ENDTAB
  0
TABLE
  2
VIEW
  5
6
330
0
100
AcDbSymbolTable
 70
     0
  0
ENDTAB
  0
TABLE
  2
UCS
  5
7
330
0
100
AcDbSymbolTable
 70
     0
  0
ENDTAB
  0
TABLE
  2
APPID
  5
9
330
0
100
AcDbSymbolTable
 70
     1
  0
APPID
  5
12
330
9
100
AcDbSymbolTableRecord
100
AcDbRegAppTableRecord
  2
ACAD
 70
     0
  0
ENDTAB
  0
TABLE
  2
DIMSTYLE
  5
A
330
0
100
AcDbSymbolTable
 70
     1
100
AcDbDimStyleTable
  0
DIMSTYLE
105
27
330
A
100
AcDbSymbolTableRecord
100
AcDbDimStyleTableRecord
  2
ISO-25
 70
     0
 41
2.5
 42
0.625
 43
3.75
 44
1.25
 73
     0
 74
     0
 77
     1
 78
     8
140
2.5
141
2.5
143
0.0393700787
147
0.625
171
     3
172
     1
178
     0
271
     2
272
     2
274
     3
278
    44
283
     0
284
     8
340
11
  0
ENDTAB
  0
TABLE
  2
BLOCK_RECORD
  5
1
330
0
100
AcDbSymbolTable
 70
     1
  0
BLOCK_RECORD
  5
1F
330
1
100
AcDbSymbolTableRecord
100
AcDbBlockTableRecord
  2
*Model_Space
340
22
  0
BLOCK_RECORD
  5
1B
330
1
100
AcDbSymbolTableRecord
100
AcDbBlockTableRecord
  2
*Paper_Space
340
1E
  0
BLOCK_RECORD
  5
23
330
1
100
AcDbSymbolTableRecord
100
AcDbBlockTableRecord
  2
*Paper_Space0
340
26
  0
ENDTAB
  0
ENDSEC
  0
SECTION
  2
BLOCKS
  0
BLOCK
  5
20
330
1F
100
AcDbEntity
  8
0
100
AcDbBlockBegin
  2
*Model_Space
 70
     0
 10
0.0
 20
0.0
 30
0.0
  3
*Model_Space
  1

  0
ENDBLK
  5
21
330
1F
100
AcDbEntity
  8
0
100
AcDbBlockEnd
  0
BLOCK
  5
1C
330
1B
100
AcDbEntity
 67
     1
  8
0
100
AcDbBlockBegin
  2
*Paper_Space
 70
     0
 10
0.0
 20
0.0
 30
0.0
  3
*Paper_Space
  1

  0
ENDBLK
  5
1D
330
1B
100
AcDbEntity
 67
     1
  8
0
100
AcDbBlockEnd
  0
BLOCK
  5
24
330
23
100
AcDbEntity
  8
0
100
AcDbBlockBegin
  2
*Paper_Space0
 70
     0
 10
0.0
 20
0.0
 30
0.0
  3
*Paper_Space0
  1

  0
ENDBLK
  5
25
330
23
100
AcDbEntity
  8
0
100
AcDbBlockEnd
  0
ENDSEC
  0
SECTION
  2
ENTITIES
  0
LINE
  5
73
330
1F
100
AcDbEntity
  8
0
  6
Continuous
 62
     7
370
    15
100
AcDbLine
 10
102.7565919843
 20
38.5292300587
 30
0.0
 11
102.2231098414
 21
36.9578014872
 31
0.0
  0
LINE
  5
74
330
1F
100
AcDbEntity
  8
0
  6
Continuous
 62
     7
370
    15
100
AcDbLine
 10
102.2231098414
 20
36.9578014872
 30
0.0
 11
93.9373955557
 21
36.9578014872
 31
0.0
  0
LINE
  5
75
330
1F
100
AcDbEntity
  8
0
  6
Continuous
 62
     7
370
    15
100
AcDbLine
 10
93.9373955557
 20
36.9578014872
 30
0.0
 11
96.6561455557
 21
44.9578014872
 31
0.0
  0
LINE
  5
76
330
1F
100
AcDbEntity
  8
0
  6
Continuous
 62
     7
370
    15
100
AcDbLine
 10
96.6561455557
 20
44.9578014872
 30
0.0
 11
104.7990026985
 21
44.9578014872
 31
0.0
  0
LINE
  5
77
330
1F
100
AcDbEntity
  8
0
  6
Continuous
 62
     7
370
    15
100
AcDbLine
 10
104.7990026985
 20
44.9578014872
 30
0.0
 11
104.3146276985
 21
43.5292300587
 31
0.0
  0
LINE
  5
78
330
1F
100
AcDbEntity
  8
0
  6
Continuous
 62
     7
370
    15
100
AcDbLine
 10
104.3146276985
 20
43.5292300587
 30
0.0
 11
98.0289134128
 21
43.5292300587
 31
0.0
  0
LINE
  5
79
330
1F
100
AcDbEntity
  8
0
  6
Continuous
 62
     7
370
    15
100
AcDbLine
 10
98.0289134128
 20
43.5292300587
 30
0.0
 11
97.4931991271
 21
41.9578014872
 31
0.0
  0
LINE
  5
7A
330
1F
100
AcDbEntity
  8
0
  6
Continuous
 62
     7
370
    15
100
AcDbLine
 10
97.4931991271
 20
41.9578014872
 30
0.0
 11
101.2074848414
 21
41.9578014872
 31
0.0
  0
LINE
  5
7B
330
1F
100
AcDbEntity
  8
0
  6
Continuous
 62
     7
370
    15
100
AcDbLine
 10
101.2074848414
 20
41.9578014872
 30
0.0
 11
100.7231098414
 21
40.5292300587
 31
0.0
  0
LINE
  5
7C
330
1F
100
AcDbEntity
  8
0
  6
Continuous
 62
     7
370
    15
100
AcDbLine
 10
100.7231098414
 20
40.5292300587
 30
0.0
 11
97.0088241271
 21
40.5292300587
 31
0.0
  0
LINE
  5
7D
330
1F
100
AcDbEntity
  8
0
  6
Continuous
 62
     7
370
    15
100
AcDbLine
 10
97.0088241271
 20
40.5292300587
 30
0.0
 11
96.3280205557
 21
38.5292300587
 31
0.0
  0
LINE
  5
7E
330
1F
100
AcDbEntity
  8
0
  6
Continuous
 62
     7
370
    15
100
AcDbLine
 10
96.3280205557
 20
38.5292300587
 30
0.0
 11
102.7565919843
 21
38.5292300587
 31
0.0
  0
LINE
  5
7F
330
1F
100
AcDbEntity
  8
0
  6
Continuous
 62
     7
370
    15
100
AcDbLine
 10
84.7052526985
 20
40.4778907729
 30
0.0
 11
83.5088241271
 21
36.9578014872
 31
0.0
  0
LINE
  5
80
330
1F
100
AcDbEntity
  8
0
  6
Continuous
 62
     7
370
    15
100
AcDbLine
 10
83.5088241271
 20
36.9578014872
 30
0.0
 11
81.65168127
 21
36.9578014872
 31
0.0
  0
LINE
  5
81
330
1F
100
AcDbEntity
  8
0
  6
Continuous
 62
     7
370
    15
100
AcDbLine
 10
81.65168127
 20
36.9578014872
 30
0.0
 11
84.37043127
 21
44.9578014872
 31
0.0
  0
LINE
  5
82
330
1F
100
AcDbEntity
  8
0
  6
Continuous
 62
     7
370
    15
100
AcDbLine
 10
84.37043127
 20
44.9578014872
 30
0.0
 11
86.2275741271
 21
44.9578014872
 31
0.0
  0
LINE
  5
83
330
1F
100
AcDbEntity
  8
0
  6
Continuous
 62
     7
370
    15
100
AcDbLine
 10
86.2275741271
 20
44.9578014872
 30
0.0
 11
85.0936455557
 21
41.6207479158
 31
0.0
  0
LINE
  5
84
330
1F
100
AcDbEntity
  8
0
  6
Continuous
 62
     7
370
    15
100
AcDbLine
 10
85.0936455557
 20
41.6207479158
 30
0.0
 11
90.5824848414
 21
44.9578014872
 31
0.0
  0
LINE
  5
85
330
1F
100
AcDbEntity
  8
0
  6
Continuous
 62
     7
370
    15
100
AcDbLine
 10
90.5824848414
 20
44.9578014872
 30
0.0
 11
93.2275741271
 21
44.9578014872
 31
0.0
  0
LINE
  5
86
330
1F
100
AcDbEntity
  8
0
  6
Continuous
 62
     7
370
    15
100
AcDbLine
 10
93.2275741271
 20
44.9578014872
 30
0.0
 11
86.74543127
 21
41.1877122015
 31
0.0
  0
LINE
  5
87
330
1F
100
AcDbEntity
  8
0
  6
Continuous
 62
     7
370
    15
100
AcDbLine
 10
86.74543127
 20
41.1877122015
 30
0.0
 11
91.2231098414
 21
36.9578014872
 31
0.0
  0
LINE
  5
88
330
1F
100
AcDbEntity
  8
0
  6
Continuous
 62
     7
370
    15
100
AcDbLine
 10
91.2231098414
 20
36.9578014872
 30
0.0
 11
88.2588241271
 21
36.9578014872
 31
0.0
  0
LINE
  5
89
330
1F
100
AcDbEntity
  8
0
  6
Continuous
 62
     7
370
    15
100
AcDbLine
 10
88.2588241271
 20
36.9578014872
 30
0.0
 11
84.7052526985
 21
40.4778907729
 31
0.0
  0
LINE
  5
8A
330
1F
100
AcDbEntity
  8
0
  6
Continuous
 62
     7
370
    15
100
AcDbLine
 10
71.7208776985
 20
38.6720872015
 30
0.0
 11
70.2119491271
 21
36.9578014872
 31
0.0
  0
LINE
  5
8B
330
1F
100
AcDbEntity
  8
0
  6
Continuous
 62
     7
370
    15
100
AcDbLine
 10
70.2119491271
 20
36.9578014872
 30
0.0
 11
68.3659669843
 21
36.9578014872
 31
0.0
  0
LINE
  5
8C
330
1F
100
AcDbEntity
  8
0
  6
Continuous
 62
     7
370
    15
100
AcDbLine
 10
68.3659669843
 20
36.9578014872
 30
0.0
 11
75.5914134128
 21
44.9578014872
 31
0.0
  0
LINE
  5
8D
330
1F
100
AcDbEntity
  8
0
  6
Continuous
 62
     7
370
    15
100
AcDbLine
 10
75.5914134128
 20
44.9578014872
 30
0.0
 11
77.3748955557
 21
44.9578014872
 31
0.0
  0
LINE
  5
8E
330
1F
100
AcDbEntity
  8
0
  6
Continuous
 62
     7
370
    15
100
AcDbLine
 10
77.3748955557
 20
44.9578014872
 30
0.0
 11
79.2231098414
 21
36.9578014872
 31
0.0
  0
LINE
  5
8F
330
1F
100
AcDbEntity
  8
0
  6
Continuous
 62
     7
370
    15
100
AcDbLine
 10
79.2231098414
 20
36.9578014872
 30
0.0
 11
77.1427526985
 21
36.9578014872
 31
0.0
  0
LINE
  5
90
330
1F
100
AcDbEntity
  8
0
  6
Continuous
 62
     7
370
    15
100
AcDbLine
 10
77.1427526985
 20
36.9578014872
 30
0.0
 11
76.7699848414
 21
38.6720872015
 31
0.0
  0
LINE
  5
91
330
1F
100
AcDbEntity
  8
0
  6
Continuous
 62
     7
370
    15
100
AcDbLine
 10
76.7699848414
 20
38.6720872015
 30
0.0
 11
71.7208776985
 21
38.6720872015
 31
0.0
  0
LINE
  5
92
330
1F
100
AcDbEntity
  8
0
  6
Continuous
 62
     7
370
    15
100
AcDbLine
 10
8.6003419843
 20
38.9109264872
 30
0.0
 11
10.6561455557
 21
44.9578014872
 31
0.0
  0
LINE
  5
93
330
1F
100
AcDbEntity
  8
0
  6
Continuous
 62
     7
370
    15
100
AcDbLine
 10
10.6561455557
 20
44.9578014872
 30
0.0
 11
12.5132884128
 21
44.9578014872
 31
0.0
  0
LINE
  5
94
330
1F
100
AcDbEntity
  8
0
  6
Continuous
 62
     7
370
    15
100
AcDbLine
 10
12.5132884128
 20
44.9578014872
 30
0.0
 11
10.3280205557
 21
38.5292300587
 31
0.0
  0
LINE
  5
95
330
1F
100
AcDbEntity
  8
0
  6
Continuous
 62
     7
370
    15
100
AcDbLine
 10
10.3280205557
 20
38.5292300587
 30
0.0
 11
15.6137348414
 21
38.5292300587
 31
0.0
  0
LINE
  5
96
330
1F
100
AcDbEntity
  8
0
  6
Continuous
 62
     7
370
    15
100
AcDbLine
 10
15.6137348414
 20
38.5292300587
 30
0.0
 11
17.7990026985
 21
44.9578014872
 31
0.0
  0
LINE
  5
97
330
1F
100
AcDbEntity
  8
0
  6
Continuous
 62
     7
370
    15
100
AcDbLine
 10
17.7990026985
 20
44.9578014872
 30
0.0
 11
19.6561455557
 21
44.9578014872
 31
0.0
  0
LINE
  5
98
330
1F
100
AcDbEntity
  8
0
  6
Continuous
 62
     7
370
    15
100
AcDbLine
 10
19.6561455557
 20
44.9578014872
 30
0.0
 11
17.6003419843
 21
38.9109264872
 31
0.0
  0
SPLINE
  5
99
330
1F
100
AcDbEntity
  8
0
  6
Continuous
 62
     7
370
    15
100
AcDbSpline
210
0.0
220
0.0
230
1.0
 70
     8
 71
     3
 72
    23
 73
    19
 74
     0
 42
0.000000001
 43
0.00000001
 40
0.0
 40
0.0
 40
0.0
 40
0.0
 40
0.0800001656800676
 40
0.1543552546868214
 40
0.2238923417189111
 40
0.2882399266051234
 40
0.3488041855510132
 40
0.4045837205592004
 40
0.4565052907774728
 40
0.5050798374689704
 40
0.5536700483165344
 40
0.6047046367676111
 40
0.659576344109496
 40
0.7179556837023678
 40
0.7814670283967365
 40
0.8492557468798401
 40
0.922255173219466
 40
1.0
 40
1.0
 40
1.0
 40
1.0
 10
17.6003419842528
 20
38.91092648723275
 30
0.0
 10
17.56879858102238
 20
38.81968833202497
 30
0.0
 10
17.50793758157407
 20
38.64365008804717
 30
0.0
 10
17.40030533658142
 20
38.39582870649966
 30
0.0
 10
17.29601274467875
 20
38.16718329414896
 30
0.0
 10
17.1806468689376
 20
37.96268944547927
 30
0.0
 10
17.06162882971234
 20
37.77987525406591
 30
0.0
 10
16.93596861466451
 20
37.62011297526632
 30
0.0
 10
16.80634228009119
 20
37.4829096126205
 30
0.0
 10
16.6697234274705
 20
37.36526756081469
 30
0.0
 10
16.5190780649057
 20
37.26807355301435
 30
0.0
 10
16.35174480252882
 20
37.18537459715692
 30
0.0
 10
16.16649774036804
 20
37.11424194689299
 30
0.0
 10
15.96110175959923
 20
37.05602476437048
 30
0.0
 10
15.73627548559306
 20
37.01231087297099
 30
0.0
 10
15.49160329853656
 20
36.9821226175811
 30
0.0
 10
15.22867765847171
 20
36.96117713196678
 30
0.0
 10
15.04681459483883
 20
36.95895007129302
 30
0.0
 10
14.95302055568137
 20
36.95780148723274
 30
0.0
  0
LINE
  5
9A
330
1F
100
AcDbEntity
  8
0
  6
Continuous
 62
     7
370
    15
100
AcDbLine
 10
14.9530205557
 20
36.9578014872
 30
0.0
 11
9.9150741271
 21
36.9578014872
 31
0.0
  0
SPLINE
  5
9B
330
1F
100
AcDbEntity
  8
0
  6
Continuous
 62
     7
370
    15
100
AcDbSpline
210
0.0
220
0.0
230
1.0
 70
     8
 71
     3
 72
    23
 73
    19
 74
     0
 42
0.000000001
 43
0.00000001
 40
0.0
 40
0.0
 40
0.0
 40
0.0
 40
0.0879254013704573
 40
0.1675094396636957
 40
0.2382540154790063
 40
0.301352078029566
 40
0.3574037113732387
 40
0.406630127366992
 40
0.4505085274939512
 40
0.4910475365903223
 40
0.5319564863108046
 40
0.577209998948427
 40
0.6281945970500232
 40
0.6868115312969931
 40
0.7522341658967053
 40
0.8265142517128319
 40
0.9086840577216466
 40
1.0
 40
1.0
 40
1.0
 40
1.0
 10
9.915074127109937
 20
36.95780148723274
 30
0.0
 10
9.82350724014885
 20
36.95889081367152
 30
0.0
 10
9.649060292082321
 20
36.9609661236334
 30
0.0
 10
9.401698170369086
 20
36.98161689467869
 30
0.0
 10
9.181287286906224
 20
37.01128124309155
 30
0.0
 10
8.988287582728484
 20
37.05541420412391
 30
0.0
 10
8.82175595551248
 20
37.11182078991678
 30
0.0
 10
8.683501570361964
 20
37.18382282014855
 30
0.0
 10
8.570689838339122
 20
37.26651312001294
 30
0.0
 10
8.483874312974363
 20
37.36578627821262
 30
0.0
 10
8.425018076641065
 20
37.48512825693386
 30
0.0
 10
8.38717331308552
 20
37.62362265216653
 30
0.0
 10
8.37353615071109
 20
37.78495123242013
 30
0.0
 10
8.379667106524492
 20
37.9672779159046
 30
0.0
 10
8.402101955598384
 20
38.1727649629325
 30
0.0
 10
8.447575956862636
 20
38.39955100330896
 30
0.0
 10
8.5166044268856
 20
38.64824176365921
 30
0.0
 10
8.571465378749473
 20
38.8203405736609
 30
0.0
 10
8.600341984252797
 20
38.91092648723275
 30
0.0
  0
SPLINE
  5
9C
330
1F
100
AcDbEntity
  8
0
  6
Continuous
 62
     7
370
    15
100
AcDbSpline
210
0.0
220
0.0
230
1.0
 70
     8
 71
     3
 72
    23
 73
    19
 74
     0
 42
0.000000001
 43
0.00000001
 40
0.0
 40
0.0
 40
0.0
 40
0.0
 40
0.0885142988350905
 40
0.1679856408043295
 40
0.2393365529060225
 40
0.3030405373359269
 40
0.3590127978157991
 40
0.4081695059102651
 40
0.4519857712862955
 40
0.4920055799613287
 40
0.5325374708331012
 40
0.5777269014684562
 40
0.6286393019672427
 40
0.6871732307126639
 40
0.7525850188983273
 40
0.8267599191421021
 40
0.9088133672067912
 40
0.9999999999999999
 40
0.9999999999999999
 40
0.9999999999999999
 40
0.9999999999999999
 10
-3.79921158717578
 20
36.95780148723274
 30
0.0
 10
-3.891523736168192
 20
36.95886483507407
 30
0.0
 10
-4.066717074494312
 20
36.96088289510363
 30
0.0
 10
-4.315549249414542
 20
36.9817515430989
 30
0.0
 10
-4.537425397501108
 20
37.01135663185075
 30
0.0
 10
-4.732022568946941
 20
37.05507689200445
 30
0.0
 10
-4.899255640308467
 20
37.11180891094463
 30
0.0
 10
-5.037371535236201
 20
37.18393303883365
 30
0.0
 10
-5.150252603546075
 20
37.26585982967715
 30
0.0
 10
-5.235083922667921
 20
37.3660168011502
 30
0.0
 10
-5.291005228953678
 20
37.48569152996789
 30
0.0
 10
-5.329561794900647
 20
37.62354975897946
 30
0.0
 10
-5.342767202690734
 20
37.78495851749467
 30
0.0
 10
-5.337571755365642
 20
37.96743658413777
 30
0.0
 10
-5.3112570577236
 20
38.17257560920095
 30
0.0
 10
-5.267005019035007
 20
38.39958405899951
 30
0.0
 10
-5.197594373696344
 20
38.64823203333063
 30
0.0
 10
-5.142790363647696
 20
38.82033721819094
 30
0.0
 10
-5.113943730032923
 20
38.91092648723275
 30
0.0
  0
LINE
  5
9D
330
1F
100
AcDbEntity
  8
0
  6
Continuous
 62
     7
370
    15
100
AcDbLine
 10
-5.11394373
 20
38.9109264872
 30
0.0
 11
-3.6987651586
 21
43.0738729158
 31
0.0
  0
SPLINE
  5
9E
330
1F
100
AcDbEntity
  8
0
  6
Continuous
 62
     7
370
    15
100
AcDbSpline
210
0.0
220
0.0
230
1.0
 70
     8
 71
     3
 72
    23
 73
    19
 74
     0
 42
0.000000001
 43
0.00000001
 40
0.0
 40
0.0
 40
0.0
 40
0.0
 40
0.0782210941353418
 40
0.1512619335530462
 40
0.219362630384087
 40
0.2830498470207196
 40
0.3425622733137327
 40
0.3972013254968561
 40
0.4488221594280302
 40
0.4979675059554552
 40
0.5466636575451871
 40
0.5984453163616044
 40
0.6541962715392052
 40
0.7135788196871171
 40
0.7777491321212152
 40
0.84689990163103
 40
0.9206930781761092
 40
0.9999999999999999
 40
0.9999999999999999
 40
0.9999999999999999
 40
0.9999999999999999
 10
-3.698765158604351
 20
43.07387291580417
 30
0.0
 10
-3.668472416884841
 20
43.16128228698796
 30
0.0
 10
-3.609893094570737
 20
43.33031227361841
 30
0.0
 10
-3.509366553152261
 20
43.56965386523932
 30
0.0
 10
-3.401769235883612
 20
43.78679214907994
 30
0.0
 10
-3.290270620963918
 20
43.98371750885043
 30
0.0
 10
-3.175714010059191
 20
44.16032651387337
 30
0.0
 10
-3.05382312607128
 20
44.3142263479604
 30
0.0
 10
-2.926322653254282
 20
44.44697398716578
 30
0.0
 10
-2.790629450454713
 20
44.56081048992915
 30
0.0
 10
-2.641632846962718
 20
44.65716358305284
 30
0.0
 10
-2.474514461609
 20
44.73672837024042
 30
0.0
 10
-2.289422019054099
 20
44.80599258930039
 30
0.0
 10
-2.08438873651089
 20
44.86090986190235
 30
0.0
 10
-1.860836676787506
 20
44.90583057243794
 30
0.0
 10
-1.617626384677097
 20
44.93619521993379
 30
0.0
 10
-1.355275684497402
 20
44.95371963548781
 30
0.0
 10
-1.174239563909454
 20
44.95640858999167
 30
0.0
 10
-1.080461587175778
 20
44.95780148723274
 30
0.0
  0
LINE
  5
9F
330
1F
100
AcDbEntity
  8
0
  6
Continuous
 62
     7
370
    15
100
AcDbLine
 10
-1.0804615872
 20
44.9578014872
 30
0.0
 11
4.8123955557
 21
44.9578014872
 31
0.0
  0
SPLINE
  5
A0
330
1F
100
AcDbEntity
  8
0
  6
Continuous
 62
     7
370
    15
100
AcDbSpline
210
0.0
220
0.0
230
1.0
 70
     8
 71
     3
 72
    23
 73
    19
 74
     0
 42
0.000000001
 43
0.00000001
 40
0.0
 40
0.0
 40
0.0
 40
0.0
 40
0.0900888597726925
 40
0.1716428922875715
 40
0.244982275520877
 40
0.3098194757901764
 40
0.3665507910568219
 40
0.4168972622349372
 40
0.4610590926019282
 40
0.5017130228197515
 40
0.5426449871323187
 40
0.5874472211801769
 40
0.6371769557754157
 40
0.6945600842774914
 40
0.7588867635459714
 40
0.8305416317634199
 40
0.9108736776746511
 40
0.9999999999999999
 40
0.9999999999999999
 40
0.9999999999999999
 40
0.9999999999999999
 10
4.812395555681367
 20
44.95780148723275
 30
0.0
 10
4.904686396258475
 20
44.95643418563787
 30
0.0
 10
5.080524639169701
 20
44.95382911769754
 30
0.0
 10
5.331045095781932
 20
44.93666858554167
 30
0.0
 10
5.554391183716059
 20
44.90671716349182
 30
0.0
 10
5.749313033717248
 20
44.86232232630426
 30
0.0
 10
5.917126347065722
 20
44.80764883706336
 30
0.0
 10
6.056765640493469
 20
44.73908752237645
 30
0.0
 10
6.169906889717968
 20
44.6580154448851
 30
0.0
 10
6.257094239448036
 20
44.56118893294907
 30
0.0
 10
6.314942000964568
 20
44.4441845466138
 30
0.0
 10
6.356098347375731
 20
44.31096806060568
 30
0.0
 10
6.371779609377209
 20
44.15535273920554
 30
0.0
 10
6.368755884700998
 20
43.97948555585231
 30
0.0
 10
6.344537427418356
 20
43.78263441829164
 30
0.0
 10
6.304580247352925
 20
43.56452496353778
 30
0.0
 10
6.240656398013273
 20
43.32568335039575
 30
0.0
 10
6.186736677849939
 20
43.1606643569739
 30
0.0
 10
6.158377698538504
 20
43.07387291580417
 30
0.0
  0
LINE
  5
A1
330
1F
100
AcDbEntity
  8
0
  6
Continuous
 62
     7
370
    15
100
AcDbLine
 10
6.1583776985
 20
43.0738729158
 30
0.0
 11
4.7431991271
 21
38.9109264872
 31
0.0
  0
SPLINE
  5
A2
330
1F
100
AcDbEntity
  8
0
  6
Continuous
 62
     7
370
    15
100
AcDbSpline
210
0.0
220
0.0
230
1.0
 70
     8
 71
     3
 72
    23
 73
    19
 74
     0
 42
0.000000001
 43
0.00000001
 40
0.0
 40
0.0
 40
0.0
 40
0.0
 40
0.0799527251523016
 40
0.154263721192065
 40
0.2237595723582028
 40
0.288068998781098
 40
0.3485973427962659
 40
0.4043438002407151
 40
0.4562345806890832
 40
0.504780322413598
 40
0.5533417190052505
 40
0.6043460436713731
 40
0.6591852117962003
 40
0.7181229374962188
 40
0.781596619622192
 40
0.8493451390312802
 40
0.9223012763191557
 40
1.0
 40
1.0
 40
1.0
 40
1.0
 10
4.743199127109937
 20
38.91092648723274
 30
0.0
 10
4.711655723929801
 20
38.81968833184615
 30
0.0
 10
4.650794724578494
 20
38.64365008752335
 30
0.0
 10
4.543162478912067
 20
38.39582870837204
 30
0.0
 10
4.438869889314749
 20
38.16718328782277
 30
0.0
 10
4.323504005839615
 20
37.96268946665763
 30
0.0
 10
4.204485992709235
 20
37.77987518244245
 30
0.0
 10
4.078825690786025
 20
37.62011321259976
 30
0.0
 10
3.949199647312912
 20
37.48290881470768
 30
0.0
 10
3.812579790810175
 20
37.36527033303016
 30
0.0
 10
3.661938187023475
 20
37.268062957803
 30
0.0
 10
3.494589825164293
 20
37.18541770057274
 30
0.0
 10
3.308736328510756
 20
37.11380540512163
 30
0.0
 10
3.102358009855027
 20
37.05641693755508
 30
0.0
 10
2.876921826446122
 20
37.01223522079292
 30
0.0
 10
2.632221961899849
 20
36.98214508061793
 30
0.0
 10
2.369304415234522
 20
36.96117090433694
 30
0.0
 10
2.187440192588278
 20
36.95894795230334
 30
0.0
 10
2.093645555681368
 20
36.95780148723274
 30
0.0
  0
LINE
  5
A3
330
1F
100
AcDbEntity
  8
0
  6
Continuous
 62
     7
370
    15
100
AcDbLine
 10
2.0936455557
 20
36.9578014872
 30
0.0
 11
-3.7992115872
 21
36.9578014872
 31
0.0
  0
LINE
  5
A4
330
1F
100
AcDbEntity
  8
0
  6
Continuous
 62
     7
370
    15
100
AcDbLine
 10
-17.62956873
 20
44.9578014872
 30
0.0
 11
-18.11394373
 21
43.5292300587
 31
0.0
  0
LINE
  5
A5
330
1F
100
AcDbEntity
  8
0
  6
Continuous
 62
     7
370
    15
100
AcDbLine
 10
-18.11394373
 20
43.5292300587
 30
0.0
 11
-21.8282294443
 21
43.5292300587
 31
0.0
  0
LINE
  5
A6
330
1F
100
AcDbEntity
  8
0
  6
Continuous
 62
     7
370
    15
100
AcDbLine
 10
-21.8282294443
 20
43.5292300587
 30
0.0
 11
-24.0626044443
 21
36.9578014872
 31
0.0
  0
LINE
  5
A7
330
1F
100
AcDbEntity
  8
0
  6
Continuous
 62
     7
370
    15
100
AcDbLine
 10
-24.0626044443
 20
36.9578014872
 30
0.0
 11
-25.9197473015
 21
36.9578014872
 31
0.0
  0
LINE
  5
A8
330
1F
100
AcDbEntity
  8
0
  6
Continuous
 62
     7
370
    15
100
AcDbLine
 10
-25.9197473015
 20
36.9578014872
 30
0.0
 11
-23.6853723015
 21
43.5292300587
 31
0.0
  0
LINE
  5
A9
330
1F
100
AcDbEntity
  8
0
  6
Continuous
 62
     7
370
    15
100
AcDbLine
 10
-23.6853723015
 20
43.5292300587
 30
0.0
 11
-27.3996580157
 21
43.5292300587
 31
0.0
  0
LINE
  5
AA
330
1F
100
AcDbEntity
  8
0
  6
Continuous
 62
     7
370
    15
100
AcDbLine
 10
-27.3996580157
 20
43.5292300587
 30
0.0
 11
-26.9152830157
 21
44.9578014872
 31
0.0
  0
LINE
  5
AB
330
1F
100
AcDbEntity
  8
0
  6
Continuous
 62
     7
370
    15
100
AcDbLine
 10
-26.9152830157
 20
44.9578014872
 30
0.0
 11
-17.62956873
 21
44.9578014872
 31
0.0
  0
LINE
  5
AC
330
1F
100
AcDbEntity
  8
0
  6
Continuous
 62
     7
370
    15
100
AcDbLine
 10
108.6333333333
 20
641.0
 30
0.0
 11
108.6333333333
 21
647.0
 31
0.0
  0
LINE
  5
AD
330
1F
100
AcDbEntity
  8
0
  6
Continuous
 62
     7
370
    15
100
AcDbLine
 10
108.6333333333
 20
647.0
 30
0.0
 11
119.4333333333
 21
647.0
 31
0.0
  0
LINE
  5
AE
330
1F
100
AcDbEntity
  8
0
  6
Continuous
 62
     7
370
    15
100
AcDbLine
 10
119.4333333333
 20
647.0
 30
0.0
 11
119.4333333333
 21
641.0
 31
0.0
  0
LINE
  5
AF
330
1F
100
AcDbEntity
  8
0
  6
Continuous
 62
     7
370
    15
100
AcDbLine
 10
119.4333333333
 20
641.0
 30
0.0
 11
108.6333333333
 21
641.0
 31
0.0
  0
LINE
  5
B0
330
1F
100
AcDbEntity
  8
0
  6
Continuous
 62
     7
370
    15
100
AcDbLine
 10
108.6333333333
 20
125.0
 30
0.0
 11
108.6333333333
 21
131.0
 31
0.0
  0
LINE
  5
B1
330
1F
100
AcDbEntity
  8
0
  6
Continuous
 62
     7
370
    15
100
AcDbLine
 10
108.6333333333
 20
131.0
 30
0.0
 11
119.4333333333
 21
131.0
 31
0.0
  0
LINE
  5
B2
330
1F
100
AcDbEntity
  8
0
  6
Continuous
 62
     7
370
    15
100
AcDbLine
 10
119.4333333333
 20
131.0
 30
0.0
 11
119.4333333333
 21
125.0
 31
0.0
  0
LINE
  5
B3
330
1F
100
AcDbEntity
  8
0
  6
Continuous
 62
     7
370
    15
100
AcDbLine
 10
119.4333333333
 20
125.0
 30
0.0
 11
108.6333333333
 21
125.0
 31
0.0
  0
LINE
  5
B4
330
1F
100
AcDbEntity
  8
0
  6
Continuous
 62
     7
370
    15
100
AcDbLine
 10
108.6333333333
 20
19.0
 30
0.0
 11
108.6333333333
 21
25.0
 31
0.0
  0
LINE
  5
B5
330
1F
100
AcDbEntity
  8
0
  6
Continuous
 62
     7
370
    15
100
AcDbLine
 10
108.6333333333
 20
25.0
 30
0.0
 11
119.4333333333
 21
25.0
 31
0.0
  0
LINE
  5
B6
330
1F
100
AcDbEntity
  8
0
  6
Continuous
 62
     7
370
    15
100
AcDbLine
 10
119.4333333333
 20
25.0
 30
0.0
 11
119.4333333333
 21
19.0
 31
0.0
  0
LINE
  5
B7
330
1F
100
AcDbEntity
  8
0
  6
Continuous
 62
     7
370
    15
100
AcDbLine
 10
119.4333333333
 20
19.0
 30
0.0
 11
108.6333333333
 21
19.0
 31
0.0
  0
LINE
  5
B8
330
1F
100
AcDbEntity
  8
0
  6
Continuous
 62
     7
370
    15
100
AcDbLine
 10
208.55
 20
557.9333333333
 30
0.0
 11
208.55
 21
568.7333333333
 31
0.0
  0
LINE
  5
B9
330
1F
100
AcDbEntity
  8
0
  6
Continuous
 62
     7
370
    15
100
AcDbLine
 10
208.55
 20
568.7333333333
 30
0.0
 11
214.55
 21
568.7333333333
 31
0.0
  0
LINE
  5
BA
330
1F
100
AcDbEntity
  8
0
  6
Continuous
 62
     7
370
    15
100
AcDbLine
 10
214.55
 20
568.7333333333
 30
0.0
 11
214.55
 21
557.9333333333
 31
0.0
  0
LINE
  5
BB
330
1F
100
AcDbEntity
  8
0
  6
Continuous
 62
     7
370
    15
100
AcDbLine
 10
214.55
 20
557.9333333333
 30
0.0
 11
208.55
 21
557.9333333333
 31
0.0
  0
LINE
  5
BC
330
1F
100
AcDbEntity
  8
0
  6
Continuous
 62
     7
370
    15
100
AcDbLine
 10
208.55
 20
507.9333333333
 30
0.0
 11
208.55
 21
518.7333333333
 31
0.0
  0
LINE
  5
BD
330
1F
100
AcDbEntity
  8
0
  6
Continuous
 62
     7
370
    15
100
AcDbLine
 10
208.55
 20
518.7333333333
 30
0.0
 11
214.55
 21
518.7333333333
 31
0.0
  0
LINE
  5
BE
330
1F
100
AcDbEntity
  8
0
  6
Continuous
 62
     7
370
    15
100
AcDbLine
 10
214.55
 20
518.7333333333
 30
0.0
 11
214.55
 21
507.9333333333
 31
0.0
  0
LINE
  5
BF
330
1F
100
AcDbEntity
  8
0
  6
Continuous
 62
     7
370
    15
100
AcDbLine
 10
214.55
 20
507.9333333333
 30
0.0
 11
208.55
 21
507.9333333333
 31
0.0
  0
CIRCLE
  5
C0
330
1F
100
AcDbEntity
  8
0
  6
Continuous
 62
     7
370
    15
100
AcDbCircle
 10
211.55
 20
538.3333333333
 30
0.0
 40
1.5
  0
LINE
  5
C1
330
1F
100
AcDbEntity
  8
0
  6
Continuous
 62
     7
370
    15
100
AcDbLine
 10
208.55
 20
352.6
 30
0.0
 11
208.55
 21
363.4
 31
0.0
  0
LINE
  5
C2
330
1F
100
AcDbEntity
  8
0
  6
Continuous
 62
     7
370
    15
100
AcDbLine
 10
208.55
 20
363.4
 30
0.0
 11
214.55
 21
363.4
 31
0.0
  0
LINE
  5
C3
330
1F
100
AcDbEntity
  8
0
  6
Continuous
 62
     7
370
    15
100
AcDbLine
 10
214.55
 20
363.4
 30
0.0
 11
214.55
 21
352.6
 31
0.0
  0
LINE
  5
C4
330
1F
100
AcDbEntity
  8
0
  6
Continuous
 62
     7
370
    15
100
AcDbLine
 10
214.55
 20
352.6
 30
0.0
 11
208.55
 21
352.6
 31
0.0
  0
LINE
  5
C5
330
1F
100
AcDbEntity
  8
0
  6
Continuous
 62
     7
370
    15
100
AcDbLine
 10
208.55
 20
302.6
 30
0.0
 11
208.55
 21
313.4
 31
0.0
  0
LINE
  5
C6
330
1F
100
AcDbEntity
  8
0
  6
Continuous
 62
     7
370
    15
100
AcDbLine
 10
208.55
 20
313.4
 30
0.0
 11
214.55
 21
313.4
 31
0.0
  0
LINE
  5
C7
330
1F
100
AcDbEntity
  8
0
  6
Continuous
 62
     7
370
    15
100
AcDbLine
 10
214.55
 20
313.4
 30
0.0
 11
214.55
 21
302.6
 31
0.0
  0
LINE
  5
C8
330
1F
100
AcDbEntity
  8
0
  6
Continuous
 62
     7
370
    15
100
AcDbLine
 10
214.55
 20
302.6
 30
0.0
 11
208.55
 21
302.6
 31
0.0
  0
CIRCLE
  5
C9
330
1F
100
AcDbEntity
  8
0
  6
Continuous
 62
     7
370
    15
100
AcDbCircle
 10
211.55
 20
333.0
 30
0.0
 40
1.5
  0
LINE
  5
CA
330
1F
100
AcDbEntity
  8
0
  6
Continuous
 62
     7
370
    15
100
AcDbLine
 10
208.55
 20
147.2666666667
 30
0.0
 11
208.55
 21
158.0666666667
 31
0.0
  0
LINE
  5
CB
330
1F
100
AcDbEntity
  8
0
  6
Continuous
 62
     7
370
    15
100
AcDbLine
 10
208.55
 20
158.0666666667
 30
0.0
 11
214.55
 21
158.0666666667
 31
0.0
  0
LINE
  5
CC
330
1F
100
AcDbEntity
  8
0
  6
Continuous
 62
     7
370
    15
100
AcDbLine
 10
214.55
 20
158.0666666667
 30
0.0
 11
214.55
 21
147.2666666667
 31
0.0
  0
LINE
  5
CD
330
1F
100
AcDbEntity
  8
0
  6
Continuous
 62
     7
370
    15
100
AcDbLine
 10
214.55
 20
147.2666666667
 30
0.0
 11
208.55
 21
147.2666666667
 31
0.0
  0
LINE
  5
CE
330
1F
100
AcDbEntity
  8
0
  6
Continuous
 62
     7
370
    15
100
AcDbLine
 10
208.55
 20
97.2666666667
 30
0.0
 11
208.55
 21
108.0666666667
 31
0.0
  0
LINE
  5
CF
330
1F
100
AcDbEntity
  8
0
  6
Continuous
 62
     7
370
    15
100
AcDbLine
 10
208.55
 20
108.0666666667
 30
0.0
 11
214.55
 21
108.0666666667
 31
0.0
  0
LINE
  5
D0
330
1F
100
AcDbEntity
  8
0
  6
Continuous
 62
     7
370
    15
100
AcDbLine
 10
214.55
 20
108.0666666667
 30
0.0
 11
214.55
 21
97.2666666667
 31
0.0
  0
LINE
  5
D1
330
1F
100
AcDbEntity
  8
0
  6
Continuous
 62
     7
370
    15
100
AcDbLine
 10
214.55
 20
97.2666666667
 30
0.0
 11
208.55
 21
97.2666666667
 31
0.0
  0
CIRCLE
  5
D2
330
1F
100
AcDbEntity
  8
0
  6
Continuous
 62
     7
370
    15
100
AcDbCircle
 10
211.55
 20
127.6666666667
 30
0.0
 40
1.5
  0
LINE
  5
D3
330
1F
100
AcDbEntity
  8
0
  6
Continuous
 62
     7
370
    15
100
AcDbLine
 10
158.6333333333
 20
125.0
 30
0.0
 11
158.6333333333
 21
131.0
 31
0.0
  0
LINE
  5
D4
330
1F
100
AcDbEntity
  8
0
  6
Continuous
 62
     7
370
    15
100
AcDbLine
 10
158.6333333333
 20
131.0
 30
0.0
 11
169.4333333333
 21
131.0
 31
0.0
  0
LINE
  5
D5
330
1F
100
AcDbEntity
  8
0
  6
Continuous
 62
     7
370
    15
100
AcDbLine
 10
169.4333333333
 20
131.0
 30
0.0
 11
169.4333333333
 21
125.0
 31
0.0
  0
LINE
  5
D6
330
1F
100
AcDbEntity
  8
0
  6
Continuous
 62
     7
370
    15
100
AcDbLine
 10
169.4333333333
 20
125.0
 30
0.0
 11
158.6333333333
 21
125.0
 31
0.0
  0
CIRCLE
  5
D7
330
1F
100
AcDbEntity
  8
0
  6
Continuous
 62
     7
370
    15
100
AcDbCircle
 10
139.0333333333
 20
128.0
 30
0.0
 40
1.5
  0
CIRCLE
  5
D8
330
1F
100
AcDbEntity
  8
0
  6
Continuous
 62
     7
370
    15
100
AcDbCircle
 10
139.0333333333
 20
644.0
 30
0.0
 40
1.5
  0
LINE
  5
D9
330
1F
100
AcDbEntity
  8
0
  6
Continuous
 62
     7
370
    15
100
AcDbLine
 10
19.6
 20
641.0
 30
0.0
 11
19.6
 21
647.0
 31
0.0
  0
LINE
  5
DA
330
1F
100
AcDbEntity
  8
0
  6
Continuous
 62
     7
370
    15
100
AcDbLine
 10
19.6
 20
647.0
 30
0.0
 11
30.4
 21
647.0
 31
0.0
  0
LINE
  5
DB
330
1F
100
AcDbEntity
  8
0
  6
Continuous
 62
     7
370
    15
100
AcDbLine
 10
30.4
 20
647.0
 30
0.0
 11
30.4
 21
641.0
 31
0.0
  0
LINE
  5
DC
330
1F
100
AcDbEntity
  8
0
  6
Continuous
 62
     7
370
    15
100
AcDbLine
 10
30.4
 20
641.0
 30
0.0
 11
19.6
 21
641.0
 31
0.0
  0
LINE
  5
DD
330
1F
100
AcDbEntity
  8
0
  6
Continuous
 62
     7
370
    15
100
AcDbLine
 10
19.6
 20
125.0
 30
0.0
 11
19.6
 21
131.0
 31
0.0
  0
LINE
  5
DE
330
1F
100
AcDbEntity
  8
0
  6
Continuous
 62
     7
370
    15
100
AcDbLine
 10
19.6
 20
131.0
 30
0.0
 11
30.4
 21
131.0
 31
0.0
  0
LINE
  5
DF
330
1F
100
AcDbEntity
  8
0
  6
Continuous
 62
     7
370
    15
100
AcDbLine
 10
30.4
 20
131.0
 30
0.0
 11
30.4
 21
125.0
 31
0.0
  0
LINE
  5
E0
330
1F
100
AcDbEntity
  8
0
  6
Continuous
 62
     7
370
    15
100
AcDbLine
 10
30.4
 20
125.0
 30
0.0
 11
19.6
 21
125.0
 31
0.0
  0
LINE
  5
E1
330
1F
100
AcDbEntity
  8
0
  6
Continuous
 62
     7
370
    15
100
AcDbLine
 10
158.6333333333
 20
19.0
 30
0.0
 11
158.6333333333
 21
25.0
 31
0.0
  0
LINE
  5
E2
330
1F
100
AcDbEntity
  8
0
  6
Continuous
 62
     7
370
    15
100
AcDbLine
 10
158.6333333333
 20
25.0
 30
0.0
 11
169.4333333333
 21
25.0
 31
0.0
  0
LINE
  5
E3
330
1F
100
AcDbEntity
  8
0
  6
Continuous
 62
     7
370
    15
100
AcDbLine
 10
169.4333333333
 20
25.0
 30
0.0
 11
169.4333333333
 21
19.0
 31
0.0
  0
LINE
  5
E4
330
1F
100
AcDbEntity
  8
0
  6
Continuous
 62
     7
370
    15
100
AcDbLine
 10
169.4333333333
 20
19.0
 30
0.0
 11
158.6333333333
 21
19.0
 31
0.0
  0
LINE
  5
E5
330
1F
100
AcDbEntity
  8
0
  6
Continuous
 62
     7
370
    15
100
AcDbLine
 10
19.6
 20
19.0
 30
0.0
 11
19.6
 21
25.0
 31
0.0
  0
LINE
  5
E6
330
1F
100
AcDbEntity
  8
0
  6
Continuous
 62
     7
370
    15
100
AcDbLine
 10
19.6
 20
25.0
 30
0.0
 11
30.4
 21
25.0
 31
0.0
  0
LINE
  5
E7
330
1F
100
AcDbEntity
  8
0
  6
Continuous
 62
     7
370
    15
100
AcDbLine
 10
30.4
 20
25.0
 30
0.0
 11
30.4
 21
19.0
 31
0.0
  0
LINE
  5
E8
330
1F
100
AcDbEntity
  8
0
  6
Continuous
 62
     7
370
    15
100
AcDbLine
 10
30.4
 20
19.0
 30
0.0
 11
19.6
 21
19.0
 31
0.0
  0
LINE
  5
E9
330
1F
100
AcDbEntity
  8
0
  6
Continuous
 62
     7
370
    15
100
AcDbLine
 10
169.4333333333
 20
647.0
 30
0.0
 11
169.4333333333
 21
641.0
 31
0.0
  0
LINE
  5
EA
330
1F
100
AcDbEntity
  8
0
  6
Continuous
 62
     7
370
    15
100
AcDbLine
 10
169.4333333333
 20
641.0
 30
0.0
 11
158.6333333333
 21
641.0
 31
0.0
  0
LINE
  5
EB
330
1F
100
AcDbEntity
  8
0
  6
Continuous
 62
     7
370
    15
100
AcDbLine
 10
158.6333333333
 20
641.0
 30
0.0
 11
158.6333333333
 21
647.0
 31
0.0
  0
LINE
  5
EC
330
1F
100
AcDbEntity
  8
0
  6
Continuous
 62
     7
370
    15
100
AcDbLine
 10
158.6333333333
 20
647.0
 30
0.0
 11
169.4333333333
 21
647.0
 31
0.0
  0
LINE
  5
ED
330
1F
100
AcDbEntity
  8
0
  6
Continuous
 62
     7
370
    15
100
AcDbLine
 10
-169.4333333333
 20
641.0
 30
0.0
 11
-158.6333333333
 21
641.0
 31
0.0
  0
LINE
  5
EE
330
1F
100
AcDbEntity
  8
0
  6
Continuous
 62
     7
370
    15
100
AcDbLine
 10
-169.4333333333
 20
647.0
 30
0.0
 11
-169.4333333333
 21
641.0
 31
0.0
  0
LINE
  5
EF
330
1F
100
AcDbEntity
  8
0
  6
Continuous
 62
     7
370
    15
100
AcDbLine
 10
-158.6333333333
 20
647.0
 30
0.0
 11
-169.4333333333
 21
647.0
 31
0.0
  0
LINE
  5
F0
330
1F
100
AcDbEntity
  8
0
  6
Continuous
 62
     7
370
    15
100
AcDbLine
 10
-158.6333333333
 20
641.0
 30
0.0
 11
-158.6333333333
 21
647.0
 31
0.0
  0
LINE
  5
F1
330
1F
100
AcDbEntity
  8
0
  6
Continuous
 62
     7
370
    15
100
AcDbLine
 10
-19.6
 20
25.0
 30
0.0
 11
-30.4
 21
25.0
 31
0.0
  0
LINE
  5
F2
330
1F
100
AcDbEntity
  8
0
  6
Continuous
 62
     7
370
    15
100
AcDbLine
 10
-19.6
 20
19.0
 30
0.0
 11
-19.6
 21
25.0
 31
0.0
  0
LINE
  5
F3
330
1F
100
AcDbEntity
  8
0
  6
Continuous
 62
     7
370
    15
100
AcDbLine
 10
-30.4
 20
19.0
 30
0.0
 11
-19.6
 21
19.0
 31
0.0
  0
LINE
  5
F4
330
1F
100
AcDbEntity
  8
0
  6
Continuous
 62
     7
370
    15
100
AcDbLine
 10
-30.4
 20
25.0
 30
0.0
 11
-30.4
 21
19.0
 31
0.0
  0
LINE
  5
F5
330
1F
100
AcDbEntity
  8
0
  6
Continuous
 62
     7
370
    15
100
AcDbLine
 10
-158.6333333333
 20
25.0
 30
0.0
 11
-169.4333333333
 21
25.0
 31
0.0
  0
LINE
  5
F6
330
1F
100
AcDbEntity
  8
0
  6
Continuous
 62
     7
370
    15
100
AcDbLine
 10
-158.6333333333
 20
19.0
 30
0.0
 11
-158.6333333333
 21
25.0
 31
0.0
  0
LINE
  5
F7
330
1F
100
AcDbEntity
  8
0
  6
Continuous
 62
     7
370
    15
100
AcDbLine
 10
-169.4333333333
 20
19.0
 30
0.0
 11
-158.6333333333
 21
19.0
 31
0.0
  0
LINE
  5
F8
330
1F
100
AcDbEntity
  8
0
  6
Continuous
 62
     7
370
    15
100
AcDbLine
 10
-169.4333333333
 20
25.0
 30
0.0
 11
-169.4333333333
 21
19.0
 31
0.0
  0
LINE
  5
F9
330
1F
100
AcDbEntity
  8
0
  6
Continuous
 62
     7
370
    15
100
AcDbLine
 10
-19.6
 20
131.0
 30
0.0
 11
-30.4
 21
131.0
 31
0.0
  0
LINE
  5
FA
330
1F
100
AcDbEntity
  8
0
  6
Continuous
 62
     7
370
    15
100
AcDbLine
 10
-19.6
 20
125.0
 30
0.0
 11
-19.6
 21
131.0
 31
0.0
  0
LINE
  5
FB
330
1F
100
AcDbEntity
  8
0
  6
Continuous
 62
     7
370
    15
100
AcDbLine
 10
-30.4
 20
125.0
 30
0.0
 11
-19.6
 21
125.0
 31
0.0
  0
LINE
  5
FC
330
1F
100
AcDbEntity
  8
0
  6
Continuous
 62
     7
370
    15
100
AcDbLine
 10
-30.4
 20
131.0
 30
0.0
 11
-30.4
 21
125.0
 31
0.0
  0
LINE
  5
FD
330
1F
100
AcDbEntity
  8
0
  6
Continuous
 62
     7
370
    15
100
AcDbLine
 10
-19.6
 20
647.0
 30
0.0
 11
-30.4
 21
647.0
 31
0.0
  0
LINE
  5
FE
330
1F
100
AcDbEntity
  8
0
  6
Continuous
 62
     7
370
    15
100
AcDbLine
 10
-19.6
 20
641.0
 30
0.0
 11
-19.6
 21
647.0
 31
0.0
  0
LINE
  5
FF
330
1F
100
AcDbEntity
  8
0
  6
Continuous
 62
     7
370
    15
100
AcDbLine
 10
-30.4
 20
641.0
 30
0.0
 11
-19.6
 21
641.0
 31
0.0
  0
LINE
  5
100
330
1F
100
AcDbEntity
  8
0
  6
Continuous
 62
     7
370
    15
100
AcDbLine
 10
-30.4
 20
647.0
 30
0.0
 11
-30.4
 21
641.0
 31
0.0
  0
CIRCLE
  5
101
330
1F
100
AcDbEntity
  8
0
  6
Continuous
 62
     7
370
    15
100
AcDbCircle
 10
-139.0333333333
 20
644.0
 30
0.0
 40
1.5
  0
LINE
  5
102
330
1F
100
AcDbEntity
  8
0
  6
Continuous
 62
     7
370
    15
100
AcDbLine
 10
-158.6333333333
 20
131.0
 30
0.0
 11
-169.4333333333
 21
131.0
 31
0.0
  0
LINE
  5
103
330
1F
100
AcDbEntity
  8
0
  6
Continuous
 62
     7
370
    15
100
AcDbLine
 10
-158.6333333333
 20
125.0
 30
0.0
 11
-158.6333333333
 21
131.0
 31
0.0
  0
LINE
  5
104
330
1F
100
AcDbEntity
  8
0
  6
Continuous
 62
     7
370
    15
100
AcDbLine
 10
-169.4333333333
 20
125.0
 30
0.0
 11
-158.6333333333
 21
125.0
 31
0.0
  0
LINE
  5
105
330
1F
100
AcDbEntity
  8
0
  6
Continuous
 62
     7
370
    15
100
AcDbLine
 10
-169.4333333333
 20
131.0
 30
0.0
 11
-169.4333333333
 21
125.0
 31
0.0
  0
CIRCLE
  5
106
330
1F
100
AcDbEntity
  8
0
  6
Continuous
 62
     7
370
    15
100
AcDbCircle
 10
-211.55
 20
127.6666666667
 30
0.0
 40
1.5
  0
LINE
  5
107
330
1F
100
AcDbEntity
  8
0
  6
Continuous
 62
     7
370
    15
100
AcDbLine
 10
-208.55
 20
313.4
 30
0.0
 11
-214.55
 21
313.4
 31
0.0
  0
LINE
  5
108
330
1F
100
AcDbEntity
  8
0
  6
Continuous
 62
     7
370
    15
100
AcDbLine
 10
-208.55
 20
302.6
 30
0.0
 11
-208.55
 21
313.4
 31
0.0
  0
LINE
  5
109
330
1F
100
AcDbEntity
  8
0
  6
Continuous
 62
     7
370
    15
100
AcDbLine
 10
-214.55
 20
302.6
 30
0.0
 11
-208.55
 21
302.6
 31
0.0
  0
LINE
  5
10A
330
1F
100
AcDbEntity
  8
0
  6
Continuous
 62
     7
370
    15
100
AcDbLine
 10
-214.55
 20
313.4
 30
0.0
 11
-214.55
 21
302.6
 31
0.0
  0
LINE
  5
10B
330
1F
100
AcDbEntity
  8
0
  6
Continuous
 62
     7
370
    15
100
AcDbLine
 10
-208.55
 20
363.4
 30
0.0
 11
-214.55
 21
363.4
 31
0.0
  0
LINE
  5
10C
330
1F
100
AcDbEntity
  8
0
  6
Continuous
 62
     7
370
    15
100
AcDbLine
 10
-208.55
 20
352.6
 30
0.0
 11
-208.55
 21
363.4
 31
0.0
  0
LINE
  5
10D
330
1F
100
AcDbEntity
  8
0
  6
Continuous
 62
     7
370
    15
100
AcDbLine
 10
-214.55
 20
352.6
 30
0.0
 11
-208.55
 21
352.6
 31
0.0
  0
LINE
  5
10E
330
1F
100
AcDbEntity
  8
0
  6
Continuous
 62
     7
370
    15
100
AcDbLine
 10
-214.55
 20
363.4
 30
0.0
 11
-214.55
 21
352.6
 31
0.0
  0
CIRCLE
  5
10F
330
1F
100
AcDbEntity
  8
0
  6
Continuous
 62
     7
370
    15
100
AcDbCircle
 10
-211.55
 20
538.3333333333
 30
0.0
 40
1.5
  0
CIRCLE
  5
110
330
1F
100
AcDbEntity
  8
0
  6
Continuous
 62
     7
370
    15
100
AcDbCircle
 10
0.0
 20
644.0
 30
0.0
 40
1.499999999999946
  0
LINE
  5
111
330
1F
100
AcDbEntity
  8
0
  6
Continuous
 62
     7
370
    15
100
AcDbLine
 10
-108.6333333333
 20
647.0
 30
0.0
 11
-119.4333333333
 21
647.0
 31
0.0
  0
LINE
  5
112
330
1F
100
AcDbEntity
  8
0
  6
Continuous
 62
     7
370
    15
100
AcDbLine
 10
-108.6333333333
 20
641.0
 30
0.0
 11
-108.6333333333
 21
647.0
 31
0.0
  0
LINE
  5
113
330
1F
100
AcDbEntity
  8
0
  6
Continuous
 62
     7
370
    15
100
AcDbLine
 10
-119.4333333333
 20
641.0
 30
0.0
 11
-108.6333333333
 21
641.0
 31
0.0
  0
LINE
  5
114
330
1F
100
AcDbEntity
  8
0
  6
Continuous
 62
     7
370
    15
100
AcDbLine
 10
-119.4333333333
 20
647.0
 30
0.0
 11
-119.4333333333
 21
641.0
 31
0.0
  0
LINE
  5
115
330
1F
100
AcDbEntity
  8
0
  6
Continuous
 62
     7
370
    15
100
AcDbLine
 10
-108.6333333333
 20
131.0
 30
0.0
 11
-119.4333333333
 21
131.0
 31
0.0
  0
LINE
  5
116
330
1F
100
AcDbEntity
  8
0
  6
Continuous
 62
     7
370
    15
100
AcDbLine
 10
-108.6333333333
 20
125.0
 30
0.0
 11
-108.6333333333
 21
131.0
 31
0.0
  0
LINE
  5
117
330
1F
100
AcDbEntity
  8
0
  6
Continuous
 62
     7
370
    15
100
AcDbLine
 10
-119.4333333333
 20
125.0
 30
0.0
 11
-108.6333333333
 21
125.0
 31
0.0
  0
LINE
  5
118
330
1F
100
AcDbEntity
  8
0
  6
Continuous
 62
     7
370
    15
100
AcDbLine
 10
-119.4333333333
 20
131.0
 30
0.0
 11
-119.4333333333
 21
125.0
 31
0.0
  0
LINE
  5
119
330
1F
100
AcDbEntity
  8
0
  6
Continuous
 62
     7
370
    15
100
AcDbLine
 10
-108.6333333333
 20
25.0
 30
0.0
 11
-119.4333333333
 21
25.0
 31
0.0
  0
LINE
  5
11A
330
1F
100
AcDbEntity
  8
0
  6
Continuous
 62
     7
370
    15
100
AcDbLine
 10
-108.6333333333
 20
19.0
 30
0.0
 11
-108.6333333333
 21
25.0
 31
0.0
  0
LINE
  5
11B
330
1F
100
AcDbEntity
  8
0
  6
Continuous
 62
     7
370
    15
100
AcDbLine
 10
-119.4333333333
 20
19.0
 30
0.0
 11
-108.6333333333
 21
19.0
 31
0.0
  0
LINE
  5
11C
330
1F
100
AcDbEntity
  8
0
  6
Continuous
 62
     7
370
    15
100
AcDbLine
 10
-119.4333333333
 20
25.0
 30
0.0
 11
-119.4333333333
 21
19.0
 31
0.0
  0
LINE
  5
11D
330
1F
100
AcDbEntity
  8
0
  6
Continuous
 62
     7
370
    15
100
AcDbLine
 10
-208.55
 20
568.7333333333
 30
0.0
 11
-214.55
 21
568.7333333333
 31
0.0
  0
LINE
  5
11E
330
1F
100
AcDbEntity
  8
0
  6
Continuous
 62
     7
370
    15
100
AcDbLine
 10
-208.55
 20
557.9333333333
 30
0.0
 11
-208.55
 21
568.7333333333
 31
0.0
  0
LINE
  5
11F
330
1F
100
AcDbEntity
  8
0
  6
Continuous
 62
     7
370
    15
100
AcDbLine
 10
-214.55
 20
557.9333333333
 30
0.0
 11
-208.55
 21
557.9333333333
 31
0.0
  0
LINE
  5
120
330
1F
100
AcDbEntity
  8
0
  6
Continuous
 62
     7
370
    15
100
AcDbLine
 10
-214.55
 20
568.7333333333
 30
0.0
 11
-214.55
 21
557.9333333333
 31
0.0
  0
LINE
  5
121
330
1F
100
AcDbEntity
  8
0
  6
Continuous
 62
     7
370
    15
100
AcDbLine
 10
-208.55
 20
518.7333333333
 30
0.0
 11
-214.55
 21
518.7333333333
 31
0.0
  0
LINE
  5
122
330
1F
100
AcDbEntity
  8
0
  6
Continuous
 62
     7
370
    15
100
AcDbLine
 10
-208.55
 20
507.9333333333
 30
0.0
 11
-208.55
 21
518.7333333333
 31
0.0
  0
LINE
  5
123
330
1F
100
AcDbEntity
  8
0
  6
Continuous
 62
     7
370
    15
100
AcDbLine
 10
-214.55
 20
507.9333333333
 30
0.0
 11
-208.55
 21
507.9333333333
 31
0.0
  0
LINE
  5
124
330
1F
100
AcDbEntity
  8
0
  6
Continuous
 62
     7
370
    15
100
AcDbLine
 10
-214.55
 20
518.7333333333
 30
0.0
 11
-214.55
 21
507.9333333333
 31
0.0
  0
CIRCLE
  5
125
330
1F
100
AcDbEntity
  8
0
  6
Continuous
 62
     7
370
    15
100
AcDbCircle
 10
-211.55
 20
333.0
 30
0.0
 40
1.5
  0
LINE
  5
126
330
1F
100
AcDbEntity
  8
0
  6
Continuous
 62
     7
370
    15
100
AcDbLine
 10
-208.55
 20
158.0666666667
 30
0.0
 11
-214.55
 21
158.0666666667
 31
0.0
  0
LINE
  5
127
330
1F
100
AcDbEntity
  8
0
  6
Continuous
 62
     7
370
    15
100
AcDbLine
 10
-208.55
 20
147.2666666667
 30
0.0
 11
-208.55
 21
158.0666666667
 31
0.0
  0
LINE
  5
128
330
1F
100
AcDbEntity
  8
0
  6
Continuous
 62
     7
370
    15
100
AcDbLine
 10
-214.55
 20
147.2666666667
 30
0.0
 11
-208.55
 21
147.2666666667
 31
0.0
  0
LINE
  5
129
330
1F
100
AcDbEntity
  8
0
  6
Continuous
 62
     7
370
    15
100
AcDbLine
 10
-214.55
 20
158.0666666667
 30
0.0
 11
-214.55
 21
147.2666666667
 31
0.0
  0
LINE
  5
12A
330
1F
100
AcDbEntity
  8
0
  6
Continuous
 62
     7
370
    15
100
AcDbLine
 10
-208.55
 20
108.0666666667
 30
0.0
 11
-214.55
 21
108.0666666667
 31
0.0
  0
LINE
  5
12B
330
1F
100
AcDbEntity
  8
0
  6
Continuous
 62
     7
370
    15
100
AcDbLine
 10
-208.55
 20
97.2666666667
 30
0.0
 11
-208.55
 21
108.0666666667
 31
0.0
  0
LINE
  5
12C
330
1F
100
AcDbEntity
  8
0
  6
Continuous
 62
     7
370
    15
100
AcDbLine
 10
-214.55
 20
97.2666666667
 30
0.0
 11
-208.55
 21
97.2666666667
 31
0.0
  0
LINE
  5
12D
330
1F
100
AcDbEntity
  8
0
  6
Continuous
 62
     7
370
    15
100
AcDbLine
 10
-214.55
 20
108.0666666667
 30
0.0
 11
-214.55
 21
97.2666666667
 31
0.0
  0
CIRCLE
  5
12E
330
1F
100
AcDbEntity
  8
0
  6
Continuous
 62
     7
370
    15
100
AcDbCircle
 10
-139.0333333333
 20
128.0
 30
0.0
 40
1.5
  0
CIRCLE
  5
12F
330
1F
100
AcDbEntity
  8
0
  6
Continuous
 62
     7
370
    15
100
AcDbCircle
 10
-189.65
 20
568.9
 30
0.0
 40
8.0
  0
CIRCLE
  5
130
330
1F
100
AcDbEntity
  8
0
  6
Continuous
 62
     7
370
    15
100
AcDbCircle
 10
-189.65
 20
587.15
 30
0.0
 40
2.425000000000097
  0
CIRCLE
  5
131
330
1F
100
AcDbEntity
  8
0
  6
Continuous
 62
     7
370
    15
100
AcDbCircle
 10
-189.65
 20
550.65
 30
0.0
 40
2.425000000000097
  0
ARC
  5
132
330
1F
100
AcDbEntity
  8
0
  6
Continuous
 62
     7
370
    15
100
AcDbCircle
 10
-169.65
 20
580.9
 30
0.0
 40
1.5
100
AcDbArc
 50
90.0
 51
270.0
  0
LINE
  5
133
330
1F
100
AcDbEntity
  8
0
  6
Continuous
 62
     7
370
    15
100
AcDbLine
 10
-143.65
 20
582.4
 30
0.0
 11
-169.65
 21
582.4
 31
0.0
  0
ARC
  5
134
330
1F
100
AcDbEntity
  8
0
  6
Continuous
 62
     7
370
    15
100
AcDbCircle
 10
-143.65
 20
580.9
 30
0.0
 40
1.5
100
AcDbArc
 50
270.0
 51
90.0
  0
LINE
  5
135
330
1F
100
AcDbEntity
  8
0
  6
Continuous
 62
     7
370
    15
100
AcDbLine
 10
-169.65
 20
579.4
 30
0.0
 11
-143.65
 21
579.4
 31
0.0
  0
ARC
  5
136
330
1F
100
AcDbEntity
  8
0
  6
Continuous
 62
     7
370
    15
100
AcDbCircle
 10
-169.65
 20
590.5
 30
0.0
 40
1.5
100
AcDbArc
 50
90.0
 51
270.0
  0
LINE
  5
137
330
1F
100
AcDbEntity
  8
0
  6
Continuous
 62
     7
370
    15
100
AcDbLine
 10
-143.65
 20
592.0
 30
0.0
 11
-169.65
 21
592.0
 31
0.0
  0
ARC
  5
138
330
1F
100
AcDbEntity
  8
0
  6
Continuous
 62
     7
370
    15
100
AcDbCircle
 10
-143.65
 20
590.5
 30
0.0
 40
1.5
100
AcDbArc
 50
270.0
 51
90.0
  0
LINE
  5
139
330
1F
100
AcDbEntity
  8
0
  6
Continuous
 62
     7
370
    15
100
AcDbLine
 10
-169.65
 20
589.0
 30
0.0
 11
-143.65
 21
589.0
 31
0.0
  0
CIRCLE
  5
13A
330
1F
100
AcDbEntity
  8
0
  6
Continuous
 62
     7
370
    15
100
AcDbCircle
 10
-193.55
 20
533.3333333333
 30
0.0
 40
1.5
  0
CIRCLE
  5
13B
330
1F
100
AcDbEntity
  8
0
  6
Continuous
 62
     7
370
    15
100
AcDbCircle
 10
-188.55
 20
523.3333333333
 30
0.0
 40
1.5
  0
CIRCLE
  5
13C
330
1F
100
AcDbEntity
  8
0
  6
Continuous
 62
     7
370
    15
100
AcDbCircle
 10
-173.55
 20
533.3333333333
 30
0.0
 40
1.5
  0
CIRCLE
  5
13D
330
1F
100
AcDbEntity
  8
0
  6
Continuous
 62
     7
370
    15
100
AcDbCircle
 10
0.0
 20
128.0
 30
0.0
 40
1.500000000000001
  0
CIRCLE
  5
13E
330
1F
100
AcDbEntity
  8
0
  6
Continuous
 62
     7
370
    15
100
AcDbCircle
 10
189.65
 20
568.9
 30
0.0
 40
8.000000000000028
  0
CIRCLE
  5
13F
330
1F
100
AcDbEntity
  8
0
  6
Continuous
 62
     7
370
    15
100
AcDbCircle
 10
189.65
 20
587.15
 30
0.0
 40
2.425000000000125
  0
CIRCLE
  5
140
330
1F
100
AcDbEntity
  8
0
  6
Continuous
 62
     7
370
    15
100
AcDbCircle
 10
189.65
 20
550.65
 30
0.0
 40
2.425000000000125
  0
CIRCLE
  5
141
330
1F
100
AcDbEntity
  8
0
  6
Continuous
 62
     7
370
    15
100
AcDbCircle
 10
193.55
 20
533.3333333333
 30
0.0
 40
1.5
  0
CIRCLE
  5
142
330
1F
100
AcDbEntity
  8
0
  6
Continuous
 62
     7
370
    15
100
AcDbCircle
 10
188.55
 20
523.3333333333
 30
0.0
 40
1.5
  0
CIRCLE
  5
143
330
1F
100
AcDbEntity
  8
0
  6
Continuous
 62
     7
370
    15
100
AcDbCircle
 10
173.55
 20
533.3333333333
 30
0.0
 40
1.5
  0
ARC
  5
144
330
1F
100
AcDbEntity
  8
0
  6
Continuous
 62
     7
370
    15
100
AcDbCircle
 10
-1331.45
 20
385.2803033364
 30
0.0
 40
1500.0
100
AcDbArc
 50
353.0148335128
 51
6.9044856912
  0
ARC
  5
145
330
1F
100
AcDbEntity
  8
0
  6
Continuous
 62
     7
370
    15
100
AcDbCircle
 10
147.4907276674
 20
204.0778639305
 30
0.0
 40
10.00000000000001
100
AcDbArc
 50
285.0
 51
353.0148335128
  0
LINE
  5
146
330
1F
100
AcDbEntity
  8
0
  6
Continuous
 62
     7
370
    15
100
AcDbLine
 10
101.2716654752
 20
181.3407417371
 30
0.0
 11
150.0789181184
 21
194.4186056677
 31
0.0
  0
ARC
  5
147
330
1F
100
AcDbEntity
  8
0
  6
Continuous
 62
     7
370
    15
100
AcDbCircle
 10
98.6834750241
 20
191.0
 30
0.0
 40
10.00000000000001
100
AcDbArc
 50
270.0
 51
285.0
  0
LINE
  5
148
330
1F
100
AcDbEntity
  8
0
  6
Continuous
 62
     7
370
    15
100
AcDbLine
 10
-98.6834750241
 20
181.0
 30
0.0
 11
98.6834750241
 21
181.0
 31
0.0
  0
ARC
  5
149
330
1F
100
AcDbEntity
  8
0
  6
Continuous
 62
     7
370
    15
100
AcDbCircle
 10
-98.6834750241
 20
191.0
 30
0.0
 40
10.0
100
AcDbArc
 50
255.0
 51
270.0
  0
LINE
  5
14A
330
1F
100
AcDbEntity
  8
0
  6
Continuous
 62
     7
370
    15
100
AcDbLine
 10
-150.0789181184
 20
194.4186056677
 30
0.0
 11
-101.2716654752
 21
181.3407417371
 31
0.0
  0
ARC
  5
14B
330
1F
100
AcDbEntity
  8
0
  6
Continuous
 62
     7
370
    15
100
AcDbCircle
 10
-147.4907276674
 20
204.0778639305
 30
0.0
 40
10.00000000000001
100
AcDbArc
 50
186.9851664872
 51
255.0
  0
ARC
  5
14C
330
1F
100
AcDbEntity
  8
0
  6
Continuous
 62
     7
370
    15
100
AcDbCircle
 10
1331.45
 20
385.2803033364
 30
0.0
 40
1500.0
100
AcDbArc
 50
173.0955143088
 51
186.9851664872
  0
ARC
  5
14D
330
1F
100
AcDbEntity
  8
0
  6
Continuous
 62
     7
370
    15
100
AcDbCircle
 10
-147.7444207126
 20
564.4
 30
0.0
 40
10.0
100
AcDbArc
 50
90.0
 51
173.0955143088
  0
LINE
  5
14E
330
1F
100
AcDbEntity
  8
0
  6
Continuous
 62
     7
370
    15
100
AcDbLine
 10
147.7444207126
 20
574.4
 30
0.0
 11
-147.7444207126
 21
574.4
 31
0.0
  0
ARC
  5
14F
330
1F
100
AcDbEntity
  8
0
  6
Continuous
 62
     7
370
    15
100
AcDbCircle
 10
147.7444207126
 20
564.4
 30
0.0
 40
10.0
100
AcDbArc
 50
6.9044856912
 51
90.0
  0
CIRCLE
  5
150
330
1F
100
AcDbEntity
  8
0
  6
Continuous
 62
     7
370
    15
100
AcDbCircle
 10
-169.2025983107
 20
499.4
 30
0.0
 40
1.5
  0
CIRCLE
  5
151
330
1F
100
AcDbEntity
  8
0
  6
Continuous
 62
     7
370
    15
100
AcDbCircle
 10
-103.55
 20
176.7748387311
 30
0.0
 40
1.5
  0
CIRCLE
  5
152
330
1F
100
AcDbEntity
  8
0
  6
Continuous
 62
     7
370
    15
100
AcDbCircle
 10
169.2025983107
 20
499.4
 30
0.0
 40
1.5
  0
CIRCLE
  5
153
330
1F
100
AcDbEntity
  8
0
  6
Continuous
 62
     7
370
    15
100
AcDbCircle
 10
103.55
 20
176.7748387311
 30
0.0
 40
1.5
  0
CIRCLE
  5
154
330
1F
100
AcDbEntity
  8
0
  6
Continuous
 62
     7
370
    15
100
AcDbCircle
 10
-118.3
 20
112.25
 30
0.0
 40
1.5
  0
CIRCLE
  5
155
330
1F
100
AcDbEntity
  8
0
  6
Continuous
 62
     7
370
    15
100
AcDbCircle
 10
-205.8
 20
112.25
 30
0.0
 40
1.5
  0
CIRCLE
  5
156
330
1F
100
AcDbEntity
  8
0
  6
Continuous
 62
     7
370
    15
100
AcDbCircle
 10
-205.8
 20
47.75
 30
0.0
 40
1.5
  0
CIRCLE
  5
157
330
1F
100
AcDbEntity
  8
0
  6
Continuous
 62
     7
370
    15
100
AcDbCircle
 10
-118.3
 20
47.75
 30
0.0
 40
1.5
  0
LINE
  5
158
330
1F
100
AcDbEntity
  8
0
  6
Continuous
 62
     7
370
    15
100
AcDbLine
 10
-201.55
 20
106.0
 30
0.0
 11
-201.55
 21
54.0
 31
0.0
  0
LINE
  5
159
330
1F
100
AcDbEntity
  8
0
  6
Continuous
 62
     7
370
    15
100
AcDbLine
 10
-122.55
 20
106.0
 30
0.0
 11
-201.55
 21
106.0
 31
0.0
  0
LINE
  5
15A
330
1F
100
AcDbEntity
  8
0
  6
Continuous
 62
     7
370
    15
100
AcDbLine
 10
-122.55
 20
54.0
 30
0.0
 11
-122.55
 21
106.0
 31
0.0
  0
LINE
  5
15B
330
1F
100
AcDbEntity
  8
0
  6
Continuous
 62
     7
370
    15
100
AcDbLine
 10
-201.55
 20
54.0
 30
0.0
 11
-122.55
 21
54.0
 31
0.0
  0
CIRCLE
  5
15C
330
1F
100
AcDbEntity
  8
0
  6
Continuous
 62
     7
370
    15
100
AcDbCircle
 10
-124.55
 20
37.0
 30
0.0
 40
8.999999999999986
  0
CIRCLE
  5
15D
330
1F
100
AcDbEntity
  8
0
  6
Continuous
 62
     7
370
    15
100
AcDbCircle
 10
139.0333333333
 20
75.0
 30
0.0
 40
9.500000000000028
  0
ARC
  5
15E
330
1F
100
AcDbEntity
  8
0
  6
Continuous
 62
     7
370
    15
100
AcDbCircle
 10
-231.7787565553
 20
81.0
 30
0.0
 40
20.00000000000002
100
AcDbArc
 50
320.7408764835
 51
39.2591235165
  0
ARC
  5
15F
330
1F
100
AcDbEntity
  8
0
  6
Continuous
 62
     7
370
    15
100
AcDbCircle
 10
-208.55
 20
62.0151410621
 30
0.0
 40
10.0
100
AcDbArc
 50
140.7408764835
 51
180.0
  0
LINE
  5
160
330
1F
100
AcDbEntity
  8
0
  6
Continuous
 62
     7
370
    15
100
AcDbLine
 10
-218.55
 20
62.0151410621
 30
0.0
 11
-218.55
 21
10.0
 31
0.0
  0
ARC
  5
161
330
1F
100
AcDbEntity
  8
0
  6
Continuous
 62
     7
370
    15
100
AcDbCircle
 10
-208.55
 20
10.0
 30
0.0
 40
10.0
100
AcDbArc
 50
180.0
 51
270.0
  0
LINE
  5
162
330
1F
100
AcDbEntity
  8
0
  6
Continuous
 62
     7
370
    15
100
AcDbLine
 10
-208.55
 20
0.0
 30
0.0
 11
-194.3235026919
 21
0.0
 31
0.0
  0
ARC
  5
163
330
1F
100
AcDbEntity
  8
0
  6
Continuous
 62
     7
370
    15
100
AcDbCircle
 10
-194.3235026919
 20
10.0
 30
0.0
 40
10.0
100
AcDbArc
 50
270.0
 51
330.0
  0
LINE
  5
164
330
1F
100
AcDbEntity
  8
0
  6
Continuous
 62
     7
370
    15
100
AcDbLine
 10
-185.6632486541
 20
5.0
 30
0.0
 11
-182.7764973081
 21
10.0
 31
0.0
  0
ARC
  5
165
330
1F
100
AcDbEntity
  8
0
  6
Continuous
 62
     7
370
    15
100
AcDbCircle
 10
-174.1162432703
 20
5.0
 30
0.0
 40
10.0
100
AcDbArc
 50
90.0
 51
150.0
  0
LINE
  5
166
330
1F
100
AcDbEntity
  8
0
  6
Continuous
 62
     7
370
    15
100
AcDbLine
 10
-174.1162432703
 20
15.0
 30
0.0
 11
174.1162432703
 21
15.0
 31
0.0
  0
ARC
  5
167
330
1F
100
AcDbEntity
  8
0
  6
Continuous
 62
     7
370
    15
100
AcDbCircle
 10
174.1162432703
 20
5.0
 30
0.0
 40
10.0
100
AcDbArc
 50
30.0
 51
90.0
  0
LINE
  5
168
330
1F
100
AcDbEntity
  8
0
  6
Continuous
 62
     7
370
    15
100
AcDbLine
 10
185.6632486541
 20
5.0
 30
0.0
 11
182.7764973081
 21
10.0
 31
0.0
  0
ARC
  5
169
330
1F
100
AcDbEntity
  8
0
  6
Continuous
 62
     7
370
    15
100
AcDbCircle
 10
194.3235026919
 20
10.0
 30
0.0
 40
10.0
100
AcDbArc
 50
210.0
 51
270.0
  0
LINE
  5
16A
330
1F
100
AcDbEntity
  8
0
  6
Continuous
 62
     7
370
    15
100
AcDbLine
 10
208.55
 20
0.0
 30
0.0
 11
194.3235026919
 21
0.0
 31
0.0
  0
ARC
  5
16B
330
1F
100
AcDbEntity
  8
0
  6
Continuous
 62
     7
370
    15
100
AcDbCircle
 10
208.55
 20
10.0
 30
0.0
 40
10.0
100
AcDbArc
 50
270.0
 51
0.0
  0
LINE
  5
16C
330
1F
100
AcDbEntity
  8
0
  6
Continuous
 62
     7
370
    15
100
AcDbLine
 10
218.55
 20
631.0
 30
0.0
 11
218.55
 21
10.0
 31
0.0
  0
ARC
  5
16D
330
1F
100
AcDbEntity
  8
0
  6
Continuous
 62
     7
370
    15
100
AcDbCircle
 10
208.55
 20
631.0
 30
0.0
 40
10.00000000000003
100
AcDbArc
 50
0.0
 51
90.0
  0
LINE
  5
16E
330
1F
100
AcDbEntity
  8
0
  6
Continuous
 62
     7
370
    15
100
AcDbLine
 10
191.2294919243
 20
641.0
 30
0.0
 11
208.55
 21
641.0
 31
0.0
  0
ARC
  5
16F
330
1F
100
AcDbEntity
  8
0
  6
Continuous
 62
     7
370
    15
100
AcDbCircle
 10
191.2294919243
 20
651.0
 30
0.0
 40
10.0
100
AcDbArc
 50
240.0
 51
270.0
  0
LINE
  5
170
330
1F
100
AcDbEntity
  8
0
  6
Continuous
 62
     7
370
    15
100
AcDbLine
 10
173.55
 20
649.6602540378
 30
0.0
 11
186.2294919243
 21
642.3397459622
 31
0.0
  0
ARC
  5
171
330
1F
100
AcDbEntity
  8
0
  6
Continuous
 62
     7
370
    15
100
AcDbCircle
 10
168.55
 20
641.0
 30
0.0
 40
10.0
100
AcDbArc
 50
60.0
 51
90.0
  0
LINE
  5
172
330
1F
100
AcDbEntity
  8
0
  6
Continuous
 62
     7
370
    15
100
AcDbLine
 10
168.55
 20
651.0
 30
0.0
 11
-168.55
 21
651.0
 31
0.0
  0
ARC
  5
173
330
1F
100
AcDbEntity
  8
0
  6
Continuous
 62
     7
370
    15
100
AcDbCircle
 10
-168.55
 20
641.0
 30
0.0
 40
10.0
100
AcDbArc
 50
90.0
 51
120.0
  0
LINE
  5
174
330
1F
100
AcDbEntity
  8
0
  6
Continuous
 62
     7
370
    15
100
AcDbLine
 10
-173.55
 20
649.6602540378
 30
0.0
 11
-186.2294919243
 21
642.3397459622
 31
0.0
  0
ARC
  5
175
330
1F
100
AcDbEntity
  8
0
  6
Continuous
 62
     7
370
    15
100
AcDbCircle
 10
-191.2294919243
 20
651.0
 30
0.0
 40
10.0
100
AcDbArc
 50
270.0
 51
300.0
  0
LINE
  5
176
330
1F
100
AcDbEntity
  8
0
  6
Continuous
 62
     7
370
    15
100
AcDbLine
 10
-191.2294919243
 20
641.0
 30
0.0
 11
-208.55
 21
641.0
 31
0.0
  0
ARC
  5
177
330
1F
100
AcDbEntity
  8
0
  6
Continuous
 62
     7
370
    15
100
AcDbCircle
 10
-208.55
 20
631.0
 30
0.0
 40
10.00000000000003
100
AcDbArc
 50
90.0
 51
180.0
  0
LINE
  5
178
330
1F
100
AcDbEntity
  8
0
  6
Continuous
 62
     7
370
    15
100
AcDbLine
 10
-218.55
 20
631.0
 30
0.0
 11
-218.55
 21
99.9848589379
 31
0.0
  0
ARC
  5
179
330
1F
100
AcDbEntity
  8
0
  6
Continuous
 62
     7
370
    15
100
AcDbCircle
 10
-208.55
 20
99.9848589379
 30
0.0
 40
10.0
100
AcDbArc
 50
180.0
 51
219.2591235165
  0
SPLINE
  5
17A
330
1F
100
AcDbEntity
  8
0
  6
Continuous
 62
     7
370
    15
100
AcDbSpline
210
0.0
220
0.0
230
1.0
 70
     8
 71
     3
 72
     8
 73
     4
 74
     0
 42
0.000000001
 43
0.00000001
 40
10.0
 40
10.0
 40
10.0
 40
10.0
 40
11.0
 40
11.0
 40
11.0
 40
11.0
 10
-43.22217817624362
 20
113.0235336960717
 30
0.0
 10
-49.4320505585738
 20
117.4401424674824
 30
0.0
 10
-56.51178319094981
 20
119.6100935932683
 30
0.0
 10
-63.54227873083898
 20
119.7044844849866
 30
0.0
  0
SPLINE
  5
17B
330
1F
100
AcDbEntity
  8
0
  6
Continuous
 62
     7
370
    15
100
AcDbSpline
210
0.0
220
0.0
230
1.0
 70
     8
 71
     3
 72
     8
 73
     4
 74
     0
 42
0.000000001
 43
0.00000001
 40
9.0
 40
9.0
 40
9.0
 40
9.0
 40
10.0
 40
10.0
 40
10.0
 40
10.0
 10
-32.07048157152518
 20
64.31529450338421
 30
0.0
 10
-23.13877499539112
 20
80.86237269692613
 30
0.0
 10
-27.71501826056678
 20
101.9921828798352
 30
0.0
 10
-43.22217817624362
 20
113.0235336960717
 30
0.0
  0
LINE
  5
17C
330
1F
100
AcDbEntity
  8
0
  6
Continuous
 62
     7
370
    15
100
AcDbLine
 10
-32.0685364391
 20
80.7059602927
 30
0.0
 11
-32.0704815715
 21
64.3152945034
 31
0.0
  0
SPLINE
  5
17D
330
1F
100
AcDbEntity
  8
0
  6
Continuous
 62
     7
370
    15
100
AcDbSpline
210
0.0
220
0.0
230
1.0
 70
     8
 71
     3
 72
     8
 73
     4
 74
     0
 42
0.000000001
 43
0.00000001
 40
7.0
 40
7.0
 40
7.0
 40
7.0
 40
8.0
 40
8.0
 40
8.0
 40
8.0
 10
-34.01855396599923
 20
82.46397394662192
 30
0.0
 10
-33.12049671998503
 20
82.46397394662192
 30
0.0
 10
-32.06853643910166
 20
82.03262969549398
 30
0.0
 10
-32.06853643910166
 20
80.70596029274807
 30
0.0
  0
SPLINE
  5
17E
330
1F
100
AcDbEntity
  8
0
  6
Continuous
 62
     7
370
    15
100
AcDbSpline
210
0.0
220
0.0
230
1.0
 70
     8
 71
     3
 72
     8
 73
     4
 74
     0
 42
0.000000001
 43
0.00000001
 40
6.0
 40
6.0
 40
6.0
 40
6.0
 40
7.0
 40
7.0
 40
7.0
 40
7.0
 10
-35.31190369578391
 20
82.46055882862667
 30
0.0
 10
-34.43150112497061
 20
82.48648402871166
 30
0.0
 10
-34.73460027121063
 20
82.46055882862667
 30
0.0
 10
-34.01855396599923
 20
82.46397394662192
 30
0.0
  0
SPLINE
  5
17F
330
1F
100
AcDbEntity
  8
0
  6
Continuous
 62
     7
370
    15
100
AcDbSpline
210
0.0
220
0.0
230
1.0
 70
     8
 71
     3
 72
     8
 73
     4
 74
     0
 42
0.000000001
 43
0.00000001
 40
5.0
 40
5.0
 40
5.0
 40
5.0
 40
6.0
 40
6.0
 40
6.0
 40
6.0
 10
-37.02053177377987
 20
80.75858280655149
 30
0.0
 10
-37.09417953576244
 20
81.88090936647389
 30
0.0
 10
-36.46576812797475
 20
82.38875226069383
 30
0.0
 10
-35.31190369578391
 20
82.46055882862667
 30
0.0
  0
SPLINE
  5
180
330
1F
100
AcDbEntity
  8
0
  6
Continuous
 62
     7
370
    15
100
AcDbSpline
210
0.0
220
0.0
230
1.0
 70
     8
 71
     3
 72
     8
 73
     4
 74
     0
 42
0.000000001
 43
0.00000001
 40
4.0
 40
4.0
 40
4.0
 40
4.0
 40
5.0
 40
5.0
 40
5.0
 40
5.0
 10
-36.97396738233285
 20
58.2594290942965
 30
0.0
 10
-36.97396738233285
 20
61.70163045999215
 30
0.0
 10
-37.02053177377987
 20
74.04398568121483
 30
0.0
 10
-37.02053177377987
 20
80.75858280655149
 30
0.0
  0
SPLINE
  5
181
330
1F
100
AcDbEntity
  8
0
  6
Continuous
 62
     7
370
    15
100
AcDbSpline
210
0.0
220
0.0
230
1.0
 70
     8
 71
     3
 72
     8
 73
     4
 74
     0
 42
0.000000001
 43
0.00000001
 40
3.0
 40
3.0
 40
3.0
 40
3.0
 40
4.0
 40
4.0
 40
4.0
 40
4.0
 10
-36.70218338327454
 20
57.54385793593676
 30
0.0
 10
-36.8933112042905
 20
57.70427939167443
 30
0.0
 10
-36.99050843210064
 20
57.96736226401487
 30
0.0
 10
-36.97396738233285
 20
58.2594290942965
 30
0.0
  0
SPLINE
  5
182
330
1F
100
AcDbEntity
  8
0
  6
Continuous
 62
     7
370
    15
100
AcDbSpline
210
0.0
220
0.0
230
1.0
 70
     8
 71
     3
 72
     8
 73
     4
 74
     0
 42
0.000000001
 43
0.00000001
 40
2.0
 40
2.0
 40
2.0
 40
2.0
 40
3.0
 40
3.0
 40
3.0
 40
3.0
 10
-84.88113125589918
 20
51.63490199399707
 30
0.0
 10
-69.49489621392944
 20
40.68980517964664
 30
0.0
 10
-48.76207864961889
 20
43.53807298096694
 30
0.0
 10
-36.70218338327454
 20
57.54385793593676
 30
0.0
  0
SPLINE
  5
183
330
1F
100
AcDbEntity
  8
0
  6
Continuous
 62
     7
370
    15
100
AcDbSpline
210
0.0
220
0.0
230
1.0
 70
     8
 71
     3
 72
     8
 73
     4
 74
     0
 42
0.000000001
 43
0.00000001
 40
1.0
 40
1.0
 40
1.0
 40
1.0
 40
2.0
 40
2.0
 40
2.0
 40
2.0
 10
-94.03150189792767
 20
103.6549592866614
 30
0.0
 10
-105.5349630803171
 20
86.70317476235356
 30
0.0
 10
-101.4382395025099
 20
63.41281245231529
 30
0.0
 10
-84.88113125589918
 20
51.63490199399707
 30
0.0
  0
SPLINE
  5
184
330
1F
100
AcDbEntity
  8
0
  6
Continuous
 62
     7
370
    15
100
AcDbSpline
210
0.0
220
0.0
230
1.0
 70
     8
 71
     3
 72
     8
 73
     4
 74
     0
 42
0.000000001
 43
0.00000001
 40
0.0
 40
0.0
 40
0.0
 40
0.0
 40
1.0
 40
1.0
 40
1.0
 40
1.0
 10
-63.54227873083898
 20
119.7044844849866
 30
0.0
 10
-75.25987523569458
 20
119.8611196142519
 30
0.0
 10
-86.84184701112494
 20
114.2497986297602
 30
0.0
 10
-94.03150189792767
 20
103.6549592866614
 30
0.0
  0
SPLINE
  5
185
330
1F
100
AcDbEntity
  8
0
  6
Continuous
 62
     7
370
    15
100
AcDbSpline
210
0.0
220
0.0
230
1.0
 70
     8
 71
     3
 72
     8
 73
     4
 74
     0
 42
0.000000001
 43
0.00000001
 40
18.0
 40
18.0
 40
18.0
 40
18.0
 40
19.0
 40
19.0
 40
19.0
 40
19.0
 10
-9.672949892135314
 20
83.30343964651055
 30
0.0
 10
-9.876609711359531
 20
83.37298926689895
 30
0.0
 10
-10.08524372418555
 20
83.40791256048425
 30
0.0
 10
-10.29637225798213
 20
83.41845488125193
 30
0.0
  0
SPLINE
  5
186
330
1F
100
AcDbEntity
  8
0
  6
Continuous
 62
     7
370
    15
100
AcDbSpline
210
0.0
220
0.0
230
1.0
 70
     8
 71
     3
 72
     8
 73
     4
 74
     0
 42
0.000000001
 43
0.00000001
 40
17.0
 40
17.0
 40
17.0
 40
17.0
 40
18.0
 40
18.0
 40
18.0
 40
18.0
 10
-8.783474986125979
 20
81.62049919517425
 30
0.0
 10
-8.78785524616309
 20
82.37390392158439
 30
0.0
 10
-9.072453361872853
 20
83.09841378008831
 30
0.0
 10
-9.672949892135314
 20
83.30343964651055
 30
0.0
  0
SPLINE
  5
187
330
1F
100
AcDbEntity
  8
0
  6
Continuous
 62
     7
370
    15
100
AcDbSpline
210
0.0
220
0.0
230
1.0
 70
     8
 71
     3
 72
     8
 73
     4
 74
     0
 42
0.000000001
 43
0.00000001
 40
16.0
 40
16.0
 40
16.0
 40
16.0
 40
17.0
 40
17.0
 40
17.0
 40
17.0
 10
-9.264323599844083
 20
79.12597822479599
 30
0.0
 10
-8.56244261014311
 20
79.7094585584384
 30
0.0
 10
-8.779005636053975
 20
80.86706477208539
 30
0.0
 10
-8.783474986125979
 20
81.62049919517425
 30
0.0
  0
SPLINE
  5
188
330
1F
100
AcDbEntity
  8
0
  6
Continuous
 62
     7
370
    15
100
AcDbSpline
210
0.0
220
0.0
230
1.0
 70
     8
 71
     3
 72
     8
 73
     4
 74
     0
 42
0.000000001
 43
0.00000001
 40
15.0
 40
15.0
 40
15.0
 40
15.0
 40
16.0
 40
16.0
 40
16.0
 40
16.0
 10
-17.43876488139886
 20
77.02487884746002
 30
0.0
 10
-14.82665991361395
 20
81.002511321441
 30
0.0
 10
-11.99551224728693
 20
76.85548899490036
 30
0.0
 10
-9.264323599844076
 20
79.12597822479599
 30
0.0
  0
SPLINE
  5
189
330
1F
100
AcDbEntity
  8
0
  6
Continuous
 62
     7
370
    15
100
AcDbSpline
210
0.0
220
0.0
230
1.0
 70
     8
 71
     3
 72
     8
 73
     4
 74
     0
 42
0.000000001
 43
0.00000001
 40
14.0
 40
14.0
 40
14.0
 40
14.0
 40
15.0
 40
15.0
 40
15.0
 40
15.0
 10
-18.17144132641313
 20
70.5163172756055
 30
0.0
 10
-18.15280666083071
 20
72.78986526335733
 30
0.0
 10
-18.4439083490705
 20
75.68567744650586
 30
0.0
 10
-17.43876488139886
 20
77.02487884746002
 30
0.0
  0
LINE
  5
18A
330
1F
100
AcDbEntity
  8
0
  6
Continuous
 62
     7
370
    15
100
AcDbLine
 10
-18.2607689345
 20
58.4219293175
 30
0.0
 11
-18.1714413264
 21
70.5163172756
 31
0.0
  0
SPLINE
  5
18B
330
1F
100
AcDbEntity
  8
0
  6
Continuous
 62
     7
370
    15
100
AcDbSpline
210
0.0
220
0.0
230
1.0
 70
     8
 71
     3
 72
     8
 73
     4
 74
     0
 42
0.000000001
 43
0.00000001
 40
12.0
 40
12.0
 40
12.0
 40
12.0
 40
13.0
 40
13.0
 40
13.0
 40
13.0
 10
-20.4036812347627
 20
56.87488086570198
 30
0.0
 10
-19.57685147145617
 20
56.81340874178913
 30
0.0
 10
-18.2607689344952
 20
57.61296210615171
 30
0.0
 10
-18.2607689344952
 20
58.42192931750943
 30
0.0
  0
LINE
  5
18C
330
1F
100
AcDbEntity
  8
0
  6
Continuous
 62
     7
370
    15
100
AcDbLine
 10
-21.4927178184
 20
56.8891352712
 30
0.0
 11
-20.4036812348
 21
56.8748808657
 31
0.0
  0
SPLINE
  5
18D
330
1F
100
AcDbEntity
  8
0
  6
Continuous
 62
     7
370
    15
100
AcDbSpline
210
0.0
220
0.0
230
1.0
 70
     8
 71
     3
 72
     8
 73
     4
 74
     0
 42
0.000000001
 43
0.00000001
 40
10.0
 40
10.0
 40
10.0
 40
10.0
 40
11.0
 40
11.0
 40
11.0
 40
11.0
 10
-23.37239876293838
 20
58.39345020309776
 30
0.0
 10
-23.4248430966728
 20
57.55734022784788
 30
0.0
 10
-22.25088886166685
 20
56.88913527124694
 30
0.0
 10
-21.49271781840199
 20
56.88913527124694
 30
0.0
  0
LINE
  5
18E
330
1F
100
AcDbEntity
  8
0
  6
Continuous
 62
     7
370
    15
100
AcDbLine
 10
-23.3723987629
 20
74.7670107058
 30
0.0
 11
-23.3723987629
 21
58.3934502031
 31
0.0
  0
SPLINE
  5
18F
330
1F
100
AcDbEntity
  8
0
  6
Continuous
 62
     7
370
    15
100
AcDbSpline
210
0.0
220
0.0
230
1.0
 70
     8
 71
     3
 72
     8
 73
     4
 74
     0
 42
0.000000001
 43
0.00000001
 40
8.0
 40
8.0
 40
8.0
 40
8.0
 40
9.0
 40
9.0
 40
9.0
 40
9.0
 10
-23.41137565310055
 20
78.9197941879228
 30
0.0
 10
-23.3842774342259
 20
77.63796676928692
 30
0.0
 10
-23.37147816591343
 20
76.25318096726701
 30
0.0
 10
-23.37239876293838
 20
74.76701070580764
 30
0.0
  0
SPLINE
  5
190
330
1F
100
AcDbEntity
  8
0
  6
Continuous
 62
     7
370
    15
100
AcDbSpline
210
0.0
220
0.0
230
1.0
 70
     8
 71
     3
 72
     8
 73
     4
 74
     0
 42
0.000000001
 43
0.00000001
 40
7.0
 40
7.0
 40
7.0
 40
7.0
 40
8.0
 40
8.0
 40
8.0
 40
8.0
 10
-23.52446060375767
 20
81.12824705701887
 30
0.0
 10
-23.46569087756254
 20
80.26457856438199
 30
0.0
 10
-23.43152484927201
 20
79.87356240227558
 30
0.0
 10
-23.41137565310055
 20
78.9197941879228
 30
0.0
  0
SPLINE
  5
191
330
1F
100
AcDbEntity
  8
0
  6
Continuous
 62
     7
370
    15
100
AcDbSpline
210
0.0
220
0.0
230
1.0
 70
     8
 71
     3
 72
     8
 73
     4
 74
     0
 42
0.000000001
 43
0.00000001
 40
6.0
 40
6.0
 40
6.0
 40
6.0
 40
7.0
 40
7.0
 40
7.0
 40
7.0
 10
-21.50508648488001
 20
82.47861440898379
 30
0.0
 10
-22.66318269371727
 20
82.31219422424546
 30
0.0
 10
-23.56590231821201
 20
81.73812773759822
 30
0.0
 10
-23.52446060375767
 20
81.12824705701887
 30
0.0
  0
SPLINE
  5
192
330
1F
100
AcDbEntity
  8
0
  6
Continuous
 62
     7
370
    15
100
AcDbSpline
210
0.0
220
0.0
230
1.0
 70
     8
 71
     3
 72
     8
 73
     4
 74
     0
 42
0.000000001
 43
0.00000001
 40
5.0
 40
5.0
 40
5.0
 40
5.0
 40
6.0
 40
6.0
 40
6.0
 40
6.0
 10
-18.97540464749116
 20
81.42378839865249
 30
0.0
 10
-18.95097912965611
 20
82.24071431977286
 30
0.0
 10
-20.346990276043
 20
82.64500489704338
 30
0.0
 10
-21.50508648488001
 20
82.47861440898379
 30
0.0
  0
LINE
  5
193
330
1F
100
AcDbEntity
  8
0
  6
Continuous
 62
     7
370
    15
100
AcDbLine
 10
-18.8442641165
 20
77.8972484668
 30
0.0
 11
-18.9754046475
 21
81.4237883987
 31
0.0
  0
LINE
  5
194
330
1F
100
AcDbEntity
  8
0
  6
Continuous
 62
     7
370
    15
100
AcDbLine
 10
-18.6646586066
 20
77.8972484668
 30
0.0
 11
-18.8442641165
 21
77.8972484668
 31
0.0
  0
SPLINE
  5
195
330
1F
100
AcDbEntity
  8
0
  6
Continuous
 62
     7
370
    15
100
AcDbSpline
210
0.0
220
0.0
230
1.0
 70
     8
 71
     3
 72
     8
 73
     4
 74
     0
 42
0.000000001
 43
0.00000001
 40
2.0
 40
2.0
 40
2.0
 40
2.0
 40
3.0
 40
3.0
 40
3.0
 40
3.0
 10
-16.04659945484223
 20
81.76304325062314
 30
0.0
 10
-17.20212690101302
 20
80.83644749684079
 30
0.0
 10
-18.07522408898398
 20
79.54793832560598
 30
0.0
 10
-18.66465860660915
 20
77.89724846681511
 30
0.0
  0
SPLINE
  5
196
330
1F
100
AcDbEntity
  8
0
  6
Continuous
 62
     7
370
    15
100
AcDbSpline
210
0.0
220
0.0
230
1.0
 70
     8
 71
     3
 72
     8
 73
     4
 74
     0
 42
0.000000001
 43
0.00000001
 40
1.0
 40
1.0
 40
1.0
 40
1.0
 40
2.0
 40
2.0
 40
2.0
 40
2.0
 10
-12.25302699246133
 20
83.17612998698641
 30
0.0
 10
-13.61461968879282
 20
82.99043665808394
 30
0.0
 10
-14.89108685701031
 20
82.68954991437124
 30
0.0
 10
-16.04659945484223
 20
81.76304325062314
 30
0.0
  0
SPLINE
  5
197
330
1F
100
AcDbEntity
  8
0
  6
Continuous
 62
     7
370
    15
100
AcDbSpline
210
0.0
220
0.0
230
1.0
 70
     8
 71
     3
 72
     8
 73
     4
 74
     0
 42
0.000000001
 43
0.00000001
 40
0.0
 40
0.0
 40
0.0
 40
0.0
 40
1.0
 40
1.0
 40
1.0
 40
1.0
 10
-10.29637225798212
 20
83.41845488125193
 30
0.0
 10
-10.92965392099801
 20
83.44993336016377
 30
0.0
 10
-11.59162257517275
 20
83.26640788877161
 30
0.0
 10
-12.25302699246133
 20
83.17612998698641
 30
0.0
  0
SPLINE
  5
198
330
1F
100
AcDbEntity
  8
0
  6
Continuous
 62
     7
370
    15
100
AcDbSpline
210
0.0
220
0.0
230
1.0
 70
     8
 71
     3
 72
     8
 73
     4
 74
     0
 42
0.000000001
 43
0.00000001
 40
24.0
 40
24.0
 40
24.0
 40
24.0
 40
25.0
 40
25.0
 40
25.0
 40
25.0
 10
12.88414203932505
 20
80.90293835937304
 30
0.0
 10
11.33961780516637
 20
82.49325487134537
 30
0.0
 10
9.621857998617843
 20
83.26100309333577
 30
0.0
 10
7.732599875356204
 20
83.20463879807653
 30
0.0
  0
SPLINE
  5
199
330
1F
100
AcDbEntity
  8
0
  6
Continuous
 62
     7
370
    15
100
AcDbSpline
210
0.0
220
0.0
230
1.0
 70
     8
 71
     3
 72
     8
 73
     4
 74
     0
 42
0.000000001
 43
0.00000001
 40
23.0
 40
23.0
 40
23.0
 40
23.0
 40
24.0
 40
24.0
 40
24.0
 40
24.0
 10
15.33875067417709
 20
72.64580667731789
 30
0.0
 10
15.24645339827328
 20
76.56024462004873
 30
0.0
 10
14.42862172846677
 20
79.31256245404461
 30
0.0
 10
12.88414203932505
 20
80.90293835937304
 30
0.0
  0
LINE
  5
19A
330
1F
100
AcDbEntity
  8
0
  6
Continuous
 62
     7
370
    15
100
AcDbLine
 10
15.3387506742
 20
58.6736383621
 30
0.0
 11
15.3387506742
 21
72.6458066773
 31
0.0
  0
SPLINE
  5
19B
330
1F
100
AcDbEntity
  8
0
  6
Continuous
 62
     7
370
    15
100
AcDbSpline
210
0.0
220
0.0
230
1.0
 70
     8
 71
     3
 72
     8
 73
     4
 74
     0
 42
0.000000001
 43
0.00000001
 40
21.0
 40
21.0
 40
21.0
 40
21.0
 40
22.0
 40
22.0
 40
22.0
 40
22.0
 10
13.65292964505311
 20
56.89183766896515
 30
0.0
 10
14.72399973837025
 20
56.86395248811728
 30
0.0
 10
15.33875067417706
 20
57.5035595435939
 30
0.0
 10
15.33875067417709
 20
58.67363836209225
 30
0.0
  0
LINE
  5
19C
330
1F
100
AcDbEntity
  8
0
  6
Continuous
 62
     7
370
    15
100
AcDbLine
 10
12.046933287
 20
56.8710499942
 30
0.0
 11
13.6529296451
 21
56.891837669
 31
0.0
  0
SPLINE
  5
19D
330
1F
100
AcDbEntity
  8
0
  6
Continuous
 62
     7
370
    15
100
AcDbSpline
210
0.0
220
0.0
230
1.0
 70
     8
 71
     3
 72
     8
 73
     4
 74
     0
 42
0.000000001
 43
0.00000001
 40
19.0
 40
19.0
 40
19.0
 40
19.0
 40
20.0
 40
20.0
 40
20.0
 40
20.0
 10
10.35255961453023
 20
58.67378684548308
 30
0.0
 10
10.3046885692416
 20
57.71636593970968
 30
0.0
 10
11.23030433264307
 20
56.87104999421184
 30
0.0
 10
12.04693328698149
 20
56.87104999421184
 30
0.0
  0
LINE
  5
19E
330
1F
100
AcDbEntity
  8
0
  6
Continuous
 62
     7
370
    15
100
AcDbLine
 10
10.4913024952
 20
71.992153093
 30
0.0
 11
10.3525596145
 21
58.6737868455
 31
0.0
  0
SPLINE
  5
19F
330
1F
100
AcDbEntity
  8
0
  6
Continuous
 62
     7
370
    15
100
AcDbSpline
210
0.0
220
0.0
230
1.0
 70
     8
 71
     3
 72
     8
 73
     4
 74
     0
 42
0.000000001
 43
0.00000001
 40
17.0
 40
17.0
 40
17.0
 40
17.0
 40
18.0
 40
18.0
 40
18.0
 40
18.0
 10
9.810892203819785
 20
77.30999665503876
 30
0.0
 10
10.47170268754405
 20
76.0310795108683
 30
0.0
 10
10.51479256763963
 20
73.86669651224845
 30
0.0
 10
10.49130249516859
 20
71.99215309304405
 30
0.0
  0
SPLINE
  5
1A0
330
1F
100
AcDbEntity
  8
0
  6
Continuous
 62
     7
370
    15
100
AcDbSpline
210
0.0
220
0.0
230
1.0
 70
     8
 71
     3
 72
     8
 73
     4
 74
     0
 42
0.000000001
 43
0.00000001
 40
16.0
 40
16.0
 40
16.0
 40
16.0
 40
17.0
 40
17.0
 40
17.0
 40
17.0
 10
5.908035965593781
 20
79.93850903753963
 30
0.0
 10
7.535235751914017
 20
79.8859459170925
 30
0.0
 10
9.150066871756202
 20
78.58885440585247
 30
0.0
 10
9.810892203819785
 20
77.30999665503876
 30
0.0
  0
SPLINE
  5
1A1
330
1F
100
AcDbEntity
  8
0
  6
Continuous
 62
     7
370
    15
100
AcDbSpline
210
0.0
220
0.0
230
1.0
 70
     8
 71
     3
 72
     8
 73
     4
 74
     0
 42
0.000000001
 43
0.00000001
 40
15.0
 40
15.0
 40
15.0
 40
15.0
 40
16.0
 40
16.0
 40
16.0
 40
16.0
 10
1.911100650771005
 20
78.37334561201892
 30
0.0
 10
2.902746978191742
 20
79.44198057772189
 30
0.0
 10
4.660404271927081
 20
79.93265879193059
 30
0.0
 10
5.908035965593781
 20
79.93850903753963
 30
0.0
  0
SPLINE
  5
1A2
330
1F
100
AcDbEntity
  8
0
  6
Continuous
 62
     7
370
    15
100
AcDbSpline
210
0.0
220
0.0
230
1.0
 70
     8
 71
     3
 72
     8
 73
     4
 74
     0
 42
0.000000001
 43
0.00000001
 40
14.0
 40
14.0
 40
14.0
 40
14.0
 40
15.0
 40
15.0
 40
15.0
 40
15.0
 10
1.17177214983621
 20
72.41215321309247
 30
0.0
 10
1.228359170182246
 20
74.47351843497155
 30
0.0
 10
0.9194394750113901
 20
77.30465125295913
 30
0.0
 10
1.911100650771005
 20
78.37334561201892
 30
0.0
  0
LINE
  5
1A3
330
1F
100
AcDbEntity
  8
0
  6
Continuous
 62
     7
370
    15
100
AcDbLine
 10
0.9142425563
 20
58.4561398908
 30
0.0
 11
1.1717721498
 21
72.4121532131
 31
0.0
  0
SPLINE
  5
1A4
330
1F
100
AcDbEntity
  8
0
  6
Continuous
 62
     7
370
    15
100
AcDbSpline
210
0.0
220
0.0
230
1.0
 70
     8
 71
     3
 72
     8
 73
     4
 74
     0
 42
0.000000001
 43
0.00000001
 40
12.0
 40
12.0
 40
12.0
 40
12.0
 40
13.0
 40
13.0
 40
13.0
 40
13.0
 10
-0.6356864732721528
 20
56.90240968641081
 30
0.0
 10
0.0776128892040254
 20
56.90240968641081
 30
0.0
 10
0.9142425563230487
 20
57.23186463456982
 30
0.0
 10
0.9142425563230487
 20
58.45613989081747
 30
0.0
  0
LINE
  5
1A5
330
1F
100
AcDbEntity
  8
0
  6
Continuous
 62
     7
370
    15
100
AcDbLine
 10
-1.5460678407
 20
56.9024096864
 30
0.0
 11
-0.6356864733
 21
56.9024096864
 31
0.0
  0
SPLINE
  5
1A6
330
1F
100
AcDbEntity
  8
0
  6
Continuous
 62
     7
370
    15
100
AcDbSpline
210
0.0
220
0.0
230
1.0
 70
     8
 71
     3
 72
     8
 73
     4
 74
     0
 42
0.000000001
 43
0.00000001
 40
10.0
 40
10.0
 40
10.0
 40
10.0
 40
11.0
 40
11.0
 40
11.0
 40
11.0
 10
-3.565441959624791
 20
58.54451720519664
 30
0.0
 10
-3.607581546017066
 20
57.34031690342476
 30
0.0
 10
-2.590128805224176
 20
56.90240968641081
 30
0.0
 10
-1.546067840747113
 20
56.90240968641081
 30
0.0
  0
LINE
  5
1A7
330
1F
100
AcDbEntity
  8
0
  6
Continuous
 62
     7
370
    15
100
AcDbLine
 10
-3.6756760292
 20
75.4027274964
 30
0.0
 11
-3.5654419596
 21
58.5445172052
 31
0.0
  0
SPLINE
  5
1A8
330
1F
100
AcDbEntity
  8
0
  6
Continuous
 62
     7
370
    15
100
AcDbSpline
210
0.0
220
0.0
230
1.0
 70
     8
 71
     3
 72
     8
 73
     4
 74
     0
 42
0.000000001
 43
0.00000001
 40
8.0
 40
8.0
 40
8.0
 40
8.0
 40
9.0
 40
9.0
 40
9.0
 40
9.0
 10
-3.727942182837666
 20
79.26855197692427
 30
0.0
 10
-3.694904628319548
 20
78.10254160334183
 30
0.0
 10
-3.677413284848322
 20
76.81391364539407
 30
0.0
 10
-3.675676029172757
 20
75.40272749643725
 30
0.0
  0
SPLINE
  5
1A9
330
1F
100
AcDbEntity
  8
0
  6
Continuous
 62
     7
370
    15
100
AcDbSpline
210
0.0
220
0.0
230
1.0
 70
     8
 71
     3
 72
     8
 73
     4
 74
     0
 42
0.000000001
 43
0.00000001
 40
7.0
 40
7.0
 40
7.0
 40
7.0
 40
8.0
 40
8.0
 40
8.0
 40
8.0
 10
-3.816319497216884
 20
81.41808663643438
 30
0.0
 10
-3.783578909480379
 20
80.54625155728739
 30
0.0
 10
-3.754134653026531
 20
80.1916138259983
 30
0.0
 10
-3.727942182837666
 20
79.26855197692427
 30
0.0
  0
SPLINE
  5
1AA
330
1F
100
AcDbEntity
  8
0
  6
Continuous
 62
     7
370
    15
100
AcDbSpline
210
0.0
220
0.0
230
1.0
 70
     8
 71
     3
 72
     8
 73
     4
 74
     0
 42
0.000000001
 43
0.00000001
 40
6.0
 40
6.0
 40
6.0
 40
6.0
 40
7.0
 40
7.0
 40
7.0
 40
7.0
 10
-1.978451475612472
 20
82.64399520998425
 30
0.0
 10
-2.639737106188328
 20
82.72714590899669
 30
0.0
 10
-3.838814730967539
 20
82.00516026814154
 30
0.0
 10
-3.816319497216884
 20
81.41808663643438
 30
0.0
  0
LINE
  5
1AB
330
1F
100
AcDbEntity
  8
0
  6
Continuous
 62
     7
370
    15
100
AcDbLine
 10
-1.3541085127
 20
82.64399521
 30
0.0
 11
-1.9784514756
 21
82.64399521
 31
0.0
  0
SPLINE
  5
1AC
330
1F
100
AcDbEntity
  8
0
  6
Continuous
 62
     7
370
    15
100
AcDbSpline
210
0.0
220
0.0
230
1.0
 70
     8
 71
     3
 72
     8
 73
     4
 74
     0
 42
0.000000001
 43
0.00000001
 40
4.0
 40
4.0
 40
4.0
 40
4.0
 40
5.0
 40
5.0
 40
5.0
 40
5.0
 10
0.5075168514385523
 20
81.47228307418366
 30
0.0
 10
0.509951979052302
 20
82.22678657768832
 30
0.0
 10
-0.7231431906261533
 20
82.64399520998425
 30
0.0
 10
-1.354108512740966
 20
82.64399520998425
 30
0.0
  0
LINE
  5
1AD
330
1F
100
AcDbEntity
  8
0
  6
Continuous
 62
     7
370
    15
100
AcDbLine
 10
0.6282041517
 20
78.8124109995
 30
0.0
 11
0.5075168514
 21
81.4722830742
 31
0.0
  0
LINE
  5
1AE
330
1F
100
AcDbEntity
  8
0
  6
Continuous
 62
     7
370
    15
100
AcDbLine
 10
1.3048132683
 20
80.0031290093
 30
0.0
 11
0.6282041517
 21
78.8124109995
 31
0.0
  0
SPLINE
  5
1AF
330
1F
100
AcDbEntity
  8
0
  6
Continuous
 62
     7
370
    15
100
AcDbSpline
210
0.0
220
0.0
230
1.0
 70
     8
 71
     3
 72
     8
 73
     4
 74
     0
 42
0.000000001
 43
0.00000001
 40
1.0
 40
1.0
 40
1.0
 40
1.0
 40
2.0
 40
2.0
 40
2.0
 40
2.0
 10
3.298529457152745
 20
81.87517790757806
 30
0.0
 10
2.117061962557386
 20
81.00598583279249
 30
0.0
 10
2.180969214084467
 20
81.14671839087111
 30
0.0
 10
1.304813268256355
 20
80.00312900934374
 30
0.0
  0
SPLINE
  5
1B0
330
1F
100
AcDbEntity
  8
0
  6
Continuous
 62
     7
370
    15
100
AcDbSpline
210
0.0
220
0.0
230
1.0
 70
     8
 71
     3
 72
     8
 73
     4
 74
     0
 42
0.000000001
 43
0.00000001
 40
0.0
 40
0.0
 40
0.0
 40
0.0
 40
1.0
 40
1.0
 40
1.0
 40
1.0
 10
7.732599875356204
 20
83.20463879807653
 30
0.0
 10
5.992181503326866
 20
83.15890591361969
 30
0.0
 10
4.479967255069975
 20
82.74431058900697
 30
0.0
 10
3.29852945715276
 20
81.87517790757806
 30
0.0
  0
SPLINE
  5
1B1
330
1F
100
AcDbEntity
  8
0
  6
Continuous
 62
     7
370
    15
100
AcDbSpline
210
0.0
220
0.0
230
1.0
 70
     8
 71
     3
 72
     8
 73
     4
 74
     0
 42
0.000000001
 43
0.00000001
 40
25.0
 40
25.0
 40
25.0
 40
25.0
 40
26.0
 40
26.0
 40
26.0
 40
26.0
 10
37.23921935354191
 20
80.5048246911721
 30
0.0
 10
36.10826590859663
 20
82.53215751981216
 30
0.0
 10
34.04407950228703
 20
83.59292286578719
 30
0.0
 10
31.04710558478647
 20
83.6873879992012
 30
0.0
  0
SPLINE
  5
1B2
330
1F
100
AcDbEntity
  8
0
  6
Continuous
 62
     7
370
    15
100
AcDbSpline
210
0.0
220
0.0
230
1.0
 70
     8
 71
     3
 72
     8
 73
     4
 74
     0
 42
0.000000001
 43
0.00000001
 40
24.0
 40
24.0
 40
24.0
 40
24.0
 40
25.0
 40
25.0
 40
25.0
 40
25.0
 10
38.85091747383171
 20
73.22272404507423
 30
0.0
 10
38.9074451008209
 20
76.05008538492858
 30
0.0
 10
38.37014310180864
 20
78.47746216585388
 30
0.0
 10
37.23921935354191
 20
80.5048246911721
 30
0.0
  0
LINE
  5
1B3
330
1F
100
AcDbEntity
  8
0
  6
Continuous
 62
     7
370
    15
100
AcDbLine
 10
38.8509174738
 20
63.5050503349
 30
0.0
 11
38.8509174738
 21
73.2227240451
 31
0.0
  0
SPLINE
  5
1B4
330
1F
100
AcDbEntity
  8
0
  6
Continuous
 62
     7
370
    15
100
AcDbSpline
210
0.0
220
0.0
230
1.0
 70
     8
 71
     3
 72
     8
 73
     4
 74
     0
 42
0.000000001
 43
0.00000001
 40
22.0
 40
22.0
 40
22.0
 40
22.0
 40
23.0
 40
23.0
 40
23.0
 40
23.0
 10
38.90223333379375
 20
60.25216529281184
 30
0.0
 10
38.86370189380506
 20
61.3101391510341
 30
0.0
 10
38.84696781562887
 20
62.39451335619336
 30
0.0
 10
38.85091747383171
 20
63.50505033486273
 30
0.0
  0
SPLINE
  5
1B5
330
1F
100
AcDbEntity
  8
0
  6
Continuous
 62
     7
370
    15
100
AcDbSpline
210
0.0
220
0.0
230
1.0
 70
     8
 71
     3
 72
     8
 73
     4
 74
     0
 42
0.000000001
 43
0.00000001
 40
21.0
 40
21.0
 40
21.0
 40
21.0
 40
22.0
 40
22.0
 40
22.0
 40
22.0
 10
39.01816916555992
 20
59.02343553483101
 30
0.0
 10
38.9636460643503
 20
59.5800997680421
 30
0.0
 10
38.9250849276829
 20
59.62327873817226
 30
0.0
 10
38.90223333379375
 20
60.25216529281184
 30
0.0
  0
SPLINE
  5
1B6
330
1F
100
AcDbEntity
  8
0
  6
Continuous
 62
     7
370
    15
100
AcDbSpline
210
0.0
220
0.0
230
1.0
 70
     8
 71
     3
 72
     8
 73
     4
 74
     0
 42
0.000000001
 43
0.00000001
 40
20.0
 40
20.0
 40
20.0
 40
20.0
 40
21.0
 40
21.0
 40
21.0
 40
21.0
 10
37.36085694752578
 20
57.38512919085713
 30
0.0
 10
38.40920908200528
 20
57.38512919085713
 30
0.0
 10
39.11587123689974
 20
58.03483311692769
 30
0.0
 10
39.01816916555992
 20
59.02343553483101
 30
0.0
  0
LINE
  5
1B7
330
1F
100
AcDbEntity
  8
0
  6
Continuous
 62
     7
370
    15
100
AcDbLine
 10
36.7251104602
 20
57.4136973953
 30
0.0
 11
37.3608569475
 21
57.3851291909
 31
0.0
  0
SPLINE
  5
1B8
330
1F
100
AcDbEntity
  8
0
  6
Continuous
 62
     7
370
    15
100
AcDbSpline
210
0.0
220
0.0
230
1.0
 70
     8
 71
     3
 72
     8
 73
     4
 74
     0
 42
0.000000001
 43
0.00000001
 40
18.0
 40
18.0
 40
18.0
 40
18.0
 40
19.0
 40
19.0
 40
19.0
 40
19.0
 10
35.13716968250331
 20
58.7621641598622
 30
0.0
 10
35.15176559984784
 20
58.12288376784647
 30
0.0
 10
35.87735938710643
 20
57.41369739530379
 30
0.0
 10
36.72511046021796
 20
57.41369739530379
 30
0.0
  0
LINE
  5
1B9
330
1F
100
AcDbEntity
  8
0
  6
Continuous
 62
     7
370
    15
100
AcDbLine
 10
34.8919939071
 20
60.3748125739
 30
0.0
 11
35.1371696825
 21
58.7621641599
 31
0.0
  0
LINE
  5
1BA
330
1F
100
AcDbEntity
  8
0
  6
Continuous
 62
     7
370
    15
100
AcDbLine
 10
34.7789089565
 20
60.3748125739
 30
0.0
 11
34.8919939071
 21
60.3748125739
 31
0.0
  0
SPLINE
  5
1BB
330
1F
100
AcDbEntity
  8
0
  6
Continuous
 62
     7
370
    15
100
AcDbSpline
210
0.0
220
0.0
230
1.0
 70
     8
 71
     3
 72
     8
 73
     4
 74
     0
 42
0.000000001
 43
0.00000001
 40
15.0
 40
15.0
 40
15.0
 40
15.0
 40
16.0
 40
16.0
 40
16.0
 40
16.0
 10
32.41362792970178
 20
57.86980867606599
 30
0.0
 10
33.40004764175654
 20
58.5150877970821
 30
0.0
 10
34.18828657171775
 20
59.34995051184696
 30
0.0
 10
34.77890895647173
 20
60.37481257385538
 30
0.0
  0
SPLINE
  5
1BC
330
1F
100
AcDbEntity
  8
0
  6
Continuous
 62
     7
370
    15
100
AcDbSpline
210
0.0
220
0.0
230
1.0
 70
     8
 71
     3
 72
     8
 73
     4
 74
     0
 42
0.000000001
 43
0.00000001
 40
14.0
 40
14.0
 40
14.0
 40
14.0
 40
15.0
 40
15.0
 40
15.0
 40
15.0
 10
28.97356472483765
 20
56.87104999421187
 30
0.0
 10
30.28041159487304
 20
56.89148130882667
 30
0.0
 10
31.4271785209693
 20
57.22455925172807
 30
0.0
 10
32.41362792970178
 20
57.86980867606599
 30
0.0
  0
SPLINE
  5
1BD
330
1F
100
AcDbEntity
  8
0
  6
Continuous
 62
     7
370
    15
100
AcDbSpline
210
0.0
220
0.0
230
1.0
 70
     8
 71
     3
 72
     8
 73
     4
 74
     0
 42
0.000000001
 43
0.00000001
 40
13.0
 40
13.0
 40
13.0
 40
13.0
 40
14.0
 40
14.0
 40
14.0
 40
14.0
 10
24.46442110409715
 20
59.14320223808785
 30
0.0
 10
25.51761379712642
 20
57.69400434101103
 30
0.0
 10
27.02032510835368
 20
56.93626389958035
 30
0.0
 10
28.97356472483765
 20
56.87104999421187
 30
0.0
  0
SPLINE
  5
1BE
330
1F
100
AcDbEntity
  8
0
  6
Continuous
 62
     7
370
    15
100
AcDbSpline
210
0.0
220
0.0
230
1.0
 70
     8
 71
     3
 72
     8
 73
     4
 74
     0
 42
0.000000001
 43
0.00000001
 40
12.0
 40
12.0
 40
12.0
 40
12.0
 40
13.0
 40
13.0
 40
13.0
 40
13.0
 10
22.8669773893523
 20
64.3926543501442
 30
0.0
 10
22.87875212226644
 20
62.34192053906762
 30
0.0
 10
23.41122841106781
 20
60.59240013516418
 30
0.0
 10
24.46442110409715
 20
59.14320223808785
 30
0.0
  0
SPLINE
  5
1BF
330
1F
100
AcDbEntity
  8
0
  6
Continuous
 62
     7
370
    15
100
AcDbSpline
210
0.0
220
0.0
230
1.0
 70
     8
 71
     3
 72
     8
 73
     4
 74
     0
 42
0.000000001
 43
0.00000001
 40
11.0
 40
11.0
 40
11.0
 40
11.0
 40
12.0
 40
12.0
 40
12.0
 40
12.0
 10
26.00009572814737
 20
71.58162621334759
 30
0.0
 10
23.94948070378351
 20
69.98834003355324
 30
0.0
 10
22.90546428432395
 20
67.59181810129746
 30
0.0
 10
22.8669773893523
 20
64.3926543501442
 30
0.0
  0
SPLINE
  5
1C0
330
1F
100
AcDbEntity
  8
0
  6
Continuous
 62
     7
370
    15
100
AcDbSpline
210
0.0
220
0.0
230
1.0
 70
     8
 71
     3
 72
     8
 73
     4
 74
     0
 42
0.000000001
 43
0.00000001
 40
10.0
 40
10.0
 40
10.0
 40
10.0
 40
11.0
 40
11.0
 40
11.0
 40
11.0
 10
34.23629125205796
 20
71.31364338910147
 30
0.0
 10
31.26317861550617
 20
72.99895957469563
 30
0.0
 10
27.82458539621357
 20
72.99919714812145
 30
0.0
 10
26.00009572814737
 20
71.58162621334759
 30
0.0
  0
SPLINE
  5
1C1
330
1F
100
AcDbEntity
  8
0
  6
Continuous
 62
     7
370
    15
100
AcDbSpline
210
0.0
220
0.0
230
1.0
 70
     8
 71
     3
 72
     8
 73
     4
 74
     0
 42
0.000000001
 43
0.00000001
 40
9.0
 40
9.0
 40
9.0
 40
9.0
 40
10.0
 40
10.0
 40
10.0
 40
10.0
 10
34.60500520882242
 20
71.6243894299829
 30
0.0
 10
34.56929495326467
 20
71.48021205723087
 30
0.0
 10
34.63648368773455
 20
71.0743475560142
 30
0.0
 10
34.23629125205796
 20
71.31364338910147
 30
0.0
  0
SPLINE
  5
1C2
330
1F
100
AcDbEntity
  8
0
  6
Continuous
 62
     7
370
    15
100
AcDbSpline
210
0.0
220
0.0
230
1.0
 70
     8
 71
     3
 72
     8
 73
     4
 74
     0
 42
0.000000001
 43
0.00000001
 40
8.0
 40
8.0
 40
8.0
 40
8.0
 40
9.0
 40
9.0
 40
9.0
 40
9.0
 10
34.49762202038359
 20
74.36883764425039
 30
0.0
 10
34.53002109632033
 20
74.00143034132721
 30
0.0
 10
34.50492740322527
 20
72.50789530366971
 30
0.0
 10
34.60500520882242
 20
71.6243894299829
 30
0.0
  0
SPLINE
  5
1C3
330
1F
100
AcDbEntity
  8
0
  6
Continuous
 62
     7
370
    15
100
AcDbSpline
210
0.0
220
0.0
230
1.0
 70
     8
 71
     3
 72
     8
 73
     4
 74
     0
 42
0.000000001
 43
0.00000001
 40
7.0
 40
7.0
 40
7.0
 40
7.0
 40
8.0
 40
8.0
 40
8.0
 40
8.0
 10
33.95405402226682
 20
77.56084449595272
 30
0.0
 10
34.33681450782866
 20
76.40448554279133
 30
0.0
 10
34.51820181838914
 20
75.34057234892553
 30
0.0
 10
34.49762202038359
 20
74.36883764425039
 30
0.0
  0
SPLINE
  5
1C4
330
1F
100
AcDbEntity
  8
0
  6
Continuous
 62
     7
370
    15
100
AcDbSpline
210
0.0
220
0.0
230
1.0
 70
     8
 71
     3
 72
     8
 73
     4
 74
     0
 42
0.000000001
 43
0.00000001
 40
6.0
 40
6.0
 40
6.0
 40
6.0
 40
7.0
 40
7.0
 40
7.0
 40
7.0
 10
30.19184125208548
 20
79.87861083757257
 30
0.0
 10
32.196886723722
 20
79.7589035276726
 30
0.0
 10
33.51815133103242
 20
78.87771399488636
 30
0.0
 10
33.95405402226682
 20
77.56084449595272
 30
0.0
  0
SPLINE
  5
1C5
330
1F
100
AcDbEntity
  8
0
  6
Continuous
 62
     7
370
    15
100
AcDbSpline
210
0.0
220
0.0
230
1.0
 70
     8
 71
     3
 72
     8
 73
     4
 74
     0
 42
0.000000001
 43
0.00000001
 40
5.0
 40
5.0
 40
5.0
 40
5.0
 40
6.0
 40
6.0
 40
6.0
 40
6.0
 10
27.62889913509118
 20
79.51559864302622
 30
0.0
 10
28.50851474393152
 20
79.83189796273452
 30
0.0
 10
29.25566831957727
 20
79.87175090490389
 30
0.0
 10
30.19184125208548
 20
79.87861083757257
 30
0.0
  0
SPLINE
  5
1C6
330
1F
100
AcDbEntity
  8
0
  6
Continuous
 62
     7
370
    15
100
AcDbSpline
210
0.0
220
0.0
230
1.0
 70
     8
 71
     3
 72
     8
 73
     4
 74
     0
 42
0.000000001
 43
0.00000001
 40
4.0
 40
4.0
 40
4.0
 40
4.0
 40
5.0
 40
5.0
 40
5.0
 40
5.0
 10
25.76917435831789
 20
78.69457458031148
 30
0.0
 10
26.41028109604419
 20
79.00793392887617
 30
0.0
 10
27.44477973013477
 20
79.4556707463806
 30
0.0
 10
27.62889913509118
 20
79.51559864302622
 30
0.0
  0
SPLINE
  5
1C7
330
1F
100
AcDbEntity
  8
0
  6
Continuous
 62
     7
370
    15
100
AcDbSpline
210
0.0
220
0.0
230
1.0
 70
     8
 71
     3
 72
     8
 73
     4
 74
     0
 42
0.000000001
 43
0.00000001
 40
3.0
 40
3.0
 40
3.0
 40
3.0
 40
4.0
 40
4.0
 40
4.0
 40
4.0
 10
23.10550110880573
 20
78.22037802251373
 30
0.0
 10
23.51172197016037
 20
77.40321452796726
 30
0.0
 10
24.62824282949128
 20
78.13687096336257
 30
0.0
 10
25.76917435831789
 20
78.69457458031148
 30
0.0
  0
SPLINE
  5
1C8
330
1F
100
AcDbEntity
  8
0
  6
Continuous
 62
     7
370
    15
100
AcDbSpline
210
0.0
220
0.0
230
1.0
 70
     8
 71
     3
 72
     8
 73
     4
 74
     0
 42
0.000000001
 43
0.00000001
 40
2.0
 40
2.0
 40
2.0
 40
2.0
 40
3.0
 40
3.0
 40
3.0
 40
3.0
 10
24.99088381556029
 20
81.78775088690173
 30
0.0
 10
23.86805241210748
 20
80.74789200239263
 30
0.0
 10
22.5149826624251
 20
79.40824515126549
 30
0.0
 10
23.10550110880573
 20
78.22037802251373
 30
0.0
  0
SPLINE
  5
1C9
330
1F
100
AcDbEntity
  8
0
  6
Continuous
 62
     7
370
    15
100
AcDbSpline
210
0.0
220
0.0
230
1.0
 70
     8
 71
     3
 72
     8
 73
     4
 74
     0
 42
0.000000001
 43
0.00000001
 40
1.0
 40
1.0
 40
1.0
 40
1.0
 40
2.0
 40
2.0
 40
2.0
 40
2.0
 10
27.1974657939288
 20
83.05069121819032
 30
0.0
 10
26.31088631404583
 20
82.7385791301109
 30
0.0
 10
25.63733595536576
 20
82.21268065553444
 30
0.0
 10
24.99088381556029
 20
81.78775088690173
 30
0.0
  0
SPLINE
  5
1CA
330
1F
100
AcDbEntity
  8
0
  6
Continuous
 62
     7
370
    15
100
AcDbSpline
210
0.0
220
0.0
230
1.0
 70
     8
 71
     3
 72
     8
 73
     4
 74
     0
 42
0.000000001
 43
0.00000001
 40
0.0
 40
0.0
 40
0.0
 40
0.0
 40
1.0
 40
1.0
 40
1.0
 40
1.0
 10
31.04710558478647
 20
83.6873879992012
 30
0.0
 10
29.63893364866886
 20
83.67084694943335
 30
0.0
 10
28.35588866622611
 20
83.45845630681241
 30
0.0
 10
27.1974657939288
 20
83.05069121819032
 30
0.0
  0
SPLINE
  5
1CB
330
1F
100
AcDbEntity
  8
0
  6
Continuous
 62
     7
370
    15
100
AcDbSpline
210
0.0
220
0.0
230
1.0
 70
     8
 71
     3
 72
     8
 73
     4
 74
     0
 42
0.000000001
 43
0.00000001
 40
25.0
 40
25.0
 40
25.0
 40
25.0
 40
26.0
 40
26.0
 40
26.0
 40
26.0
 10
59.49132639969486
 20
83.32348490430805
 30
0.0
 10
58.5605285659445
 20
83.61056269264921
 30
0.0
 10
58.06934550820541
 20
83.67473721428007
 30
0.0
 10
56.94165869786447
 20
83.6873879992012
 30
0.0
  0
SPLINE
  5
1CC
330
1F
100
AcDbEntity
  8
0
  6
Continuous
 62
     7
370
    15
100
AcDbSpline
210
0.0
220
0.0
230
1.0
 70
     8
 71
     3
 72
     8
 73
     4
 74
     0
 42
0.000000001
 43
0.00000001
 40
24.0
 40
24.0
 40
24.0
 40
24.0
 40
25.0
 40
25.0
 40
25.0
 40
25.0
 10
61.17334625400694
 20
82.56895170412524
 30
0.0
 10
60.70139179541513
 20
82.8713529784271
 30
0.0
 10
59.98709759421865
 20
83.17054701148136
 30
0.0
 10
59.49132639969486
 20
83.32348490430805
 30
0.0
  0
SPLINE
  5
1CD
330
1F
100
AcDbEntity
  8
0
  6
Continuous
 62
     7
370
    15
100
AcDbSpline
210
0.0
220
0.0
230
1.0
 70
     8
 71
     3
 72
     8
 73
     4
 74
     0
 42
0.000000001
 43
0.00000001
 40
23.0
 40
23.0
 40
23.0
 40
23.0
 40
24.0
 40
24.0
 40
24.0
 40
24.0
 10
62.59118445888434
 20
79.56504361226021
 30
0.0
 10
64.33423098693615
 20
80.72125408203087
 30
0.0
 10
61.71575608167307
 20
82.08985519442135
 30
0.0
 10
61.17334625400694
 20
82.56895170412524
 30
0.0
  0
SPLINE
  5
1CE
330
1F
100
AcDbEntity
  8
0
  6
Continuous
 62
     7
370
    15
100
AcDbSpline
210
0.0
220
0.0
230
1.0
 70
     8
 71
     3
 72
     8
 73
     4
 74
     0
 42
0.000000001
 43
0.00000001
 40
22.0
 40
22.0
 40
22.0
 40
22.0
 40
23.0
 40
23.0
 40
23.0
 40
23.0
 10
59.87999652422248
 20
80.47070320789858
 30
0.0
 10
61.49424855883916
 20
79.7649616500293
 30
0.0
 10
61.54823711984083
 20
78.87325949315374
 30
0.0
 10
62.59118445888434
 20
79.56504361226021
 30
0.0
  0
SPLINE
  5
1CF
330
1F
100
AcDbEntity
  8
0
  6
Continuous
 62
     7
370
    15
100
AcDbSpline
210
0.0
220
0.0
230
1.0
 70
     8
 71
     3
 72
     8
 73
     4
 74
     0
 42
0.000000001
 43
0.00000001
 40
21.0
 40
21.0
 40
21.0
 40
21.0
 40
22.0
 40
22.0
 40
22.0
 40
22.0
 10
57.34271233720903
 20
80.92019212941834
 30
0.0
 10
58.28299825965073
 20
80.90074080518511
 30
0.0
 10
59.13137296300484
 20
80.77043178116084
 30
0.0
 10
59.87999652422248
 20
80.47070320789858
 30
0.0
  0
SPLINE
  5
1D0
330
1F
100
AcDbEntity
  8
0
  6
Continuous
 62
     7
370
    15
100
AcDbSpline
210
0.0
220
0.0
230
1.0
 70
     8
 71
     3
 72
     8
 73
     4
 74
     0
 42
0.000000001
 43
0.00000001
 40
20.0
 40
20.0
 40
20.0
 40
20.0
 40
21.0
 40
21.0
 40
21.0
 40
21.0
 10
53.62611366477152
 20
76.58590255002997
 30
0.0
 10
53.60514780994922
 20
79.00336064043037
 30
0.0
 10
54.8373817759598
 20
80.8280730335836
 30
0.0
 10
57.34271233720903
 20
80.92019212941834
 30
0.0
  0
SPLINE
  5
1D1
330
1F
100
AcDbEntity
  8
0
  6
Continuous
 62
     7
370
    15
100
AcDbSpline
210
0.0
220
0.0
230
1.0
 70
     8
 71
     3
 72
     8
 73
     4
 74
     0
 42
0.000000001
 43
0.00000001
 40
19.0
 40
19.0
 40
19.0
 40
19.0
 40
20.0
 40
20.0
 40
20.0
 40
20.0
 10
54.49088093450256
 20
74.41923290718725
 30
0.0
 10
53.89941219441917
 20
75.00413868138466
 30
0.0
 10
53.61142865739244
 20
75.72654007573493
 30
0.0
 10
53.62611366477152
 20
76.58590255002997
 30
0.0
  0
SPLINE
  5
1D2
330
1F
100
AcDbEntity
  8
0
  6
Continuous
 62
     7
370
    15
100
AcDbSpline
210
0.0
220
0.0
230
1.0
 70
     8
 71
     3
 72
     8
 73
     4
 74
     0
 42
0.000000001
 43
0.00000001
 40
18.0
 40
18.0
 40
18.0
 40
18.0
 40
19.0
 40
19.0
 40
19.0
 40
19.0
 10
57.43869200121257
 20
72.56806077374118
 30
0.0
 10
56.06493851515027
 20
73.21725985628191
 30
0.0
 10
55.08233482624726
 20
73.83423804295529
 30
0.0
 10
54.49088093450256
 20
74.41923290718725
 30
0.0
  0
SPLINE
  5
1D3
330
1F
100
AcDbEntity
  8
0
  6
Continuous
 62
     7
370
    15
100
AcDbSpline
210
0.0
220
0.0
230
1.0
 70
     8
 71
     3
 72
     8
 73
     4
 74
     0
 42
0.000000001
 43
0.00000001
 40
17.0
 40
17.0
 40
17.0
 40
17.0
 40
18.0
 40
18.0
 40
18.0
 40
18.0
 10
61.73400469043829
 20
69.42068802940119
 30
0.0
 10
60.76088909022611
 20
70.67133393590711
 30
0.0
 10
59.32875193478632
 20
71.72030970062963
 30
0.0
 10
57.43869200121257
 20
72.56806077374118
 30
0.0
  0
SPLINE
  5
1D4
330
1F
100
AcDbEntity
  8
0
  6
Continuous
 62
     7
370
    15
100
AcDbSpline
210
0.0
220
0.0
230
1.0
 70
     8
 71
     3
 72
     8
 73
     4
 74
     0
 42
0.000000001
 43
0.00000001
 40
16.0
 40
16.0
 40
16.0
 40
16.0
 40
17.0
 40
17.0
 40
17.0
 40
17.0
 10
63.1993575804663
 20
64.76614947210172
 30
0.0
 10
63.19497732042882
 20
66.61824220257292
 30
0.0
 10
62.70710544231166
 20
68.170012426217
 30
0.0
 10
61.73400469043829
 20
69.42068802940119
 30
0.0
  0
SPLINE
  5
1D5
330
1F
100
AcDbEntity
  8
0
  6
Continuous
 62
     7
370
    15
100
AcDbSpline
210
0.0
220
0.0
230
1.0
 70
     8
 71
     3
 72
     8
 73
     4
 74
     0
 42
0.000000001
 43
0.00000001
 40
15.0
 40
15.0
 40
15.0
 40
15.0
 40
16.0
 40
16.0
 40
16.0
 40
16.0
 10
60.87398888922256
 20
58.961755534171
 30
0.0
 10
62.39278095170481
 20
60.33599901542338
 30
0.0
 10
63.16738910636359
 20
62.2706188146643
 30
0.0
 10
63.1993575804663
 20
64.76614947210172
 30
0.0
  0
SPLINE
  5
1D6
330
1F
100
AcDbEntity
  8
0
  6
Continuous
 62
     7
370
    15
100
AcDbSpline
210
0.0
220
0.0
230
1.0
 70
     8
 71
     3
 72
     8
 73
     4
 74
     0
 42
0.000000001
 43
0.00000001
 40
14.0
 40
14.0
 40
14.0
 40
14.0
 40
15.0
 40
15.0
 40
15.0
 40
15.0
 10
54.66191895270398
 20
56.87107969089003
 30
0.0
 10
57.2841950327791
 20
56.89053101512327
 30
0.0
 10
59.35516713006158
 20
57.58745265956176
 30
0.0
 10
60.87398888922256
 20
58.961755534171
 30
0.0
  0
SPLINE
  5
1D7
330
1F
100
AcDbEntity
  8
0
  6
Continuous
 62
     7
370
    15
100
AcDbSpline
210
0.0
220
0.0
230
1.0
 70
     8
 71
     3
 72
     8
 73
     4
 74
     0
 42
0.000000001
 43
0.00000001
 40
13.0
 40
13.0
 40
13.0
 40
13.0
 40
14.0
 40
14.0
 40
14.0
 40
14.0
 10
51.22755751005757
 20
57.35002771720259
 30
0.0
 10
52.30254756489936
 20
57.03856895604412
 30
0.0
 10
53.44704269511259
 20
56.8788899172616
 30
0.0
 10
54.66191895270398
 20
56.87107969089003
 30
0.0
  0
SPLINE
  5
1D8
330
1F
100
AcDbEntity
  8
0
  6
Continuous
 62
     7
370
    15
100
AcDbSpline
210
0.0
220
0.0
230
1.0
 70
     8
 71
     3
 72
     8
 73
     4
 74
     0
 42
0.000000001
 43
0.00000001
 40
12.0
 40
12.0
 40
12.0
 40
12.0
 40
13.0
 40
13.0
 40
13.0
 40
13.0
 10
49.52653178168579
 20
58.15492648364433
 30
0.0
 10
50.18475865440492
 20
57.78472769296945
 30
0.0
 10
50.39012603262697
 20
57.59261988157195
 30
0.0
 10
51.22755751005757
 20
57.35002771720259
 30
0.0
  0
SPLINE
  5
1D9
330
1F
100
AcDbEntity
  8
0
  6
Continuous
 62
     7
370
    15
100
AcDbSpline
210
0.0
220
0.0
230
1.0
 70
     8
 71
     3
 72
     8
 73
     4
 74
     0
 42
0.000000001
 43
0.00000001
 40
11.0
 40
11.0
 40
11.0
 40
11.0
 40
12.0
 40
12.0
 40
12.0
 40
12.0
 10
48.59334336533858
 20
60.38713669531594
 30
0.0
 10
48.09089041821565
 20
59.24221096326901
 30
0.0
 10
49.02559336515233
 20
58.45180417579802
 30
0.0
 10
49.52653178168579
 20
58.15492648364433
 30
0.0
  0
LINE
  5
1DA
330
1F
100
AcDbEntity
  8
0
  6
Continuous
 62
     7
370
    15
100
AcDbLine
 10
48.7748494626
 20
60.7748565261
 30
0.0
 11
48.5933433653
 21
60.3871366953
 31
0.0
  0
SPLINE
  5
1DB
330
1F
100
AcDbEntity
  8
0
  6
Continuous
 62
     7
370
    15
100
AcDbSpline
210
0.0
220
0.0
230
1.0
 70
     8
 71
     3
 72
     8
 73
     4
 74
     0
 42
0.000000001
 43
0.00000001
 40
9.0
 40
9.0
 40
9.0
 40
9.0
 40
10.0
 40
10.0
 40
10.0
 40
10.0
 10
51.83859636108744
 20
61.45529651416769
 30
0.0
 10
51.0302379316329
 20
61.91942589804909
 30
0.0
 10
49.1906178060141
 20
62.04519133030526
 30
0.0
 10
48.77484946261176
 20
60.77485652614072
 30
0.0
  0
SPLINE
  5
1DC
330
1F
100
AcDbEntity
  8
0
  6
Continuous
 62
     7
370
    15
100
AcDbSpline
210
0.0
220
0.0
230
1.0
 70
     8
 71
     3
 72
     8
 73
     4
 74
     0
 42
0.000000001
 43
0.00000001
 40
8.0
 40
8.0
 40
8.0
 40
8.0
 40
9.0
 40
9.0
 40
9.0
 40
9.0
 10
54.74459450486495
 20
60.88892146717885
 30
0.0
 10
53.74730580858287
 20
60.9113127625557
 30
0.0
 10
52.77886743518984
 20
61.10006484931476
 30
0.0
 10
51.83859636108744
 20
61.45529651416769
 30
0.0
  0
SPLINE
  5
1DD
330
1F
100
AcDbEntity
  8
0
  6
Continuous
 62
     7
370
    15
100
AcDbSpline
210
0.0
220
0.0
230
1.0
 70
     8
 71
     3
 72
     8
 73
     4
 74
     0
 42
0.000000001
 43
0.00000001
 40
7.0
 40
7.0
 40
7.0
 40
7.0
 40
8.0
 40
8.0
 40
8.0
 40
8.0
 10
57.61446663958947
 20
61.83541399536809
 30
0.0
 10
56.9841397960565
 20
61.22223698350663
 30
0.0
 10
56.02765433564659
 20
60.90644250732822
 30
0.0
 10
54.74459450486495
 20
60.88892146717885
 30
0.0
  0
SPLINE
  5
1DE
330
1F
100
AcDbEntity
  8
0
  6
Continuous
 62
     7
370
    15
100
AcDbSpline
210
0.0
220
0.0
230
1.0
 70
     8
 71
     3
 72
     8
 73
     4
 74
     0
 42
0.000000001
 43
0.00000001
 40
6.0
 40
6.0
 40
6.0
 40
6.0
 40
7.0
 40
7.0
 40
7.0
 40
7.0
 10
58.55810828666951
 20
64.25296117580295
 30
0.0
 10
58.5600534190928
 20
63.25435097734012
 30
0.0
 10
58.24477863478306
 20
62.44853161387316
 30
0.0
 10
57.61446663958947
 20
61.83541399536809
 30
0.0
  0
SPLINE
  5
1DF
330
1F
100
AcDbEntity
  8
0
  6
Continuous
 62
     7
370
    15
100
AcDbSpline
210
0.0
220
0.0
230
1.0
 70
     8
 71
     3
 72
     8
 73
     4
 74
     0
 42
0.000000001
 43
0.00000001
 40
5.0
 40
5.0
 40
5.0
 40
5.0
 40
6.0
 40
6.0
 40
6.0
 40
6.0
 10
57.73895511468238
 20
66.67047865955969
 30
0.0
 10
58.30191504367592
 20
66.01643901846914
 30
0.0
 10
58.57536205671445
 20
65.21064935168035
 30
0.0
 10
58.55810828666951
 20
64.25296117580295
 30
0.0
  0
SPLINE
  5
1E0
330
1F
100
AcDbEntity
  8
0
  6
Continuous
 62
     7
370
    15
100
AcDbSpline
210
0.0
220
0.0
230
1.0
 70
     8
 71
     3
 72
     8
 73
     4
 74
     0
 42
0.000000001
 43
0.00000001
 40
4.0
 40
4.0
 40
4.0
 40
4.0
 40
5.0
 40
5.0
 40
5.0
 40
5.0
 10
54.86906813161908
 20
68.59770398592433
 30
0.0
 10
56.21949487694008
 20
67.96700593391351
 30
0.0
 10
57.17598033734996
 20
67.32451830065023
 30
0.0
 10
57.73895511468238
 20
66.67047865955969
 30
0.0
  0
SPLINE
  5
1E1
330
1F
100
AcDbEntity
  8
0
  6
Continuous
 62
     7
370
    15
100
AcDbSpline
210
0.0
220
0.0
230
1.0
 70
     8
 71
     3
 72
     8
 73
     4
 74
     0
 42
0.000000001
 43
0.00000001
 40
3.0
 40
3.0
 40
3.0
 40
3.0
 40
4.0
 40
4.0
 40
4.0
 40
4.0
 10
50.42454448268267
 20
71.84960903759423
 30
0.0
 10
51.36742886446828
 20
70.59893343441009
 30
0.0
 10
52.84859523564776
 20
69.51547982627552
 30
0.0
 10
54.86906813161908
 20
68.59770398592433
 30
0.0
  0
SPLINE
  5
1E2
330
1F
100
AcDbEntity
  8
0
  6
Continuous
 62
     7
370
    15
100
AcDbSpline
210
0.0
220
0.0
230
1.0
 70
     8
 71
     3
 72
     8
 73
     4
 74
     0
 42
0.000000001
 43
0.00000001
 40
2.0
 40
2.0
 40
2.0
 40
2.0
 40
3.0
 40
3.0
 40
3.0
 40
3.0
 10
49.02571215186506
 20
75.97863517713391
 30
0.0
 10
49.01534801116659
 20
74.47684446293182
 30
0.0
 10
49.48166010089702
 20
73.10025494410017
 30
0.0
 10
50.42454448268267
 20
71.84960903759423
 30
0.0
  0
SPLINE
  5
1E3
330
1F
100
AcDbEntity
  8
0
  6
Continuous
 62
     7
370
    15
100
AcDbSpline
210
0.0
220
0.0
230
1.0
 70
     8
 71
     3
 72
     8
 73
     4
 74
     0
 42
0.000000001
 43
0.00000001
 40
1.0
 40
1.0
 40
1.0
 40
1.0
 40
2.0
 40
2.0
 40
2.0
 40
2.0
 10
51.1809782702715
 20
81.44469486011846
 30
0.0
 10
49.7735635994489
 20
80.00226780567584
 30
0.0
 10
49.05506731828444
 20
78.1801390235272
 30
0.0
 10
49.02571215186506
 20
75.97863517713391
 30
0.0
  0
SPLINE
  5
1E4
330
1F
100
AcDbEntity
  8
0
  6
Continuous
 62
     7
370
    15
100
AcDbSpline
210
0.0
220
0.0
230
1.0
 70
     8
 71
     3
 72
     8
 73
     4
 74
     0
 42
0.000000001
 43
0.00000001
 40
0.0
 40
0.0
 40
0.0
 40
0.0
 40
1.0
 40
1.0
 40
1.0
 40
1.0
 10
56.94165869786447
 20
83.6873879992012
 30
0.0
 10
54.50846136800837
 20
83.6347951820757
 30
0.0
 10
52.58839294109458
 20
82.88709221788292
 30
0.0
 10
51.1809782702715
 20
81.44469486011846
 30
0.0
  0
LINE
  5
1E5
330
1F
100
AcDbEntity
  8
0
  6
Continuous
 62
     7
370
    15
100
AcDbLine
 10
-15.1853723015
 20
39.9578014872
 30
0.0
 11
-16.2054615872
 21
36.9578014872
 31
0.0
  0
LINE
  5
1E6
330
1F
100
AcDbEntity
  8
0
  6
Continuous
 62
     7
370
    15
100
AcDbLine
 10
-16.2054615872
 20
36.9578014872
 30
0.0
 11
-18.0626044443
 21
36.9578014872
 31
0.0
  0
LINE
  5
1E7
330
1F
100
AcDbEntity
  8
0
  6
Continuous
 62
     7
370
    15
100
AcDbLine
 10
-18.0626044443
 20
36.9578014872
 30
0.0
 11
-15.3438544443
 21
44.9578014872
 31
0.0
  0
LINE
  5
1E8
330
1F
100
AcDbEntity
  8
0
  6
Continuous
 62
     7
370
    15
100
AcDbLine
 10
-15.3438544443
 20
44.9578014872
 30
0.0
 11
-8.64519373
 21
44.9578014872
 31
0.0
  0
SPLINE
  5
1E9
330
1F
100
AcDbEntity
  8
0
  6
Continuous
 62
     7
370
    15
100
AcDbSpline
210
0.0
220
0.0
230
1.0
 70
     8
 71
     3
 72
    23
 73
    19
 74
     0
 42
0.000000001
 43
0.00000001
 40
0.0
 40
0.0
 40
0.0
 40
0.0
 40
0.0890333952873822
 40
0.169914522219005
 40
0.2437708258629012
 40
0.3109809127987812
 40
0.3715254379572003
 40
0.4267224522894627
 40
0.4767967812651969
 40
0.5242918143765805
 40
0.5701712542719847
 40
0.6179105555093514
 40
0.6680059965634517
 40
0.7228121058928458
 40
0.7824474584241852
 40
0.8477531289523363
 40
0.9200612947445621
 40
1.0
 40
1.0
 40
1.0
 40
1.0
 10
-8.645193730032922
 20
44.95780148723274
 30
0.0
 10
-8.566289427976061
 20
44.95647274457205
 30
0.0
 10
-8.415705630270264
 20
44.95393692446083
 30
0.0
 10
-8.200220603530743
 20
44.93613741378505
 30
0.0
 10
-8.00554895345465
 20
44.90745465524113
 30
0.0
 10
-7.830721668127377
 20
44.86906556713772
 30
0.0
 10
-7.677537169668232
 20
44.81485264335986
 30
0.0
 10
-7.54473103415969
 20
44.75112068207513
 30
0.0
 10
-7.432337080343957
 20
44.67443731498753
 30
0.0
 10
-7.341873426756735
 20
44.58408040494855
 30
0.0
 10
-7.270405096610778
 20
44.48062979781227
 30
0.0
 10
-7.218783009334919
 20
44.36331785808931
 30
0.0
 10
-7.188129496773083
 20
44.23092389391279
 30
0.0
 10
-7.175673817901299
 20
44.08530582177333
 30
0.0
 10
-7.180122263451818
 20
43.92566573928012
 30
0.0
 10
-7.206889328816945
 20
43.75265744900932
 30
0.0
 10
-7.248728895767869
 20
43.56423753287956
 30
0.0
 10
-7.29061286013012
 20
43.43590042417487
 30
0.0
 10
-7.312604444318637
 20
43.36851577294703
 30
0.0
  0
LINE
  5
1EA
330
1F
100
AcDbEntity
  8
0
  6
Continuous
 62
     7
370
    15
100
AcDbLine
 10
-7.3126044443
 20
43.3685157729
 30
0.0
 11
-7.92644373
 21
41.5604800587
 31
0.0
  0
SPLINE
  5
1EB
330
1F
100
AcDbEntity
  8
0
  6
Continuous
 62
     7
370
    15
100
AcDbSpline
210
0.0
220
0.0
230
1.0
 70
     8
 71
     3
 72
    23
 73
    19
 74
     0
 42
0.000000001
 43
0.00000001
 40
0.0
 40
0.0
 40
0.0
 40
0.0
 40
0.0689099880000349
 40
0.1343095228765496
 40
0.197150755335241
 40
0.2571617334514021
 40
0.3153333779132711
 40
0.3725500015244018
 40
0.4282831188598991
 40
0.4830462569622037
 40
0.538398877175238
 40
0.5958261794627384
 40
0.6548564924107565
 40
0.7168269035712215
 40
0.7827704542602606
 40
0.851490325207869
 40
0.9233598335084244
 40
1.0
 40
1.0
 40
1.0
 40
1.0
 10
-7.926443730032921
 20
41.56048005866131
 30
0.0
 10
-7.950759059668133
 20
41.49238074719359
 30
0.0
 10
-7.998151033120366
 20
41.35965127942112
 30
0.0
 10
-8.084149360595788
 20
41.17136041655802
 30
0.0
 10
-8.176949042209914
 20
40.9968629280609
 30
0.0
 10
-8.28062382844749
 20
40.83756020556451
 30
0.0
 10
-8.392067509770058
 20
40.69082926469512
 30
0.0
 10
-8.515494099455989
 20
40.56019983427592
 30
0.0
 10
-8.644548454893718
 20
40.44034674788863
 30
0.0
 10
-8.784740965395212
 20
40.33671031869222
 30
0.0
 10
-8.936061087545902
 20
40.24689779127424
 30
0.0
 10
-9.098729406548648
 20
40.16872533692794
 30
0.0
 10
-9.274638593808142
 20
40.10412866798826
 30
0.0
 10
-9.463396198040387
 20
40.05048350093099
 30
0.0
 10
-9.665482934399467
 20
40.00820476506265
 30
0.0
 10
-9.880437506934012
 20
39.98024250399708
 30
0.0
 10
-10.10767049009185
 20
39.96173633245541
 30
0.0
 10
-10.26345830692243
 20
39.9591408938753
 30
0.0
 10
-10.34385444431864
 20
39.95780148723275
 30
0.0
  0
LINE
  5
1EC
330
1F
100
AcDbEntity
  8
0
  6
Continuous
 62
     7
370
    15
100
AcDbLine
 10
-10.3438544443
 20
39.9578014872
 30
0.0
 11
-11.3527830157
 21
39.9578014872
 31
0.0
  0
LINE
  5
1ED
330
1F
100
AcDbEntity
  8
0
  6
Continuous
 62
     7
370
    15
100
AcDbLine
 10
-11.3527830157
 20
39.9578014872
 30
0.0
 11
-8.6541223015
 21
36.9578014872
 31
0.0
  0
LINE
  5
1EE
330
1F
100
AcDbEntity
  8
0
  6
Continuous
 62
     7
370
    15
100
AcDbLine
 10
-8.6541223015
 20
36.9578014872
 30
0.0
 11
-11.2880508729
 21
36.9578014872
 31
0.0
  0
LINE
  5
1EF
330
1F
100
AcDbEntity
  8
0
  6
Continuous
 62
     7
370
    15
100
AcDbLine
 10
-11.2880508729
 20
36.9578014872
 30
0.0
 11
-13.4465330157
 21
39.9578014872
 31
0.0
  0
LINE
  5
1F0
330
1F
100
AcDbEntity
  8
0
  6
Continuous
 62
     7
370
    15
100
AcDbLine
 10
-13.4465330157
 20
39.9578014872
 30
0.0
 11
-15.1853723015
 21
39.9578014872
 31
0.0
  0
SPLINE
  5
1F1
330
1F
100
AcDbEntity
  8
0
  6
Continuous
 62
     7
370
    15
100
AcDbSpline
210
0.0
220
0.0
230
1.0
 70
     8
 71
     3
 72
    23
 73
    19
 74
     0
 42
0.000000001
 43
0.00000001
 40
0.0
 40
0.0
 40
0.0
 40
0.0
 40
0.0592086394133068
 40
0.1164156382494448
 40
0.1720853202762929
 40
0.2267212180411452
 40
0.2813306421752346
 40
0.336847972218461
 40
0.3919994386606676
 40
0.4485527047710514
 40
0.5066198996974443
 40
0.5674938057896092
 40
0.6313392206853881
 40
0.6974420242198044
 40
0.7679278351338013
 40
0.8410405198144952
 40
0.9183447686613206
 40
1.0
 40
1.0
 40
1.0
 40
1.0
 10
30.18069912710994
 20
38.51360505866132
 30
0.0
 10
30.1573156288146
 20
38.4491351322982
 30
0.0
 10
30.11133914792379
 20
38.32237478617595
 30
0.0
 10
30.0233173624939
 20
38.14325834350922
 30
0.0
 10
29.92292351730361
 20
37.97705453121495
 30
0.0
 10
29.80785342995021
 20
37.82435718884803
 30
0.0
 10
29.68001093892345
 20
37.68248808413873
 30
0.0
 10
29.53804537922234
 20
37.55366495537194
 30
0.0
 10
29.38167338137736
 20
37.43915394109249
 30
0.0
 10
29.21423659702013
 20
37.33575684149753
 30
0.0
 10
29.03141735565383
 20
37.24660466276641
 30
0.0
 10
28.83478900117564
 20
37.16781536985669
 30
0.0
 10
28.62286027244825
 20
37.10477173383089
 30
0.0
 10
28.3972418525194
 20
37.05029384777979
 30
0.0
 10
28.15795150068607
 20
37.00836378573776
 30
0.0
 10
27.90371352345766
 20
36.98005308696326
 30
0.0
 10
27.63557631180348
 20
36.96183552944915
 30
0.0
 10
27.45156329217873
 20
36.95917048353528
 30
0.0
 10
27.35703841282423
 20
36.95780148723274
 30
0.0
  0
LINE
  5
1F2
330
1F
100
AcDbEntity
  8
0
  6
Continuous
 62
     7
370
    15
100
AcDbLine
 10
27.3570384128
 20
36.9578014872
 30
0.0
 11
20.9373955557
 21
36.9578014872
 31
0.0
  0
LINE
  5
1F3
330
1F
100
AcDbEntity
  8
0
  6
Continuous
 62
     7
370
    15
100
AcDbLine
 10
20.9373955557
 20
36.9578014872
 30
0.0
 11
23.6561455557
 21
44.9578014872
 31
0.0
  0
LINE
  5
1F4
330
1F
100
AcDbEntity
  8
0
  6
Continuous
 62
     7
370
    15
100
AcDbLine
 10
23.6561455557
 20
44.9578014872
 30
0.0
 11
30.5802526985
 21
44.9578014872
 31
0.0
  0
SPLINE
  5
1F5
330
1F
100
AcDbEntity
  8
0
  6
Continuous
 62
     7
370
    15
100
AcDbSpline
210
0.0
220
0.0
230
1.0
 70
     8
 71
     3
 72
    23
 73
    19
 74
     0
 42
0.000000001
 43
0.00000001
 40
0.0
 40
0.0
 40
0.0
 40
0.0
 40
0.0853248981908035
 40
0.163305485824407
 40
0.2343830989124761
 40
0.2988976610969614
 40
0.3569179527990179
 40
0.4102307604745603
 40
0.4595557973902314
 40
0.5061908882652182
 40
0.5531155935358208
 40
0.6020414659364037
 40
0.6537105577159595
 40
0.7103880080925625
 40
0.7730181982325245
 40
0.8421634398920189
 40
0.9177386156332195
 40
1.0
 40
1.0
 40
1.0
 40
1.0
 10
30.58025269853851
 20
44.95780148723274
 30
0.0
 10
30.65542862787004
 20
44.95639335056214
 30
0.0
 10
30.79930974489562
 20
44.95369828208887
 30
0.0
 10
31.00538640583223
 20
44.93683367853852
 30
0.0
 10
31.19107487603195
 20
44.90529470415427
 30
0.0
 10
31.35703474695201
 20
44.86460819002515
 30
0.0
 10
31.5020786528078
 20
44.80872629570092
 30
0.0
 10
31.6260836099947
 20
44.73935797739639
 30
0.0
 10
31.73033720167388
 20
44.6584702718768
 30
0.0
 10
31.81654959783037
 20
44.56536249823188
 30
0.0
 10
31.87812949831995
 20
44.45511268249547
 30
0.0
 10
31.92667183559714
 20
44.3339569186597
 30
0.0
 10
31.95199563085241
 20
44.19701721419665
 30
0.0
 10
31.96125650628201
 20
44.04625049877013
 30
0.0
 10
31.94732195352007
 20
43.88043650852219
 30
0.0
 10
31.92168370923024
 20
43.69941608221077
 30
0.0
 10
31.87341617474218
 20
43.50496624827933
 30
0.0
 10
31.83036744256203
 20
43.37271200312949
 30
0.0
 10
31.80793126996708
 20
43.30378363008989
 30
0.0
  0
LINE
  5
1F6
330
1F
100
AcDbEntity
  8
0
  6
Continuous
 62
     7
370
    15
100
AcDbLine
 10
31.80793127
 20
43.3037836301
 30
0.0
 11
31.51105627
 21
42.4265514872
 31
0.0
  0
SPLINE
  5
1F7
330
1F
100
AcDbEntity
  8
0
  6
Continuous
 62
     7
370
    15
100
AcDbSpline
210
0.0
220
0.0
230
1.0
 70
     8
 71
     3
 72
    15
 73
    11
 74
     0
 42
0.000000001
 43
0.00000001
 40
0.0
 40
0.0
 40
0.0
 40
0.0
 40
0.1206610162619954
 40
0.2379364475508531
 40
0.3545512076062486
 40
0.4739706740040558
 40
0.596420438949201
 40
0.7235957767837091
 40
0.857391148019889
 40
1.0
 40
1.0
 40
1.0
 40
1.0
 10
31.51105626996709
 20
42.42655148723276
 30
0.0
 10
31.47625928207959
 20
42.33499018717959
 30
0.0
 10
31.40764166273647
 20
42.15443667335467
 30
0.0
 10
31.25064689679838
 20
41.9120151649028
 30
0.0
 10
31.06462240569261
 20
41.69343843975863
 30
0.0
 10
30.83894078447826
 20
41.5085668720667
 30
0.0
 10
30.58220444522162
 20
41.35397334649291
 30
0.0
 10
30.29627188170908
 20
41.23080521395181
 30
0.0
 10
29.98094024386345
 20
41.14101273618759
 30
0.0
 10
29.75932546009827
 20
41.10850315353725
 30
0.0
 10
29.64498484139565
 20
41.09173005866132
 30
0.0
  0
SPLINE
  5
1F8
330
1F
100
AcDbEntity
  8
0
  6
Continuous
 62
     7
370
    15
100
AcDbSpline
210
0.0
220
0.0
230
1.0
 70
     8
 71
     3
 72
    23
 73
    19
 74
     0
 42
0.000000001
 43
0.00000001
 40
0.0
 40
0.0
 40
0.0
 40
0.0
 40
0.0729469146320163
 40
0.1417437192032852
 40
0.2048534970055846
 40
0.2652541756378397
 40
0.3228839894059245
 40
0.3781035179153211
 40
0.4325454757029226
 40
0.4867290836291819
 40
0.541585805661255
 40
0.5971172012662151
 40
0.6551947768741501
 40
0.7155328780085978
 40
0.7800214815290932
 40
0.8481957490951185
 40
0.9217834981274294
 40
1.0
 40
1.0
 40
1.0
 40
1.0
 10
29.64498484139565
 20
41.09173005866132
 30
0.0
 10
29.69647863510562
 20
41.08281640253009
 30
0.0
 10
29.79653662759449
 20
41.06549620772664
 30
0.0
 10
29.93861497208536
 20
41.02804000083221
 30
0.0
 10
30.06824313724304
 20
40.98090254676346
 30
0.0
 10
30.18485440056307
 20
40.92331444370467
 30
0.0
 10
30.28811999951258
 20
40.85378219847528
 30
0.0
 10
30.3780872151199
 20
40.77438478138437
 30
0.0
 10
30.45808304838361
 20
40.68788955796153
 30
0.0
 10
30.52018796565234
 20
40.58796650804123
 30
0.0
 10
30.569384568985
 20
40.48057973095661
 30
0.0
 10
30.60538929605107
 20
40.36510843585096
 30
0.0
 10
30.62801196287952
 20
40.24222702753575
 30
0.0
 10
30.6336762719485
 20
40.11103924037263
 30
0.0
 10
30.62671137833504
 20
39.97284324991498
 30
0.0
 10
30.60644644160366
 20
39.82631997444048
 30
0.0
 10
30.57025889434304
 20
39.67275194198848
 30
0.0
 10
30.5370800839293
 20
39.56919465706805
 30
0.0
 10
30.51998484139565
 20
39.51583720151846
 30
0.0
  0
LINE
  5
1F9
330
1F
100
AcDbEntity
  8
0
  6
Continuous
 62
     7
370
    15
100
AcDbLine
 10
30.5199848414
 20
39.5158372015
 30
0.0
 11
30.1806991271
 21
38.5136050587
 31
0.0
  0
LINE
  5
1FA
330
1F
100
AcDbEntity
  8
0
  6
Continuous
 62
     7
370
    15
100
AcDbLine
 10
41.6137348414
 20
38.5292300587
 30
0.0
 11
41.0802526985
 21
36.9578014872
 31
0.0
  0
LINE
  5
1FB
330
1F
100
AcDbEntity
  8
0
  6
Continuous
 62
     7
370
    15
100
AcDbLine
 10
41.0802526985
 20
36.9578014872
 30
0.0
 11
33.2231098414
 21
36.9578014872
 31
0.0
  0
LINE
  5
1FC
330
1F
100
AcDbEntity
  8
0
  6
Continuous
 62
     7
370
    15
100
AcDbLine
 10
33.2231098414
 20
36.9578014872
 30
0.0
 11
35.9418598414
 21
44.9578014872
 31
0.0
  0
LINE
  5
1FD
330
1F
100
AcDbEntity
  8
0
  6
Continuous
 62
     7
370
    15
100
AcDbLine
 10
35.9418598414
 20
44.9578014872
 30
0.0
 11
37.7990026985
 21
44.9578014872
 31
0.0
  0
LINE
  5
1FE
330
1F
100
AcDbEntity
  8
0
  6
Continuous
 62
     7
370
    15
100
AcDbLine
 10
37.7990026985
 20
44.9578014872
 30
0.0
 11
35.6137348414
 21
38.5292300587
 31
0.0
  0
LINE
  5
1FF
330
1F
100
AcDbEntity
  8
0
  6
Continuous
 62
     7
370
    15
100
AcDbLine
 10
35.6137348414
 20
38.5292300587
 30
0.0
 11
41.6137348414
 21
38.5292300587
 31
0.0
  0
LINE
  5
200
330
1F
100
AcDbEntity
  8
0
  6
Continuous
 62
     7
370
    15
100
AcDbLine
 10
52.6137348414
 20
38.5292300587
 30
0.0
 11
52.0802526985
 21
36.9578014872
 31
0.0
  0
LINE
  5
201
330
1F
100
AcDbEntity
  8
0
  6
Continuous
 62
     7
370
    15
100
AcDbLine
 10
52.0802526985
 20
36.9578014872
 30
0.0
 11
43.7945384128
 21
36.9578014872
 31
0.0
  0
LINE
  5
202
330
1F
100
AcDbEntity
  8
0
  6
Continuous
 62
     7
370
    15
100
AcDbLine
 10
43.7945384128
 20
36.9578014872
 30
0.0
 11
46.5132884128
 21
44.9578014872
 31
0.0
  0
LINE
  5
203
330
1F
100
AcDbEntity
  8
0
  6
Continuous
 62
     7
370
    15
100
AcDbLine
 10
46.5132884128
 20
44.9578014872
 30
0.0
 11
54.6561455557
 21
44.9578014872
 31
0.0
  0
LINE
  5
204
330
1F
100
AcDbEntity
  8
0
  6
Continuous
 62
     7
370
    15
100
AcDbLine
 10
54.6561455557
 20
44.9578014872
 30
0.0
 11
54.1717705557
 21
43.5292300587
 31
0.0
  0
LINE
  5
205
330
1F
100
AcDbEntity
  8
0
  6
Continuous
 62
     7
370
    15
100
AcDbLine
 10
54.1717705557
 20
43.5292300587
 30
0.0
 11
47.88605627
 21
43.5292300587
 31
0.0
  0
LINE
  5
206
330
1F
100
AcDbEntity
  8
0
  6
Continuous
 62
     7
370
    15
100
AcDbLine
 10
47.88605627
 20
43.5292300587
 30
0.0
 11
47.3503419843
 21
41.9578014872
 31
0.0
  0
LINE
  5
207
330
1F
100
AcDbEntity
  8
0
  6
Continuous
 62
     7
370
    15
100
AcDbLine
 10
47.3503419843
 20
41.9578014872
 30
0.0
 11
51.0646276985
 21
41.9578014872
 31
0.0
  0
LINE
  5
208
330
1F
100
AcDbEntity
  8
0
  6
Continuous
 62
     7
370
    15
100
AcDbLine
 10
51.0646276985
 20
41.9578014872
 30
0.0
 11
50.5802526985
 21
40.5292300587
 31
0.0
  0
LINE
  5
209
330
1F
100
AcDbEntity
  8
0
  6
Continuous
 62
     7
370
    15
100
AcDbLine
 10
50.5802526985
 20
40.5292300587
 30
0.0
 11
46.8659669843
 21
40.5292300587
 31
0.0
  0
LINE
  5
20A
330
1F
100
AcDbEntity
  8
0
  6
Continuous
 62
     7
370
    15
100
AcDbLine
 10
46.8659669843
 20
40.5292300587
 30
0.0
 11
46.1851634128
 21
38.5292300587
 31
0.0
  0
LINE
  5
20B
330
1F
100
AcDbEntity
  8
0
  6
Continuous
 62
     7
370
    15
100
AcDbLine
 10
46.1851634128
 20
38.5292300587
 30
0.0
 11
52.6137348414
 21
38.5292300587
 31
0.0
  0
LINE
  5
20C
330
1F
100
AcDbEntity
  8
0
  6
Continuous
 62
     7
370
    15
100
AcDbLine
 10
58.7655205557
 20
41.9176229158
 30
0.0
 11
57.0802526985
 21
36.9578014872
 31
0.0
  0
LINE
  5
20D
330
1F
100
AcDbEntity
  8
0
  6
Continuous
 62
     7
370
    15
100
AcDbLine
 10
57.0802526985
 20
36.9578014872
 30
0.0
 11
55.5088241271
 21
36.9578014872
 31
0.0
  0
LINE
  5
20E
330
1F
100
AcDbEntity
  8
0
  6
Continuous
 62
     7
370
    15
100
AcDbLine
 10
55.5088241271
 20
36.9578014872
 30
0.0
 11
58.2275741271
 21
44.9578014872
 31
0.0
  0
LINE
  5
20F
330
1F
100
AcDbEntity
  8
0
  6
Continuous
 62
     7
370
    15
100
AcDbLine
 10
58.2275741271
 20
44.9578014872
 30
0.0
 11
59.7990026985
 21
44.9578014872
 31
0.0
  0
LINE
  5
210
330
1F
100
AcDbEntity
  8
0
  6
Continuous
 62
     7
370
    15
100
AcDbLine
 10
59.7990026985
 20
44.9578014872
 30
0.0
 11
61.8927526985
 21
40.1475336301
 31
0.0
  0
LINE
  5
211
330
1F
100
AcDbEntity
  8
0
  6
Continuous
 62
     7
370
    15
100
AcDbLine
 10
61.8927526985
 20
40.1475336301
 30
0.0
 11
67.1784669843
 21
44.9578014872
 31
0.0
  0
LINE
  5
212
330
1F
100
AcDbEntity
  8
0
  6
Continuous
 62
     7
370
    15
100
AcDbLine
 10
67.1784669843
 20
44.9578014872
 30
0.0
 11
68.6561455557
 21
44.9578014872
 31
0.0
  0
LINE
  5
213
330
1F
100
AcDbEntity
  8
0
  6
Continuous
 62
     7
370
    15
100
AcDbLine
 10
68.6561455557
 20
44.9578014872
 30
0.0
 11
65.9373955557
 21
36.9578014872
 31
0.0
  0
LINE
  5
214
330
1F
100
AcDbEntity
  8
0
  6
Continuous
 62
     7
370
    15
100
AcDbLine
 10
65.9373955557
 20
36.9578014872
 30
0.0
 11
64.2231098414
 21
36.9578014872
 31
0.0
  0
LINE
  5
215
330
1F
100
AcDbEntity
  8
0
  6
Continuous
 62
     7
370
    15
100
AcDbLine
 10
64.2231098414
 20
36.9578014872
 30
0.0
 11
65.9083776985
 21
41.9176229158
 31
0.0
  0
SPLINE
  5
216
330
1F
100
AcDbEntity
  8
0
  6
Continuous
 62
     7
370
    15
100
AcDbSpline
210
0.0
220
0.0
230
1.0
 70
     8
 71
     3
 72
    11
 73
     7
 74
     0
 42
0.000000001
 43
0.00000001
 40
0.0
 40
0.0
 40
0.0
 40
0.0
 40
0.1882908465935081
 40
0.420542795696837
 40
0.6946774859411113
 40
1.0
 40
1.0
 40
1.0
 40
1.0
 10
65.90837769853852
 20
41.91762291580418
 30
0.0
 10
65.92813986922208
 20
41.97206330414141
 30
0.0
 10
65.9722781725898
 20
42.09365452073194
 30
0.0
 10
66.0532748637367
 20
42.29141820678041
 30
0.0
 10
66.15257442757654
 20
42.52048118007387
 30
0.0
 10
66.22654475744537
 20
42.68263085702445
 30
0.0
 10
66.26552055568139
 20
42.76806934437561
 30
0.0
  0
SPLINE
  5
217
330
1F
100
AcDbEntity
  8
0
  6
Continuous
 62
     7
370
    15
100
AcDbSpline
210
0.0
220
0.0
230
1.0
 70
     8
 71
     3
 72
    13
 73
     9
 74
     0
 42
0.000000001
 43
0.00000001
 40
0.0
 40
0.0
 40
0.0
 40
0.0
 40
0.1705393770701179
 40
0.3283711065347182
 40
0.4704776266062612
 40
0.5984004497066006
 40
0.8175283395229919
 40
1.0
 40
1.0
 40
1.0
 40
1.0
 10
66.26552055568138
 20
42.7680693443756
 30
0.0
 10
66.22455780720409
 20
42.71899635985743
 30
0.0
 10
66.14568462685551
 20
42.62450703719169
 30
0.0
 10
66.03331763269132
 20
42.4885819881817
 30
0.0
 10
65.92778829862377
 20
42.36779419704796
 30
0.0
 10
65.80526161256101
 20
42.23141211804037
 30
0.0
 10
65.67165171738179
 20
42.08453496404828
 30
0.0
 10
65.56429801946032
 20
41.9789772221655
 30
0.0
 10
65.51552055568138
 20
41.93101577294703
 30
0.0
  0
LINE
  5
218
330
1F
100
AcDbEntity
  8
0
  6
Continuous
 62
     7
370
    15
100
AcDbLine
 10
65.5155205557
 20
41.9310157729
 30
0.0
 11
61.1918598414
 21
37.9578014872
 31
0.0
  0
LINE
  5
219
330
1F
100
AcDbEntity
  8
0
  6
Continuous
 62
     7
370
    15
100
AcDbLine
 10
61.1918598414
 20
37.9578014872
 30
0.0
 11
60.8257884128
 21
37.9578014872
 31
0.0
  0
LINE
  5
21A
330
1F
100
AcDbEntity
  8
0
  6
Continuous
 62
     7
370
    15
100
AcDbLine
 10
60.8257884128
 20
37.9578014872
 30
0.0
 11
59.2030205557
 21
41.9466407729
 31
0.0
  0
SPLINE
  5
21B
330
1F
100
AcDbEntity
  8
0
  6
Continuous
 62
     7
370
    15
100
AcDbSpline
210
0.0
220
0.0
230
1.0
 70
     8
 71
     3
 72
    11
 73
     7
 74
     0
 42
0.000000001
 43
0.00000001
 40
0.0
 40
0.0
 40
0.0
 40
0.0
 40
0.2766604669992864
 40
0.5315673479062946
 40
0.7724605293821012
 40
1.0
 40
1.0
 40
1.0
 40
1.0
 10
59.20302055568137
 20
41.94664077294703
 30
0.0
 10
59.17624657589622
 20
42.01929148662104
 30
0.0
 10
59.12480383244375
 20
42.15888044781255
 30
0.0
 10
59.06183429262685
 20
42.36600789971436
 30
0.0
 10
59.02459181908088
 20
42.56538615207974
 30
0.0
 10
59.01097443606378
 20
42.69579509799364
 30
0.0
 10
59.00435984139565
 20
42.75914077294703
 30
0.0
  0
SPLINE
  5
21C
330
1F
100
AcDbEntity
  8
0
  6
Continuous
 62
     7
370
    15
100
AcDbSpline
210
0.0
220
0.0
230
1.0
 70
     8
 71
     3
 72
    11
 73
     7
 74
     0
 42
0.000000001
 43
0.00000001
 40
0.0
 40
0.0
 40
0.0
 40
0.0
 40
0.2783886852550152
 40
0.5320774836639949
 40
0.7693062177363005
 40
1.0
 40
1.0
 40
1.0
 40
1.0
 10
59.00435984139565
 20
42.75914077294703
 30
0.0
 10
58.98539173399186
 20
42.68017793825711
 30
0.0
 10
58.94913845434429
 20
42.52925820405061
 30
0.0
 10
58.89074587905564
 20
42.312536398524
 30
0.0
 10
58.8293236327287
 20
42.11116900444718
 30
0.0
 10
58.78658930714566
 20
41.98153479321227
 30
0.0
 10
58.76552055568136
 20
41.91762291580418
 30
0.0
  0
LINE
  5
21D
330
1F
100
AcDbEntity
  8
0
  6
Continuous
 62
     7
370
    15
100
AcDbLine
 10
108.5289134128
 20
39.9578014872
 30
0.0
 11
107.5088241271
 21
36.9578014872
 31
0.0
  0
LINE
  5
21E
330
1F
100
AcDbEntity
  8
0
  6
Continuous
 62
     7
370
    15
100
AcDbLine
 10
107.5088241271
 20
36.9578014872
 30
0.0
 11
105.65168127
 21
36.9578014872
 31
0.0
  0
LINE
  5
21F
330
1F
100
AcDbEntity
  8
0
  6
Continuous
 62
     7
370
    15
100
AcDbLine
 10
105.65168127
 20
36.9578014872
 30
0.0
 11
108.37043127
 21
44.9578014872
 31
0.0
  0
LINE
  5
220
330
1F
100
AcDbEntity
  8
0
  6
Continuous
 62
     7
370
    15
100
AcDbLine
 10
108.37043127
 20
44.9578014872
 30
0.0
 11
115.0690919843
 21
44.9578014872
 31
0.0
  0
SPLINE
  5
221
330
1F
100
AcDbEntity
  8
0
  6
Continuous
 62
     7
370
    15
100
AcDbSpline
210
0.0
220
0.0
230
1.0
 70
     8
 71
     3
 72
    23
 73
    19
 74
     0
 42
0.000000001
 43
0.00000001
 40
0.0
 40
0.0
 40
0.0
 40
0.0
 40
0.0890333952873822
 40
0.1699145222190077
 40
0.2437708258628961
 40
0.3109809127987786
 40
0.3715254379572039
 40
0.4267224522894617
 40
0.4767967812651938
 40
0.5242918143765839
 40
0.5701712542719866
 40
0.6179105555093505
 40
0.6680059965634518
 40
0.722812105892846
 40
0.7824474584241855
 40
0.8477531289523357
 40
0.9200612947445629
 40
1.0
 40
1.0
 40
1.0
 40
1.0
 10
115.0690919842528
 20
44.95780148723274
 30
0.0
 10
115.1479962863097
 20
44.95647274457207
 30
0.0
 10
115.2985800840155
 20
44.95393692446084
 30
0.0
 10
115.514065110755
 20
44.93613741378503
 30
0.0
 10
115.7087367608311
 20
44.90745465524114
 30
0.0
 10
115.8835640461584
 20
44.86906556713772
 30
0.0
 10
116.0367485446176
 20
44.81485264335988
 30
0.0
 10
116.169554680126
 20
44.75112068207513
 30
0.0
 10
116.2819486339417
 20
44.67443731498751
 30
0.0
 10
116.372412287529
 20
44.58408040494856
 30
0.0
 10
116.4438806176749
 20
44.48062979781227
 30
0.0
 10
116.4955027049508
 20
44.36331785808931
 30
0.0
 10
116.5261562175126
 20
44.23092389391277
 30
0.0
 10
116.5386118963845
 20
44.08530582177334
 30
0.0
 10
116.5341634508339
 20
43.92566573928013
 30
0.0
 10
116.5073963854688
 20
43.75265744900931
 30
0.0
 10
116.4655568185178
 20
43.56423753287957
 30
0.0
 10
116.4236728541556
 20
43.43590042417488
 30
0.0
 10
116.4016812699671
 20
43.36851577294703
 30
0.0
  0
LINE
  5
222
330
1F
100
AcDbEntity
  8
0
  6
Continuous
 62
     7
370
    15
100
AcDbLine
 10
116.40168127
 20
43.3685157729
 30
0.0
 11
115.7878419843
 21
41.5604800587
 31
0.0
  0
SPLINE
  5
223
330
1F
100
AcDbEntity
  8
0
  6
Continuous
 62
     7
370
    15
100
AcDbSpline
210
0.0
220
0.0
230
1.0
 70
     8
 71
     3
 72
    23
 73
    19
 74
     0
 42
0.000000001
 43
0.00000001
 40
0.0
 40
0.0
 40
0.0
 40
0.0
 40
0.0689099880000344
 40
0.1343095228765476
 40
0.1971507553352398
 40
0.2571617334514048
 40
0.3153333779132713
 40
0.3725500015244017
 40
0.4282831188598975
 40
0.4830462569622067
 40
0.5383988771752395
 40
0.5958261794627401
 40
0.6548564924107594
 40
0.7168269035712278
 40
0.7827704542602661
 40
0.8514903252078683
 40
0.9233598335084306
 40
0.9999999999999999
 40
0.9999999999999999
 40
0.9999999999999999
 40
0.9999999999999999
 10
115.7878419842528
 20
41.56048005866131
 30
0.0
 10
115.7635266546176
 20
41.49238074719359
 30
0.0
 10
115.7161346811654
 20
41.35965127942112
 30
0.0
 10
115.6301363536899
 20
41.17136041655802
 30
0.0
 10
115.5373366720758
 20
40.99686292806089
 30
0.0
 10
115.4336618858382
 20
40.83756020556451
 30
0.0
 10
115.3222182045157
 20
40.69082926469513
 30
0.0
 10
115.1987916148297
 20
40.56019983427592
 30
0.0
 10
115.069737259392
 20
40.44034674788861
 30
0.0
 10
114.9295447488905
 20
40.33671031869223
 30
0.0
 10
114.7782246267398
 20
40.24689779127423
 30
0.0
 10
114.6155563077371
 20
40.16872533692795
 30
0.0
 10
114.4396471204776
 20
40.10412866798827
 30
0.0
 10
114.2508895162454
 20
40.05048350093098
 30
0.0
 10
114.0488027798863
 20
40.00820476506266
 30
0.0
 10
113.8338482073517
 20
39.98024250399707
 30
0.0
 10
113.6066152241939
 20
39.96173633245542
 30
0.0
 10
113.4508274073633
 20
39.95914089387529
 30
0.0
 10
113.3704312699671
 20
39.95780148723275
 30
0.0
  0
LINE
  5
224
330
1F
100
AcDbEntity
  8
0
  6
Continuous
 62
     7
370
    15
100
AcDbLine
 10
113.37043127
 20
39.9578014872
 30
0.0
 11
112.3615026985
 21
39.9578014872
 31
0.0
  0
LINE
  5
225
330
1F
100
AcDbEntity
  8
0
  6
Continuous
 62
     7
370
    15
100
AcDbLine
 10
112.3615026985
 20
39.9578014872
 30
0.0
 11
115.0601634128
 21
36.9578014872
 31
0.0
  0
LINE
  5
226
330
1F
100
AcDbEntity
  8
0
  6
Continuous
 62
     7
370
    15
100
AcDbLine
 10
115.0601634128
 20
36.9578014872
 30
0.0
 11
112.4262348414
 21
36.9578014872
 31
0.0
  0
LINE
  5
227
330
1F
100
AcDbEntity
  8
0
  6
Continuous
 62
     7
370
    15
100
AcDbLine
 10
112.4262348414
 20
36.9578014872
 30
0.0
 11
110.2677526985
 21
39.9578014872
 31
0.0
  0
LINE
  5
228
330
1F
100
AcDbEntity
  8
0
  6
Continuous
 62
     7
370
    15
100
AcDbLine
 10
110.2677526985
 20
39.9578014872
 30
0.0
 11
108.5289134128
 21
39.9578014872
 31
0.0
  0
LINE
  5
229
330
1F
100
AcDbEntity
  8
0
  6
Continuous
 62
     7
370
    15
100
AcDbLine
 10
133.6003419843
 20
43.5292300587
 30
0.0
 11
127.5690919843
 21
36.9578014872
 31
0.0
  0
LINE
  5
22A
330
1F
100
AcDbEntity
  8
0
  6
Continuous
 62
     7
370
    15
100
AcDbLine
 10
127.5690919843
 20
36.9578014872
 30
0.0
 11
126.4731098414
 21
36.9578014872
 31
0.0
  0
LINE
  5
22B
330
1F
100
AcDbEntity
  8
0
  6
Continuous
 62
     7
370
    15
100
AcDbLine
 10
126.4731098414
 20
36.9578014872
 30
0.0
 11
124.7431991271
 21
43.5292300587
 31
0.0
  0
LINE
  5
22C
330
1F
100
AcDbEntity
  8
0
  6
Continuous
 62
     7
370
    15
100
AcDbLine
 10
124.7431991271
 20
43.5292300587
 30
0.0
 11
126.5512348414
 21
43.5292300587
 31
0.0
  0
LINE
  5
22D
330
1F
100
AcDbEntity
  8
0
  6
Continuous
 62
     7
370
    15
100
AcDbLine
 10
126.5512348414
 20
43.5292300587
 30
0.0
 11
127.7052526985
 21
38.7636050587
 31
0.0
  0
LINE
  5
22E
330
1F
100
AcDbEntity
  8
0
  6
Continuous
 62
     7
370
    15
100
AcDbLine
 10
127.7052526985
 20
38.7636050587
 30
0.0
 11
131.9440919843
 21
43.5292300587
 31
0.0
  0
LINE
  5
22F
330
1F
100
AcDbEntity
  8
0
  6
Continuous
 62
     7
370
    15
100
AcDbLine
 10
131.9440919843
 20
43.5292300587
 30
0.0
 11
133.6003419843
 21
43.5292300587
 31
0.0
  0
LINE
  5
230
330
1F
100
AcDbEntity
  8
0
  6
Continuous
 62
     7
370
    15
100
AcDbLine
 10
137.2074848414
 20
41.9578014872
 30
0.0
 11
135.7811455557
 21
42.3819086301
 31
0.0
  0
LINE
  5
231
330
1F
100
AcDbEntity
  8
0
  6
Continuous
 62
     7
370
    15
100
AcDbLine
 10
135.7811455557
 20
42.3819086301
 30
0.0
 11
136.1472169843
 21
43.4600336301
 31
0.0
  0
SPLINE
  5
232
330
1F
100
AcDbEntity
  8
0
  6
Continuous
 62
     7
370
    15
100
AcDbSpline
210
0.0
220
0.0
230
1.0
 70
     8
 71
     3
 72
    23
 73
    19
 74
     0
 42
0.000000001
 43
0.00000001
 40
0.0
 40
0.0
 40
0.0
 40
0.0
 40
0.0729257510604415
 40
0.1411996627843031
 40
0.2047671798015944
 40
0.2648879597136297
 40
0.3208793215715164
 40
0.3741605182952544
 40
0.4241648438840098
 40
0.4720356199566983
 40
0.5209154928584853
 40
0.5740080288358834
 40
0.631301689468719
 40
0.6941785844074967
 40
0.762225704924074
 40
0.8355852657886379
 40
0.9145563796721419
 40
1.0
 40
1.0
 40
1.0
 40
1.0
 10
136.1472169842528
 20
43.46003363008989
 30
0.0
 10
136.171599223528
 20
43.52958542533702
 30
0.0
 10
136.2188083905715
 20
43.66425239677209
 30
0.0
 10
136.302200759895
 20
43.85374987045137
 30
0.0
 10
136.3889658693175
 20
44.02732381117315
 30
0.0
 10
136.4824383730371
 20
44.18313507141866
 30
0.0
 10
136.580986520873
 20
44.32330127119799
 30
0.0
 10
136.6856061645368
 20
44.44582021746356
 30
0.0
 10
136.7951711305781
 20
44.55274318082181
 30
0.0
 10
136.9146723549288
 20
44.64103757984053
 30
0.0
 10
137.0444283244887
 20
44.7196419332727
 30
0.0
 10
137.1927160849303
 20
44.7832445948526
 30
0.0
 10
137.3596211831249
 20
44.83658145111954
 30
0.0
 10
137.5448144403384
 20
44.88031911990638
 30
0.0
 10
137.7481617821945
 20
44.91647001380587
 30
0.0
 10
137.9697197986752
 20
44.9395102342006
 30
0.0
 10
138.2094612249479
 20
44.95621639244522
 30
0.0
 10
138.3756062850245
 20
44.95725943516705
 30
0.0
 10
138.4619491271099
 20
44.95780148723274
 30
0.0
  0
LINE
  5
233
330
1F
100
AcDbEntity
  8
0
  6
Continuous
 62
     7
370
    15
100
AcDbLine
 10
138.4619491271
 20
44.9578014872
 30
0.0
 11
142.4574848414
 21
44.9578014872
 31
0.0
  0
SPLINE
  5
234
330
1F
100
AcDbEntity
  8
0
  6
Continuous
 62
     7
370
    15
100
AcDbSpline
210
0.0
220
0.0
230
1.0
 70
     8
 71
     3
 72
    23
 73
    19
 74
     0
 42
0.000000001
 43
0.00000001
 40
0.0
 40
0.0
 40
0.0
 40
0.0
 40
0.0997174820735834
 40
0.18889608972399
 40
0.2693362757144561
 40
0.3406062239128734
 40
0.4029748284251809
 40
0.4577568116308764
 40
0.5046741234782878
 40
0.5466899866166878
 40
0.5862505147344391
 40
0.6280232753705899
 40
0.6744093620670638
 40
0.7256035039920061
 40
0.7834303802949246
 40
0.8477761982260962
 40
0.9197288061835686
 40
1.0
 40
1.0
 40
1.0
 40
1.0
 10
142.4574848413957
 20
44.95780148723275
 30
0.0
 10
142.5475482974478
 20
44.95730685826142
 30
0.0
 10
142.7181566433618
 20
44.95636987633401
 30
0.0
 10
142.9609002661053
 20
44.93978459782734
 30
0.0
 10
143.1773353812547
 20
44.91706829714641
 30
0.0
 10
143.3676176720361
 20
44.88159703432058
 30
0.0
 10
143.531950872326
 20
44.83710241380296
 30
0.0
 10
143.6714590229123
 20
44.78595909349687
 30
0.0
 10
143.7843513973698
 20
44.7203281585212
 30
0.0
 10
143.8718320511144
 20
44.64300179511492
 30
0.0
 10
143.9382974794982
 20
44.55213232129168
 30
0.0
 10
143.979411928386
 20
44.44337094683542
 30
0.0
 10
144.0060730147976
 20
44.32006514296941
 30
0.0
 10
144.0144827310203
 20
44.17940628215371
 30
0.0
 10
144.001742266833
 20
44.02300045563988
 30
0.0
 10
143.9709808081322
 20
43.85033824916453
 30
0.0
 10
143.9273341040443
 20
43.65950305116363
 30
0.0
 10
143.8842316415729
 20
43.52890241807738
 30
0.0
 10
143.8615026985385
 20
43.46003363008989
 30
0.0
  0
LINE
  5
235
330
1F
100
AcDbEntity
  8
0
  6
Continuous
 62
     7
370
    15
100
AcDbLine
 10
143.8615026985
 20
43.4600336301
 30
0.0
 11
143.6784669843
 21
42.9243193444
 31
0.0
  0
SPLINE
  5
236
330
1F
100
AcDbEntity
  8
0
  6
Continuous
 62
     7
370
    15
100
AcDbSpline
210
0.0
220
0.0
230
1.0
 70
     8
 71
     3
 72
    15
 73
    11
 74
     0
 42
0.000000001
 43
0.00000001
 40
0.0
 40
0.0
 40
0.0
 40
0.0
 40
0.1291946945366832
 40
0.2461381535791479
 40
0.3516927486914315
 40
0.4465278570787987
 40
0.5477195720935856
 40
0.6727321879659789
 40
0.8232930068880613
 40
1.0
 40
1.0
 40
1.0
 40
1.0
 10
143.6784669842528
 20
42.9243193443756
 30
0.0
 10
143.6452615044693
 20
42.82911767416198
 30
0.0
 10
143.5819993441155
 20
42.6477420889797
 30
0.0
 10
143.464150251947
 20
42.39959458667758
 30
0.0
 10
143.3431052418842
 20
42.18348911015742
 30
0.0
 10
143.2047485557752
 20
41.99218365295961
 30
0.0
 10
143.0249676892583
 20
41.81649876100435
 30
0.0
 10
142.7915295667384
 20
41.63751026904414
 30
0.0
 10
142.498066748753
 20
41.44139294407969
 30
0.0
 10
142.2774817292233
 20
41.31289678080559
 30
0.0
 10
142.1583776985385
 20
41.24351577294703
 30
0.0
  0
LINE
  5
237
330
1F
100
AcDbEntity
  8
0
  6
Continuous
 62
     7
370
    15
100
AcDbLine
 10
142.1583776985
 20
41.2435157729
 30
0.0
 11
136.4284669843
 21
38.3863729158
 31
0.0
  0
LINE
  5
238
330
1F
100
AcDbEntity
  8
0
  6
Continuous
 62
     7
370
    15
100
AcDbLine
 10
136.4284669843
 20
38.3863729158
 30
0.0
 11
141.1382884128
 21
38.3863729158
 31
0.0
  0
LINE
  5
239
330
1F
100
AcDbEntity
  8
0
  6
Continuous
 62
     7
370
    15
100
AcDbLine
 10
141.1382884128
 20
38.3863729158
 30
0.0
 11
141.52668127
 21
39.5292300587
 31
0.0
  0
LINE
  5
23A
330
1F
100
AcDbEntity
  8
0
  6
Continuous
 62
     7
370
    15
100
AcDbLine
 10
141.52668127
 20
39.5292300587
 30
0.0
 11
142.8168598414
 21
39.1252122015
 31
0.0
  0
LINE
  5
23B
330
1F
100
AcDbEntity
  8
0
  6
Continuous
 62
     7
370
    15
100
AcDbLine
 10
142.8168598414
 20
39.1252122015
 30
0.0
 11
142.6092705557
 21
38.5113729158
 31
0.0
  0
SPLINE
  5
23C
330
1F
100
AcDbEntity
  8
0
  6
Continuous
 62
     7
370
    15
100
AcDbSpline
210
0.0
220
0.0
230
1.0
 70
     8
 71
     3
 72
    23
 73
    19
 74
     0
 42
0.000000001
 43
0.00000001
 40
0.0
 40
0.0
 40
0.0
 40
0.0
 40
0.071958223083034
 40
0.1397429880281162
 40
0.2036760769243178
 40
0.2627342068987503
 40
0.3192213890825457
 40
0.3716232420629473
 40
0.4219393749896636
 40
0.4702491866094864
 40
0.5197755498518024
 40
0.5727609184646039
 40
0.6304426486204074
 40
0.6927851618270547
 40
0.7613229724632494
 40
0.835047951824774
 40
0.9147775391457112
 40
1.0
 40
1.0
 40
1.0
 40
1.0
 10
142.6092705556814
 20
38.51137291580418
 30
0.0
 10
142.5843475118874
 20
38.43950336004142
 30
0.0
 10
142.5359469196922
 20
38.29993256409566
 30
0.0
 10
142.4469563170946
 20
38.10377945346695
 30
0.0
 10
142.3571407576353
 20
37.92326891562761
 30
0.0
 10
142.2603764884278
 20
37.75992210680155
 30
0.0
 10
142.1564851547196
 20
37.61574136730746
 30
0.0
 10
142.0456321137042
 20
37.48893912114993
 30
0.0
 10
141.9298881240363
 20
37.3786697580883
 30
0.0
 10
141.8041372511777
 20
37.28476456923495
 30
0.0
 10
141.6653542719978
 20
37.20575129152746
 30
0.0
 10
141.5097065954462
 20
37.1383660896601
 30
0.0
 10
141.3349142631368
 20
37.08419262142002
 30
0.0
 10
141.141404028684
 20
37.03612628090087
 30
0.0
 10
140.9276750378901
 20
37.00247186916015
 30
0.0
 10
140.694692893518
 20
36.97504319637125
 30
0.0
 10
140.4428096555176
 20
36.95974198446941
 30
0.0
 10
140.268515858702
 20
36.95846252160603
 30
0.0
 10
140.1784669842528
 20
36.95780148723275
 30
0.0
  0
LINE
  5
23D
330
1F
100
AcDbEntity
  8
0
  6
Continuous
 62
     7
370
    15
100
AcDbLine
 10
140.1784669843
 20
36.9578014872
 30
0.0
 11
133.5088241271
 21
36.9578014872
 31
0.0
  0
LINE
  5
23E
330
1F
100
AcDbEntity
  8
0
  6
Continuous
 62
     7
370
    15
100
AcDbLine
 10
133.5088241271
 20
36.9578014872
 30
0.0
 11
133.7543598414
 21
37.6787836301
 31
0.0
  0
SPLINE
  5
23F
330
1F
100
AcDbEntity
  8
0
  6
Continuous
 62
     7
370
    15
100
AcDbSpline
210
0.0
220
0.0
230
1.0
 70
     8
 71
     3
 72
    15
 73
    11
 74
     0
 42
0.000000001
 43
0.00000001
 40
0.0
 40
0.0
 40
0.0
 40
0.0
 40
0.1227680911404648
 40
0.2354145233917218
 40
0.3415427399631903
 40
0.4426712286222723
 40
0.5519155873609379
 40
0.6812475098914499
 40
0.8303556801515276
 40
1.0
 40
1.0
 40
1.0
 40
1.0
 10
133.7543598413957
 20
37.6787836300899
 30
0.0
 10
133.7853166212375
 20
37.76138301574725
 30
0.0
 10
133.8446779382091
 20
37.91977185136681
 30
0.0
 10
133.9593083540925
 20
38.1374952495818
 30
0.0
 10
134.0937975124614
 20
38.32462751955362
 30
0.0
 10
134.2527299096152
 20
38.48834158334714
 30
0.0
 10
134.447584451067
 20
38.63596241484129
 30
0.0
 10
134.6802935265702
 20
38.78876986796101
 30
0.0
 10
134.9575795687537
 20
38.95236888769319
 30
0.0
 10
135.1614710695734
 20
39.05643433013729
 30
0.0
 10
135.2699848413957
 20
39.1118193443756
 30
0.0
  0
LINE
  5
240
330
1F
100
AcDbEntity
  8
0
  6
Continuous
 62
     7
370
    15
100
AcDbLine
 10
135.2699848414
 20
39.1118193444
 30
0.0
 11
141.85480627
 21
42.6028907729
 31
0.0
  0
LINE
  5
241
330
1F
100
AcDbEntity
  8
0
  6
Continuous
 62
     7
370
    15
100
AcDbLine
 10
141.85480627
 20
42.6028907729
 30
0.0
 11
142.2186455557
 21
43.6720872015
 31
0.0
  0
LINE
  5
242
330
1F
100
AcDbEntity
  8
0
  6
Continuous
 62
     7
370
    15
100
AcDbLine
 10
142.2186455557
 20
43.6720872015
 30
0.0
 11
137.7900741271
 21
43.6720872015
 31
0.0
  0
LINE
  5
243
330
1F
100
AcDbEntity
  8
0
  6
Continuous
 62
     7
370
    15
100
AcDbLine
 10
137.7900741271
 20
43.6720872015
 30
0.0
 11
137.2074848414
 21
41.9578014872
 31
0.0
  0
SPLINE
  5
244
330
1F
100
AcDbEntity
  8
0
  6
Continuous
 62
     7
370
    15
100
AcDbSpline
210
0.0
220
0.0
230
1.0
 70
     8
 71
     3
 72
     8
 73
     4
 74
     0
 42
0.000000001
 43
0.00000001
 40
3.0
 40
3.0
 40
3.0
 40
3.0
 40
4.0
 40
4.0
 40
4.0
 40
4.0
 10
-84.62608875918671
 20
80.9040965298237
 30
0.0
 10
-86.34297993789724
 20
82.09695270051624
 30
0.0
 10
-88.70169057461129
 20
81.67214171859605
 30
0.0
 10
-89.89449477611632
 20
79.95534705409008
 30
0.0
  0
SPLINE
  5
245
330
1F
100
AcDbEntity
  8
0
  6
Continuous
 62
     7
370
    15
100
AcDbSpline
210
0.0
220
0.0
230
1.0
 70
     8
 71
     3
 72
     8
 73
     4
 74
     0
 42
0.000000001
 43
0.00000001
 40
2.0
 40
2.0
 40
2.0
 40
2.0
 40
3.0
 40
3.0
 40
3.0
 40
3.0
 10
-89.89449477611635
 20
79.95534705409008
 30
0.0
 10
-91.08729897762178
 20
78.23852269290565
 30
0.0
 10
-90.66251769238018
 20
75.87983432870041
 30
0.0
 10
-88.94570817953482
 20
74.68700785468627
 30
0.0
  0
SPLINE
  5
246
330
1F
100
AcDbEntity
  8
0
  6
Continuous
 62
     7
370
    15
100
AcDbSpline
210
0.0
220
0.0
230
1.0
 70
     8
 71
     3
 72
     8
 73
     4
 74
     0
 42
0.000000001
 43
0.00000001
 40
1.0
 40
1.0
 40
1.0
 40
1.0
 40
2.0
 40
2.0
 40
2.0
 40
2.0
 10
-88.94570817953482
 20
74.68700785468627
 30
0.0
 10
-87.228906090859
 20
73.49418138067242
 30
0.0
 10
-84.87018802997558
 20
73.91896266591392
 30
0.0
 10
-83.67736155596167
 20
75.63575733042026
 30
0.0
  0
SPLINE
  5
247
330
1F
100
AcDbEntity
  8
0
  6
Continuous
 62
     7
370
    15
100
AcDbSpline
210
0.0
220
0.0
230
1.0
 70
     8
 71
     3
 72
     8
 73
     4
 74
     0
 42
0.000000001
 43
0.00000001
 40
0.0
 40
0.0
 40
0.0
 40
0.0
 40
1.0
 40
1.0
 40
1.0
 40
1.0
 10
-83.67736155596167
 20
75.63575733042025
 30
0.0
 10
-82.48454250611714
 20
77.35255199492659
 30
0.0
 10
-82.90928159567692
 20
79.71129873094416
 30
0.0
 10
-84.62608875918674
 20
80.90409652982369
 30
0.0
  0
SPLINE
  5
248
330
1F
100
AcDbEntity
  8
0
  6
Continuous
 62
     7
370
    15
100
AcDbSpline
210
0.0
220
0.0
230
1.0
 70
     8
 71
     3
 72
     8
 73
     4
 74
     0
 42
0.000000001
 43
0.00000001
 40
3.0
 40
3.0
 40
3.0
 40
3.0
 40
4.0
 40
4.0
 40
4.0
 40
4.0
 10
-93.09728894618198
 20
84.90652573011684
 30
0.0
 10
-94.55404464786541
 20
85.91861822049147
 30
0.0
 10
-96.55537803472501
 20
85.55818963695006
 30
0.0
 10
-97.56745567676035
 20
84.10150817696199
 30
0.0
  0
SPLINE
  5
249
330
1F
100
AcDbEntity
  8
0
  6
Continuous
 62
     7
370
    15
100
AcDbSpline
210
0.0
220
0.0
230
1.0
 70
     8
 71
     3
 72
     8
 73
     4
 74
     0
 42
0.000000001
 43
0.00000001
 40
2.0
 40
2.0
 40
2.0
 40
2.0
 40
3.0
 40
3.0
 40
3.0
 40
3.0
 10
-97.56745567676035
 20
84.10150817696199
 30
0.0
 10
-98.579525894626
 20
82.64482671697424
 30
0.0
 10
-98.21910473525416
 20
80.6435081784537
 30
0.0
 10
-96.76243069943605
 20
79.63141568807927
 30
0.0
  0
SPLINE
  5
24A
330
1F
100
AcDbEntity
  8
0
  6
Continuous
 62
     7
370
    15
100
AcDbSpline
210
0.0
220
0.0
230
1.0
 70
     8
 71
     3
 72
     8
 73
     4
 74
     0
 42
0.000000001
 43
0.00000001
 40
1.0
 40
1.0
 40
1.0
 40
1.0
 40
2.0
 40
2.0
 40
2.0
 40
2.0
 10
-96.76243069943605
 20
79.63141568807927
 30
0.0
 10
-95.30574181527852
 20
78.619323197705
 30
0.0
 10
-93.30440842841894
 20
78.97975178124591
 30
0.0
 10
-92.29231593804455
 20
80.43643324123413
 30
0.0
  0
SPLINE
  5
24B
330
1F
100
AcDbEntity
  8
0
  6
Continuous
 62
     7
370
    15
100
AcDbSpline
210
0.0
220
0.0
230
1.0
 70
     8
 71
     3
 72
     8
 73
     4
 74
     0
 42
0.000000001
 43
0.00000001
 40
0.0
 40
0.0
 40
0.0
 40
0.0
 40
1.0
 40
1.0
 40
1.0
 40
1.0
 10
-92.29231593804455
 20
80.43643324123413
 30
0.0
 10
-91.28023829600926
 20
81.89311470122217
 30
0.0
 10
-91.64059833784997
 20
83.89447846386057
 30
0.0
 10
-93.09728894618198
 20
84.90652573011684
 30
0.0
  0
SPLINE
  5
24C
330
1F
100
AcDbEntity
  8
0
  6
Continuous
 62
     7
370
    15
100
AcDbSpline
210
0.0
220
0.0
230
1.0
 70
     8
 71
     3
 72
    11
 73
     7
 74
     0
 42
0.000000001
 43
0.00000001
 40
2.0
 40
2.0
 40
2.0
 40
2.0
 40
3.0
 40
3.0
 40
3.0
 40
4.0
 40
4.0
 40
4.0
 40
4.0
 10
-77.61297320022517
 20
68.93392977671724
 30
0.0
 10
-79.43391411524476
 20
70.19906766219441
 30
0.0
 10
-81.93557713673451
 20
69.74853935693667
 30
0.0
 10
-83.20067790136333
 20
67.92768753195224
 30
0.0
 10
-84.46577866599212
 20
66.10683570696729
 30
0.0
 10
-84.015250360735
 20
63.60515783713823
 30
0.0
 10
-82.19439111158054
 20
62.34004964833968
 30
0.0
  0
SPLINE
  5
24D
330
1F
100
AcDbEntity
  8
0
  6
Continuous
 62
     7
370
    15
100
AcDbSpline
210
0.0
220
0.0
230
1.0
 70
     8
 71
     3
 72
     8
 73
     4
 74
     0
 42
0.000000001
 43
0.00000001
 40
1.0
 40
1.0
 40
1.0
 40
1.0
 40
2.0
 40
2.0
 40
2.0
 40
2.0
 10
-82.19439111158054
 20
62.34004964833968
 30
0.0
 10
-80.37353928659552
 20
61.07494145954151
 30
0.0
 10
-77.87187626510581
 20
61.52544006812001
 30
0.0
 10
-76.60675322796841
 20
63.34629189310499
 30
0.0
  0
SPLINE
  5
24E
330
1F
100
AcDbEntity
  8
0
  6
Continuous
 62
     7
370
    15
100
AcDbSpline
210
0.0
220
0.0
230
1.0
 70
     8
 71
     3
 72
     8
 73
     4
 74
     0
 42
0.000000001
 43
0.00000001
 40
0.0
 40
0.0
 40
0.0
 40
0.0
 40
1.0
 40
1.0
 40
1.0
 40
1.0
 10
-76.60675322796841
 20
63.34629189310499
 30
0.0
 10
-75.34163761500032
 20
65.16714371808995
 30
0.0
 10
-75.79210238494609
 20
67.66884059454321
 30
0.0
 10
-77.61297320022517
 20
68.93392977671724
 30
0.0
  0
SPLINE
  5
24F
330
1F
100
AcDbEntity
  8
0
  6
Continuous
 62
     7
370
    15
100
AcDbSpline
210
0.0
220
0.0
230
1.0
 70
     8
 71
     3
 72
     8
 73
     4
 74
     0
 42
0.000000001
 43
0.00000001
 40
3.0
 40
3.0
 40
3.0
 40
3.0
 40
4.0
 40
4.0
 40
4.0
 40
4.0
 10
-68.02974377647968
 20
81.2731965434048
 30
0.0
 10
-70.52704138627121
 20
83.00822496833752
 30
0.0
 10
-73.95789119671791
 20
82.39035588131743
 30
0.0
 10
-75.69288250080261
 20
79.89316220989971
 30
0.0
  0
SPLINE
  5
250
330
1F
100
AcDbEntity
  8
0
  6
Continuous
 62
     7
370
    15
100
AcDbSpline
210
0.0
220
0.0
230
1.0
 70
     8
 71
     3
 72
     8
 73
     4
 74
     0
 42
0.000000001
 43
0.00000001
 40
2.0
 40
2.0
 40
2.0
 40
2.0
 40
3.0
 40
3.0
 40
3.0
 40
3.0
 10
-75.69288250080265
 20
79.89316220989971
 30
0.0
 10
-77.42783668403966
 20
77.39599823516005
 30
0.0
 10
-76.80997502118915
 20
73.9651706972221
 30
0.0
 10
-74.31283331895823
 20
72.23017196896775
 30
0.0
  0
SPLINE
  5
251
330
1F
100
AcDbEntity
  8
0
  6
Continuous
 62
     7
370
    15
100
AcDbSpline
210
0.0
220
0.0
230
1.0
 70
     8
 71
     3
 72
     8
 73
     4
 74
     0
 42
0.000000001
 43
0.00000001
 40
1.0
 40
1.0
 40
1.0
 40
1.0
 40
2.0
 40
2.0
 40
2.0
 40
2.0
 10
-74.31283331895823
 20
72.23017196896775
 30
0.0
 10
-71.81566192004927
 20
70.49517324071363
 30
0.0
 10
-68.38480468543302
 20
71.1130126310554
 30
0.0
 10
-66.64978368467006
 20
73.61017660579498
 30
0.0
  0
SPLINE
  5
252
330
1F
100
AcDbEntity
  8
0
  6
Continuous
 62
     7
370
    15
100
AcDbSpline
210
0.0
220
0.0
230
1.0
 70
     8
 71
     3
 72
     8
 73
     4
 74
     0
 42
0.000000001
 43
0.00000001
 40
0.0
 40
0.0
 40
0.0
 40
0.0
 40
1.0
 40
1.0
 40
1.0
 40
1.0
 10
-66.64978368467006
 20
73.610176605795
 30
0.0
 10
-64.91479238058523
 20
76.10734058053427
 30
0.0
 10
-65.53256133132227
 20
79.53824813052731
 30
0.0
 10
-68.02974377647973
 20
81.2731965434048
 30
0.0
  0
SPLINE
  5
253
330
1F
100
AcDbEntity
  8
0
  6
Continuous
 62
     7
370
    15
100
AcDbSpline
210
0.0
220
0.0
230
1.0
 70
     8
 71
     3
 72
     8
 73
     4
 74
     0
 42
0.000000001
 43
0.00000001
 40
0.0
 40
0.0
 40
0.0
 40
0.0
 40
1.0
 40
1.0
 40
1.0
 40
1.0
 10
-36.95263031903271
 20
85.2724185024505
 30
0.0
 10
-35.44392027880533
 20
84.22415545800577
 30
0.0
 10
-33.37109213913406
 20
84.59741300653742
 30
0.0
 10
-32.32284394302842
 20
86.10612304676476
 30
0.0
  0
SPLINE
  5
254
330
1F
100
AcDbEntity
  8
0
  6
Continuous
 62
     7
370
    15
100
AcDbSpline
210
0.0
220
0.0
230
1.0
 70
     8
 71
     3
 72
     8
 73
     4
 74
     0
 42
0.000000001
 43
0.00000001
 40
33.0
 40
33.0
 40
33.0
 40
33.0
 40
34.0
 40
34.0
 40
34.0
 40
34.0
 10
-32.32284394302842
 20
86.10612304676476
 30
0.0
 10
-31.27464029193977
 20
87.61483308699195
 30
0.0
 10
-31.64789784047194
 20
89.68766122666318
 30
0.0
 10
-33.15663757737723
 20
90.73592427110816
 30
0.0
  0
SPLINE
  5
255
330
1F
100
AcDbEntity
  8
0
  6
Continuous
 62
     7
370
    15
100
AcDbSpline
210
0.0
220
0.0
230
1.0
 70
     8
 71
     3
 72
     8
 73
     4
 74
     0
 42
0.000000001
 43
0.00000001
 40
32.0
 40
32.0
 40
32.0
 40
32.0
 40
33.0
 40
33.0
 40
33.0
 40
33.0
 10
-33.15663757737723
 20
90.73592427110816
 30
0.0
 10
-33.84470961170655
 20
91.21396654873509
 30
0.0
 10
-34.6500686766609
 20
91.39636354635485
 30
0.0
 10
-35.4220635236365
 20
91.31022833118126
 30
0.0
  0
SPLINE
  5
256
330
1F
100
AcDbEntity
  8
0
  6
Continuous
 62
     7
370
    15
100
AcDbSpline
210
0.0
220
0.0
230
1.0
 70
     8
 71
     3
 72
     8
 73
     4
 74
     0
 42
0.000000001
 43
0.00000001
 40
31.0
 40
31.0
 40
31.0
 40
31.0
 40
32.0
 40
32.0
 40
32.0
 40
32.0
 10
-35.4220635236365
 20
91.31022833118126
 30
0.0
 10
-36.92449271642043
 20
91.12790557525697
 30
0.0
 10
-37.01278094076488
 20
90.54049043175044
 30
0.0
 10
-38.8365281918759
 20
91.45194087964117
 30
0.0
  0
SPLINE
  5
257
330
1F
100
AcDbEntity
  8
0
  6
Continuous
 62
     7
370
    15
100
AcDbSpline
210
0.0
220
0.0
230
1.0
 70
     8
 71
     3
 72
     8
 73
     4
 74
     0
 42
0.000000001
 43
0.00000001
 40
30.0
 40
30.0
 40
30.0
 40
30.0
 40
31.0
 40
31.0
 40
31.0
 40
31.0
 10
-38.8365281918759
 20
91.45194087964117
 30
0.0
 10
-39.46263810710184
 20
91.76192965522807
 30
0.0
 10
-40.19933845201428
 20
92.03925208477416
 30
0.0
 10
-40.79211384593935
 20
92.42211650871003
 30
0.0
  0
SPLINE
  5
258
330
1F
100
AcDbEntity
  8
0
  6
Continuous
 62
     7
370
    15
100
AcDbSpline
210
0.0
220
0.0
230
1.0
 70
     8
 71
     3
 72
     8
 73
     4
 74
     0
 42
0.000000001
 43
0.00000001
 40
29.0
 40
29.0
 40
29.0
 40
29.0
 40
30.0
 40
30.0
 40
30.0
 40
30.0
 10
-40.79211384593935
 20
92.42211650871003
 30
0.0
 10
-41.74224421721035
 20
93.03581321244016
 30
0.0
 10
-42.48841780247477
 20
93.76445090921638
 30
0.0
 10
-43.05734676379029
 20
94.339111329428
 30
0.0
  0
SPLINE
  5
259
330
1F
100
AcDbEntity
  8
0
  6
Continuous
 62
     7
370
    15
100
AcDbSpline
210
0.0
220
0.0
230
1.0
 70
     8
 71
     3
 72
     8
 73
     4
 74
     0
 42
0.000000001
 43
0.00000001
 40
28.0
 40
28.0
 40
28.0
 40
28.0
 40
29.0
 40
29.0
 40
29.0
 40
29.0
 10
-43.05734676379029
 20
94.339111329428
 30
0.0
 10
-44.04709250380508
 20
95.34328965505725
 30
0.0
 10
-42.72319974047254
 20
96.76728992066535
 30
0.0
 10
-42.86997557256877
 20
98.1048134593003
 30
0.0
  0
SPLINE
  5
25A
330
1F
100
AcDbEntity
  8
0
  6
Continuous
 62
     7
370
    15
100
AcDbSpline
210
0.0
220
0.0
230
1.0
 70
     8
 71
     3
 72
     8
 73
     4
 74
     0
 42
0.000000001
 43
0.00000001
 40
27.0
 40
27.0
 40
27.0
 40
27.0
 40
28.0
 40
28.0
 40
28.0
 40
28.0
 10
-42.86997557256877
 20
98.1048134593003
 30
0.0
 10
-43.08674647522692
 20
100.0801474043795
 30
0.0
 10
-44.02450818001964
 20
102.0507447292826
 30
0.0
 10
-45.80970914280292
 20
103.2911007367855
 30
0.0
  0
LINE
  5
25B
330
1F
100
AcDbEntity
  8
0
  6
Continuous
 62
     7
370
    15
100
AcDbLine
 10
-45.8097091428
 20
103.2911007368
 30
0.0
 11
-46.0961039075
 21
103.4796894918
 31
0.0
  0
SPLINE
  5
25C
330
1F
100
AcDbEntity
  8
0
  6
Continuous
 62
     7
370
    15
100
AcDbSpline
210
0.0
220
0.0
230
1.0
 70
     8
 71
     3
 72
     8
 73
     4
 74
     0
 42
0.000000001
 43
0.00000001
 40
25.0
 40
25.0
 40
25.0
 40
25.0
 40
26.0
 40
26.0
 40
26.0
 40
26.0
 10
-46.0961039075447
 20
103.4796894918139
 30
0.0
 10
-49.20862759999485
 20
105.4198180248646
 30
0.0
 10
-53.29579627158557
 20
104.5781844674661
 30
0.0
 10
-55.38856573068062
 20
101.5661691824473
 30
0.0
  0
SPLINE
  5
25D
330
1F
100
AcDbEntity
  8
0
  6
Continuous
 62
     7
370
    15
100
AcDbSpline
210
0.0
220
0.0
230
1.0
 70
     8
 71
     3
 72
     8
 73
     4
 74
     0
 42
0.000000001
 43
0.00000001
 40
24.0
 40
24.0
 40
24.0
 40
24.0
 40
25.0
 40
25.0
 40
25.0
 40
25.0
 10
-55.38856573068062
 20
101.5661691824473
 30
0.0
 10
-56.84472749879974
 20
99.47038551051298
 30
0.0
 10
-57.11490787723425
 20
96.98832229664782
 30
0.0
 10
-56.15987755405714
 20
94.89642888955997
 30
0.0
  0
SPLINE
  5
25E
330
1F
100
AcDbEntity
  8
0
  6
Continuous
 62
     7
370
    15
100
AcDbSpline
210
0.0
220
0.0
230
1.0
 70
     8
 71
     3
 72
     8
 73
     4
 74
     0
 42
0.000000001
 43
0.00000001
 40
23.0
 40
23.0
 40
23.0
 40
23.0
 40
24.0
 40
24.0
 40
24.0
 40
24.0
 10
-56.15987755405714
 20
94.89642888955997
 30
0.0
 10
-55.57629328204064
 20
93.63801730169992
 30
0.0
 10
-54.20392069151583
 20
93.27776689822791
 30
0.0
 10
-55.29821358720003
 20
91.31214376692635
 30
0.0
  0
SPLINE
  5
25F
330
1F
100
AcDbEntity
  8
0
  6
Continuous
 62
     7
370
    15
100
AcDbSpline
210
0.0
220
0.0
230
1.0
 70
     8
 71
     3
 72
     8
 73
     4
 74
     0
 42
0.000000001
 43
0.00000001
 40
22.0
 40
22.0
 40
22.0
 40
22.0
 40
23.0
 40
23.0
 40
23.0
 40
23.0
 10
-55.29821358720003
 20
91.31214376692635
 30
0.0
 10
-56.03231547276832
 20
89.9934776189603
 30
0.0
 10
-56.96583055257584
 20
88.71069990662153
 30
0.0
 10
-57.62729436322124
 20
87.7634946581553
 30
0.0
  0
SPLINE
  5
260
330
1F
100
AcDbEntity
  8
0
  6
Continuous
 62
     7
370
    15
100
AcDbSpline
210
0.0
220
0.0
230
1.0
 70
     8
 71
     3
 72
     8
 73
     4
 74
     0
 42
0.000000001
 43
0.00000001
 40
21.0
 40
21.0
 40
21.0
 40
21.0
 40
22.0
 40
22.0
 40
22.0
 40
22.0
 10
-57.62729436322124
 20
87.7634946581553
 30
0.0
 10
-58.35241300362834
 20
86.75814331373644
 30
0.0
 10
-59.42502732421273
 20
87.29096111433792
 30
0.0
 10
-60.21674076552559
 20
86.82644567363985
 30
0.0
  0
SPLINE
  5
261
330
1F
100
AcDbEntity
  8
0
  6
Continuous
 62
     7
370
    15
100
AcDbSpline
210
0.0
220
0.0
230
1.0
 70
     8
 71
     3
 72
     8
 73
     4
 74
     0
 42
0.000000001
 43
0.00000001
 40
20.0
 40
20.0
 40
20.0
 40
20.0
 40
21.0
 40
21.0
 40
21.0
 40
21.0
 10
-60.21674076552559
 20
86.82644567363985
 30
0.0
 10
-60.74866024161089
 20
86.49111078319314
 30
0.0
 10
-61.48775116912012
 20
85.8853282442082
 30
0.0
 10
-63.20146480326112
 20
87.29208958811029
 30
0.0
  0
SPLINE
  5
262
330
1F
100
AcDbEntity
  8
0
  6
Continuous
 62
     7
370
    15
100
AcDbSpline
210
0.0
220
0.0
230
1.0
 70
     8
 71
     3
 72
     8
 73
     4
 74
     0
 42
0.000000001
 43
0.00000001
 40
19.0
 40
19.0
 40
19.0
 40
19.0
 40
20.0
 40
20.0
 40
20.0
 40
20.0
 10
-63.20146480326112
 20
87.29208958811029
 30
0.0
 10
-63.94267161909313
 20
87.80726756184977
 30
0.0
 10
-64.61161899264951
 20
88.2484414134682
 30
0.0
 10
-65.0295626177312
 20
88.56631465712181
 30
0.0
  0
SPLINE
  5
263
330
1F
100
AcDbEntity
  8
0
  6
Continuous
 62
     7
370
    15
100
AcDbSpline
210
0.0
220
0.0
230
1.0
 70
     8
 71
     3
 72
     8
 73
     4
 74
     0
 42
0.000000001
 43
0.00000001
 40
18.0
 40
18.0
 40
18.0
 40
18.0
 40
19.0
 40
19.0
 40
19.0
 40
19.0
 10
-65.0295626177312
 20
88.56631465712181
 30
0.0
 10
-65.43600620417263
 20
88.87670433786477
 30
0.0
 10
-65.49716651296424
 20
89.07374179784631
 30
0.0
 10
-65.35469669920958
 20
89.6610530029793
 30
0.0
  0
SPLINE
  5
264
330
1F
100
AcDbEntity
  8
0
  6
Continuous
 62
     7
370
    15
100
AcDbSpline
210
0.0
220
0.0
230
1.0
 70
     8
 71
     3
 72
     8
 73
     4
 74
     0
 42
0.000000001
 43
0.00000001
 40
17.0
 40
17.0
 40
17.0
 40
17.0
 40
18.0
 40
18.0
 40
18.0
 40
18.0
 10
-65.35469669920958
 20
89.6610530029793
 30
0.0
 10
-65.21388247526563
 20
91.17487087186001
 30
0.0
 10
-65.87036466813981
 20
92.71893480750664
 30
0.0
 10
-67.2080589626746
 20
93.64836659405908
 30
0.0
  0
SPLINE
  5
265
330
1F
100
AcDbEntity
  8
0
  6
Continuous
 62
     7
370
    15
100
AcDbSpline
210
0.0
220
0.0
230
1.0
 70
     8
 71
     3
 72
     8
 73
     4
 74
     0
 42
0.000000001
 43
0.00000001
 40
16.0
 40
16.0
 40
16.0
 40
16.0
 40
17.0
 40
17.0
 40
17.0
 40
17.0
 10
-67.2080589626746
 20
93.64836659405908
 30
0.0
 10
-69.18501880088603
 20
95.02186765835627
 30
0.0
 10
-71.90106956660662
 20
94.53276336809293
 30
0.0
 10
-73.27462260009051
 20
92.55587034740753
 30
0.0
  0
SPLINE
  5
266
330
1F
100
AcDbEntity
  8
0
  6
Continuous
 62
     7
370
    15
100
AcDbSpline
210
0.0
220
0.0
230
1.0
 70
     8
 71
     3
 72
     8
 73
     4
 74
     0
 42
0.000000001
 43
0.00000001
 40
15.0
 40
15.0
 40
15.0
 40
15.0
 40
16.0
 40
16.0
 40
16.0
 40
16.0
 10
-73.27462260009051
 20
92.55587034740753
 30
0.0
 10
-74.64819790608311
 20
90.57894763004364
 30
0.0
 10
-74.15908619165009
 20
87.8628597434752
 30
0.0
 10
-72.1821708984559
 20
86.48926958914355
 30
0.0
  0
SPLINE
  5
267
330
1F
100
AcDbEntity
  8
0
  6
Continuous
 62
     7
370
    15
100
AcDbSpline
210
0.0
220
0.0
230
1.0
 70
     8
 71
     3
 72
     8
 73
     4
 74
     0
 42
0.000000001
 43
0.00000001
 40
14.0
 40
14.0
 40
14.0
 40
14.0
 40
15.0
 40
15.0
 40
15.0
 40
15.0
 10
-72.1821708984559
 20
86.48926958914355
 30
0.0
 10
-70.40420107681919
 20
85.25394716859851
 30
0.0
 10
-68.0283480326033
 20
85.525226324127
 30
0.0
 10
-66.56894190238876
 20
87.03046185300278
 30
0.0
  0
SPLINE
  5
268
330
1F
100
AcDbEntity
  8
0
  6
Continuous
 62
     7
370
    15
100
AcDbSpline
210
0.0
220
0.0
230
1.0
 70
     8
 71
     3
 72
     8
 73
     4
 74
     0
 42
0.000000001
 43
0.00000001
 40
13.0
 40
13.0
 40
13.0
 40
13.0
 40
14.0
 40
14.0
 40
14.0
 40
14.0
 10
-66.56894190238876
 20
87.03046185300278
 30
0.0
 10
-66.21276736800237
 20
87.42631857365924
 30
0.0
 10
-66.17185276958638
 20
87.63906557641867
 30
0.0
 10
-65.5626699609452
 20
87.43864269512002
 30
0.0
  0
SPLINE
  5
269
330
1F
100
AcDbEntity
  8
0
  6
Continuous
 62
     7
370
    15
100
AcDbSpline
210
0.0
220
0.0
230
1.0
 70
     8
 71
     3
 72
     8
 73
     4
 74
     0
 42
0.000000001
 43
0.00000001
 40
12.0
 40
12.0
 40
12.0
 40
12.0
 40
13.0
 40
13.0
 40
13.0
 40
13.0
 10
-65.5626699609452
 20
87.43864269512002
 30
0.0
 10
-65.10170327329413
 20
87.26070019923296
 30
0.0
 10
-64.40124029997828
 20
86.96524794763431
 30
0.0
 10
-63.57396508649825
 20
86.58649651363186
 30
0.0
  0
SPLINE
  5
26A
330
1F
100
AcDbEntity
  8
0
  6
Continuous
 62
     7
370
    15
100
AcDbSpline
210
0.0
220
0.0
230
1.0
 70
     8
 71
     3
 72
     8
 73
     4
 74
     0
 42
0.000000001
 43
0.00000001
 40
11.0
 40
11.0
 40
11.0
 40
11.0
 40
12.0
 40
12.0
 40
12.0
 40
12.0
 10
-63.57396508649825
 20
86.58649651363186
 30
0.0
 10
-62.07071181089378
 20
85.82923121905263
 30
0.0
 10
-61.70184194656878
 20
85.33255427584382
 30
0.0
 10
-61.99449528624523
 20
84.7877984105982
 30
0.0
  0
SPLINE
  5
26B
330
1F
100
AcDbEntity
  8
0
  6
Continuous
 62
     7
370
    15
100
AcDbSpline
210
0.0
220
0.0
230
1.0
 70
     8
 71
     3
 72
     8
 73
     4
 74
     0
 42
0.000000001
 43
0.00000001
 40
10.0
 40
10.0
 40
10.0
 40
10.0
 40
11.0
 40
11.0
 40
11.0
 40
11.0
 10
-61.99449528624523
 20
84.7877984105982
 30
0.0
 10
-62.49152858959309
 20
83.32455398472409
 30
0.0
 10
-61.98759823272893
 20
81.6511461670954
 30
0.0
 10
-60.65513797773033
 20
80.72532252694631
 30
0.0
  0
SPLINE
  5
26C
330
1F
100
AcDbEntity
  8
0
  6
Continuous
 62
     7
370
    15
100
AcDbSpline
210
0.0
220
0.0
230
1.0
 70
     8
 71
     3
 72
     8
 73
     4
 74
     0
 42
0.000000001
 43
0.00000001
 40
9.0
 40
9.0
 40
9.0
 40
9.0
 40
10.0
 40
10.0
 40
10.0
 40
10.0
 10
-60.65513797773033
 20
80.72532252694631
 30
0.0
 10
-59.04238562536361
 20
79.60477776771695
 30
0.0
 10
-56.83595213038598
 20
80.01031560547278
 30
0.0
 10
-55.70606776585694
 20
81.61651984029253
 30
0.0
  0
SPLINE
  5
26D
330
1F
100
AcDbEntity
  8
0
  6
Continuous
 62
     7
370
    15
100
AcDbSpline
210
0.0
220
0.0
230
1.0
 70
     8
 71
     3
 72
     8
 73
     4
 74
     0
 42
0.000000001
 43
0.00000001
 40
8.0
 40
8.0
 40
8.0
 40
8.0
 40
9.0
 40
9.0
 40
9.0
 40
9.0
 10
-55.70606776585694
 20
81.61651984029253
 30
0.0
 10
-54.85907395803964
 20
82.82063105202941
 30
0.0
 10
-55.05857624231358
 20
84.3455851752422
 30
0.0
 10
-55.61002870849726
 20
85.53036384945901
 30
0.0
  0
SPLINE
  5
26E
330
1F
100
AcDbEntity
  8
0
  6
Continuous
 62
     7
370
    15
100
AcDbSpline
210
0.0
220
0.0
230
1.0
 70
     8
 71
     3
 72
     8
 73
     4
 74
     0
 42
0.000000001
 43
0.00000001
 40
7.0
 40
7.0
 40
7.0
 40
7.0
 40
8.0
 40
8.0
 40
8.0
 40
8.0
 10
-55.61002870849726
 20
85.53036384945901
 30
0.0
 10
-55.98037598256376
 20
86.32605664565305
 30
0.0
 10
-56.89515245841524
 20
86.302299303078
 30
0.0
 10
-56.12551849735801
 20
88.4219591043003
 30
0.0
  0
SPLINE
  5
26F
330
1F
100
AcDbEntity
  8
0
  6
Continuous
 62
     7
370
    15
100
AcDbSpline
210
0.0
220
0.0
230
1.0
 70
     8
 71
     3
 72
     8
 73
     4
 74
     0
 42
0.000000001
 43
0.00000001
 40
6.0
 40
6.0
 40
6.0
 40
6.0
 40
7.0
 40
7.0
 40
7.0
 40
7.0
 10
-56.12551849735801
 20
88.4219591043003
 30
0.0
 10
-55.90294189410831
 20
89.03492823941426
 30
0.0
 10
-55.42057874980052
 20
89.70755800106996
 30
0.0
 10
-54.90603925464264
 20
90.46924810070347
 30
0.0
  0
SPLINE
  5
270
330
1F
100
AcDbEntity
  8
0
  6
Continuous
 62
     7
370
    15
100
AcDbSpline
210
0.0
220
0.0
230
1.0
 70
     8
 71
     3
 72
     8
 73
     4
 74
     0
 42
0.000000001
 43
0.00000001
 40
5.0
 40
5.0
 40
5.0
 40
5.0
 40
6.0
 40
6.0
 40
6.0
 40
6.0
 10
-54.90603925464264
 20
90.46924810070347
 30
0.0
 10
-53.42041838173054
 20
92.66842075785662
 30
0.0
 10
-52.96145621985925
 20
91.51198756299975
 30
0.0
 10
-51.60056139546597
 20
91.27343414686813
 30
0.0
  0
SPLINE
  5
271
330
1F
100
AcDbEntity
  8
0
  6
Continuous
 62
     7
370
    15
100
AcDbSpline
210
0.0
220
0.0
230
1.0
 70
     8
 71
     3
 72
     8
 73
     4
 74
     0
 42
0.000000001
 43
0.00000001
 40
4.0
 40
4.0
 40
4.0
 40
4.0
 40
5.0
 40
5.0
 40
5.0
 40
5.0
 10
-51.60056139546597
 20
91.27343414686813
 30
0.0
 10
-50.07055883695593
 20
91.00525829421345
 30
0.0
 10
-48.32250841862452
 20
90.95983722487792
 30
0.0
 10
-47.05591539591507
 20
91.5213271682997
 30
0.0
  0
SPLINE
  5
272
330
1F
100
AcDbEntity
  8
0
  6
Continuous
 62
     7
370
    15
100
AcDbSpline
210
0.0
220
0.0
230
1.0
 70
     8
 71
     3
 72
     8
 73
     4
 74
     0
 42
0.000000001
 43
0.00000001
 40
3.0
 40
3.0
 40
3.0
 40
3.0
 40
4.0
 40
4.0
 40
4.0
 40
4.0
 10
-47.05591539591507
 20
91.5213271682997
 30
0.0
 10
-45.65436581904037
 20
91.87927607920973
 30
0.0
 10
-45.2260951741083
 20
93.06558413235463
 30
0.0
 10
-43.70397708366526
 20
92.4922452143235
 30
0.0
  0
SPLINE
  5
273
330
1F
100
AcDbEntity
  8
0
  6
Continuous
 62
     7
370
    15
100
AcDbSpline
210
0.0
220
0.0
230
1.0
 70
     8
 71
     3
 72
     8
 73
     4
 74
     0
 42
0.000000001
 43
0.00000001
 40
2.0
 40
2.0
 40
2.0
 40
2.0
 40
3.0
 40
3.0
 40
3.0
 40
3.0
 10
-43.70397708366526
 20
92.4922452143235
 30
0.0
 10
-42.46474954993445
 20
91.91491209307233
 30
0.0
 10
-40.49052923028861
 20
90.99683928593844
 30
0.0
 10
-38.97347442348189
 20
89.80374554182046
 30
0.0
  0
SPLINE
  5
274
330
1F
100
AcDbEntity
  8
0
  6
Continuous
 62
     7
370
    15
100
AcDbSpline
210
0.0
220
0.0
230
1.0
 70
     8
 71
     3
 72
     8
 73
     4
 74
     0
 42
0.000000001
 43
0.00000001
 40
1.0
 40
1.0
 40
1.0
 40
1.0
 40
2.0
 40
2.0
 40
2.0
 40
2.0
 10
-38.97347442348189
 20
89.80374554182046
 30
0.0
 10
-37.8264699239595
 20
88.90164954756852
 30
0.0
 10
-38.17337167057218
 20
86.4542572055237
 30
0.0
 10
-36.95263031903271
 20
85.2724185024505
 30
0.0
  0
CIRCLE
  5
275
330
1F
100
AcDbEntity
  8
0
  6
Continuous
 62
     7
370
    15
100
AcDbCircle
 10
-48.1307997346
 20
71.0280446677
 30
0.0
 40
4.817559854191515
  0
SPLINE
  5
276
330
1F
100
AcDbEntity
  8
0
  6
Continuous
 62
     7
370
    15
100
AcDbSpline
210
0.0
220
0.0
230
1.0
 70
     8
 71
     3
 72
     8
 73
     4
 74
     0
 42
0.000000001
 43
0.00000001
 40
0.0
 40
0.0
 40
0.0
 40
0.0
 40
1.0
 40
1.0
 40
1.0
 40
1.0
 10
34.67152576803279
 20
69.51660830004792
 30
0.0
 10
34.65336624930211
 20
70.27509115843426
 30
0.0
 10
32.90521189259641
 20
70.94982938424307
 30
0.0
 10
31.15924024174064
 20
71.00761912005719
 30
0.0
  0
SPLINE
  5
277
330
1F
100
AcDbEntity
  8
0
  6
Continuous
 62
     7
370
    15
100
AcDbSpline
210
0.0
220
0.0
230
1.0
 70
     8
 71
     3
 72
     8
 73
     4
 74
     0
 42
0.000000001
 43
0.00000001
 40
7.0
 40
7.0
 40
7.0
 40
7.0
 40
8.0
 40
8.0
 40
8.0
 40
8.0
 10
31.15924024174064
 20
71.00761912005719
 30
0.0
 10
30.11166022089461
 20
71.04230484021639
 30
0.0
 10
29.06491170703865
 20
70.85542364418589
 30
0.0
 10
28.39293527230438
 20
70.33005970981695
 30
0.0
  0
SPLINE
  5
278
330
1F
100
AcDbEntity
  8
0
  6
Continuous
 62
     7
370
    15
100
AcDbSpline
210
0.0
220
0.0
230
1.0
 70
     8
 71
     3
 72
     8
 73
     4
 74
     0
 42
0.000000001
 43
0.00000001
 40
6.0
 40
6.0
 40
6.0
 40
6.0
 40
7.0
 40
7.0
 40
7.0
 40
7.0
 10
28.39293527230438
 20
70.33005970981695
 30
0.0
 10
27.12205107959192
 20
69.24717033856906
 30
0.0
 10
26.73688516309457
 20
67.18016274782863
 30
0.0
 10
26.64344456507908
 20
64.95329793823672
 30
0.0
  0
SPLINE
  5
279
330
1F
100
AcDbEntity
  8
0
  6
Continuous
 62
     7
370
    15
100
AcDbSpline
210
0.0
220
0.0
230
1.0
 70
     8
 71
     3
 72
     8
 73
     4
 74
     0
 42
0.000000001
 43
0.00000001
 40
5.0
 40
5.0
 40
5.0
 40
5.0
 40
6.0
 40
6.0
 40
6.0
 40
6.0
 10
26.64344456507908
 20
64.95329793823672
 30
0.0
 10
26.66935491682458
 20
63.53525185661117
 30
0.0
 10
26.9757058493297
 20
62.49346268801771
 30
0.0
 10
27.5623785758808
 20
61.82873224276887
 30
0.0
  0
SPLINE
  5
27A
330
1F
100
AcDbEntity
  8
0
  6
Continuous
 62
     7
370
    15
100
AcDbSpline
210
0.0
220
0.0
230
1.0
 70
     8
 71
     3
 72
     8
 73
     4
 74
     0
 42
0.000000001
 43
0.00000001
 40
4.0
 40
4.0
 40
4.0
 40
4.0
 40
5.0
 40
5.0
 40
5.0
 40
5.0
 10
27.5623785758808
 20
61.82873224276887
 30
0.0
 10
28.14903645409315
 20
61.16397210084133
 30
0.0
 10
28.86030159411158
 20
60.83552683974154
 30
0.0
 10
29.69673823282178
 20
60.84232737905342
 30
0.0
  0
SPLINE
  5
27B
330
1F
100
AcDbEntity
  8
0
  6
Continuous
 62
     7
370
    15
100
AcDbSpline
210
0.0
220
0.0
230
1.0
 70
     8
 71
     3
 72
     8
 73
     4
 74
     0
 42
0.000000001
 43
0.00000001
 40
3.0
 40
3.0
 40
3.0
 40
3.0
 40
4.0
 40
4.0
 40
4.0
 40
4.0
 10
29.69673823282178
 20
60.84232737905342
 30
0.0
 10
30.91641050394545
 20
60.87347919450519
 30
0.0
 10
32.49440289445702
 20
61.3716706683033
 30
0.0
 10
33.31355606644425
 20
62.33713937387464
 30
0.0
  0
SPLINE
  5
27C
330
1F
100
AcDbEntity
  8
0
  6
Continuous
 62
     7
370
    15
100
AcDbSpline
210
0.0
220
0.0
230
1.0
 70
     8
 71
     3
 72
     8
 73
     4
 74
     0
 42
0.000000001
 43
0.00000001
 40
2.0
 40
2.0
 40
2.0
 40
2.0
 40
3.0
 40
3.0
 40
3.0
 40
3.0
 10
33.31355606644425
 20
62.33713937387464
 30
0.0
 10
34.13269439009211
 20
63.30263777612359
 30
0.0
 10
34.55854475574906
 20
64.54853221411427
 30
0.0
 10
34.59075080327754
 20
66.07464450777812
 30
0.0
  0
LINE
  5
27D
330
1F
100
AcDbEntity
  8
0
  6
Continuous
 62
     7
370
    15
100
AcDbLine
 10
34.5907508033
 20
66.0746445078
 30
0.0
 11
34.671525768
 21
69.5166083
 31
0.0
  0
LINE
  5
27E
330
1F
100
AcDbEntity
  8
0
  6
Continuous
 62
     7
370
    15
100
AcDbLine
 10
-9.6362651586
 20
41.9979800587
 30
0.0
 11
-9.3215330157
 21
42.9243193444
 31
0.0
  0
SPLINE
  5
27F
330
1F
100
AcDbEntity
  8
0
  6
Continuous
 62
     7
370
    15
100
AcDbSpline
210
0.0
220
0.0
230
1.0
 70
     8
 71
     3
 72
    15
 73
    11
 74
     0
 42
0.000000001
 43
0.00000001
 40
0.0
 40
0.0
 40
0.0
 40
0.0
 40
0.1437792097698068
 40
0.2627340892043513
 40
0.3565344593336607
 40
0.4402635191313025
 40
0.5339131712495876
 40
0.6527152723242762
 40
0.8089774932631573
 40
1.0
 40
1.0
 40
1.0
 40
1.0
 10
-9.321533015747208
 20
42.9243193443756
 30
0.0
 10
-9.305416596605257
 20
42.97518386544011
 30
0.0
 10
-9.275966353337989
 20
43.06813084738619
 30
0.0
 10
-9.262911393622657
 20
43.20071536998843
 30
0.0
 10
-9.278673728385668
 20
43.31080877301107
 30
0.0
 10
-9.32925590849747
 20
43.40145776660754
 30
0.0
 10
-9.4241312382564
 20
43.46245392127647
 30
0.0
 10
-9.555111565160436
 20
43.50322542129572
 30
0.0
 10
-9.727138390512891
 20
43.52446840432325
 30
0.0
 10
-9.855718680976688
 20
43.52754034860407
 30
0.0
 10
-9.926443730032924
 20
43.52923005866131
 30
0.0
  0
LINE
  5
280
330
1F
100
AcDbEntity
  8
0
  6
Continuous
 62
     7
370
    15
100
AcDbLine
 10
-9.92644373
 20
43.5292300587
 30
0.0
 11
-13.9710865872
 21
43.5292300587
 31
0.0
  0
LINE
  5
281
330
1F
100
AcDbEntity
  8
0
  6
Continuous
 62
     7
370
    15
100
AcDbLine
 10
-13.9710865872
 20
43.5292300587
 30
0.0
 11
-14.7009973015
 21
41.3863729158
 31
0.0
  0
LINE
  5
282
330
1F
100
AcDbEntity
  8
0
  6
Continuous
 62
     7
370
    15
100
AcDbLine
 10
-14.7009973015
 20
41.3863729158
 30
0.0
 11
-10.6563544443
 21
41.3863729158
 31
0.0
  0
SPLINE
  5
283
330
1F
100
AcDbEntity
  8
0
  6
Continuous
 62
     7
370
    15
100
AcDbSpline
210
0.0
220
0.0
230
1.0
 70
     8
 71
     3
 72
    15
 73
    11
 74
     0
 42
0.000000001
 43
0.00000001
 40
0.0
 40
0.0
 40
0.0
 40
0.0
 40
0.1683985753176742
 40
0.3138514637808244
 40
0.43672848198808
 40
0.5427337193769892
 40
0.6430232013844281
 40
0.7514071676564721
 40
0.8683219498421729
 40
1.0
 40
1.0
 40
1.0
 40
1.0
 10
-10.65635444431864
 20
41.38637291580418
 30
0.0
 10
-10.58338883450954
 20
41.38811254210182
 30
0.0
 10
-10.44739977758881
 20
41.39135475634809
 30
0.0
 10
-10.25887889334003
 20
41.41379702075226
 30
0.0
 10
-10.10190013175036
 20
41.45628704257195
 30
0.0
 10
-9.970156563106345
 20
41.51392792881654
 30
0.0
 10
-9.862801671758907
 20
41.60006880756902
 30
0.0
 10
-9.770941879679325
 20
41.70814808079803
 30
0.0
 10
-9.694472739835382
 20
41.84366185958957
 30
0.0
 10
-9.656420950576871
 20
41.94454362560083
 30
0.0
 10
-9.636265158604349
 20
41.99798005866132
 30
0.0
  0
LINE
  5
284
330
1F
100
AcDbEntity
  8
0
  6
Continuous
 62
     7
370
    15
100
AcDbLine
 10
4.4574848414
 20
43.5292300587
 30
0.0
 11
-1.6853723015
 21
43.5292300587
 31
0.0
  0
LINE
  5
285
330
1F
100
AcDbEntity
  8
0
  6
Continuous
 62
     7
370
    15
100
AcDbLine
 10
-1.6853723015
 20
43.5292300587
 30
0.0
 11
-3.3862651586
 21
38.5292300587
 31
0.0
  0
LINE
  5
286
330
1F
100
AcDbEntity
  8
0
  6
Continuous
 62
     7
370
    15
100
AcDbLine
 10
-3.3862651586
 20
38.5292300587
 30
0.0
 11
2.7565919843
 21
38.5292300587
 31
0.0
  0
LINE
  5
287
330
1F
100
AcDbEntity
  8
0
  6
Continuous
 62
     7
370
    15
100
AcDbLine
 10
2.7565919843
 20
38.5292300587
 30
0.0
 11
4.4574848414
 21
43.5292300587
 31
0.0
  0
LINE
  5
288
330
1F
100
AcDbEntity
  8
0
  6
Continuous
 62
     7
370
    15
100
AcDbLine
 10
28.6628419843
 20
39.0917300587
 30
0.0
 11
28.8659669843
 21
39.6877122015
 31
0.0
  0
SPLINE
  5
289
330
1F
100
AcDbEntity
  8
0
  6
Continuous
 62
     7
370
    15
100
AcDbSpline
210
0.0
220
0.0
230
1.0
 70
     8
 71
     3
 72
    15
 73
    11
 74
     0
 42
0.000000001
 43
0.00000001
 40
0.0
 40
0.0
 40
0.0
 40
0.0
 40
0.1523242991114082
 40
0.2765817646904757
 40
0.3751840240306715
 40
0.4587830812104823
 40
0.5480778638562045
 40
0.6640547799751617
 40
0.8129347325825055
 40
1.0
 40
1.0
 40
1.0
 40
1.0
 10
28.8659669842528
 20
39.68771220151846
 30
0.0
 10
28.88418743322288
 20
39.74753761490803
 30
0.0
 10
28.91727108408486
 20
39.85616518454169
 30
0.0
 10
28.9373091740804
 20
40.00945502472362
 30
0.0
 10
28.92825038105702
 20
40.1362777583746
 30
0.0
 10
28.87815559979999
 20
40.24023986907816
 30
0.0
 10
28.77809590319577
 20
40.3100942557154
 30
0.0
 10
28.6396668315625
 20
40.35632372600544
 30
0.0
 10
28.45548851263931
 20
40.38326033706203
 30
0.0
 10
28.31769494294189
 20
40.38525963913242
 30
0.0
 10
28.2409669842528
 20
40.38637291580417
 30
0.0
  0
LINE
  5
28A
330
1F
100
AcDbEntity
  8
0
  6
Continuous
 62
     7
370
    15
100
AcDbLine
 10
28.2409669843
 20
40.3863729158
 30
0.0
 11
23.9597169843
 21
40.3863729158
 31
0.0
  0
LINE
  5
28B
330
1F
100
AcDbEntity
  8
0
  6
Continuous
 62
     7
370
    15
100
AcDbLine
 10
23.9597169843
 20
40.3863729158
 30
0.0
 11
23.2811455557
 21
38.3863729158
 31
0.0
  0
LINE
  5
28C
330
1F
100
AcDbEntity
  8
0
  6
Continuous
 62
     7
370
    15
100
AcDbLine
 10
23.2811455557
 20
38.3863729158
 30
0.0
 11
27.5623955557
 21
38.3863729158
 31
0.0
  0
SPLINE
  5
28D
330
1F
100
AcDbEntity
  8
0
  6
Continuous
 62
     7
370
    15
100
AcDbSpline
210
0.0
220
0.0
230
1.0
 70
     8
 71
     3
 72
    15
 73
    11
 74
     0
 42
0.000000001
 43
0.00000001
 40
0.0
 40
0.0
 40
0.0
 40
0.0
 40
0.1653802907929575
 40
0.3073851681752984
 40
0.4288135178165942
 40
0.5327237144334436
 40
0.6333418793483526
 40
0.7421876733819817
 40
0.8636360392353384
 40
1.0
 40
1.0
 40
1.0
 40
1.0
 10
27.56239555568137
 20
38.38637291580418
 30
0.0
 10
27.64145126726468
 20
38.38718196474963
 30
0.0
 10
27.78838868697617
 20
38.38868570890783
 30
0.0
 10
27.99067297688685
 20
38.42211579598958
 30
0.0
 10
28.16163737137754
 20
38.46434188775144
 30
0.0
 10
28.30096526698678
 20
38.53703381887721
 30
0.0
 10
28.41491185642799
 20
38.63573904235297
 30
0.0
 10
28.51098180394963
 20
38.7620509430226
 30
0.0
 10
28.59630997338254
 20
38.91555141812771
 30
0.0
 10
28.63982545887997
 20
39.03078165056498
 30
0.0
 10
28.66284198425279
 20
39.09173005866132
 30
0.0
  0
LINE
  5
28E
330
1F
100
AcDbEntity
  8
0
  6
Continuous
 62
     7
370
    15
100
AcDbLine
 10
29.7632884128
 20
42.3328014872
 30
0.0
 11
29.99543127
 21
43.0113729158
 31
0.0
  0
SPLINE
  5
28F
330
1F
100
AcDbEntity
  8
0
  6
Continuous
 62
     7
370
    15
100
AcDbSpline
210
0.0
220
0.0
230
1.0
 70
     8
 71
     3
 72
    15
 73
    11
 74
     0
 42
0.000000001
 43
0.00000001
 40
0.0
 40
0.0
 40
0.0
 40
0.0
 40
0.1232113807340594
 40
0.224418794458626
 40
0.3106568718516964
 40
0.3942075857596058
 40
0.4941002862852948
 40
0.6248672415021331
 40
0.7934043513794775
 40
1.0
 40
1.0
 40
1.0
 40
1.0
 10
29.99543126996708
 20
43.01137291580418
 30
0.0
 10
30.00779496809218
 20
43.0541481217461
 30
0.0
 10
30.0303143669639
 20
43.13205943231668
 30
0.0
 10
30.03466279247775
 20
43.2451391582055
 30
0.0
 10
30.00890449324572
 20
43.34191852099428
 30
0.0
 10
29.94311980510906
 20
43.41741602765131
 30
0.0
 10
29.84158473092069
 20
43.47113984067691
 30
0.0
 10
29.70133312690881
 20
43.50621963783583
 30
0.0
 10
29.51985797715495
 20
43.52687115120323
 30
0.0
 10
29.38463456465382
 20
43.52839231374396
 30
0.0
 10
29.31016341282423
 20
43.52923005866131
 30
0.0
  0
LINE
  5
290
330
1F
100
AcDbEntity
  8
0
  6
Continuous
 62
     7
370
    15
100
AcDbLine
 10
29.3101634128
 20
43.5292300587
 30
0.0
 11
25.0289134128
 21
43.5292300587
 31
0.0
  0
LINE
  5
291
330
1F
100
AcDbEntity
  8
0
  6
Continuous
 62
     7
370
    15
100
AcDbLine
 10
25.0289134128
 20
43.5292300587
 30
0.0
 11
24.4463241271
 21
41.8149443444
 31
0.0
  0
LINE
  5
292
330
1F
100
AcDbEntity
  8
0
  6
Continuous
 62
     7
370
    15
100
AcDbLine
 10
24.4463241271
 20
41.8149443444
 30
0.0
 11
28.7275741271
 21
41.8149443444
 31
0.0
  0
SPLINE
  5
293
330
1F
100
AcDbEntity
  8
0
  6
Continuous
 62
     7
370
    15
100
AcDbSpline
210
0.0
220
0.0
230
1.0
 70
     8
 71
     3
 72
    15
 73
    11
 74
     0
 42
0.000000001
 43
0.00000001
 40
0.0
 40
0.0
 40
0.0
 40
0.0
 40
0.1812270108136092
 40
0.3385179789271759
 40
0.4695068631657029
 40
0.5803164140971118
 40
0.6803082688271086
 40
0.7807721569662379
 40
0.8861994226191992
 40
1.0
 40
1.0
 40
1.0
 40
1.0
 10
28.72757412710994
 20
41.8149443443756
 30
0.0
 10
28.8035358315612
 20
41.81581510217384
 30
0.0
 10
28.94542639495604
 20
41.81744161010259
 30
0.0
 10
29.1412217328833
 20
41.83946172969334
 30
0.0
 10
29.30528414572836
 20
41.87337111099716
 30
0.0
 10
29.44008773187726
 20
41.92452420912486
 30
0.0
 10
29.54952236420221
 20
41.99714684866274
 30
0.0
 10
29.6412067040216
 20
42.08798770204058
 30
0.0
 10
29.71314345326435
 20
42.20239120579507
 30
0.0
 10
29.7461531624947
 20
42.28823842770309
 30
0.0
 10
29.76328841282422
 20
42.33280148723274
 30
0.0
  0
LINE
  5
294
330
1F
100
AcDbEntity
  8
0
  6
Continuous
 62
     7
370
    15
100
AcDbLine
 10
76.4865026985
 20
40.1006586301
 30
0.0
 11
75.88605627
 21
43.3908372015
 31
0.0
  0
LINE
  5
295
330
1F
100
AcDbEntity
  8
0
  6
Continuous
 62
     7
370
    15
100
AcDbLine
 10
75.88605627
 20
43.3908372015
 30
0.0
 11
72.9998955557
 21
40.1006586301
 31
0.0
  0
LINE
  5
296
330
1F
100
AcDbEntity
  8
0
  6
Continuous
 62
     7
370
    15
100
AcDbLine
 10
72.9998955557
 20
40.1006586301
 30
0.0
 11
76.4865026985
 21
40.1006586301
 31
0.0
  0
LINE
  5
297
330
1F
100
AcDbEntity
  8
0
  6
Continuous
 62
     7
370
    15
100
AcDbLine
 10
114.0780205557
 20
41.9979800587
 30
0.0
 11
114.3927526985
 21
42.9243193444
 31
0.0
  0
SPLINE
  5
298
330
1F
100
AcDbEntity
  8
0
  6
Continuous
 62
     7
370
    15
100
AcDbSpline
210
0.0
220
0.0
230
1.0
 70
     8
 71
     3
 72
    15
 73
    11
 74
     0
 42
0.000000001
 43
0.00000001
 40
0.0
 40
0.0
 40
0.0
 40
0.0
 40
0.1437792097698036
 40
0.2627340892043483
 40
0.3565344593336588
 40
0.4402635191313002
 40
0.5339131712495747
 40
0.6527152723242745
 40
0.8089774932631425
 40
0.9999999999999999
 40
0.9999999999999999
 40
0.9999999999999999
 40
0.9999999999999999
 10
114.3927526985385
 20
42.9243193443756
 30
0.0
 10
114.4088691176805
 20
42.9751838654401
 30
0.0
 10
114.4383193609477
 20
43.06813084738619
 30
0.0
 10
114.4513743206631
 20
43.20071536998844
 30
0.0
 10
114.4356119859001
 20
43.31080877301105
 30
0.0
 10
114.3850298057882
 20
43.40145776660754
 30
0.0
 10
114.2901544760293
 20
43.46245392127647
 30
0.0
 10
114.1591741491253
 20
43.50322542129572
 30
0.0
 10
113.9871473237728
 20
43.52446840432325
 30
0.0
 10
113.858567033309
 20
43.52754034860407
 30
0.0
 10
113.7878419842528
 20
43.52923005866131
 30
0.0
  0
LINE
  5
299
330
1F
100
AcDbEntity
  8
0
  6
Continuous
 62
     7
370
    15
100
AcDbLine
 10
113.7878419843
 20
43.5292300587
 30
0.0
 11
109.7431991271
 21
43.5292300587
 31
0.0
  0
LINE
  5
29A
330
1F
100
AcDbEntity
  8
0
  6
Continuous
 62
     7
370
    15
100
AcDbLine
 10
109.7431991271
 20
43.5292300587
 30
0.0
 11
109.0132884128
 21
41.3863729158
 31
0.0
  0
LINE
  5
29B
330
1F
100
AcDbEntity
  8
0
  6
Continuous
 62
     7
370
    15
100
AcDbLine
 10
109.0132884128
 20
41.3863729158
 30
0.0
 11
113.05793127
 21
41.3863729158
 31
0.0
  0
SPLINE
  5
29C
330
1F
100
AcDbEntity
  8
0
  6
Continuous
 62
     7
370
    15
100
AcDbSpline
210
0.0
220
0.0
230
1.0
 70
     8
 71
     3
 72
    15
 73
    11
 74
     0
 42
0.000000001
 43
0.00000001
 40
0.0
 40
0.0
 40
0.0
 40
0.0
 40
0.1683985753176863
 40
0.3138514637808195
 40
0.4367284819880793
 40
0.5427337193769975
 40
0.6430232013844315
 40
0.7514071676564816
 40
0.8683219498421789
 40
1.0
 40
1.0
 40
1.0
 40
1.0
 10
113.0579312699671
 20
41.38637291580417
 30
0.0
 10
113.1308968797762
 20
41.38811254210182
 30
0.0
 10
113.2668859366969
 20
41.39135475634807
 30
0.0
 10
113.4554068209457
 20
41.41379702075225
 30
0.0
 10
113.6123855825354
 20
41.45628704257196
 30
0.0
 10
113.7441291511794
 20
41.51392792881654
 30
0.0
 10
113.8514840425268
 20
41.60006880756902
 30
0.0
 10
113.9433438346064
 20
41.70814808079805
 30
0.0
 10
114.0198129744504
 20
41.84366185958955
 30
0.0
 10
114.0578647637088
 20
41.94454362560082
 30
0.0
 10
114.0780205556814
 20
41.99798005866132
 30
0.0
  0
ENDSEC
  0
SECTION
  2
OBJECTS
  0
DICTIONARY
  5
C
330
0
100
AcDbDictionary
281
     1
  3
ACAD_GROUP
350
D
  3
ACAD_LAYOUT
350
1A
  3
ACAD_MLINESTYLE
350
17
  3
ACAD_PLOTSETTINGS
350
19
  3
ACAD_PLOTSTYLENAME
350
E
  3
ACAD_SCALELIST
350
47
  0
DICTIONARY
  5
D
102
{ACAD_REACTORS
330
C
102
}
330
C
100
AcDbDictionary
281
     1
  0
DICTIONARY
  5
1A
102
{ACAD_REACTORS
330
C
102
}
330
C
100
AcDbDictionary
281
     1
  3
Layout1
350
1E
  3
Layout2
350
26
  3
Model
350
22
  0
DICTIONARY
  5
17
102
{ACAD_REACTORS
330
C
102
}
330
C
100
AcDbDictionary
281
     1
  3
Standard
350
18
  0
DICTIONARY
  5
19
102
{ACAD_REACTORS
330
C
102
}
330
C
100
AcDbDictionary
281
     1
  0
ACDBDICTIONARYWDFLT
  5
E
102
{ACAD_REACTORS
330
C
102
}
330
C
100
AcDbDictionary
281
     1
  3
Normal
350
F
100
AcDbDictionaryWithDefault
340
F
  0
DICTIONARY
  5
47
102
{ACAD_REACTORS
330
C
102
}
330
C
100
AcDbDictionary
281
     1
  3
A0
350
48
  3
A1
350
49
  3
A2
350
4A
  3
A3
350
4B
  3
A4
350
4C
  3
A5
350
4D
  3
A6
350
4E
  3
A7
350
4F
  3
A8
350
50
  3
A9
350
51
  3
B0
350
52
  3
B1
350
53
  3
B2
350
54
  3
B3
350
55
  3
B4
350
56
  3
B5
350
57
  3
B6
350
58
  3
B7
350
59
  3
B8
350
5A
  3
B9
350
5B
  3
C0
350
5C
  3
C1
350
5D
  3
C2
350
5E
  3
C3
350
5F
  3
C4
350
60
  3
C5
350
61
  3
C6
350
62
  3
C7
350
63
  3
C8
350
64
  3
C9
350
65
  3
D0
350
66
  3
D1
350
67
  3
D2
350
68
  0
LAYOUT
  5
1E
102
{ACAD_REACTORS
330
1A
102
}
330
1A
100
AcDbPlotSettings
  1

  2
none_device
  4

  6

 40
0.0
 41
0.0
 42
0.0
 43
0.0
 44
0.0
 45
0.0
 46
0.0
 47
0.0
 48
0.0
 49
0.0
140
0.0
141
0.0
142
1.0
143
1.0
 70
   688
 72
     1
 73
     0
 74
     5
  7

 75
    16
147
1.0
148
0.0
149
0.0
100
AcDbLayout
  1
Layout1
 70
     1
 71
     1
 10
0.0
 20
0.0
 11
420.0
 21
297.0
 12
0.0
 22
0.0
 32
0.0
 14
1.0000000000E+20
 24
1.0000000000E+20
 34
1.0000000000E+20
 15
-1.0000000000E+20
 25
-1.0000000000E+20
 35
-1.0000000000E+20
146
0.0
 13
0.0
 23
0.0
 33
0.0
 16
1.0
 26
0.0
 36
0.0
 17
0.0
 27
1.0
 37
0.0
 76
     0
330
1B
  0
LAYOUT
  5
26
102
{ACAD_REACTORS
330
1A
102
}
330
1A
100
AcDbPlotSettings
  1

  2
none_device
  4

  6

 40
0.0
 41
0.0
 42
0.0
 43
0.0
 44
0.0
 45
0.0
 46
0.0
 47
0.0
 48
0.0
 49
0.0
140
0.0
141
0.0
142
1.0
143
1.0
 70
   688
 72
     1
 73
     0
 74
     5
  7

 75
    16
147
1.0
148
0.0
149
0.0
100
AcDbLayout
  1
Layout2
 70
     1
 71
     2
 10
0.0
 20
0.0
 11
0.0
 21
0.0
 12
0.0
 22
0.0
 32
0.0
 14
0.0
 24
0.0
 34
0.0
 15
0.0
 25
0.0
 35
0.0
146
0.0
 13
0.0
 23
0.0
 33
0.0
 16
1.0
 26
0.0
 36
0.0
 17
0.0
 27
1.0
 37
0.0
 76
     0
330
23
  0
LAYOUT
  5
22
102
{ACAD_REACTORS
330
1A
102
}
330
1A
100
AcDbPlotSettings
  1

  2
none_device
  4
ANSI_A_(11.00_x_8.50_Inches)
  6

 40
6.35
 41
19.05
 42
6.35000508
 43
19.05000254
 44
279.4
 45
215.9
 46
133.34999746
 47
-17.97050127
 48
0.0
 49
0.0
140
0.0
141
0.0
142
0.0129262673
143
1.0
 70
  1696
 72
     0
 73
     0
 74
     0
  7

 75
     0
147
0.0179189148
148
-1300.4909072572
149
0.0
100
AcDbLayout
  1
Model
 70
     1
 71
     0
 10
0.0
 20
0.0
 11
420.0
 21
297.0
 12
0.0
 22
0.0
 32
0.0
 14
-218.55
 24
0.0
 34
0.0
 15
218.55
 25
651.0
 35
0.0
146
0.0
 13
0.0
 23
0.0
 33
0.0
 16
1.0
 26
0.0
 36
0.0
 17
0.0
 27
1.0
 37
0.0
 76
     0
330
1F
331
29
  0
MLINESTYLE
  5
18
102
{ACAD_REACTORS
330
17
102
}
330
17
100
AcDbMlineStyle
  2
Standard
 70
     0
  3

 62
   256
 51
90.0
 52
90.0
 71
     2
 49
0.5
 62
   256
  6
BYLAYER
 49
-0.5
 62
   256
  6
BYLAYER
  0
ACDBPLACEHOLDER
  5
F
102
{ACAD_REACTORS
330
E
102
}
330
E
  0
SCALE
  5
48
102
{ACAD_REACTORS
330
47
102
}
330
47
100
AcDbScale
 70
     0
300
1:1
140
1.0
141
1.0
290
     1
  0
SCALE
  5
49
102
{ACAD_REACTORS
330
47
102
}
330
47
100
AcDbScale
 70
     0
300
1:2
140
1.0
141
2.0
290
     0
  0
SCALE
  5
4A
102
{ACAD_REACTORS
330
47
102
}
330
47
100
AcDbScale
 70
     0
300
1:4
140
1.0
141
4.0
290
     0
  0
SCALE
  5
4B
102
{ACAD_REACTORS
330
47
102
}
330
47
100
AcDbScale
 70
     0
300
1:5
140
1.0
141
5.0
290
     0
  0
SCALE
  5
4C
102
{ACAD_REACTORS
330
47
102
}
330
47
100
AcDbScale
 70
     0
300
1:8
140
1.0
141
8.0
290
     0
  0
SCALE
  5
4D
102
{ACAD_REACTORS
330
47
102
}
330
47
100
AcDbScale
 70
     0
300
1:10
140
1.0
141
10.0
290
     0
  0
SCALE
  5
4E
102
{ACAD_REACTORS
330
47
102
}
330
47
100
AcDbScale
 70
     0
300
1:16
140
1.0
141
16.0
290
     0
  0
SCALE
  5
4F
102
{ACAD_REACTORS
330
47
102
}
330
47
100
AcDbScale
 70
     0
300
1:20
140
1.0
141
20.0
290
     0
  0
SCALE
  5
50
102
{ACAD_REACTORS
330
47
102
}
330
47
100
AcDbScale
 70
     0
300
1:30
140
1.0
141
30.0
290
     0
  0
SCALE
  5
51
102
{ACAD_REACTORS
330
47
102
}
330
47
100
AcDbScale
 70
     0
300
1:40
140
1.0
141
40.0
290
     0
  0
SCALE
  5
52
102
{ACAD_REACTORS
330
47
102
}
330
47
100
AcDbScale
 70
     0
300
1:50
140
1.0
141
50.0
290
     0
  0
SCALE
  5
53
102
{ACAD_REACTORS
330
47
102
}
330
47
100
AcDbScale
 70
     0
300
1:100
140
1.0
141
100.0
290
     0
  0
SCALE
  5
54
102
{ACAD_REACTORS
330
47
102
}
330
47
100
AcDbScale
 70
     0
300
2:1
140
2.0
141
1.0
290
     0
  0
SCALE
  5
55
102
{ACAD_REACTORS
330
47
102
}
330
47
100
AcDbScale
 70
     0
300
4:1
140
4.0
141
1.0
290
     0
  0
SCALE
  5
56
102
{ACAD_REACTORS
330
47
102
}
330
47
100
AcDbScale
 70
     0
300
8:1
140
8.0
141
1.0
290
     0
  0
SCALE
  5
57
102
{ACAD_REACTORS
330
47
102
}
330
47
100
AcDbScale
 70
     0
300
10:1
140
10.0
141
1.0
290
     0
  0
SCALE
  5
58
102
{ACAD_REACTORS
330
47
102
}
330
47
100
AcDbScale
 70
     0
300
100:1
140
100.0
141
1.0
290
     0
  0
SCALE
  5
59
102
{ACAD_REACTORS
330
47
102
}
330
47
100
AcDbScale
 70
     0
300
1/128" = 1'-0"
140
0.0078125
141
12.0
290
     0
  0
SCALE
  5
5A
102
{ACAD_REACTORS
330
47
102
}
330
47
100
AcDbScale
 70
     0
300
1/64" = 1'-0"
140
0.015625
141
12.0
290
     0
  0
SCALE
  5
5B
102
{ACAD_REACTORS
330
47
102
}
330
47
100
AcDbScale
 70
     0
300
1/32" = 1'-0"
140
0.03125
141
12.0
290
     0
  0
SCALE
  5
5C
102
{ACAD_REACTORS
330
47
102
}
330
47
100
AcDbScale
 70
     0
300
1/16" = 1'-0"
140
0.0625
141
12.0
290
     0
  0
SCALE
  5
5D
102
{ACAD_REACTORS
330
47
102
}
330
47
100
AcDbScale
 70
     0
300
3/32" = 1'-0"
140
0.09375
141
12.0
290
     0
  0
SCALE
  5
5E
102
{ACAD_REACTORS
330
47
102
}
330
47
100
AcDbScale
 70
     0
300
1/8" = 1'-0"
140
0.125
141
12.0
290
     0
  0
SCALE
  5
5F
102
{ACAD_REACTORS
330
47
102
}
330
47
100
AcDbScale
 70
     0
300
3/16" = 1'-0"
140
0.1875
141
12.0
290
     0
  0
SCALE
  5
60
102
{ACAD_REACTORS
330
47
102
}
330
47
100
AcDbScale
 70
     0
300
1/4" = 1'-0"
140
0.25
141
12.0
290
     0
  0
SCALE
  5
61
102
{ACAD_REACTORS
330
47
102
}
330
47
100
AcDbScale
 70
     0
300
3/8" = 1'-0"
140
0.375
141
12.0
290
     0
  0
SCALE
  5
62
102
{ACAD_REACTORS
330
47
102
}
330
47
100
AcDbScale
 70
     0
300
1/2" = 1'-0"
140
0.5
141
12.0
290
     0
  0
SCALE
  5
63
102
{ACAD_REACTORS
330
47
102
}
330
47
100
AcDbScale
 70
     0
300
3/4" = 1'-0"
140
0.75
141
12.0
290
     0
  0
SCALE
  5
64
102
{ACAD_REACTORS
330
47
102
}
330
47
100
AcDbScale
 70
     0
300
1" = 1'-0"
140
1.0
141
12.0
290
     0
  0
SCALE
  5
65
102
{ACAD_REACTORS
330
47
102
}
330
47
100
AcDbScale
 70
     0
300
1-1/2" = 1'-0"
140
1.5
141
12.0
290
     0
  0
SCALE
  5
66
102
{ACAD_REACTORS
330
47
102
}
330
47
100
AcDbScale
 70
     0
300
3" = 1'-0"
140
3.0
141
12.0
290
     0
  0
SCALE
  5
67
102
{ACAD_REACTORS
330
47
102
}
330
47
100
AcDbScale
 70
     0
300
6" = 1'-0"
140
6.0
141
12.0
290
     0
  0
SCALE
  5
68
102
{ACAD_REACTORS
330
47
102
}
330
47
100
AcDbScale
 70
     0
300
1'-0" = 1'-0"
140
12.0
141
12.0
290
     0
  0
ENDSEC
  0
EOF
