  0
SECTION
  2
HEADER
  9
$ACADVER
  1
AC1015
  9
$ACADMAINTVER
 70
     6
  9
$DWGCODEPAGE
  3
ANSI_1250
  9
$INSBASE
 10
0.0
 20
0.0
 30
0.0
  9
$EXTMIN
 10
-225.525
 20
-208.45
 30
0.0
  9
$EXTMAX
 10
231.525
 20
208.45
 30
0.0
  9
$LIMMIN
 10
0.0
 20
0.0
  9
$LIMMAX
 10
420.0
 20
297.0
  9
$ORTHOMODE
 70
     0
  9
$REGENMODE
 70
     1
  9
$FILLMODE
 70
     1
  9
$QTEXTMODE
 70
     0
  9
$MIRRTEXT
 70
     1
  9
$LTSCALE
 40
1.0
  9
$ATTMODE
 70
     1
  9
$TEXTSIZE
 40
3.5
  9
$TRACEWID
 40
1.0
  9
$TEXTSTYLE
  7
Standard
  9
$CLAYER
  8
0
  9
$CELTYPE
  6
ByLayer
  9
$CECOLOR
 62
   256
  9
$CELTSCALE
 40
1.0
  9
$DISPSILH
 70
     0
  9
$DIMSCALE
 40
1.0
  9
$DIMASZ
 40
3.302
  9
$DIMEXO
 40
1.0
  9
$DIMDLI
 40
3.75
  9
$DIMRND
 40
0.0
  9
$DIMDLE
 40
0.0
  9
$DIMEXE
 40
1.0
  9
$DIMTP
 40
0.0
  9
$DIMTM
 40
0.0
  9
$DIMTXT
 40
3.5
  9
$DIMCEN
 40
2.5
  9
$DIMTSZ
 40
0.0
  9
$DIMTOL
 70
     0
  9
$DIMLIM
 70
     0
  9
$DIMTIH
 70
     1
  9
$DIMTOH
 70
     1
  9
$DIMSE1
 70
     0
  9
$DIMSE2
 70
     0
  9
$DIMTAD
 70
     1
  9
$DIMZIN
 70
     0
  9
$DIMBLK
  1

  9
$DIMASO
 70
     1
  9
$DIMSHO
 70
     1
  9
$DIMPOST
  1

  9
$DIMAPOST
  1

  9
$DIMALT
 70
     0
  9
$DIMALTD
 70
     3
  9
$DIMALTF
 40
0.0393700787
  9
$DIMLFAC
 40
1.0
  9
$DIMTOFL
 70
     1
  9
$DIMTVP
 40
0.0
  9
$DIMTIX
 70
     0
  9
$DIMSOXD
 70
     0
  9
$DIMSAH
 70
     0
  9
$DIMBLK1
  1

  9
$DIMBLK2
  1

  9
$DIMSTYLE
  2
ISO-25
  9
$DIMCLRD
 70
     0
  9
$DIMCLRE
 70
     0
  9
$DIMCLRT
 70
     0
  9
$DIMTFAC
 40
1.0
  9
$DIMGAP
 40
1.524
  9
$DIMJUST
 70
     0
  9
$DIMSD1
 70
     0
  9
$DIMSD2
 70
     0
  9
$DIMTOLJ
 70
     0
  9
$DIMTZIN
 70
     0
  9
$DIMALTZ
 70
     0
  9
$DIMALTTZ
 70
     0
  9
$DIMUPT
 70
     0
  9
$DIMDEC
 70
     2
  9
$DIMTDEC
 70
     2
  9
$DIMALTU
 70
     2
  9
$DIMALTTD
 70
     3
  9
$DIMTXSTY
  7
Standard
  9
$DIMAUNIT
 70
     0
  9
$DIMADEC
 70
     2
  9
$DIMALTRND
 40
0.0
  9
$DIMAZIN
 70
     0
  9
$DIMDSEP
 70
    44
  9
$DIMATFIT
 70
     3
  9
$DIMFRAC
 70
     0
  9
$DIMLDRBLK
  1

  9
$DIMLUNIT
 70
     2
  9
$DIMLWD
 70
    -2
  9
$DIMLWE
 70
    -2
  9
$DIMTMOVE
 70
     0
  9
$LUNITS
 70
     2
  9
$LUPREC
 70
     2
  9
$SKETCHINC
 40
1.0
  9
$FILLETRAD
 40
10.0
  9
$AUNITS
 70
     0
  9
$AUPREC
 70
     2
  9
$MENU
  1
.
  9
$ELEVATION
 40
0.0
  9
$PELEVATION
 40
0.0
  9
$THICKNESS
 40
0.0
  9
$LIMCHECK
 70
     0
  9
$CHAMFERA
 40
0.0
  9
$CHAMFERB
 40
0.0
  9
$CHAMFERC
 40
0.0
  9
$CHAMFERD
 40
0.0
  9
$SKPOLY
 70
     0
  9
$TDCREATE
 40
2457611.387065695
  9
$TDUCREATE
 40
2457611.303732361
  9
$TDUPDATE
 40
2457611.387090555
  9
$TDUUPDATE
 40
2457611.303757222
  9
$TDINDWG
 40
0.0000000116
  9
$TDUSRTIMER
 40
0.0000000116
  9
$USRTIMER
 70
     1
  9
$ANGBASE
 50
0.0
  9
$ANGDIR
 70
     0
  9
$PDMODE
 70
     0
  9
$PDSIZE
 40
-1.0
  9
$PLINEWID
 40
0.0
  9
$SPLFRAME
 70
     0
  9
$SPLINETYPE
 70
     6
  9
$SPLINESEGS
 70
     8
  9
$HANDSEED
  5
189
  9
$SURFTAB1
 70
     6
  9
$SURFTAB2
 70
     6
  9
$SURFTYPE
 70
     6
  9
$SURFU
 70
     6
  9
$SURFV
 70
     6
  9
$UCSBASE
  2

  9
$UCSNAME
  2

  9
$UCSORG
 10
0.0
 20
0.0
 30
0.0
  9
$UCSXDIR
 10
1.0
 20
0.0
 30
0.0
  9
$UCSYDIR
 10
0.0
 20
1.0
 30
0.0
  9
$UCSORTHOREF
  2

  9
$UCSORTHOVIEW
 70
     0
  9
$UCSORGTOP
 10
0.0
 20
0.0
 30
0.0
  9
$UCSORGBOTTOM
 10
0.0
 20
0.0
 30
0.0
  9
$UCSORGLEFT
 10
0.0
 20
0.0
 30
0.0
  9
$UCSORGRIGHT
 10
0.0
 20
0.0
 30
0.0
  9
$UCSORGFRONT
 10
0.0
 20
0.0
 30
0.0
  9
$UCSORGBACK
 10
0.0
 20
0.0
 30
0.0
  9
$PUCSBASE
  2

  9
$PUCSNAME
  2

  9
$PUCSORG
 10
0.0
 20
0.0
 30
0.0
  9
$PUCSXDIR
 10
1.0
 20
0.0
 30
0.0
  9
$PUCSYDIR
 10
0.0
 20
1.0
 30
0.0
  9
$PUCSORTHOREF
  2

  9
$PUCSORTHOVIEW
 70
     0
  9
$PUCSORGTOP
 10
0.0
 20
0.0
 30
0.0
  9
$PUCSORGBOTTOM
 10
0.0
 20
0.0
 30
0.0
  9
$PUCSORGLEFT
 10
0.0
 20
0.0
 30
0.0
  9
$PUCSORGRIGHT
 10
0.0
 20
0.0
 30
0.0
  9
$PUCSORGFRONT
 10
0.0
 20
0.0
 30
0.0
  9
$PUCSORGBACK
 10
0.0
 20
0.0
 30
0.0
  9
$USERI1
 70
     0
  9
$USERI2
 70
     0
  9
$USERI3
 70
     0
  9
$USERI4
 70
     0
  9
$USERI5
 70
     0
  9
$USERR1
 40
0.0
  9
$USERR2
 40
0.0
  9
$USERR3
 40
0.0
  9
$USERR4
 40
0.0
  9
$USERR5
 40
0.0
  9
$WORLDVIEW
 70
     1
  9
$SHADEDGE
 70
     3
  9
$SHADEDIF
 70
    70
  9
$TILEMODE
 70
     1
  9
$MAXACTVP
 70
    64
  9
$PINSBASE
 10
0.0
 20
0.0
 30
0.0
  9
$PLIMCHECK
 70
     0
  9
$PEXTMIN
 10
1.0000000000E+20
 20
1.0000000000E+20
 30
1.0000000000E+20
  9
$PEXTMAX
 10
-1.0000000000E+20
 20
-1.0000000000E+20
 30
-1.0000000000E+20
  9
$PLIMMIN
 10
0.0
 20
0.0
  9
$PLIMMAX
 10
420.0
 20
297.0
  9
$UNITMODE
 70
     0
  9
$VISRETAIN
 70
     1
  9
$PLINEGEN
 70
     0
  9
$PSLTSCALE
 70
     1
  9
$TREEDEPTH
 70
  3020
  9
$CMLSTYLE
  2
Standard
  9
$CMLJUST
 70
     0
  9
$CMLSCALE
 40
20.0
  9
$PROXYGRAPHICS
 70
     1
  9
$MEASUREMENT
 70
     1
  9
$CELWEIGHT
370
    -1
  9
$ENDCAPS
280
     0
  9
$JOINSTYLE
280
     0
  9
$LWDISPLAY
290
     1
  9
$INSUNITS
 70
     4
  9
$HYPERLINKBASE
  1

  9
$STYLESHEET
  1

  9
$XEDIT
290
     1
  9
$CEPSNTYPE
380
     0
  9
$PSTYLEMODE
290
     1
  9
$FINGERPRINTGUID
  2
{90794315-D6F5-4FD3-A240-9F48472E8D3E}
  9
$VERSIONGUID
  2
{FAEB1C32-E019-11D5-929B-00C0DF256EC4}
  9
$EXTNAMES
290
     1
  9
$PSVPSCALE
 40
0.0
  9
$OLESTARTUP
290
     0
  0
ENDSEC
  0
SECTION
  2
CLASSES
  0
CLASS
  1
ACDBDICTIONARYWDFLT
  2
AcDbDictionaryWithDefault
  3
ObjectDBX Classes
 90
        0
280
     0
281
     0
  0
CLASS
  1
VISUALSTYLE
  2
AcDbVisualStyle
  3
ObjectDBX Classes
 90
     4095
280
     0
281
     0
  0
CLASS
  1
MATERIAL
  2
AcDbMaterial
  3
ObjectDBX Classes
 90
     1153
280
     0
281
     0
  0
CLASS
  1
SCALE
  2
AcDbScale
  3
ObjectDBX Classes
 90
     1153
280
     0
281
     0
  0
CLASS
  1
TABLESTYLE
  2
AcDbTableStyle
  3
ObjectDBX Classes
 90
     4095
280
     0
281
     0
  0
CLASS
  1
MLEADERSTYLE
  2
AcDbMLeaderStyle
  3
ACDB_MLEADERSTYLE_CLASS
 90
     4095
280
     0
281
     0
  0
CLASS
  1
SUN
  2
AcDbSun
  3
SCENEOE
 90
     1153
280
     0
281
     0
  0
CLASS
  1
ACDBPLACEHOLDER
  2
AcDbPlaceHolder
  3
ObjectDBX Classes
 90
        0
280
     0
281
     0
  0
CLASS
  1
LAYOUT
  2
AcDbLayout
  3
ObjectDBX Classes
 90
        0
280
     0
281
     0
  0
ENDSEC
  0
SECTION
  2
TABLES
  0
TABLE
  2
VPORT
  5
8
330
0
100
AcDbSymbolTable
 70
     1
  0
VPORT
  5
29
330
8
100
AcDbSymbolTableRecord
100
AcDbViewportTableRecord
  2
*Active
 70
     0
 10
0.0
 20
0.0
 11
1.0
 21
1.0
 12
3.0
 22
0.0
 13
0.0
 23
0.0
 14
10.0
 24
10.0
 15
10.0
 25
10.0
 16
0.0
 26
0.0
 36
1.0
 17
0.0
 27
0.0
 37
0.0
 40
425.238
 41
1.0963060686
 42
50.0
 43
0.0
 44
0.0
 50
0.0
 51
0.0
 71
     0
 72
   100
 73
     1
 74
     3
 75
     0
 76
     0
 77
     0
 78
     0
281
     0
 65
     1
110
0.0
120
0.0
130
0.0
111
1.0
121
0.0
131
0.0
112
0.0
122
1.0
132
0.0
 79
     0
146
0.0
  0
ENDTAB
  0
TABLE
  2
LTYPE
  5
5
330
0
100
AcDbSymbolTable
 70
     6
  0
LTYPE
  5
14
330
5
100
AcDbSymbolTableRecord
100
AcDbLinetypeTableRecord
  2
ByBlock
 70
     0
  3

 72
    65
 73
     0
 40
0.0
  0
LTYPE
  5
15
330
5
100
AcDbSymbolTableRecord
100
AcDbLinetypeTableRecord
  2
ByLayer
 70
     0
  3

 72
    65
 73
     0
 40
0.0
  0
LTYPE
  5
16
330
5
100
AcDbSymbolTableRecord
100
AcDbLinetypeTableRecord
  2
Continuous
 70
     0
  3
Solid line
 72
    65
 73
     0
 40
0.0
  0
LTYPE
  5
6E
330
5
100
AcDbSymbolTableRecord
100
AcDbLinetypeTableRecord
  2
HIDDEN
 70
     0
  3
Hidden __ __ __ __ __ __ __ __ __ __ __ __ __ __
 72
    65
 73
     2
 40
1.905
 49
1.27
 74
     0
 49
-0.635
 74
     0
  0
LTYPE
  5
6F
330
5
100
AcDbSymbolTableRecord
100
AcDbLinetypeTableRecord
  2
PHANTOM
 70
     0
  3
Phantom ______  __  __  ______  __  __  ______
 72
    65
 73
     6
 40
12.7
 49
6.35
 74
     0
 49
-1.27
 74
     0
 49
1.27
 74
     0
 49
-1.27
 74
     0
 49
1.27
 74
     0
 49
-1.27
 74
     0
  0
LTYPE
  5
70
330
5
100
AcDbSymbolTableRecord
100
AcDbLinetypeTableRecord
  2
CENTER
 70
     0
  3
Center ____ _ ____ _ ____ _ ____ _ ____ _ ____
 72
    65
 73
     4
 40
10.16
 49
6.35
 74
     0
 49
-1.27
 74
     0
 49
1.27
 74
     0
 49
-1.27
 74
     0
  0
LTYPE
  5
71
330
5
100
AcDbSymbolTableRecord
100
AcDbLinetypeTableRecord
  2
CENTERX2
 70
     0
  3
Center (2x) ________  __  ________  __  _____
 72
    65
 73
     4
 40
20.32
 49
12.7
 74
     0
 49
-2.54
 74
     0
 49
2.54
 74
     0
 49
-2.54
 74
     0
  0
LTYPE
  5
72
330
5
100
AcDbSymbolTableRecord
100
AcDbLinetypeTableRecord
  2
DOT2
 70
     0
  3
Dot (.5x) ........................................
 72
    65
 73
     2
 40
0.635
 49
0.0
 74
     0
 49
-0.635
 74
     0
  0
ENDTAB
  0
TABLE
  2
LAYER
  5
2
330
0
100
AcDbSymbolTable
 70
     1
  0
LAYER
  5
10
330
2
100
AcDbSymbolTableRecord
100
AcDbLayerTableRecord
  2
0
 70
     0
 62
     7
  6
Continuous
370
    -3
390
F
  0
ENDTAB
  0
TABLE
  2
STYLE
  5
3
330
0
100
AcDbSymbolTable
 70
     1
  0
STYLE
  5
11
330
3
100
AcDbSymbolTableRecord
100
AcDbTextStyleTableRecord
  2
Standard
 70
     0
 40
0.0
 41
1.0
 50
0.0
 71
     0
 42
3.5
  3
txt
  4

  0
ENDTAB
  0
TABLE
  2
VIEW
  5
6
330
0
100
AcDbSymbolTable
 70
     0
  0
ENDTAB
  0
TABLE
  2
UCS
  5
7
330
0
100
AcDbSymbolTable
 70
     0
  0
ENDTAB
  0
TABLE
  2
APPID
  5
9
330
0
100
AcDbSymbolTable
 70
     1
  0
APPID
  5
12
330
9
100
AcDbSymbolTableRecord
100
AcDbRegAppTableRecord
  2
ACAD
 70
     0
  0
ENDTAB
  0
TABLE
  2
DIMSTYLE
  5
A
330
0
100
AcDbSymbolTable
 70
     1
100
AcDbDimStyleTable
  0
DIMSTYLE
105
27
330
A
100
AcDbSymbolTableRecord
100
AcDbDimStyleTableRecord
  2
ISO-25
 70
     0
 41
2.5
 42
0.625
 43
3.75
 44
1.25
 73
     0
 74
     0
 77
     1
 78
     8
140
2.5
141
2.5
143
0.0393700787
147
0.625
171
     3
172
     1
178
     0
271
     2
272
     2
274
     3
278
    44
283
     0
284
     8
340
11
  0
ENDTAB
  0
TABLE
  2
BLOCK_RECORD
  5
1
330
0
100
AcDbSymbolTable
 70
     1
  0
BLOCK_RECORD
  5
1F
330
1
100
AcDbSymbolTableRecord
100
AcDbBlockTableRecord
  2
*Model_Space
340
22
  0
BLOCK_RECORD
  5
1B
330
1
100
AcDbSymbolTableRecord
100
AcDbBlockTableRecord
  2
*Paper_Space
340
1E
  0
BLOCK_RECORD
  5
23
330
1
100
AcDbSymbolTableRecord
100
AcDbBlockTableRecord
  2
*Paper_Space0
340
26
  0
ENDTAB
  0
ENDSEC
  0
SECTION
  2
BLOCKS
  0
BLOCK
  5
20
330
1F
100
AcDbEntity
  8
0
100
AcDbBlockBegin
  2
*Model_Space
 70
     0
 10
0.0
 20
0.0
 30
0.0
  3
*Model_Space
  1

  0
ENDBLK
  5
21
330
1F
100
AcDbEntity
  8
0
100
AcDbBlockEnd
  0
BLOCK
  5
1C
330
1B
100
AcDbEntity
 67
     1
  8
0
100
AcDbBlockBegin
  2
*Paper_Space
 70
     0
 10
0.0
 20
0.0
 30
0.0
  3
*Paper_Space
  1

  0
ENDBLK
  5
1D
330
1B
100
AcDbEntity
 67
     1
  8
0
100
AcDbBlockEnd
  0
BLOCK
  5
24
330
23
100
AcDbEntity
  8
0
100
AcDbBlockBegin
  2
*Paper_Space0
 70
     0
 10
0.0
 20
0.0
 30
0.0
  3
*Paper_Space0
  1

  0
ENDBLK
  5
25
330
23
100
AcDbEntity
  8
0
100
AcDbBlockEnd
  0
ENDSEC
  0
SECTION
  2
ENTITIES
  0
SPLINE
  5
73
330
1F
100
AcDbEntity
  8
0
  6
Continuous
 62
     7
370
    15
100
AcDbSpline
210
0.0
220
0.0
230
1.0
 70
     8
 71
     3
 72
    31
 73
    27
 74
     0
 42
0.000000001
 43
0.00000001
 40
0.0
 40
0.0
 40
0.0
 40
0.0
 40
0.0417164865867988
 40
0.0823057722528022
 40
0.1215763437691223
 40
0.1600730880023251
 40
0.1980011394648729
 40
0.2355749481723295
 40
0.2727251126104599
 40
0.3098119468614463
 40
0.3465691263991213
 40
0.3824605653170989
 40
0.4172492978317292
 40
0.4513111777113718
 40
0.4848335487253504
 40
0.5180128947461097
 40
0.5510518201650246
 40
0.5841555077211085
 40
0.619452567094631
 40
0.6591452086596356
 40
0.7034604993378739
 40
0.7528309056033995
 40
0.8068371161108514
 40
0.8661369510707496
 40
0.9304991580215144
 40
1.0
 40
1.0
 40
1.0
 40
1.0
 10
-202.6147435897436
 20
-9.447616185897438
 30
0.0
 10
-202.6142353521655
 20
-9.417445702021132
 30
0.0
 10
-202.6132326098502
 20
-9.357919956258405
 30
0.0
 10
-202.6043927922468
 20
-9.270376430166943
 30
0.0
 10
-202.5913621845147
 20
-9.185750231018494
 30
0.0
 10
-202.5723664813864
 20
-9.104191913668132
 30
0.0
 10
-202.5477760662629
 20
-9.025449235811074
 30
0.0
 10
-202.5177712220651
 20
-8.94962518046976
 30
0.0
 10
-202.4816472753228
 20
-8.877206059364807
 30
0.0
 10
-202.4410258930413
 20
-8.807937594544523
 30
0.0
 10
-202.3964997006742
 20
-8.742172059800739
 30
0.0
 10
-202.3479612060879
 20
-8.681448967737746
 30
0.0
 10
-202.2974913290916
 20
-8.624917787490626
 30
0.0
 10
-202.2440466288657
 20
-8.573595388509395
 30
0.0
 10
-202.1878268012692
 20
-8.527150487495405
 30
0.0
 10
-202.1287669482843
 20
-8.485629202707031
 30
0.0
 10
-202.0668559224803
 20
-8.449106216807861
 30
0.0
 10
-202.0009821338971
 20
-8.416659358840407
 30
0.0
 10
-201.9277962785234
 20
-8.388888193077088
 30
0.0
 10
-201.8446954349491
 20
-8.365476004686442
 30
0.0
 10
-201.7503769815071
 20
-8.345022582842612
 30
0.0
 10
-201.6446284547587
 20
-8.32982280184295
 30
0.0
 10
-201.5277983803188
 20
-8.316042592824703
 30
0.0
 10
-201.3995824010324
 20
-8.307320479893301
 30
0.0
 10
-201.259976837363
 20
-8.302757550111012
 30
0.0
 10
-201.1631911942684
 20
-8.301786311947474
 30
0.0
 10
-201.1129407051282
 20
-8.301282051282055
 30
0.0
  0
LINE
  5
74
330
1F
100
AcDbEntity
  8
0
  6
Continuous
 62
     7
370
    15
100
AcDbLine
 10
-201.1129407051
 20
-8.3012820513
 30
0.0
 11
-199.025
 21
-8.3012820513
 31
0.0
  0
LINE
  5
75
330
1F
100
AcDbEntity
  8
0
  6
Continuous
 62
     7
370
    15
100
AcDbLine
 10
-199.025
 20
-8.3012820513
 30
0.0
 11
-199.025
 21
-8.9294871795
 31
0.0
  0
LINE
  5
76
330
1F
100
AcDbEntity
  8
0
  6
Continuous
 62
     7
370
    15
100
AcDbLine
 10
-199.025
 20
-8.9294871795
 30
0.0
 11
-201.3022435897
 21
-8.9294871795
 31
0.0
  0
SPLINE
  5
77
330
1F
100
AcDbEntity
  8
0
  6
Continuous
 62
     7
370
    15
100
AcDbSpline
210
0.0
220
0.0
230
1.0
 70
     8
 71
     3
 72
    23
 73
    19
 74
     0
 42
0.000000001
 43
0.00000001
 40
0.0
 40
0.0
 40
0.0
 40
0.0
 40
0.0722187479928891
 40
0.1394897657276562
 40
0.2003699977303401
 40
0.2564327255099907
 40
0.3078035215508862
 40
0.3536585165318294
 40
0.3944199056460601
 40
0.4301557059443336
 40
0.4966662725087367
 40
0.5620176176150392
 40
0.6287545482746021
 40
0.6974096406803477
 40
0.7680791946526339
 40
0.8413381260898054
 40
0.918336246547803
 40
1.0
 40
1.0
 40
1.0
 40
1.0
 10
-201.3022435897436
 20
-8.929487179487184
 30
0.0
 10
-201.3258530635562
 20
-8.929521338181925
 30
0.0
 10
-201.3714545183391
 20
-8.929587315347954
 30
0.0
 10
-201.4368776758302
 20
-8.93289016683287
 30
0.0
 10
-201.4970152557298
 20
-8.935912503712983
 30
0.0
 10
-201.5518014202382
 20
-8.941365657289525
 30
0.0
 10
-201.6012596049193
 20
-8.949421834214661
 30
0.0
 10
-201.6457075115778
 20
-8.957222842230452
 30
0.0
 10
-201.6843493506982
 20
-8.967780735173262
 30
0.0
 10
-201.7283338802983
 20
-8.9836475603032
 30
0.0
 10
-201.77775290176
 20
-9.008093129221988
 30
0.0
 10
-201.8292585396642
 20
-9.048035832485976
 30
0.0
 10
-201.8762649099931
 20
-9.094126295065424
 30
0.0
 10
-201.91539123163
 20
-9.14936836912361
 30
0.0
 10
-201.9470408992565
 20
-9.211455574957517
 30
0.0
 10
-201.9704898003801
 20
-9.280046770945967
 30
0.0
 10
-201.9835242759529
 20
-9.355045267917758
 30
0.0
 10
-201.985514227414
 20
-9.406902614538465
 30
0.0
 10
-201.9865384615384
 20
-9.433593750000004
 30
0.0
  0
SPLINE
  5
78
330
1F
100
AcDbEntity
  8
0
  6
Continuous
 62
     7
370
    15
100
AcDbSpline
210
0.0
220
0.0
230
1.0
 70
     8
 71
     3
 72
    23
 73
    19
 74
     0
 42
0.000000001
 43
0.00000001
 40
0.0
 40
0.0
 40
0.0
 40
0.0
 40
0.0788023764630192
 40
0.1536512926099278
 40
0.2252056932005691
 40
0.2953098187122524
 40
0.3631897924920967
 40
0.4270954721356403
 40
0.4889985611396418
 40
0.5512251728232217
 40
0.5853576669003798
 40
0.6254158750411458
 40
0.6715918374509378
 40
0.724655611344059
 40
0.7833478366220118
 40
0.8491310022083288
 40
0.9213264734007371
 40
1.0
 40
1.0
 40
1.0
 40
1.0
 10
-201.9865384615384
 20
-9.433593750000004
 30
0.0
 10
-201.9857199339448
 20
-9.461953138873156
 30
0.0
 10
-201.9841239437164
 20
-9.51724914584107
 30
0.0
 10
-201.9681198508512
 20
-9.596945243846099
 30
0.0
 10
-201.9432298156322
 20
-9.670989647152211
 30
0.0
 10
-201.9069806179392
 20
-9.737359316740136
 30
0.0
 10
-201.8641896921295
 20
-9.796293728711857
 30
0.0
 10
-201.8142260425559
 20
-9.845188409558254
 30
0.0
 10
-201.7596431517234
 20
-9.885456828497054
 30
0.0
 10
-201.7082523054334
 20
-9.910769349813746
 30
0.0
 10
-201.6614014144214
 20
-9.925453288511866
 30
0.0
 10
-201.6191797823219
 20
-9.935064173913544
 30
0.0
 10
-201.5697805536388
 20
-9.943334704042888
 30
0.0
 10
-201.5134225384626
 20
-9.950377172913898
 30
0.0
 10
-201.4497404874174
 20
-9.954722840443319
 30
0.0
 10
-201.3791938702699
 20
-9.959380238603263
 30
0.0
 10
-201.3013165985817
 20
-9.961095465576223
 30
0.0
 10
-201.2470884185718
 20
-9.961386628867324
 30
0.0
 10
-201.2188100961538
 20
-9.961538461538467
 30
0.0
  0
LINE
  5
79
330
1F
100
AcDbEntity
  8
0
  6
Continuous
 62
     7
370
    15
100
AcDbLine
 10
-201.2188100962
 20
-9.9615384615
 30
0.0
 11
-199.025
 21
-9.9615384615
 31
0.0
  0
LINE
  5
7A
330
1F
100
AcDbEntity
  8
0
  6
Continuous
 62
     7
370
    15
100
AcDbLine
 10
-199.025
 20
-9.9615384615
 30
0.0
 11
-199.025
 21
-10.5897435897
 31
0.0
  0
LINE
  5
7B
330
1F
100
AcDbEntity
  8
0
  6
Continuous
 62
     7
370
    15
100
AcDbLine
 10
-199.025
 20
-10.5897435897
 30
0.0
 11
-201.1129407051
 21
-10.5897435897
 31
0.0
  0
SPLINE
  5
7C
330
1F
100
AcDbEntity
  8
0
  6
Continuous
 62
     7
370
    15
100
AcDbSpline
210
0.0
220
0.0
230
1.0
 70
     8
 71
     3
 72
    27
 73
    23
 74
     0
 42
0.000000001
 43
0.00000001
 40
0.0
 40
0.0
 40
0.0
 40
0.0
 40
0.0585394878947898
 40
0.1125657261299866
 40
0.1617773109973887
 40
0.2065037619062792
 40
0.2464428953462617
 40
0.281985008816553
 40
0.3131977443580453
 40
0.3397908576570793
 40
0.3893962092245588
 40
0.4404562667074909
 40
0.4939366780041516
 40
0.5499589259676809
 40
0.6064682360870908
 40
0.6612977825156369
 40
0.7146695344650815
 40
0.7676073825310483
 40
0.8216268440705368
 40
0.8781093082508078
 40
0.9372036514982165
 40
1.0
 40
1.0
 40
1.0
 40
1.0
 10
-201.1129407051282
 20
-10.58974358974359
 30
0.0
 10
-201.1552430657964
 20
-10.58966764297163
 30
0.0
 10
-201.2365863798032
 20
-10.58952160473589
 30
0.0
 10
-201.3534699830687
 20
-10.5867966781031
 30
0.0
 10
-201.4602823063007
 20
-10.58180492453524
 30
0.0
 10
-201.5568297448718
 20
-10.57560857875447
 30
0.0
 10
-201.6433881050576
 20
-10.56817791589789
 30
0.0
 10
-201.7199132259489
 20
-10.55856134338156
 30
0.0
 10
-201.7863640885141
 20
-10.54679755992529
 30
0.0
 10
-201.8620014407548
 20
-10.52916689420428
 30
0.0
 10
-201.9490976576929
 20
-10.49878218445991
 30
0.0
 10
-202.0493842878609
 20
-10.44978191752302
 30
0.0
 10
-202.1475705102993
 20
-10.387583109884
 30
0.0
 10
-202.2425796238823
 20
-10.31406768985943
 30
0.0
 10
-202.3308286478758
 20
-10.23105629598136
 30
0.0
 10
-202.4083407946496
 20
-10.14041639632688
 30
0.0
 10
-202.4736441294349
 20
-10.04366278356002
 30
0.0
 10
-202.5260223361737
 20
-9.94000713053543
 30
0.0
 10
-202.5664967723912
 20
-9.828709257860126
 30
0.0
 10
-202.5935632825926
 20
-9.70898719403289
 30
0.0
 10
-202.6120797371472
 20
-9.581168666905205
 30
0.0
 10
-202.6138378401264
 20
-9.493026021526646
 30
0.0
 10
-202.6147435897436
 20
-9.447616185897438
 30
0.0
  0
LINE
  5
7D
330
1F
100
AcDbEntity
  8
0
  6
Continuous
 62
     7
370
    15
100
AcDbLine
 10
-202.525
 20
-6.3269230769
 30
0.0
 11
-202.525
 21
-4.4423076923
 31
0.0
  0
LINE
  5
7E
330
1F
100
AcDbEntity
  8
0
  6
Continuous
 62
     7
370
    15
100
AcDbLine
 10
-202.525
 20
-4.4423076923
 30
0.0
 11
-199.025
 21
-4.4423076923
 31
0.0
  0
LINE
  5
7F
330
1F
100
AcDbEntity
  8
0
  6
Continuous
 62
     7
370
    15
100
AcDbLine
 10
-199.025
 20
-4.4423076923
 30
0.0
 11
-199.025
 21
-6.3269230769
 31
0.0
  0
LINE
  5
80
330
1F
100
AcDbEntity
  8
0
  6
Continuous
 62
     7
370
    15
100
AcDbLine
 10
-199.025
 20
-6.3269230769
 30
0.0
 11
-199.6532051282
 21
-6.3269230769
 31
0.0
  0
LINE
  5
81
330
1F
100
AcDbEntity
  8
0
  6
Continuous
 62
     7
370
    15
100
AcDbLine
 10
-199.6532051282
 20
-6.3269230769
 30
0.0
 11
-199.6532051282
 21
-5.0705128205
 31
0.0
  0
LINE
  5
82
330
1F
100
AcDbEntity
  8
0
  6
Continuous
 62
     7
370
    15
100
AcDbLine
 10
-199.6532051282
 20
-5.0705128205
 30
0.0
 11
-200.3262820513
 21
-5.0705128205
 31
0.0
  0
LINE
  5
83
330
1F
100
AcDbEntity
  8
0
  6
Continuous
 62
     7
370
    15
100
AcDbLine
 10
-200.3262820513
 20
-5.0705128205
 30
0.0
 11
-200.3262820513
 21
-6.3269230769
 31
0.0
  0
LINE
  5
84
330
1F
100
AcDbEntity
  8
0
  6
Continuous
 62
     7
370
    15
100
AcDbLine
 10
-200.3262820513
 20
-6.3269230769
 30
0.0
 11
-200.9544871795
 21
-6.3269230769
 31
0.0
  0
LINE
  5
85
330
1F
100
AcDbEntity
  8
0
  6
Continuous
 62
     7
370
    15
100
AcDbLine
 10
-200.9544871795
 20
-6.3269230769
 30
0.0
 11
-200.9544871795
 21
-5.0705128205
 31
0.0
  0
LINE
  5
86
330
1F
100
AcDbEntity
  8
0
  6
Continuous
 62
     7
370
    15
100
AcDbLine
 10
-200.9544871795
 20
-5.0705128205
 30
0.0
 11
-201.8967948718
 21
-5.0705128205
 31
0.0
  0
LINE
  5
87
330
1F
100
AcDbEntity
  8
0
  6
Continuous
 62
     7
370
    15
100
AcDbLine
 10
-201.8967948718
 20
-5.0705128205
 30
0.0
 11
-201.8967948718
 21
-6.3269230769
 31
0.0
  0
LINE
  5
88
330
1F
100
AcDbEntity
  8
0
  6
Continuous
 62
     7
370
    15
100
AcDbLine
 10
-201.8967948718
 20
-6.3269230769
 30
0.0
 11
-202.525
 21
-6.3269230769
 31
0.0
  0
LINE
  5
89
330
1F
100
AcDbEntity
  8
0
  6
Continuous
 62
     7
370
    15
100
AcDbLine
 10
-202.525
 20
-1.835536859
 30
0.0
 11
-202.525
 21
-1.0320512821
 31
0.0
  0
LINE
  5
8A
330
1F
100
AcDbEntity
  8
0
  6
Continuous
 62
     7
370
    15
100
AcDbLine
 10
-202.525
 20
-1.0320512821
 30
0.0
 11
-199.025
 21
-1.0320512821
 31
0.0
  0
LINE
  5
8B
330
1F
100
AcDbEntity
  8
0
  6
Continuous
 62
     7
370
    15
100
AcDbLine
 10
-199.025
 20
-1.0320512821
 30
0.0
 11
-199.025
 21
-1.8236177885
 31
0.0
  0
SPLINE
  5
8C
330
1F
100
AcDbEntity
  8
0
  6
Continuous
 62
     7
370
    15
100
AcDbSpline
210
0.0
220
0.0
230
1.0
 70
     8
 71
     3
 72
    31
 73
    27
 74
     0
 42
0.000000001
 43
0.00000001
 40
0.0
 40
0.0
 40
0.0
 40
0.0
 40
0.0601447472458249
 40
0.1162604764732287
 40
0.1686443813074381
 40
0.2173866278549594
 40
0.2624186252323618
 40
0.303915447798532
 40
0.3422405378521895
 40
0.3776280139703975
 40
0.4115908458854226
 40
0.4453921040858181
 40
0.4797581892256428
 40
0.5145743077423802
 40
0.5503562337271372
 40
0.5869993587255423
 40
0.6247892844222235
 40
0.6637395422424159
 40
0.7034732621753953
 40
0.7434647254919178
 40
0.7840256468482915
 40
0.8251424625062289
 40
0.8672721977811576
 40
0.9103115647916327
 40
0.9544267917362114
 40
0.9999999999999999
 40
0.9999999999999999
 40
0.9999999999999999
 40
0.9999999999999999
 10
-199.025
 20
-1.823617788461541
 30
0.0
 10
-199.0254314091652
 20
-1.885329492555216
 30
0.0
 10
-199.0262653279592
 20
-2.004618914332669
 30
0.0
 10
-199.0356607709736
 20
-2.177445844594077
 30
0.0
 10
-199.0501118425415
 20
-2.338152328982833
 30
0.0
 10
-199.0699868631409
 20
-2.486844483926289
 30
0.0
 10
-199.0963035733984
 20
-2.623209056329734
 30
0.0
 10
-199.1292585219597
 20
-2.747098088993368
 30
0.0
 10
-199.1675440551656
 20
-2.859037251737391
 30
0.0
 10
-199.2120364519591
 20
-2.960341446967508
 30
0.0
 10
-199.2642437263872
 20
-3.052565553805835
 30
0.0
 10
-199.3228896061337
 20
-3.139515497579116
 30
0.0
 10
-199.3888618097867
 20
-3.222193626430165
 30
0.0
 10
-199.4623118080895
 20
-3.301058511455924
 30
0.0
 10
-199.5427518085089
 20
-3.376302242521755
 30
0.0
 10
-199.6318013787205
 20
-3.446158564888705
 30
0.0
 10
-199.7271540603061
 20
-3.5128670136071
 30
0.0
 10
-199.8291407859868
 20
-3.575345240424591
 30
0.0
 10
-199.9375602122651
 20
-3.630958665324894
 30
0.0
 10
-200.0507058941654
 20
-3.680460848558426
 30
0.0
 10
-200.1686513691464
 20
-3.721705107955795
 30
0.0
 10
-200.2912337845946
 20
-3.755287648327165
 30
0.0
 10
-200.4180980484614
 20
-3.782037997712537
 30
0.0
 10
-200.549485884603
 20
-3.800759411153324
 30
0.0
 10
-200.6852795962097
 20
-3.812331979555772
 30
0.0
 10
-200.7773135126233
 20
-3.813506007560532
 30
0.0
 10
-200.824078525641
 20
-3.814102564102567
 30
0.0
  0
SPLINE
  5
8D
330
1F
100
AcDbEntity
  8
0
  6
Continuous
 62
     7
370
    15
100
AcDbSpline
210
0.0
220
0.0
230
1.0
 70
     8
 71
     3
 72
    27
 73
    23
 74
     0
 42
0.000000001
 43
0.00000001
 40
0.0
 40
0.0
 40
0.0
 40
0.0
 40
0.0657678946438538
 40
0.1294679504210621
 40
0.1914153848699043
 40
0.2524262785589086
 40
0.3117630105879147
 40
0.3687892217078038
 40
0.4239197695524046
 40
0.4783161788967769
 40
0.5312137538637589
 40
0.5820123044129063
 40
0.6309995608067995
 40
0.6792975878343012
 40
0.7053539528902931
 40
0.7352408846909644
 40
0.7689184899448828
 40
0.8068731547781176
 40
0.8489413748036286
 40
0.8951247172268948
 40
0.9454739921357438
 40
1.0
 40
1.0
 40
1.0
 40
1.0
 10
-200.824078525641
 20
-3.814102564102567
 30
0.0
 10
-200.8900670896905
 20
-3.812540614970441
 30
0.0
 10
-201.0199694407535
 20
-3.809465826672996
 30
0.0
 10
-201.2105984671554
 20
-3.783562727646808
 30
0.0
 10
-201.3933399200511
 20
-3.741675477068915
 30
0.0
 10
-201.5667432278373
 20
-3.682754355333698
 30
0.0
 10
-201.7293400906721
 20
-3.60979069257478
 30
0.0
 10
-201.877873403574
 20
-3.522407697826769
 30
0.0
 10
-202.0126459618461
 20
-3.423115502937291
 30
0.0
 10
-202.1314215095926
 20
-3.311032994841998
 30
0.0
 10
-202.2341360297821
 20
-3.189866641127002
 30
0.0
 10
-202.3210777909679
 20
-3.0634570615768
 30
0.0
 10
-202.3908678401085
 20
-2.931917816407076
 30
0.0
 10
-202.4344394395997
 20
-2.815768085310371
 30
0.0
 10
-202.4618492865417
 20
-2.714770858422447
 30
0.0
 10
-202.4776875974176
 20
-2.62621831531438
 30
0.0
 10
-202.4927743485723
 20
-2.525505120436975
 30
0.0
 10
-202.5039797813885
 20
-2.411983595320351
 30
0.0
 10
-202.5142502577104
 20
-2.285800954169678
 30
0.0
 10
-202.5197620161593
 20
-2.146869894818458
 30
0.0
 10
-202.5243654436339
 20
-1.995423430611254
 30
0.0
 10
-202.5247829388628
 20
-1.890228865717868
 30
0.0
 10
-202.525
 20
-1.835536858974361
 30
0.0
  0
SPLINE
  5
8E
330
1F
100
AcDbEntity
  8
0
  6
Continuous
 62
     7
370
    15
100
AcDbSpline
210
0.0
220
0.0
230
1.0
 70
     8
 71
     3
 72
    23
 73
    19
 74
     0
 42
0.000000001
 43
0.00000001
 40
0.0
 40
0.0
 40
0.0
 40
0.0
 40
0.0802607959234273
 40
0.1584741770180401
 40
0.2362074198965099
 40
0.3150564373965262
 40
0.3931752102640722
 40
0.4686866122826727
 40
0.5427383558629442
 40
0.6173280389932158
 40
0.6559859924156709
 40
0.6970724616865681
 40
0.7406907768993023
 40
0.7867235884693591
 40
0.8355751780983091
 40
0.8872468212992682
 40
0.9418962836938163
 40
1.0
 40
1.0
 40
1.0
 40
1.0
 10
-211.5118790064103
 20
4.038461538461537
 30
0.0
 10
-211.5597052932569
 20
4.040336088368335
 30
0.0
 10
-211.6541378410614
 20
4.044037369303084
 30
0.0
 10
-211.7922755432465
 20
4.073913878238105
 30
0.0
 10
-211.9240226557562
 20
4.121859533648894
 30
0.0
 10
-212.047437164336
 20
4.188444299076479
 30
0.0
 10
-212.1597794830148
 20
4.269980053832204
 30
0.0
 10
-212.2581964021355
 20
4.363835163051189
 30
0.0
 10
-212.3412297855979
 20
4.468874619007141
 30
0.0
 10
-212.3977722259998
 20
4.565427628284629
 30
0.0
 10
-212.4355351687727
 20
4.649341308194511
 30
0.0
 10
-212.4585659181553
 20
4.719157849197621
 30
0.0
 10
-212.4803433014262
 20
4.793958947388127
 30
0.0
 10
-212.4954835474078
 20
4.875102607234932
 30
0.0
 10
-212.5093801846806
 20
4.961268962055369
 30
0.0
 10
-212.5179517680083
 20
5.053316077975007
 30
0.0
 10
-212.5237631422907
 20
5.151066702300547
 30
0.0
 10
-212.5245793788161
 20
5.218206273335168
 30
0.0
 10
-212.525
 20
5.252804487179486
 30
0.0
  0
LINE
  5
8F
330
1F
100
AcDbEntity
  8
0
  6
Continuous
 62
     7
370
    15
100
AcDbLine
 10
-212.525
 20
5.2528044872
 30
0.0
 11
-212.525
 21
6.2371794872
 31
0.0
  0
LINE
  5
90
330
1F
100
AcDbEntity
  8
0
  6
Continuous
 62
     7
370
    15
100
AcDbLine
 10
-212.525
 20
6.2371794872
 30
0.0
 11
-209.025
 21
6.2371794872
 31
0.0
  0
LINE
  5
91
330
1F
100
AcDbEntity
  8
0
  6
Continuous
 62
     7
370
    15
100
AcDbLine
 10
-209.025
 20
6.2371794872
 30
0.0
 11
-209.025
 21
5.6762820513
 31
0.0
  0
SPLINE
  5
92
330
1F
100
AcDbEntity
  8
0
  6
Continuous
 62
     7
370
    15
100
AcDbSpline
210
0.0
220
0.0
230
1.0
 70
     8
 71
     3
 72
    15
 73
    11
 74
     0
 42
0.000000001
 43
0.00000001
 40
0.0
 40
0.0
 40
0.0
 40
0.0
 40
0.1639962778091429
 40
0.3173296884643036
 40
0.458061419680088
 40
0.5881864158298453
 40
0.7079510374084194
 40
0.8163213883427486
 40
0.9135844418915913
 40
1.0
 40
1.0
 40
1.0
 40
1.0
 10
-209.025
 20
5.676282051282051
 30
0.0
 10
-209.0249946395414
 20
5.637015653675502
 30
0.0
 10
-209.0249842671556
 20
5.561035918732354
 30
0.0
 10
-209.0288455167178
 20
5.451418124304204
 30
0.0
 10
-209.0337740966917
 20
5.349985728689786
 30
0.0
 10
-209.0394732129055
 20
5.256614946841387
 30
0.0
 10
-209.0489315729791
 20
5.17134034555846
 30
0.0
 10
-209.0591105551769
 20
5.094103195148921
 30
0.0
 10
-209.0713046782055
 20
5.025189558289388
 30
0.0
 10
-209.0822502566616
 20
4.982584521226763
 30
0.0
 10
-209.0873998397436
 20
4.962540064102563
 30
0.0
  0
SPLINE
  5
93
330
1F
100
AcDbEntity
  8
0
  6
Continuous
 62
     7
370
    15
100
AcDbSpline
210
0.0
220
0.0
230
1.0
 70
     8
 71
     3
 72
    23
 73
    19
 74
     0
 42
0.000000001
 43
0.00000001
 40
0.0
 40
0.0
 40
0.0
 40
0.0
 40
0.0687530977766821
 40
0.1349156495419836
 40
0.1997307480952175
 40
0.2629864177587509
 40
0.3253727894297567
 40
0.3873549104402019
 40
0.4494292647212335
 40
0.5111422869745589
 40
0.5725003261048753
 40
0.6331078494852472
 40
0.6928945825989129
 40
0.7523789788412458
 40
0.8127285113089712
 40
0.873473181815598
 40
0.9357733479350798
 40
1.0
 40
1.0
 40
1.0
 40
1.0
 10
-209.0873998397436
 20
4.962540064102563
 30
0.0
 10
-209.0946628769145
 20
4.936219605481787
 30
0.0
 10
-209.1089152874857
 20
4.884570416050362
 30
0.0
 10
-209.1376986480149
 20
4.810592297933267
 30
0.0
 10
-209.169693388609
 20
4.740413719842741
 30
0.0
 10
-209.2061934232149
 20
4.674120431927025
 30
0.0
 10
-209.2476393211252
 20
4.612119268243864
 30
0.0
 10
-209.2943603347203
 20
4.554646713096202
 30
0.0
 10
-209.3444798861574
 20
4.500460022655274
 30
0.0
 10
-209.3993992921965
 20
4.45149501886441
 30
0.0
 10
-209.4574186285677
 20
4.407204954801531
 30
0.0
 10
-209.5185835792422
 20
4.368847874490842
 30
0.0
 10
-209.5816594139266
 20
4.335109687750866
 30
0.0
 10
-209.6483991006902
 20
4.309722833963243
 30
0.0
 10
-209.716837854083
 20
4.288186048714159
 30
0.0
 10
-209.7882896146371
 20
4.273813325013387
 30
0.0
 10
-209.8621070321912
 20
4.264159776052183
 30
0.0
 10
-209.9123543748402
 20
4.263271442460174
 30
0.0
 10
-209.9378605769231
 20
4.262820512820512
 30
0.0
  0
SPLINE
  5
94
330
1F
100
AcDbEntity
  8
0
  6
Continuous
 62
     7
370
    15
100
AcDbSpline
210
0.0
220
0.0
230
1.0
 70
     8
 71
     3
 72
    15
 73
    11
 74
     0
 42
0.000000001
 43
0.00000001
 40
0.0
 40
0.0
 40
0.0
 40
0.0
 40
0.1233009211415351
 40
0.2428483157874609
 40
0.3594093367624488
 40
0.4755617143276472
 40
0.5943988334439051
 40
0.7201859792491435
 40
0.8551070365024617
 40
0.9999999999999999
 40
0.9999999999999999
 40
0.9999999999999999
 40
0.9999999999999999
 10
-209.9378605769231
 20
4.262820512820512
 30
0.0
 10
-209.9706453682117
 20
4.263918194652685
 30
0.0
 10
-210.0352169162111
 20
4.26608014268799
 30
0.0
 10
-210.1296483264637
 20
4.282575648923103
 30
0.0
 10
-210.2194952834261
 20
4.309466182019843
 30
0.0
 10
-210.3056138643508
 20
4.346542243670296
 30
0.0
 10
-210.3870171775741
 20
4.397776711382242
 30
0.0
 10
-210.4662527599148
 20
4.460534245033609
 30
0.0
 10
-210.5419382194293
 20
4.53771102978971
 30
0.0
 10
-210.5883215714177
 20
4.595880405567976
 30
0.0
 10
-210.6123397435897
 20
4.626001602564102
 30
0.0
  0
SPLINE
  5
95
330
1F
100
AcDbEntity
  8
0
  6
Continuous
 62
     7
370
    15
100
AcDbSpline
210
0.0
220
0.0
230
1.0
 70
     8
 71
     3
 72
    23
 73
    19
 74
     0
 42
0.000000001
 43
0.00000001
 40
0.0
 40
0.0
 40
0.0
 40
0.0
 40
0.0727768194343453
 40
0.142695208014645
 40
0.2094499341052122
 40
0.2746621126871186
 40
0.3372761314740798
 40
0.3976370498388491
 40
0.4573827930380396
 40
0.515630142051554
 40
0.5731284025667946
 40
0.6310707725555575
 40
0.6895667601067302
 40
0.7487928550240572
 40
0.8092629675415566
 40
0.8707408301032227
 40
0.9342782198137248
 40
1.0
 40
1.0
 40
1.0
 40
1.0
 10
-210.6123397435897
 20
4.626001602564102
 30
0.0
 10
-210.6249356840239
 20
4.601323586152819
 30
0.0
 10
-210.6496328383423
 20
4.552936823546714
 30
0.0
 10
-210.6902505757691
 20
4.48426301044786
 30
0.0
 10
-210.7333659285387
 20
4.420598987886942
 30
0.0
 10
-210.7786068044044
 20
4.361891187379369
 30
0.0
 10
-210.826303518104
 20
4.308344645698974
 30
0.0
 10
-210.8766815197513
 20
4.260307489856635
 30
0.0
 10
-210.9288697082228
 20
4.216777781058601
 30
0.0
 10
-210.9839314815914
 20
4.178793535057107
 30
0.0
 10
-211.0412058963964
 20
4.145677019594216
 30
0.0
 10
-211.1007902664528
 20
4.116598135218908
 30
0.0
 10
-211.1635315308011
 20
4.093308226361119
 30
0.0
 10
-211.2280995581433
 20
4.072412075621863
 30
0.0
 10
-211.2954537153173
 20
4.057099216459672
 30
0.0
 10
-211.3653589743329
 20
4.047042206565609
 30
0.0
 10
-211.437626075321
 20
4.039364412285247
 30
0.0
 10
-211.4868507417866
 20
4.038765868063749
 30
0.0
 10
-211.5118790064103
 20
4.038461538461537
 30
0.0
  0
CIRCLE
  5
96
330
1F
100
AcDbEntity
  8
0
  6
Continuous
 62
     7
370
    15
100
AcDbCircle
 10
185.525
 20
5.0
 30
0.0
 40
1.425000000000011
  0
CIRCLE
  5
97
330
1F
100
AcDbEntity
  8
0
  6
Continuous
 62
     7
370
    15
100
AcDbCircle
 10
25.525
 20
5.0
 30
0.0
 40
1.424999999999997
  0
CIRCLE
  5
98
330
1F
100
AcDbEntity
  8
0
  6
Continuous
 62
     7
370
    15
100
AcDbCircle
 10
-86.975
 20
20.0
 30
0.0
 40
1.424999999999997
  0
CIRCLE
  5
99
330
1F
100
AcDbEntity
  8
0
  6
Continuous
 62
     7
370
    15
100
AcDbCircle
 10
-96.975
 20
20.0
 30
0.0
 40
1.424999999999997
  0
CIRCLE
  5
9A
330
1F
100
AcDbEntity
  8
0
  6
Continuous
 62
     7
370
    15
100
AcDbCircle
 10
185.525
 20
-5.0
 30
0.0
 40
1.425000000000011
  0
CIRCLE
  5
9B
330
1F
100
AcDbEntity
  8
0
  6
Continuous
 62
     7
370
    15
100
AcDbCircle
 10
25.525
 20
-5.0
 30
0.0
 40
1.424999999999997
  0
CIRCLE
  5
9C
330
1F
100
AcDbEntity
  8
0
  6
Continuous
 62
     7
370
    15
100
AcDbCircle
 10
63.025
 20
-20.0
 30
0.0
 40
1.42499999999999
  0
CIRCLE
  5
9D
330
1F
100
AcDbEntity
  8
0
  6
Continuous
 62
     7
370
    15
100
AcDbCircle
 10
53.025
 20
-20.0
 30
0.0
 40
1.425000000000004
  0
CIRCLE
  5
9E
330
1F
100
AcDbEntity
  8
0
  6
Continuous
 62
     7
370
    15
100
AcDbCircle
 10
-127.725
 20
95.2
 30
0.0
 40
1.425000000000011
  0
CIRCLE
  5
9F
330
1F
100
AcDbEntity
  8
0
  6
Continuous
 62
     7
370
    15
100
AcDbCircle
 10
-56.225
 20
95.2
 30
0.0
 40
1.424999999999997
  0
CIRCLE
  5
A0
330
1F
100
AcDbEntity
  8
0
  6
Continuous
 62
     7
370
    15
100
AcDbCircle
 10
-56.225
 20
166.7
 30
0.0
 40
1.425000000000004
  0
CIRCLE
  5
A1
330
1F
100
AcDbEntity
  8
0
  6
Continuous
 62
     7
370
    15
100
AcDbCircle
 10
-127.725
 20
166.7
 30
0.0
 40
1.425000000000011
  0
CIRCLE
  5
A2
330
1F
100
AcDbEntity
  8
0
  6
Continuous
 62
     7
370
    15
100
AcDbCircle
 10
-91.975
 20
130.95
 30
0.0
 40
2.999999999999915
  0
ARC
  5
A3
330
1F
100
AcDbEntity
  8
0
  6
Continuous
 62
     7
370
    15
100
AcDbCircle
 10
-63.9140847264
 20
108.398170052
 30
0.0
 40
3.000000000000046
100
AcDbArc
 50
321.2120626774
 51
141.2120626774
  0
ARC
  5
A4
330
1F
100
AcDbEntity
  8
0
  6
Continuous
 62
     7
370
    15
100
AcDbCircle
 10
-91.975
 20
130.95
 30
0.0
 40
38.99999999999999
100
AcDbArc
 50
218.7879373226
 51
321.2120626774
  0
ARC
  5
A5
330
1F
100
AcDbEntity
  8
0
  6
Continuous
 62
     7
370
    15
100
AcDbCircle
 10
-120.0359152736
 20
108.398170052
 30
0.0
 40
3.000000000000013
100
AcDbArc
 50
38.7879373226
 51
218.7879373226
  0
ARC
  5
A6
330
1F
100
AcDbEntity
  8
0
  6
Continuous
 62
     7
370
    15
100
AcDbCircle
 10
-91.975
 20
130.95
 30
0.0
 40
32.99999999999997
100
AcDbArc
 50
218.7879373226
 51
321.2120626774
  0
ARC
  5
A7
330
1F
100
AcDbEntity
  8
0
  6
Continuous
 62
     7
370
    15
100
AcDbCircle
 10
-74.4935269938
 20
114.506213893
 30
0.0
 40
3.000000000000036
100
AcDbArc
 50
316.7519850943
 51
136.7519850943
  0
ARC
  5
A8
330
1F
100
AcDbEntity
  8
0
  6
Continuous
 62
     7
370
    15
100
AcDbCircle
 10
-91.975
 20
130.95
 30
0.0
 40
27.00000000000002
100
AcDbArc
 50
223.2480149057
 51
316.7519850943
  0
ARC
  5
A9
330
1F
100
AcDbEntity
  8
0
  6
Continuous
 62
     7
370
    15
100
AcDbCircle
 10
-109.4564730062
 20
114.506213893
 30
0.0
 40
3.000000000000005
100
AcDbArc
 50
43.2480149057
 51
223.2480149057
  0
ARC
  5
AA
330
1F
100
AcDbEntity
  8
0
  6
Continuous
 62
     7
370
    15
100
AcDbCircle
 10
-91.975
 20
130.95
 30
0.0
 40
21.00000000000001
100
AcDbArc
 50
223.2480149057
 51
316.7519850943
  0
ARC
  5
AB
330
1F
100
AcDbEntity
  8
0
  6
Continuous
 62
     7
370
    15
100
AcDbCircle
 10
-85.488523399
 20
120.8541780273
 30
0.0
 40
3.000000000000008
100
AcDbArc
 50
302.720387264
 51
122.720387264
  0
ARC
  5
AC
330
1F
100
AcDbEntity
  8
0
  6
Continuous
 62
     7
370
    15
100
AcDbCircle
 10
-91.975
 20
130.95
 30
0.0
 40
15.00000000000003
100
AcDbArc
 50
237.279612736
 51
302.720387264
  0
ARC
  5
AD
330
1F
100
AcDbEntity
  8
0
  6
Continuous
 62
     7
370
    15
100
AcDbCircle
 10
-98.461476601
 20
120.8541780273
 30
0.0
 40
3.0
100
AcDbArc
 50
57.279612736
 51
237.279612736
  0
ARC
  5
AE
330
1F
100
AcDbEntity
  8
0
  6
Continuous
 62
     7
370
    15
100
AcDbCircle
 10
-91.975
 20
130.95
 30
0.0
 40
9.000000000000043
100
AcDbArc
 50
237.279612736
 51
302.720387264
  0
ARC
  5
AF
330
1F
100
AcDbEntity
  8
0
  6
Continuous
 62
     7
370
    15
100
AcDbCircle
 10
-86.475
 20
166.5273804544
 30
0.0
 40
3.000000000000058
100
AcDbArc
 50
81.2120626774
 51
261.2120626774
  0
ARC
  5
B0
330
1F
100
AcDbEntity
  8
0
  6
Continuous
 62
     7
370
    15
100
AcDbCircle
 10
-91.975
 20
130.95
 30
0.0
 40
38.99999999999996
100
AcDbArc
 50
338.7879373226
 51
81.2120626774
  0
ARC
  5
B1
330
1F
100
AcDbEntity
  8
0
  6
Continuous
 62
     7
370
    15
100
AcDbCircle
 10
-58.4140847264
 20
117.9244494936
 30
0.0
 40
2.99999999999999
100
AcDbArc
 50
158.7879373226
 51
338.7879373226
  0
ARC
  5
B2
330
1F
100
AcDbEntity
  8
0
  6
Continuous
 62
     7
370
    15
100
AcDbCircle
 10
-91.975
 20
130.95
 30
0.0
 40
32.99999999999999
100
AcDbArc
 50
338.7879373226
 51
81.2120626774
  0
ARC
  5
B3
330
1F
100
AcDbEntity
  8
0
  6
Continuous
 62
     7
370
    15
100
AcDbCircle
 10
-86.475
 20
154.3112927724
 30
0.0
 40
3.00000000000005
100
AcDbArc
 50
76.7519850943
 51
256.7519850943
  0
ARC
  5
B4
330
1F
100
AcDbEntity
  8
0
  6
Continuous
 62
     7
370
    15
100
AcDbCircle
 10
-91.975
 20
130.95
 30
0.0
 40
27.00000000000004
100
AcDbArc
 50
343.2480149057
 51
76.7519850943
  0
ARC
  5
B5
330
1F
100
AcDbEntity
  8
0
  6
Continuous
 62
     7
370
    15
100
AcDbCircle
 10
-68.9935269938
 20
124.0324933346
 30
0.0
 40
3.000000000000014
100
AcDbArc
 50
163.2480149057
 51
343.2480149057
  0
ARC
  5
B6
330
1F
100
AcDbEntity
  8
0
  6
Continuous
 62
     7
370
    15
100
AcDbCircle
 10
-91.975
 20
130.95
 30
0.0
 40
21.0
100
AcDbArc
 50
343.2480149057
 51
76.7519850943
  0
ARC
  5
B7
330
1F
100
AcDbEntity
  8
0
  6
Continuous
 62
     7
370
    15
100
AcDbCircle
 10
-86.475
 20
141.6153645039
 30
0.0
 40
3.000000000000009
100
AcDbArc
 50
62.720387264
 51
242.720387264
  0
ARC
  5
B8
330
1F
100
AcDbEntity
  8
0
  6
Continuous
 62
     7
370
    15
100
AcDbCircle
 10
-91.975
 20
130.95
 30
0.0
 40
15.00000000000004
100
AcDbArc
 50
357.279612736
 51
62.720387264
  0
ARC
  5
B9
330
1F
100
AcDbEntity
  8
0
  6
Continuous
 62
     7
370
    15
100
AcDbCircle
 10
-79.988523399
 20
130.3804574689
 30
0.0
 40
3.000000000000005
100
AcDbArc
 50
177.279612736
 51
357.279612736
  0
ARC
  5
BA
330
1F
100
AcDbEntity
  8
0
  6
Continuous
 62
     7
370
    15
100
AcDbCircle
 10
-91.975
 20
130.95
 30
0.0
 40
9.000000000000028
100
AcDbArc
 50
357.279612736
 51
62.720387264
  0
ARC
  5
BB
330
1F
100
AcDbEntity
  8
0
  6
Continuous
 62
     7
370
    15
100
AcDbCircle
 10
-125.5359152736
 20
117.9244494936
 30
0.0
 40
3.000000000000047
100
AcDbArc
 50
201.2120626774
 51
21.2120626774
  0
ARC
  5
BC
330
1F
100
AcDbEntity
  8
0
  6
Continuous
 62
     7
370
    15
100
AcDbCircle
 10
-91.975
 20
130.95
 30
0.0
 40
38.99999999999998
100
AcDbArc
 50
98.7879373226
 51
201.2120626774
  0
ARC
  5
BD
330
1F
100
AcDbEntity
  8
0
  6
Continuous
 62
     7
370
    15
100
AcDbCircle
 10
-97.475
 20
166.5273804544
 30
0.0
 40
3.000000000000004
100
AcDbArc
 50
278.7879373226
 51
98.7879373226
  0
ARC
  5
BE
330
1F
100
AcDbEntity
  8
0
  6
Continuous
 62
     7
370
    15
100
AcDbCircle
 10
-91.975
 20
130.95
 30
0.0
 40
32.99999999999996
100
AcDbArc
 50
98.7879373226
 51
201.2120626774
  0
ARC
  5
BF
330
1F
100
AcDbEntity
  8
0
  6
Continuous
 62
     7
370
    15
100
AcDbCircle
 10
-114.9564730062
 20
124.0324933346
 30
0.0
 40
3.000000000000031
100
AcDbArc
 50
196.7519850943
 51
16.7519850943
  0
ARC
  5
C0
330
1F
100
AcDbEntity
  8
0
  6
Continuous
 62
     7
370
    15
100
AcDbCircle
 10
-91.975
 20
130.95
 30
0.0
 40
27.00000000000001
100
AcDbArc
 50
103.2480149057
 51
196.7519850943
  0
ARC
  5
C1
330
1F
100
AcDbEntity
  8
0
  6
Continuous
 62
     7
370
    15
100
AcDbCircle
 10
-97.475
 20
154.3112927724
 30
0.0
 40
3.000000000000001
100
AcDbArc
 50
283.2480149057
 51
103.2480149057
  0
ARC
  5
C2
330
1F
100
AcDbEntity
  8
0
  6
Continuous
 62
     7
370
    15
100
AcDbCircle
 10
-91.975
 20
130.95
 30
0.0
 40
21.00000000000001
100
AcDbArc
 50
103.2480149057
 51
196.7519850943
  0
ARC
  5
C3
330
1F
100
AcDbEntity
  8
0
  6
Continuous
 62
     7
370
    15
100
AcDbCircle
 10
-103.961476601
 20
130.3804574689
 30
0.0
 40
3.00000000000002
100
AcDbArc
 50
182.720387264
 51
2.720387264
  0
ARC
  5
C4
330
1F
100
AcDbEntity
  8
0
  6
Continuous
 62
     7
370
    15
100
AcDbCircle
 10
-91.975
 20
130.95
 30
0.0
 40
15.00000000000004
100
AcDbArc
 50
117.279612736
 51
182.720387264
  0
ARC
  5
C5
330
1F
100
AcDbEntity
  8
0
  6
Continuous
 62
     7
370
    15
100
AcDbCircle
 10
-97.475
 20
141.6153645039
 30
0.0
 40
3.000000000000009
100
AcDbArc
 50
297.279612736
 51
117.279612736
  0
ARC
  5
C6
330
1F
100
AcDbEntity
  8
0
  6
Continuous
 62
     7
370
    15
100
AcDbCircle
 10
-91.975
 20
130.95
 30
0.0
 40
9.000000000000027
100
AcDbArc
 50
117.279612736
 51
182.720387264
  0
ARC
  5
C7
330
1F
100
AcDbEntity
  8
0
  6
Continuous
 62
     7
370
    15
100
AcDbCircle
 10
86.0859152736
 20
-108.398170052
 30
0.0
 40
3.000000000000046
100
AcDbArc
 50
218.7879373226
 51
38.7879373226
  0
ARC
  5
C8
330
1F
100
AcDbEntity
  8
0
  6
Continuous
 62
     7
370
    15
100
AcDbCircle
 10
58.025
 20
-130.95
 30
0.0
 40
32.99999999999998
100
AcDbArc
 50
38.7879373226
 51
141.2120626774
  0
ARC
  5
C9
330
1F
100
AcDbEntity
  8
0
  6
Continuous
 62
     7
370
    15
100
AcDbCircle
 10
29.9640847264
 20
-108.398170052
 30
0.0
 40
3.00000000000001
100
AcDbArc
 50
141.2120626774
 51
321.2120626774
  0
ARC
  5
CA
330
1F
100
AcDbEntity
  8
0
  6
Continuous
 62
     7
370
    15
100
AcDbCircle
 10
58.025
 20
-130.95
 30
0.0
 40
38.99999999999999
100
AcDbArc
 50
38.7879373226
 51
141.2120626774
  0
ARC
  5
CB
330
1F
100
AcDbEntity
  8
0
  6
Continuous
 62
     7
370
    15
100
AcDbCircle
 10
75.5064730062
 20
-114.506213893
 30
0.0
 40
3.000000000000036
100
AcDbArc
 50
223.2480149057
 51
43.2480149057
  0
ARC
  5
CC
330
1F
100
AcDbEntity
  8
0
  6
Continuous
 62
     7
370
    15
100
AcDbCircle
 10
58.025
 20
-130.95
 30
0.0
 40
21.00000000000001
100
AcDbArc
 50
43.2480149057
 51
136.7519850943
  0
ARC
  5
CD
330
1F
100
AcDbEntity
  8
0
  6
Continuous
 62
     7
370
    15
100
AcDbCircle
 10
40.5435269938
 20
-114.506213893
 30
0.0
 40
3.000000000000005
100
AcDbArc
 50
136.7519850943
 51
316.7519850943
  0
ARC
  5
CE
330
1F
100
AcDbEntity
  8
0
  6
Continuous
 62
     7
370
    15
100
AcDbCircle
 10
58.025
 20
-130.95
 30
0.0
 40
27.00000000000002
100
AcDbArc
 50
43.2480149057
 51
136.7519850943
  0
ARC
  5
CF
330
1F
100
AcDbEntity
  8
0
  6
Continuous
 62
     7
370
    15
100
AcDbCircle
 10
64.511476601
 20
-120.8541780273
 30
0.0
 40
3.000000000000008
100
AcDbArc
 50
237.279612736
 51
57.279612736
  0
ARC
  5
D0
330
1F
100
AcDbEntity
  8
0
  6
Continuous
 62
     7
370
    15
100
AcDbCircle
 10
58.025
 20
-130.95
 30
0.0
 40
9.000000000000043
100
AcDbArc
 50
57.279612736
 51
122.720387264
  0
ARC
  5
D1
330
1F
100
AcDbEntity
  8
0
  6
Continuous
 62
     7
370
    15
100
AcDbCircle
 10
51.538523399
 20
-120.8541780273
 30
0.0
 40
3.0
100
AcDbArc
 50
122.720387264
 51
302.720387264
  0
ARC
  5
D2
330
1F
100
AcDbEntity
  8
0
  6
Continuous
 62
     7
370
    15
100
AcDbCircle
 10
58.025
 20
-130.95
 30
0.0
 40
15.00000000000004
100
AcDbArc
 50
57.279612736
 51
122.720387264
  0
ARC
  5
D3
330
1F
100
AcDbEntity
  8
0
  6
Continuous
 62
     7
370
    15
100
AcDbCircle
 10
63.525
 20
-166.5273804544
 30
0.0
 40
3.000000000000059
100
AcDbArc
 50
98.7879373226
 51
278.7879373226
  0
ARC
  5
D4
330
1F
100
AcDbEntity
  8
0
  6
Continuous
 62
     7
370
    15
100
AcDbCircle
 10
58.025
 20
-130.95
 30
0.0
 40
32.99999999999999
100
AcDbArc
 50
278.7879373226
 51
21.2120626774
  0
ARC
  5
D5
330
1F
100
AcDbEntity
  8
0
  6
Continuous
 62
     7
370
    15
100
AcDbCircle
 10
91.5859152736
 20
-117.9244494936
 30
0.0
 40
2.999999999999996
100
AcDbArc
 50
21.2120626774
 51
201.2120626774
  0
ARC
  5
D6
330
1F
100
AcDbEntity
  8
0
  6
Continuous
 62
     7
370
    15
100
AcDbCircle
 10
58.025
 20
-130.95
 30
0.0
 40
38.99999999999996
100
AcDbArc
 50
278.7879373226
 51
21.2120626774
  0
ARC
  5
D7
330
1F
100
AcDbEntity
  8
0
  6
Continuous
 62
     7
370
    15
100
AcDbCircle
 10
63.525
 20
-154.3112927724
 30
0.0
 40
3.00000000000005
100
AcDbArc
 50
103.2480149057
 51
283.2480149057
  0
ARC
  5
D8
330
1F
100
AcDbEntity
  8
0
  6
Continuous
 62
     7
370
    15
100
AcDbCircle
 10
58.025
 20
-130.95
 30
0.0
 40
21.0
100
AcDbArc
 50
283.2480149057
 51
16.7519850943
  0
ARC
  5
D9
330
1F
100
AcDbEntity
  8
0
  6
Continuous
 62
     7
370
    15
100
AcDbCircle
 10
81.0064730062
 20
-124.0324933346
 30
0.0
 40
3.000000000000018
100
AcDbArc
 50
16.7519850943
 51
196.7519850943
  0
ARC
  5
DA
330
1F
100
AcDbEntity
  8
0
  6
Continuous
 62
     7
370
    15
100
AcDbCircle
 10
58.025
 20
-130.95
 30
0.0
 40
27.00000000000004
100
AcDbArc
 50
283.2480149057
 51
16.7519850943
  0
ARC
  5
DB
330
1F
100
AcDbEntity
  8
0
  6
Continuous
 62
     7
370
    15
100
AcDbCircle
 10
63.525
 20
-141.6153645039
 30
0.0
 40
3.000000000000009
100
AcDbArc
 50
117.279612736
 51
297.279612736
  0
ARC
  5
DC
330
1F
100
AcDbEntity
  8
0
  6
Continuous
 62
     7
370
    15
100
AcDbCircle
 10
58.025
 20
-130.95
 30
0.0
 40
9.000000000000036
100
AcDbArc
 50
297.279612736
 51
2.720387264
  0
ARC
  5
DD
330
1F
100
AcDbEntity
  8
0
  6
Continuous
 62
     7
370
    15
100
AcDbCircle
 10
70.011476601
 20
-130.3804574689
 30
0.0
 40
3.000000000000005
100
AcDbArc
 50
2.720387264
 51
182.720387264
  0
ARC
  5
DE
330
1F
100
AcDbEntity
  8
0
  6
Continuous
 62
     7
370
    15
100
AcDbCircle
 10
58.025
 20
-130.95
 30
0.0
 40
15.00000000000004
100
AcDbArc
 50
297.279612736
 51
2.720387264
  0
CIRCLE
  5
DF
330
1F
100
AcDbEntity
  8
0
  6
Continuous
 62
     7
370
    15
100
AcDbCircle
 10
58.025
 20
-130.95
 30
0.0
 40
2.999999999999901
  0
ARC
  5
E0
330
1F
100
AcDbEntity
  8
0
  6
Continuous
 62
     7
370
    15
100
AcDbCircle
 10
46.038523399
 20
-130.3804574689
 30
0.0
 40
3.000000000000005
100
AcDbArc
 50
357.279612736
 51
177.279612736
  0
ARC
  5
E1
330
1F
100
AcDbEntity
  8
0
  6
Continuous
 62
     7
370
    15
100
AcDbCircle
 10
58.025
 20
-130.95
 30
0.0
 40
9.000000000000023
100
AcDbArc
 50
177.279612736
 51
242.720387264
  0
ARC
  5
E2
330
1F
100
AcDbEntity
  8
0
  6
Continuous
 62
     7
370
    15
100
AcDbCircle
 10
52.525
 20
-141.6153645039
 30
0.0
 40
3.000000000000009
100
AcDbArc
 50
242.720387264
 51
62.720387264
  0
ARC
  5
E3
330
1F
100
AcDbEntity
  8
0
  6
Continuous
 62
     7
370
    15
100
AcDbCircle
 10
58.025
 20
-130.95
 30
0.0
 40
15.00000000000004
100
AcDbArc
 50
177.279612736
 51
242.720387264
  0
ARC
  5
E4
330
1F
100
AcDbEntity
  8
0
  6
Continuous
 62
     7
370
    15
100
AcDbCircle
 10
35.0435269938
 20
-124.0324933346
 30
0.0
 40
3.000000000000031
100
AcDbArc
 50
343.2480149057
 51
163.2480149057
  0
ARC
  5
E5
330
1F
100
AcDbEntity
  8
0
  6
Continuous
 62
     7
370
    15
100
AcDbCircle
 10
58.025
 20
-130.95
 30
0.0
 40
21.00000000000001
100
AcDbArc
 50
163.2480149057
 51
256.7519850943
  0
ARC
  5
E6
330
1F
100
AcDbEntity
  8
0
  6
Continuous
 62
     7
370
    15
100
AcDbCircle
 10
52.525
 20
-154.3112927724
 30
0.0
 40
2.999999999999998
100
AcDbArc
 50
256.7519850943
 51
76.7519850943
  0
ARC
  5
E7
330
1F
100
AcDbEntity
  8
0
  6
Continuous
 62
     7
370
    15
100
AcDbCircle
 10
58.025
 20
-130.95
 30
0.0
 40
27.00000000000001
100
AcDbArc
 50
163.2480149057
 51
256.7519850943
  0
ARC
  5
E8
330
1F
100
AcDbEntity
  8
0
  6
Continuous
 62
     7
370
    15
100
AcDbCircle
 10
24.4640847264
 20
-117.9244494936
 30
0.0
 40
3.000000000000047
100
AcDbArc
 50
338.7879373226
 51
158.7879373226
  0
ARC
  5
E9
330
1F
100
AcDbEntity
  8
0
  6
Continuous
 62
     7
370
    15
100
AcDbCircle
 10
58.025
 20
-130.95
 30
0.0
 40
32.99999999999996
100
AcDbArc
 50
158.7879373226
 51
261.2120626774
  0
ARC
  5
EA
330
1F
100
AcDbEntity
  8
0
  6
Continuous
 62
     7
370
    15
100
AcDbCircle
 10
52.525
 20
-166.5273804544
 30
0.0
 40
3.000000000000004
100
AcDbArc
 50
261.2120626774
 51
81.2120626774
  0
ARC
  5
EB
330
1F
100
AcDbEntity
  8
0
  6
Continuous
 62
     7
370
    15
100
AcDbCircle
 10
58.025
 20
-130.95
 30
0.0
 40
38.99999999999997
100
AcDbArc
 50
158.7879373226
 51
261.2120626774
  0
CIRCLE
  5
EC
330
1F
100
AcDbEntity
  8
0
  6
Continuous
 62
     7
370
    15
100
AcDbCircle
 10
22.275
 20
-166.7
 30
0.0
 40
1.424999999999997
  0
CIRCLE
  5
ED
330
1F
100
AcDbEntity
  8
0
  6
Continuous
 62
     7
370
    15
100
AcDbCircle
 10
93.775
 20
-166.7
 30
0.0
 40
1.424999999999997
  0
CIRCLE
  5
EE
330
1F
100
AcDbEntity
  8
0
  6
Continuous
 62
     7
370
    15
100
AcDbCircle
 10
93.775
 20
-95.2
 30
0.0
 40
1.424999999999997
  0
CIRCLE
  5
EF
330
1F
100
AcDbEntity
  8
0
  6
Continuous
 62
     7
370
    15
100
AcDbCircle
 10
22.275
 20
-95.2
 30
0.0
 40
1.424999999999997
  0
CIRCLE
  5
F0
330
1F
100
AcDbEntity
  8
0
  6
Continuous
 62
     7
370
    15
100
AcDbCircle
 10
-175.525
 20
-50.0
 30
0.0
 40
15.0
  0
CIRCLE
  5
F1
330
1F
100
AcDbEntity
  8
0
  6
Continuous
 62
     7
370
    15
100
AcDbCircle
 10
-175.525
 20
50.0
 30
0.0
 40
15.0
  0
CIRCLE
  5
F2
330
1F
100
AcDbEntity
  8
0
  6
Continuous
 62
     7
370
    15
100
AcDbCircle
 10
-219.525
 20
-69.4833333333
 30
0.0
 40
1.425000000000011
  0
LINE
  5
F3
330
1F
100
AcDbEntity
  8
0
  6
Continuous
 62
     7
370
    15
100
AcDbLine
 10
231.525
 20
168.8666666667
 30
0.0
 11
225.525
 21
168.9666666667
 31
0.0
  0
LINE
  5
F4
330
1F
100
AcDbEntity
  8
0
  6
Continuous
 62
     7
370
    15
100
AcDbLine
 10
225.525
 20
208.45
 30
0.0
 11
225.525
 21
168.9666666667
 31
0.0
  0
LINE
  5
F5
330
1F
100
AcDbEntity
  8
0
  6
Continuous
 62
     7
370
    15
100
AcDbLine
 10
225.525
 20
208.45
 30
0.0
 11
-225.525
 21
208.45
 31
0.0
  0
LINE
  5
F6
330
1F
100
AcDbEntity
  8
0
  6
Continuous
 62
     7
370
    15
100
AcDbLine
 10
-225.525
 20
208.45
 30
0.0
 11
-225.525
 21
-208.45
 31
0.0
  0
LINE
  5
F7
330
1F
100
AcDbEntity
  8
0
  6
Continuous
 62
     7
370
    15
100
AcDbLine
 10
-225.525
 20
-208.45
 30
0.0
 11
225.525
 21
-208.45
 31
0.0
  0
LINE
  5
F8
330
1F
100
AcDbEntity
  8
0
  6
Continuous
 62
     7
370
    15
100
AcDbLine
 10
225.525
 20
-168.9666666667
 30
0.0
 11
225.525
 21
-208.45
 31
0.0
  0
LINE
  5
F9
330
1F
100
AcDbEntity
  8
0
  6
Continuous
 62
     7
370
    15
100
AcDbLine
 10
225.525
 20
-168.9666666667
 30
0.0
 11
231.525
 21
-168.8666666667
 31
0.0
  0
LINE
  5
FA
330
1F
100
AcDbEntity
  8
0
  6
Continuous
 62
     7
370
    15
100
AcDbLine
 10
231.525
 20
-159.0666666667
 30
0.0
 11
231.525
 21
-168.8666666667
 31
0.0
  0
LINE
  5
FB
330
1F
100
AcDbEntity
  8
0
  6
Continuous
 62
     7
370
    15
100
AcDbLine
 10
231.525
 20
-159.0666666667
 30
0.0
 11
225.525
 21
-158.9666666667
 31
0.0
  0
LINE
  5
FC
330
1F
100
AcDbEntity
  8
0
  6
Continuous
 62
     7
370
    15
100
AcDbLine
 10
225.525
 20
-118.9666666667
 30
0.0
 11
225.525
 21
-158.9666666667
 31
0.0
  0
LINE
  5
FD
330
1F
100
AcDbEntity
  8
0
  6
Continuous
 62
     7
370
    15
100
AcDbLine
 10
225.525
 20
-118.9666666667
 30
0.0
 11
231.525
 21
-118.8666666667
 31
0.0
  0
LINE
  5
FE
330
1F
100
AcDbEntity
  8
0
  6
Continuous
 62
     7
370
    15
100
AcDbLine
 10
231.525
 20
-109.0666666667
 30
0.0
 11
231.525
 21
-118.8666666667
 31
0.0
  0
LINE
  5
FF
330
1F
100
AcDbEntity
  8
0
  6
Continuous
 62
     7
370
    15
100
AcDbLine
 10
231.525
 20
-109.0666666667
 30
0.0
 11
225.525
 21
-108.9666666667
 31
0.0
  0
LINE
  5
100
330
1F
100
AcDbEntity
  8
0
  6
Continuous
 62
     7
370
    15
100
AcDbLine
 10
225.525
 20
-30.0
 30
0.0
 11
225.525
 21
-108.9666666667
 31
0.0
  0
LINE
  5
101
330
1F
100
AcDbEntity
  8
0
  6
Continuous
 62
     7
370
    15
100
AcDbLine
 10
225.525
 20
-30.0
 30
0.0
 11
231.525
 21
-29.9
 31
0.0
  0
LINE
  5
102
330
1F
100
AcDbEntity
  8
0
  6
Continuous
 62
     7
370
    15
100
AcDbLine
 10
231.525
 20
-20.1
 30
0.0
 11
231.525
 21
-29.9
 31
0.0
  0
LINE
  5
103
330
1F
100
AcDbEntity
  8
0
  6
Continuous
 62
     7
370
    15
100
AcDbLine
 10
231.525
 20
-20.1
 30
0.0
 11
225.525
 21
-20.0
 31
0.0
  0
LINE
  5
104
330
1F
100
AcDbEntity
  8
0
  6
Continuous
 62
     7
370
    15
100
AcDbLine
 10
225.525
 20
20.0
 30
0.0
 11
225.525
 21
-20.0
 31
0.0
  0
LINE
  5
105
330
1F
100
AcDbEntity
  8
0
  6
Continuous
 62
     7
370
    15
100
AcDbLine
 10
225.525
 20
20.0
 30
0.0
 11
231.525
 21
20.1
 31
0.0
  0
LINE
  5
106
330
1F
100
AcDbEntity
  8
0
  6
Continuous
 62
     7
370
    15
100
AcDbLine
 10
231.525
 20
29.9
 30
0.0
 11
231.525
 21
20.1
 31
0.0
  0
LINE
  5
107
330
1F
100
AcDbEntity
  8
0
  6
Continuous
 62
     7
370
    15
100
AcDbLine
 10
231.525
 20
29.9
 30
0.0
 11
225.525
 21
30.0
 31
0.0
  0
LINE
  5
108
330
1F
100
AcDbEntity
  8
0
  6
Continuous
 62
     7
370
    15
100
AcDbLine
 10
225.525
 20
108.9666666667
 30
0.0
 11
225.525
 21
30.0
 31
0.0
  0
LINE
  5
109
330
1F
100
AcDbEntity
  8
0
  6
Continuous
 62
     7
370
    15
100
AcDbLine
 10
225.525
 20
108.9666666667
 30
0.0
 11
231.525
 21
109.0666666667
 31
0.0
  0
LINE
  5
10A
330
1F
100
AcDbEntity
  8
0
  6
Continuous
 62
     7
370
    15
100
AcDbLine
 10
231.525
 20
118.8666666667
 30
0.0
 11
231.525
 21
109.0666666667
 31
0.0
  0
LINE
  5
10B
330
1F
100
AcDbEntity
  8
0
  6
Continuous
 62
     7
370
    15
100
AcDbLine
 10
231.525
 20
118.8666666667
 30
0.0
 11
225.525
 21
118.9666666667
 31
0.0
  0
LINE
  5
10C
330
1F
100
AcDbEntity
  8
0
  6
Continuous
 62
     7
370
    15
100
AcDbLine
 10
225.525
 20
158.9666666667
 30
0.0
 11
225.525
 21
118.9666666667
 31
0.0
  0
LINE
  5
10D
330
1F
100
AcDbEntity
  8
0
  6
Continuous
 62
     7
370
    15
100
AcDbLine
 10
225.525
 20
158.9666666667
 30
0.0
 11
231.525
 21
159.0666666667
 31
0.0
  0
LINE
  5
10E
330
1F
100
AcDbEntity
  8
0
  6
Continuous
 62
     7
370
    15
100
AcDbLine
 10
231.525
 20
168.8666666667
 30
0.0
 11
231.525
 21
159.0666666667
 31
0.0
  0
CIRCLE
  5
10F
330
1F
100
AcDbEntity
  8
0
  6
Continuous
 62
     7
370
    15
100
AcDbCircle
 10
-219.525
 20
69.4833333333
 30
0.0
 40
1.425000000000011
  0
LINE
  5
110
330
1F
100
AcDbEntity
  8
0
  6
Continuous
 62
     7
370
    15
100
AcDbLine
 10
-212.525
 20
3.0765224359
 30
0.0
 11
-212.525
 21
3.7467948718
 31
0.0
  0
LINE
  5
111
330
1F
100
AcDbEntity
  8
0
  6
Continuous
 62
     7
370
    15
100
AcDbLine
 10
-212.525
 20
3.7467948718
 30
0.0
 11
-209.025
 21
2.3326322115
 31
0.0
  0
LINE
  5
112
330
1F
100
AcDbEntity
  8
0
  6
Continuous
 62
     7
370
    15
100
AcDbLine
 10
-209.025
 20
2.3326322115
 30
0.0
 11
-209.025
 21
1.75
 31
0.0
  0
LINE
  5
113
330
1F
100
AcDbEntity
  8
0
  6
Continuous
 62
     7
370
    15
100
AcDbLine
 10
-209.025
 20
1.75
 30
0.0
 11
-212.525
 21
0.3365384615
 31
0.0
  0
LINE
  5
114
330
1F
100
AcDbEntity
  8
0
  6
Continuous
 62
     7
370
    15
100
AcDbLine
 10
-212.525
 20
0.3365384615
 30
0.0
 11
-212.525
 21
1.0075120192
 31
0.0
  0
LINE
  5
115
330
1F
100
AcDbEntity
  8
0
  6
Continuous
 62
     7
370
    15
100
AcDbLine
 10
-212.525
 20
1.0075120192
 30
0.0
 11
-211.8070512821
 21
1.2795472756
 31
0.0
  0
LINE
  5
116
330
1F
100
AcDbEntity
  8
0
  6
Continuous
 62
     7
370
    15
100
AcDbLine
 10
-211.8070512821
 20
1.2795472756
 30
0.0
 11
-211.8070512821
 21
2.8044871795
 31
0.0
  0
LINE
  5
117
330
1F
100
AcDbEntity
  8
0
  6
Continuous
 62
     7
370
    15
100
AcDbLine
 10
-211.8070512821
 20
2.8044871795
 30
0.0
 11
-212.525
 21
3.0765224359
 31
0.0
  0
SPLINE
  5
118
330
1F
100
AcDbEntity
  8
0
  6
Continuous
 62
     7
370
    15
100
AcDbSpline
210
0.0
220
0.0
230
1.0
 70
     8
 71
     3
 72
    31
 73
    27
 74
     0
 42
0.000000001
 43
0.00000001
 40
0.0
 40
0.0
 40
0.0
 40
0.0
 40
0.0446684219862321
 40
0.0885218950561394
 40
0.1309759025448439
 40
0.1729079032401042
 40
0.2140086703208699
 40
0.2549982425581406
 40
0.2953090930122089
 40
0.3359074476453159
 40
0.3763204323130305
 40
0.4163225794753417
 40
0.4564988015270276
 40
0.4966654947226523
 40
0.5371985214645363
 40
0.578092440328387
 40
0.6199013729926983
 40
0.6626036496253749
 40
0.7052714349703917
 40
0.7476282300147341
 40
0.7894089819447466
 40
0.8312481877285957
 40
0.8728105995623665
 40
0.9148604067059762
 40
0.9570221044372509
 40
1.0
 40
1.0
 40
1.0
 40
1.0
 10
-210.769391025641
 20
-0.0000000000000004
 30
0.0
 10
-210.7263635923035
 20
-0.0006049040984683
 30
0.0
 10
-210.6410937356783
 20
-0.0018036761782186
 30
0.0
 10
-210.5153704942534
 20
-0.0134029390423617
 30
0.0
 10
-210.3931690968101
 20
-0.0316470337943884
 30
0.0
 10
-210.2748654647987
 20
-0.0567345308697243
 30
0.0
 10
-210.1598003583434
 20
-0.0890985277597412
 30
0.0
 10
-210.0487315197097
 20
-0.1288741149643991
 30
0.0
 10
-209.941198707791
 20
-0.1762370220196711
 30
0.0
 10
-209.8378894923471
 20
-0.230978242055375
 30
0.0
 10
-209.7382312851843
 20
-0.2915841618999619
 30
0.0
 10
-209.643961983641
 20
-0.3595728380345275
 30
0.0
 10
-209.554067663439
 20
-0.4328611748740097
 30
0.0
 10
-209.4697183463676
 20
-0.5132559745413918
 30
0.0
 10
-209.3905821900666
 20
-0.5996624875126594
 30
0.0
 10
-209.3156887861831
 20
-0.6918426850468385
 30
0.0
 10
-209.2464412510372
 20
-0.7909105334408313
 30
0.0
 10
-209.1824994228369
 20
-0.8954414733808895
 30
0.0
 10
-209.1240911745283
 20
-1.00379430428442
 30
0.0
 10
-209.0738710066308
 20
-1.115211312081009
 30
0.0
 10
-209.0306949743816
 20
-1.228667837661762
 30
0.0
 10
-208.9955639720696
 20
-1.344115246566604
 30
0.0
 10
-208.9691366894916
 20
-1.462088545631861
 30
0.0
 10
-208.9491744922771
 20
-1.581635866658654
 30
0.0
 10
-208.9380062963448
 20
-1.703747694018976
 30
0.0
 10
-208.9361788785172
 20
-1.785736166514123
 30
0.0
 10
-208.9352564102564
 20
-1.827123397435898
 30
0.0
  0
SPLINE
  5
119
330
1F
100
AcDbEntity
  8
0
  6
Continuous
 62
     7
370
    15
100
AcDbSpline
210
0.0
220
0.0
230
1.0
 70
     8
 71
     3
 72
    23
 73
    19
 74
     0
 42
0.000000001
 43
0.00000001
 40
0.0
 40
0.0
 40
0.0
 40
0.0
 40
0.0622757783707701
 40
0.1239040620075172
 40
0.185067240768727
 40
0.2468401515202073
 40
0.3084353298497775
 40
0.3702412507091056
 40
0.4325865888798544
 40
0.4959245816612397
 40
0.5593510709509262
 40
0.6219426542010863
 40
0.684392867235183
 40
0.7469858082645154
 40
0.809441464531694
 40
0.8725078327139354
 40
0.9357692970662264
 40
1.0
 40
1.0
 40
1.0
 40
1.0
 10
-208.9352564102564
 20
-1.827123397435898
 30
0.0
 10
-208.9357853082925
 20
-1.862430879670444
 30
0.0
 10
-208.9368376052976
 20
-1.932678744611974
 30
0.0
 10
-208.9456096457825
 20
-2.037289603586336
 30
0.0
 10
-208.959386046632
 20
-2.141063833887587
 30
0.0
 10
-208.9801717017027
 20
-2.243629891926293
 30
0.0
 10
-209.0048469009461
 20
-2.34572143499976
 30
0.0
 10
-209.0371556707148
 20
-2.445996865831677
 30
0.0
 10
-209.0731698832439
 20
-2.546038083566422
 30
0.0
 10
-209.1162175206595
 20
-2.644276090273947
 30
0.0
 10
-209.1632079053287
 20
-2.740848011807707
 30
0.0
 10
-209.2165202032312
 20
-2.83349149880299
 30
0.0
 10
-209.2728736350904
 20
-2.923762026840017
 30
0.0
 10
-209.3356034439149
 20
-3.009659255214912
 30
0.0
 10
-209.4024343029028
 20
-3.092792223978558
 30
0.0
 10
-209.4736780155336
 20
-3.172726223566594
 30
0.0
 10
-209.5505224236591
 20
-3.248759786392622
 30
0.0
 10
-209.6048175341936
 20
-3.296474228695962
 30
0.0
 10
-209.632171474359
 20
-3.320512820512821
 30
0.0
  0
LINE
  5
11A
330
1F
100
AcDbEntity
  8
0
  6
Continuous
 62
     7
370
    15
100
AcDbLine
 10
-209.6321714744
 20
-3.3205128205
 30
0.0
 11
-210.0724759615
 21
-2.8598758013
 31
0.0
  0
SPLINE
  5
11B
330
1F
100
AcDbEntity
  8
0
  6
Continuous
 62
     7
370
    15
100
AcDbSpline
210
0.0
220
0.0
230
1.0
 70
     8
 71
     3
 72
    15
 73
    11
 74
     0
 42
0.000000001
 43
0.00000001
 40
0.0
 40
0.0
 40
0.0
 40
0.0
 40
0.1394133446588905
 40
0.2727612353865513
 40
0.3995104626414312
 40
0.522802112442822
 40
0.6426598884795568
 40
0.761582581578229
 40
0.8797948418719508
 40
1.0
 40
1.0
 40
1.0
 40
1.0
 10
-210.0724759615384
 20
-2.859875801282052
 30
0.0
 10
-210.0320204758602
 20
-2.82084265683714
 30
0.0
 10
-209.9528696006067
 20
-2.74447458227537
 30
0.0
 10
-209.849136802619
 20
-2.620894087656228
 30
0.0
 10
-209.7613429290777
 20
-2.493522621514559
 30
0.0
 10
-209.688319152544
 20
-2.363216688912842
 30
0.0
 10
-209.632612989667
 20
-2.227965329451266
 30
0.0
 10
-209.5925631395509
 20
-2.089548669628518
 30
0.0
 10
-209.5676247390734
 20
-1.947214257931482
 30
0.0
 10
-209.5648569837586
 20
-1.851062083244689
 30
0.0
 10
-209.5634615384615
 20
-1.802584134615385
 30
0.0
  0
SPLINE
  5
11C
330
1F
100
AcDbEntity
  8
0
  6
Continuous
 62
     7
370
    15
100
AcDbSpline
210
0.0
220
0.0
230
1.0
 70
     8
 71
     3
 72
    23
 73
    19
 74
     0
 42
0.000000001
 43
0.00000001
 40
0.0
 40
0.0
 40
0.0
 40
0.0
 40
0.0647145165408359
 40
0.1277069683294527
 40
0.1888821628171155
 40
0.2491582987223302
 40
0.3096610287488836
 40
0.3702248860571857
 40
0.4323322219725876
 40
0.4957818589938751
 40
0.5593040765204313
 40
0.6218605583615284
 40
0.683321537332509
 40
0.7445229747823356
 40
0.8060883712105091
 40
0.868994314670201
 40
0.9334190568081416
 40
1.0
 40
1.0
 40
1.0
 40
1.0
 10
-209.5634615384615
 20
-1.802584134615385
 30
0.0
 10
-209.5645822151161
 20
-1.762103005393769
 30
0.0
 10
-209.5667937470209
 20
-1.682217956972163
 30
0.0
 10
-209.5830064571832
 20
-1.564925772015833
 30
0.0
 10
-209.6105768763791
 20
-1.452729735324225
 30
0.0
 10
-209.6485740211216
 20
-1.345245782083901
 30
0.0
 10
-209.6977403097053
 20
-1.242790188443172
 30
0.0
 10
-209.7580376887018
 20
-1.14514814351633
 30
0.0
 10
-209.8289215870225
 20
-1.05256037971532
 30
0.0
 10
-209.9100252481169
 20
-0.9662499277652231
 30
0.0
 10
-209.9986370925474
 20
-0.8872961595884673
 30
0.0
 10
-210.093185719168
 20
-0.8175354781347726
 30
0.0
 10
-210.1934545223602
 20
-0.7590997171500509
 30
0.0
 10
-210.2984280533902
 20
-0.71114243862817
 30
0.0
 10
-210.4085921817191
 20
-0.6737855725118266
 30
0.0
 10
-210.5238727404922
 20
-0.6471080766661611
 30
0.0
 10
-210.6444070199464
 20
-0.6316785260166194
 30
0.0
 10
-210.7263453249823
 20
-0.6293755621767992
 30
0.0
 10
-210.7679887820512
 20
-0.6282051282051286
 30
0.0
  0
SPLINE
  5
11D
330
1F
100
AcDbEntity
  8
0
  6
Continuous
 62
     7
370
    15
100
AcDbSpline
210
0.0
220
0.0
230
1.0
 70
     8
 71
     3
 72
    31
 73
    27
 74
     0
 42
0.000000001
 43
0.00000001
 40
0.0
 40
0.0
 40
0.0
 40
0.0
 40
0.0459898780961324
 40
0.0906469946318923
 40
0.1344970435926023
 40
0.1773468762382336
 40
0.2192840231254466
 40
0.2609265752685886
 40
0.3024617801081624
 40
0.3435845359393896
 40
0.3841458343549475
 40
0.4243436174054639
 40
0.4643812190596465
 40
0.503968573454939
 40
0.5437825374670927
 40
0.5837660387987459
 40
0.6243856640565858
 40
0.6655182881651548
 40
0.7066492677252586
 40
0.7478049086123807
 40
0.7888766405719393
 40
0.8302044987020911
 40
0.8716957086868963
 40
0.9137263035565794
 40
0.9565840285332657
 40
1.0
 40
1.0
 40
1.0
 40
1.0
 10
-210.7679887820512
 20
-0.6282051282051286
 30
0.0
 10
-210.7972172220345
 20
-0.6285420043045243
 30
0.0
 10
-210.8548270777667
 20
-0.6292059940178631
 30
0.0
 10
-210.94004548339
 20
-0.6364899782488255
 30
0.0
 10
-211.0227373856024
 20
-0.6481862380648238
 30
0.0
 10
-211.1027313994493
 20
-0.6652287184171096
 30
0.0
 10
-211.1803370442605
 20
-0.6861592999921825
 30
0.0
 10
-211.2555334771023
 20
-0.712171687685875
 30
0.0
 10
-211.3282755156689
 20
-0.7430638890245805
 30
0.0
 10
-211.3984259800255
 20
-0.777960705549124
 30
0.0
 10
-211.4651754863994
 20
-0.8173451382504826
 30
0.0
 10
-211.528539523162
 20
-0.8608055232454683
 30
0.0
 10
-211.5877113161335
 20
-0.9087677404810174
 30
0.0
 10
-211.6447149804403
 20
-0.9589909938335268
 30
0.0
 10
-211.6961466007355
 20
-1.014877488583244
 30
0.0
 10
-211.7449880765695
 20
-1.07383098617148
 30
0.0
 10
-211.7895785481638
 20
-1.137106793510325
 30
0.0
 10
-211.8311277710799
 20
-1.203289094411788
 30
0.0
 10
-211.8672172121605
 20
-1.272977424780452
 30
0.0
 10
-211.899908584487
 20
-1.344273482379801
 30
0.0
 10
-211.9264585161042
 20
-1.418260287382709
 30
0.0
 10
-211.9478602693117
 20
-1.4940364649232
 30
0.0
 10
-211.9660592398843
 20
-1.571331363139245
 30
0.0
 10
-211.9772649105514
 20
-1.650900958566906
 30
0.0
 10
-211.9857508321581
 20
-1.732055493090581
 30
0.0
 10
-211.9862747883001
 20
-1.786902336292588
 30
0.0
 10
-211.9865384615384
 20
-1.814503205128206
 30
0.0
  0
SPLINE
  5
11E
330
1F
100
AcDbEntity
  8
0
  6
Continuous
 62
     7
370
    15
100
AcDbSpline
210
0.0
220
0.0
230
1.0
 70
     8
 71
     3
 72
    19
 73
    15
 74
     0
 42
0.000000001
 43
0.00000001
 40
0.0
 40
0.0
 40
0.0
 40
0.0
 40
0.1170435447141597
 40
0.2299601294569608
 40
0.340689290383038
 40
0.4498805794903153
 40
0.5060795988630891
 40
0.5653208093360015
 40
0.6282204711764172
 40
0.6947417305379489
 40
0.765028639221735
 40
0.8395868963812828
 40
0.9177532318238287
 40
1.0
 40
1.0
 40
1.0
 40
1.0
 10
-211.9865384615384
 20
-1.814503205128206
 30
0.0
 10
-211.9851822810068
 20
-1.861318335883487
 30
0.0
 10
-211.9825177389223
 20
-1.953297894049813
 30
0.0
 10
-211.9617411699442
 20
-2.08830287510093
 30
0.0
 10
-211.927355600978
 20
-2.217114511753628
 30
0.0
 10
-211.8871562346303
 20
-2.320199069073734
 30
0.0
 10
-211.8473551085893
 20
-2.400819109462173
 30
0.0
 10
-211.8100269262368
 20
-2.461640916201509
 30
0.0
 10
-211.7689900647688
 20
-2.524953233944219
 30
0.0
 10
-211.7217150816892
 20
-2.589355675426096
 30
0.0
 10
-211.6691255566799
 20
-2.655552361158117
 30
0.0
 10
-211.6099973937702
 20
-2.722331822519781
 30
0.0
 10
-211.5462984197271
 20
-2.7914162089878
 30
0.0
 10
-211.5008343227313
 20
-2.836672211107818
 30
0.0
 10
-211.4775240384615
 20
-2.859875801282052
 30
0.0
  0
LINE
  5
11F
330
1F
100
AcDbEntity
  8
0
  6
Continuous
 62
     7
370
    15
100
AcDbLine
 10
-211.4775240385
 20
-2.8598758013
 30
0.0
 11
-211.9465745192
 21
-3.3064903846
 31
0.0
  0
SPLINE
  5
120
330
1F
100
AcDbEntity
  8
0
  6
Continuous
 62
     7
370
    15
100
AcDbSpline
210
0.0
220
0.0
230
1.0
 70
     8
 71
     3
 72
    23
 73
    19
 74
     0
 42
0.000000001
 43
0.00000001
 40
0.0
 40
0.0
 40
0.0
 40
0.0
 40
0.077783563319982
 40
0.1518168810519692
 40
0.2225416324690699
 40
0.2902798746034636
 40
0.3546434662369457
 40
0.4158011052220762
 40
0.4747128342893108
 40
0.5304303753738036
 40
0.5855844661714265
 40
0.6413066787376505
 40
0.6979002796360493
 40
0.755419973512305
 40
0.8145213875304202
 40
0.8748764467719341
 40
0.9366692062363262
 40
1.0
 40
1.0
 40
1.0
 40
1.0
 10
-211.9465745192308
 20
-3.306490384615385
 30
0.0
 10
-211.9768850223479
 20
-3.275095783727881
 30
0.0
 10
-212.0360446423234
 20
-3.213820236746249
 30
0.0
 10
-212.1200457621873
 20
-3.121387768708229
 30
0.0
 10
-212.1955301808147
 20
-3.029071654947646
 30
0.0
 10
-212.2652373068389
 20
-2.93910195113971
 30
0.0
 10
-212.3271375886239
 20
-2.850005242619201
 30
0.0
 10
-212.3812887077334
 20
-2.761789652688838
 30
0.0
 10
-212.4290747207446
 20
-2.675458433628218
 30
0.0
 10
-212.4696394084677
 20
-2.58920266618007
 30
0.0
 10
-212.5043028680171
 20
-2.502337645278744
 30
0.0
 10
-212.5335363166175
 20
-2.413000336224869
 30
0.0
 10
-212.5590551135684
 20
-2.321148052221358
 30
0.0
 10
-212.5791370908886
 20
-2.226020069665644
 30
0.0
 10
-212.5954852102851
 20
-2.128040840247684
 30
0.0
 10
-212.6062876877398
 20
-2.026895521532817
 30
0.0
 10
-212.6137785261716
 20
-1.923056697936595
 30
0.0
 10
-212.614419276492
 20
-1.852845044314178
 30
0.0
 10
-212.6147435897436
 20
-1.817307692307693
 30
0.0
  0
SPLINE
  5
121
330
1F
100
AcDbEntity
  8
0
  6
Continuous
 62
     7
370
    15
100
AcDbSpline
210
0.0
220
0.0
230
1.0
 70
     8
 71
     3
 72
    23
 73
    19
 74
     0
 42
0.000000001
 43
0.00000001
 40
0.0
 40
0.0
 40
0.0
 40
0.0
 40
0.0673740544035694
 40
0.1318322966942382
 40
0.1944547514618711
 40
0.25556621811222
 40
0.3155873806720974
 40
0.3756245423466761
 40
0.4361329772354504
 40
0.4977717426514742
 40
0.5594614804090107
 40
0.6202669139556108
 40
0.6807748678609671
 40
0.741575036225507
 40
0.8032218278605897
 40
0.8664970990943718
 40
0.9319126544756663
 40
0.9999999999999999
 40
0.9999999999999999
 40
0.9999999999999999
 40
0.9999999999999999
 10
-212.6147435897436
 20
-1.817307692307693
 30
0.0
 10
-212.6130766539905
 20
-1.752032494667695
 30
0.0
 10
-212.6098149240752
 20
-1.624307077246543
 30
0.0
 10
-212.5857309095926
 20
-1.437110762290353
 30
0.0
 10
-212.5450879086156
 20
-1.259131754099909
 30
0.0
 10
-212.4883883810045
 20
-1.090050251055244
 30
0.0
 10
-212.4147643463575
 20
-0.9303837130936835
 30
0.0
 10
-212.3254300395278
 20
-0.7796314234380618
 30
0.0
 10
-212.2195375816545
 20
-0.6380444312207165
 30
0.0
 10
-212.0986646731924
 20
-0.5068410781835383
 30
0.0
 10
-211.9651426083507
 20
-0.3881985878447344
 30
0.0
 10
-211.8218314783819
 20
-0.2832138191630965
 30
0.0
 10
-211.6677021295194
 20
-0.1967523705869069
 30
0.0
 10
-211.5060561114817
 20
-0.1233942753477505
 30
0.0
 10
-211.334366273457
 20
-0.0684235264413508
 30
0.0
 10
-211.15418403035
 20
-0.0284096663431014
 30
0.0
 10
-210.9647361590956
 20
-0.0040614409960447
 30
0.0
 10
-210.8353690768293
 20
-0.0013717565275189
 30
0.0
 10
-210.769391025641
 20
-0.0000000000000004
 30
0.0
  0
LINE
  5
122
330
1F
100
AcDbEntity
  8
0
  6
Continuous
 62
     7
370
    15
100
AcDbLine
 10
-212.525
 20
-4.5769230769
 30
0.0
 11
-212.525
 21
-3.9487179487
 31
0.0
  0
LINE
  5
123
330
1F
100
AcDbEntity
  8
0
  6
Continuous
 62
     7
370
    15
100
AcDbLine
 10
-212.525
 20
-3.9487179487
 30
0.0
 11
-209.025
 21
-3.9487179487
 31
0.0
  0
LINE
  5
124
330
1F
100
AcDbEntity
  8
0
  6
Continuous
 62
     7
370
    15
100
AcDbLine
 10
-209.025
 20
-3.9487179487
 30
0.0
 11
-209.025
 21
-4.5769230769
 31
0.0
  0
LINE
  5
125
330
1F
100
AcDbEntity
  8
0
  6
Continuous
 62
     7
370
    15
100
AcDbLine
 10
-209.025
 20
-4.5769230769
 30
0.0
 11
-210.2568709936
 21
-4.5769230769
 31
0.0
  0
LINE
  5
126
330
1F
100
AcDbEntity
  8
0
  6
Continuous
 62
     7
370
    15
100
AcDbLine
 10
-210.2568709936
 20
-4.5769230769
 30
0.0
 11
-209.025
 21
-5.5697115385
 31
0.0
  0
LINE
  5
127
330
1F
100
AcDbEntity
  8
0
  6
Continuous
 62
     7
370
    15
100
AcDbLine
 10
-209.025
 20
-5.5697115385
 30
0.0
 11
-209.025
 21
-6.3626802885
 31
0.0
  0
LINE
  5
128
330
1F
100
AcDbEntity
  8
0
  6
Continuous
 62
     7
370
    15
100
AcDbLine
 10
-209.025
 20
-6.3626802885
 30
0.0
 11
-210.5730769231
 21
-5.1153846154
 31
0.0
  0
LINE
  5
129
330
1F
100
AcDbEntity
  8
0
  6
Continuous
 62
     7
370
    15
100
AcDbLine
 10
-210.5730769231
 20
-5.1153846154
 30
0.0
 11
-212.525
 21
-6.483974359
 31
0.0
  0
LINE
  5
12A
330
1F
100
AcDbEntity
  8
0
  6
Continuous
 62
     7
370
    15
100
AcDbLine
 10
-212.525
 20
-6.483974359
 30
0.0
 11
-212.525
 21
-5.7274639423
 31
0.0
  0
LINE
  5
12B
330
1F
100
AcDbEntity
  8
0
  6
Continuous
 62
     7
370
    15
100
AcDbLine
 10
-212.525
 20
-5.7274639423
 30
0.0
 11
-210.8836738782
 21
-4.5769230769
 31
0.0
  0
LINE
  5
12C
330
1F
100
AcDbEntity
  8
0
  6
Continuous
 62
     7
370
    15
100
AcDbLine
 10
-210.8836738782
 20
-4.5769230769
 30
0.0
 11
-212.525
 21
-4.5769230769
 31
0.0
  0
LINE
  5
12D
330
1F
100
AcDbEntity
  8
0
  6
Continuous
 62
     7
370
    15
100
AcDbLine
 10
-199.6532051282
 20
13.0576923077
 30
0.0
 11
-199.6532051282
 21
13.6858974359
 31
0.0
  0
LINE
  5
12E
330
1F
100
AcDbEntity
  8
0
  6
Continuous
 62
     7
370
    15
100
AcDbLine
 10
-199.6532051282
 20
13.6858974359
 30
0.0
 11
-199.025
 21
13.6858974359
 31
0.0
  0
LINE
  5
12F
330
1F
100
AcDbEntity
  8
0
  6
Continuous
 62
     7
370
    15
100
AcDbLine
 10
-199.025
 20
13.6858974359
 30
0.0
 11
-199.025
 21
11.8012820513
 31
0.0
  0
LINE
  5
130
330
1F
100
AcDbEntity
  8
0
  6
Continuous
 62
     7
370
    15
100
AcDbLine
 10
-199.025
 20
11.8012820513
 30
0.0
 11
-199.6532051282
 21
11.8012820513
 31
0.0
  0
LINE
  5
131
330
1F
100
AcDbEntity
  8
0
  6
Continuous
 62
     7
370
    15
100
AcDbLine
 10
-199.6532051282
 20
11.8012820513
 30
0.0
 11
-199.6532051282
 21
12.4294871795
 31
0.0
  0
LINE
  5
132
330
1F
100
AcDbEntity
  8
0
  6
Continuous
 62
     7
370
    15
100
AcDbLine
 10
-199.6532051282
 20
12.4294871795
 30
0.0
 11
-202.525
 21
12.4294871795
 31
0.0
  0
LINE
  5
133
330
1F
100
AcDbEntity
  8
0
  6
Continuous
 62
     7
370
    15
100
AcDbLine
 10
-202.525
 20
12.4294871795
 30
0.0
 11
-202.525
 21
13.0576923077
 31
0.0
  0
LINE
  5
134
330
1F
100
AcDbEntity
  8
0
  6
Continuous
 62
     7
370
    15
100
AcDbLine
 10
-202.525
 20
13.0576923077
 30
0.0
 11
-199.6532051282
 21
13.0576923077
 31
0.0
  0
LINE
  5
135
330
1F
100
AcDbEntity
  8
0
  6
Continuous
 62
     7
370
    15
100
AcDbLine
 10
-202.525
 20
10.6794871795
 30
0.0
 11
-202.525
 21
11.3076923077
 31
0.0
  0
LINE
  5
136
330
1F
100
AcDbEntity
  8
0
  6
Continuous
 62
     7
370
    15
100
AcDbLine
 10
-202.525
 20
11.3076923077
 30
0.0
 11
-199.025
 21
11.3076923077
 31
0.0
  0
LINE
  5
137
330
1F
100
AcDbEntity
  8
0
  6
Continuous
 62
     7
370
    15
100
AcDbLine
 10
-199.025
 20
11.3076923077
 30
0.0
 11
-199.025
 21
10.6794871795
 31
0.0
  0
LINE
  5
138
330
1F
100
AcDbEntity
  8
0
  6
Continuous
 62
     7
370
    15
100
AcDbLine
 10
-199.025
 20
10.6794871795
 30
0.0
 11
-200.3711538462
 21
10.6794871795
 31
0.0
  0
LINE
  5
139
330
1F
100
AcDbEntity
  8
0
  6
Continuous
 62
     7
370
    15
100
AcDbLine
 10
-200.3711538462
 20
10.6794871795
 30
0.0
 11
-200.3711538462
 21
9.4679487179
 31
0.0
  0
LINE
  5
13A
330
1F
100
AcDbEntity
  8
0
  6
Continuous
 62
     7
370
    15
100
AcDbLine
 10
-200.3711538462
 20
9.4679487179
 30
0.0
 11
-199.025
 21
9.4679487179
 31
0.0
  0
LINE
  5
13B
330
1F
100
AcDbEntity
  8
0
  6
Continuous
 62
     7
370
    15
100
AcDbLine
 10
-199.025
 20
9.4679487179
 30
0.0
 11
-199.025
 21
8.8397435897
 31
0.0
  0
LINE
  5
13C
330
1F
100
AcDbEntity
  8
0
  6
Continuous
 62
     7
370
    15
100
AcDbLine
 10
-199.025
 20
8.8397435897
 30
0.0
 11
-202.525
 21
8.8397435897
 31
0.0
  0
LINE
  5
13D
330
1F
100
AcDbEntity
  8
0
  6
Continuous
 62
     7
370
    15
100
AcDbLine
 10
-202.525
 20
8.8397435897
 30
0.0
 11
-202.525
 21
9.4679487179
 31
0.0
  0
LINE
  5
13E
330
1F
100
AcDbEntity
  8
0
  6
Continuous
 62
     7
370
    15
100
AcDbLine
 10
-202.525
 20
9.4679487179
 30
0.0
 11
-200.9993589744
 21
9.4679487179
 31
0.0
  0
LINE
  5
13F
330
1F
100
AcDbEntity
  8
0
  6
Continuous
 62
     7
370
    15
100
AcDbLine
 10
-200.9993589744
 20
9.4679487179
 30
0.0
 11
-200.9993589744
 21
10.6794871795
 31
0.0
  0
LINE
  5
140
330
1F
100
AcDbEntity
  8
0
  6
Continuous
 62
     7
370
    15
100
AcDbLine
 10
-200.9993589744
 20
10.6794871795
 30
0.0
 11
-202.525
 21
10.6794871795
 31
0.0
  0
LINE
  5
141
330
1F
100
AcDbEntity
  8
0
  6
Continuous
 62
     7
370
    15
100
AcDbLine
 10
-202.525
 20
7.4935897436
 30
0.0
 11
-202.525
 21
8.1217948718
 31
0.0
  0
LINE
  5
142
330
1F
100
AcDbEntity
  8
0
  6
Continuous
 62
     7
370
    15
100
AcDbLine
 10
-202.525
 20
8.1217948718
 30
0.0
 11
-199.025
 21
8.1217948718
 31
0.0
  0
LINE
  5
143
330
1F
100
AcDbEntity
  8
0
  6
Continuous
 62
     7
370
    15
100
AcDbLine
 10
-199.025
 20
8.1217948718
 30
0.0
 11
-199.025
 21
7.4935897436
 31
0.0
  0
LINE
  5
144
330
1F
100
AcDbEntity
  8
0
  6
Continuous
 62
     7
370
    15
100
AcDbLine
 10
-199.025
 20
7.4935897436
 30
0.0
 11
-202.525
 21
7.4935897436
 31
0.0
  0
SPLINE
  5
145
330
1F
100
AcDbEntity
  8
0
  6
Continuous
 62
     7
370
    15
100
AcDbSpline
210
0.0
220
0.0
230
1.0
 70
     8
 71
     3
 72
    23
 73
    19
 74
     0
 42
0.000000001
 43
0.00000001
 40
0.0
 40
0.0
 40
0.0
 40
0.0
 40
0.0631850733308873
 40
0.1244813817387867
 40
0.1848765920640539
 40
0.244614026184525
 40
0.3045951715262465
 40
0.365487536154838
 40
0.4274211420567791
 40
0.4916102763536955
 40
0.5558599878817856
 40
0.6189776843158546
 40
0.6808798757568005
 40
0.7424235991087913
 40
0.8049530253129344
 40
0.8682265420237931
 40
0.9328742635863608
 40
1.0
 40
1.0
 40
1.0
 40
1.0
 10
-199.8228766025641
 20
6.775641025641029
 30
0.0
 10
-199.7929120562268
 20
6.774880607000919
 30
0.0
 10
-199.7338786811808
 20
6.773382500596502
 30
0.0
 10
-199.6470687597274
 20
6.760058261178232
 30
0.0
 10
-199.5633431598085
 20
6.740053162866501
 30
0.0
 10
-199.4827273694814
 20
6.711300598410378
 30
0.0
 10
-199.4061135296196
 20
6.672750221866266
 30
0.0
 10
-199.3323226624068
 20
6.627161114956747
 30
0.0
 10
-199.2614833488921
 20
6.573592258360985
 30
0.0
 10
-199.1959053720084
 20
6.511415599244999
 30
0.0
 10
-199.1349867747072
 20
6.443965299976681
 30
0.0
 10
-199.0815139712774
 20
6.371722691325535
 30
0.0
 10
-199.0365421862511
 20
6.295442101611537
 30
0.0
 10
-198.9986885547594
 20
6.215663118476442
 30
0.0
 10
-198.9702004154087
 20
6.131360517579208
 30
0.0
 10
-198.949826431912
 20
6.043300448058529
 30
0.0
 10
-198.9377404138133
 20
5.951457537533349
 30
0.0
 10
-198.9360947272165
 20
5.888991721009739
 30
0.0
 10
-198.9352564102564
 20
5.857171474358978
 30
0.0
  0
SPLINE
  5
146
330
1F
100
AcDbEntity
  8
0
  6
Continuous
 62
     7
370
    15
100
AcDbSpline
210
0.0
220
0.0
230
1.0
 70
     8
 71
     3
 72
    19
 73
    15
 74
     0
 42
0.000000001
 43
0.00000001
 40
0.0
 40
0.0
 40
0.0
 40
0.0
 40
0.106905626835876
 40
0.2129673781103935
 40
0.3197629383150263
 40
0.4290888891507276
 40
0.4858617937680995
 40
0.5465610693704713
 40
0.6114310937038766
 40
0.6798175678418429
 40
0.7535942034993746
 40
0.8307601400324623
 40
0.913136806468793
 40
1.0
 40
1.0
 40
1.0
 40
1.0
 10
-198.9352564102564
 20
5.857171474358978
 30
0.0
 10
-198.9367690516531
 20
5.815935640421452
 30
0.0
 10
-198.9397823941853
 20
5.733789473771566
 30
0.0
 10
-198.9632217124879
 20
5.612297469390904
 30
0.0
 10
-199.0004744303464
 20
5.493573070223981
 30
0.0
 10
-199.0443470338896
 20
5.397598960604064
 30
0.0
 10
-199.0882230654951
 20
5.321908722249161
 30
0.0
 10
-199.1277352526257
 20
5.263704591528009
 30
0.0
 10
-199.1732826554351
 20
5.204363275594051
 30
0.0
 10
-199.2250468086103
 20
5.143578955133712
 30
0.0
 10
-199.2826820022642
 20
5.081660529729486
 30
0.0
 10
-199.3473602609268
 20
5.01912900049556
 30
0.0
 10
-199.4169733265275
 20
4.954461090063471
 30
0.0
 10
-199.4669813647247
 20
4.912541220833202
 30
0.0
 10
-199.4926482371795
 20
4.891025641025644
 30
0.0
  0
LINE
  5
147
330
1F
100
AcDbEntity
  8
0
  6
Continuous
 62
     7
370
    15
100
AcDbLine
 10
-199.4926482372
 20
4.891025641
 30
0.0
 11
-199.9224358974
 21
5.3607772436
 31
0.0
  0
SPLINE
  5
148
330
1F
100
AcDbEntity
  8
0
  6
Continuous
 62
     7
370
    15
100
AcDbSpline
210
0.0
220
0.0
230
1.0
 70
     8
 71
     3
 72
    15
 73
    11
 74
     0
 42
0.000000001
 43
0.00000001
 40
0.0
 40
0.0
 40
0.0
 40
0.0
 40
0.1624324631371248
 40
0.3118476774343846
 40
0.4484663286049487
 40
0.5742746092459083
 40
0.689053876641704
 40
0.7975577503587314
 40
0.9002855807634335
 40
1.0
 40
1.0
 40
1.0
 40
1.0
 10
-199.9224358974359
 20
5.360777243589748
 30
0.0
 10
-199.8940464500233
 20
5.38089551598952
 30
0.0
 10
-199.8395426700011
 20
5.419519793431922
 30
0.0
 10
-199.7666404949393
 20
5.482188649446971
 30
0.0
 10
-199.7040415309176
 20
5.544483103658511
 30
0.0
 10
-199.6535355548822
 20
5.607676829204191
 30
0.0
 10
-199.6128766528061
 20
5.670681829219316
 30
0.0
 10
-199.5848325686792
 20
5.734836677929024
 30
0.0
 10
-199.5667972502711
 20
5.799403318367322
 30
0.0
 10
-199.5645623533701
 20
5.842804916086632
 30
0.0
 10
-199.5634615384615
 20
5.864182692307696
 30
0.0
  0
SPLINE
  5
149
330
1F
100
AcDbEntity
  8
0
  6
Continuous
 62
     7
370
    15
100
AcDbSpline
210
0.0
220
0.0
230
1.0
 70
     8
 71
     3
 72
    15
 73
    11
 74
     0
 42
0.000000001
 43
0.00000001
 40
0.0
 40
0.0
 40
0.0
 40
0.0
 40
0.1481262583591591
 40
0.2859928874897044
 40
0.4166343935606151
 40
0.5473799458012891
 40
0.6715828376102265
 40
0.7844007386960447
 40
0.8932655763009936
 40
0.9999999999999999
 40
0.9999999999999999
 40
0.9999999999999999
 40
0.9999999999999999
 10
-199.5634615384615
 20
5.864182692307696
 30
0.0
 10
-199.5641607943637
 20
5.88412159489824
 30
0.0
 10
-199.5655108737943
 20
5.922618377227131
 30
0.0
 10
-199.5789305627089
 20
5.977498396430325
 30
0.0
 10
-199.6020909750461
 20
6.026221659051094
 30
0.0
 10
-199.6323751625818
 20
6.068740613336276
 30
0.0
 10
-199.668860587576
 20
6.102421898287953
 30
0.0
 10
-199.7071244171994
 20
6.129313792410495
 30
0.0
 10
-199.7493590315259
 20
6.144456188506716
 30
0.0
 10
-199.7783674683671
 20
6.14644922576569
 30
0.0
 10
-199.7927283653846
 20
6.147435897435901
 30
0.0
  0
SPLINE
  5
14A
330
1F
100
AcDbEntity
  8
0
  6
Continuous
 62
     7
370
    15
100
AcDbSpline
210
0.0
220
0.0
230
1.0
 70
     8
 71
     3
 72
    11
 73
     7
 74
     0
 42
0.000000001
 43
0.00000001
 40
0.0
 40
0.0
 40
0.0
 40
0.0
 40
0.2418813747502617
 40
0.4871154746783676
 40
0.7378378396464641
 40
1.0
 40
1.0
 40
1.0
 40
1.0
 10
-199.7927283653846
 20
6.147435897435901
 30
0.0
 10
-199.8072963529325
 20
6.14681760031609
 30
0.0
 10
-199.836634255352
 20
6.145572435841063
 30
0.0
 10
-199.879632605082
 20
6.133545841980741
 30
0.0
 10
-199.9216469981542
 20
6.11541833100047
 30
0.0
 10
-199.947223158434
 20
6.098096754173882
 30
0.0
 10
-199.960296474359
 20
6.089242788461542
 30
0.0
  0
SPLINE
  5
14B
330
1F
100
AcDbEntity
  8
0
  6
Continuous
 62
     7
370
    15
100
AcDbSpline
210
0.0
220
0.0
230
1.0
 70
     8
 71
     3
 72
    15
 73
    11
 74
     0
 42
0.000000001
 43
0.00000001
 40
0.0
 40
0.0
 40
0.0
 40
0.0
 40
0.0592335520959269
 40
0.1363478141758868
 40
0.2338026976314758
 40
0.3486397474973473
 40
0.4831847084375118
 40
0.6359707705102414
 40
0.8092454078372138
 40
1.0
 40
1.0
 40
1.0
 40
1.0
 10
-199.960296474359
 20
6.089242788461542
 30
0.0
 10
-199.9704570032536
 20
6.08119239878822
 30
0.0
 10
-199.9938451989067
 20
6.062661464944444
 30
0.0
 10
-200.0309214162436
 20
6.027359373337775
 30
0.0
 10
-200.0760365210781
 20
5.982964442865758
 30
0.0
 10
-200.1289433918839
 20
5.928564908754099
 30
0.0
 10
-200.188952729664
 20
5.864227511789739
 30
0.0
 10
-200.2564155473212
 20
5.789382848677358
 30
0.0
 10
-200.3317552880865
 20
5.705088352510682
 30
0.0
 10
-200.3842901630255
 20
5.645242156700661
 30
0.0
 10
-200.4118189102564
 20
5.613882211538466
 30
0.0
  0
SPLINE
  5
14C
330
1F
100
AcDbEntity
  8
0
  6
Continuous
 62
     7
370
    15
100
AcDbSpline
210
0.0
220
0.0
230
1.0
 70
     8
 71
     3
 72
    15
 73
    11
 74
     0
 42
0.000000001
 43
0.00000001
 40
0.0
 40
0.0
 40
0.0
 40
0.0
 40
0.1929527021649436
 40
0.3661841413840755
 40
0.5204572982944604
 40
0.6550121351900234
 40
0.7706242255759984
 40
0.8656771846793859
 40
0.9426745273198764
 40
1.0
 40
1.0
 40
1.0
 40
1.0
 10
-200.4118189102564
 20
5.613882211538466
 30
0.0
 10
-200.4372991736871
 20
5.584440561070437
 30
0.0
 10
-200.4856554199687
 20
5.528566425198789
 30
0.0
 10
-200.5542893474992
 20
5.449068625441917
 30
0.0
 10
-200.6160376185815
 20
5.379203299679137
 30
0.0
 10
-200.6699735237953
 20
5.317952669547849
 30
0.0
 10
-200.7166629742723
 20
5.26624523485437
 30
0.0
 10
-200.756329145045
 20
5.223863617372512
 30
0.0
 10
-200.7881998087192
 20
5.190290197496325
 30
0.0
 10
-200.8074497089666
 20
5.171205674062899
 30
0.0
 10
-200.8156650641025
 20
5.1630608974359
 30
0.0
  0
SPLINE
  5
14D
330
1F
100
AcDbEntity
  8
0
  6
Continuous
 62
     7
370
    15
100
AcDbSpline
210
0.0
220
0.0
230
1.0
 70
     8
 71
     3
 72
    15
 73
    11
 74
     0
 42
0.000000001
 43
0.00000001
 40
0.0
 40
0.0
 40
0.0
 40
0.0
 40
0.1508106400420943
 40
0.2899110125011785
 40
0.417497920214206
 40
0.5355968697862722
 40
0.6488033921814548
 40
0.7624408366570415
 40
0.8798445936604016
 40
1.0
 40
1.0
 40
1.0
 40
1.0
 10
-200.8156650641025
 20
5.1630608974359
 30
0.0
 10
-200.8490930361704
 20
5.132143695971216
 30
0.0
 10
-200.9133533378663
 20
5.07270997711804
 30
0.0
 10
-201.0132312903341
 20
4.995665602870409
 30
0.0
 10
-201.110064048481
 20
4.931291127400204
 30
0.0
 10
-201.2068269163072
 20
4.882011088262136
 30
0.0
 10
-201.3046821563127
 20
4.84593891784372
 30
0.0
 10
-201.4053147471509
 20
4.819518838424639
 30
0.0
 10
-201.510451937267
 20
4.803917666400626
 30
0.0
 10
-201.5821734084868
 20
4.80216734763945
 30
0.0
 10
-201.6184495192308
 20
4.801282051282056
 30
0.0
  0
SPLINE
  5
14E
330
1F
100
AcDbEntity
  8
0
  6
Continuous
 62
     7
370
    15
100
AcDbSpline
210
0.0
220
0.0
230
1.0
 70
     8
 71
     3
 72
    23
 73
    19
 74
     0
 42
0.000000001
 43
0.00000001
 40
0.0
 40
0.0
 40
0.0
 40
0.0
 40
0.0651926320498854
 40
0.1279103704827421
 40
0.1890230091324154
 40
0.2485122701035398
 40
0.3075682367646647
 40
0.3669776705042328
 40
0.4269483183881602
 40
0.488299545625459
 40
0.5500664619412363
 40
0.6113493988790688
 40
0.6721904041098479
 40
0.7340476449920043
 40
0.7969446514064067
 40
0.8622670428671887
 40
0.9296343634100243
 40
1.0
 40
1.0
 40
1.0
 40
1.0
 10
-201.6184495192308
 20
4.801282051282055
 30
0.0
 10
-201.6537976644275
 20
4.801908983522748
 30
0.0
 10
-201.723152040924
 20
4.803139047912746
 30
0.0
 10
-201.8246465465958
 20
4.81818866570812
 30
0.0
 10
-201.9217631895503
 20
4.839679207567797
 30
0.0
 10
-202.013529002634
 20
4.872793618356876
 30
0.0
 10
-202.1010316850406
 20
4.913493770597461
 30
0.0
 10
-202.1842999199106
 20
4.963097688452633
 30
0.0
 10
-202.2613925222526
 20
5.023742498080218
 30
0.0
 10
-202.3343789010965
 20
5.091104708770897
 30
0.0
 10
-202.399923183818
 20
5.166765771653373
 30
0.0
 10
-202.457592780086
 20
5.248174592810175
 30
0.0
 10
-202.5066678249449
 20
5.335179156382409
 30
0.0
 10
-202.5455349281113
 20
5.428104062762639
 30
0.0
 10
-202.5767455133086
 20
5.526380492583853
 30
0.0
 10
-202.5989234419355
 20
5.630132684368385
 30
0.0
 10
-202.6126281760405
 20
5.739481975345564
 30
0.0
 10
-202.6140282921089
 20
5.814128081298898
 30
0.0
 10
-202.6147435897436
 20
5.852263621794875
 30
0.0
  0
SPLINE
  5
14F
330
1F
100
AcDbEntity
  8
0
  6
Continuous
 62
     7
370
    15
100
AcDbSpline
210
0.0
220
0.0
230
1.0
 70
     8
 71
     3
 72
    23
 73
    19
 74
     0
 42
0.000000001
 43
0.00000001
 40
0.0
 40
0.0
 40
0.0
 40
0.0
 40
0.0635598333685086
 40
0.1258849216775665
 40
0.1862647235539335
 40
0.2450088423677243
 40
0.3033975511110019
 40
0.3608184535539173
 40
0.418084709760479
 40
0.4755399215065912
 40
0.5338146103142003
 40
0.5936781609403999
 40
0.6550954958623866
 40
0.7187347294284487
 40
0.784946351299101
 40
0.8535030681304824
 40
0.9251726191950425
 40
1.0
 40
1.0
 40
1.0
 40
1.0
 10
-202.6147435897436
 20
5.852263621794875
 30
0.0
 10
-202.6142127113608
 20
5.882197950991435
 30
0.0
 10
-202.6131612677037
 20
5.941485090158899
 30
0.0
 10
-202.604571732437
 20
6.028864127215532
 30
0.0
 10
-202.590722468221
 20
6.113243226975426
 30
0.0
 10
-202.5708257804176
 20
6.194505211136264
 30
0.0
 10
-202.5458445278812
 20
6.272890841562424
 30
0.0
 10
-202.5147568573684
 20
6.348327258931159
 30
0.0
 10
-202.4781663037342
 20
6.420734584697907
 30
0.0
 10
-202.4360520543985
 20
6.490579052029463
 30
0.0
 10
-202.3871794999781
 20
6.557379243692799
 30
0.0
 10
-202.332564865237
 20
6.622033231860664
 30
0.0
 10
-202.2710242660129
 20
6.683733451329912
 30
0.0
 10
-202.2037579145117
 20
6.743745374407341
 30
0.0
 10
-202.1290419391079
 20
6.799947080784059
 30
0.0
 10
-202.0490316369113
 20
6.85522024568901
 30
0.0
 10
-201.9618408881525
 20
6.906889366617761
 30
0.0
 10
-201.9006871127539
 20
6.938819170231898
 30
0.0
 10
-201.8694511217949
 20
6.955128205128208
 30
0.0
  0
LINE
  5
150
330
1F
100
AcDbEntity
  8
0
  6
Continuous
 62
     7
370
    15
100
AcDbLine
 10
-201.8694511218
 20
6.9551282051
 30
0.0
 11
-201.5378205128
 21
6.4026442308
 31
0.0
  0
SPLINE
  5
151
330
1F
100
AcDbEntity
  8
0
  6
Continuous
 62
     7
370
    15
100
AcDbSpline
210
0.0
220
0.0
230
1.0
 70
     8
 71
     3
 72
    15
 73
    11
 74
     0
 42
0.000000001
 43
0.00000001
 40
0.0
 40
0.0
 40
0.0
 40
0.0
 40
0.1604579205559314
 40
0.3076115473748541
 40
0.4421388877557694
 40
0.5662291941703402
 40
0.6812222080152069
 40
0.7895580052436324
 40
0.8950288924051358
 40
1.0
 40
1.0
 40
1.0
 40
1.0
 10
-201.5378205128205
 20
6.402644230769234
 30
0.0
 10
-201.573278526615
 20
6.382245420135824
 30
0.0
 10
-201.6412545695077
 20
6.343139156750322
 30
0.0
 10
-201.7325889985393
 20
6.276869937513021
 30
0.0
 10
-201.8108018183895
 20
6.208980505548218
 30
0.0
 10
-201.8745106124505
 20
6.137901318017299
 30
0.0
 10
-201.924567249188
 20
6.064496671244308
 30
0.0
 10
-201.9603411944947
 20
5.988412003728254
 30
0.0
 10
-201.982485226171
 20
5.909593859846534
 30
0.0
 10
-201.9851895238986
 20
5.855906520896895
 30
0.0
 10
-201.9865384615384
 20
5.829126602564106
 30
0.0
  0
SPLINE
  5
152
330
1F
100
AcDbEntity
  8
0
  6
Continuous
 62
     7
370
    15
100
AcDbSpline
210
0.0
220
0.0
230
1.0
 70
     8
 71
     3
 72
    15
 73
    11
 74
     0
 42
0.000000001
 43
0.00000001
 40
0.0
 40
0.0
 40
0.0
 40
0.0
 40
0.1419220537039422
 40
0.2753494539307124
 40
0.4052739146043868
 40
0.5362988456774458
 40
0.6622398855707439
 40
0.7779667146108881
 40
0.888329980255453
 40
1.0
 40
1.0
 40
1.0
 40
1.0
 10
-201.9865384615384
 20
5.829126602564106
 30
0.0
 10
-201.9854473139727
 20
5.801882575333742
 30
0.0
 10
-201.9833303287789
 20
5.749025194645027
 30
0.0
 10
-201.9633904738337
 20
5.67345384325591
 30
0.0
 10
-201.9327854267492
 20
5.603863509282442
 30
0.0
 10
-201.8882750918903
 20
5.544033494593906
 30
0.0
 10
-201.8375203631637
 20
5.493226310566503
 30
0.0
 10
-201.7802770215346
 20
5.456802781181163
 30
0.0
 10
-201.7190845984471
 20
5.4331761102788
 30
0.0
 10
-201.6763838714396
 20
5.430721638265381
 30
0.0
 10
-201.6549078525641
 20
5.429487179487183
 30
0.0
  0
SPLINE
  5
153
330
1F
100
AcDbEntity
  8
0
  6
Continuous
 62
     7
370
    15
100
AcDbSpline
210
0.0
220
0.0
230
1.0
 70
     8
 71
     3
 72
    19
 73
    15
 74
     0
 42
0.000000001
 43
0.00000001
 40
0.0
 40
0.0
 40
0.0
 40
0.0
 40
0.076338088859656
 40
0.1550735193420061
 40
0.2383249699275625
 40
0.3278912127025925
 40
0.3788652448457345
 40
0.4396801623837741
 40
0.5098861007471448
 40
0.5889205115746331
 40
0.677472340734111
 40
0.7755717604100194
 40
0.882648965277095
 40
0.9999999999999999
 40
0.9999999999999999
 40
0.9999999999999999
 40
0.9999999999999999
 10
-201.6549078525641
 20
5.429487179487183
 30
0.0
 10
-201.6349379396039
 20
5.430642668206543
 30
0.0
 10
-201.5943709732316
 20
5.432989932919973
 30
0.0
 10
-201.5340194009532
 20
5.450185066720954
 30
0.0
 10
-201.4739604711648
 20
5.477291876920043
 30
0.0
 10
-201.4241771400554
 20
5.508400125783513
 30
0.0
 10
-201.3826806633828
 20
5.540832150529736
 30
0.0
 10
-201.3472664756478
 20
5.57262174765702
 30
0.0
 10
-201.307321372592
 20
5.610297918606574
 30
0.0
 10
-201.2639346138812
 20
5.654820673160732
 30
0.0
 10
-201.2162720101286
 20
5.705324050616404
 30
0.0
 10
-201.1644468832404
 20
5.761973388981198
 30
0.0
 10
-201.1088816846675
 20
5.825378748549153
 30
0.0
 10
-201.0710327663451
 20
5.870195582701678
 30
0.0
 10
-201.0512419871795
 20
5.893629807692312
 30
0.0
  0
SPLINE
  5
154
330
1F
100
AcDbEntity
  8
0
  6
Continuous
 62
     7
370
    15
100
AcDbSpline
210
0.0
220
0.0
230
1.0
 70
     8
 71
     3
 72
    19
 73
    15
 74
     0
 42
0.000000001
 43
0.00000001
 40
0.0
 40
0.0
 40
0.0
 40
0.0
 40
0.1121348941902074
 40
0.2152208026729074
 40
0.3099309564683273
 40
0.3959955155602497
 40
0.4731794010514888
 40
0.5418785527950055
 40
0.6022671121470826
 40
0.65447491341397
 40
0.747780859025051
 40
0.8352632661870466
 40
0.918917785686365
 40
1.0
 40
1.0
 40
1.0
 40
1.0
 10
-201.0512419871795
 20
5.893629807692312
 30
0.0
 10
-201.0135478381519
 20
5.938177496594791
 30
0.0
 10
-200.9412013569929
 20
6.023677995186709
 30
0.0
 10
-200.8343694622013
 20
6.144523215319574
 30
0.0
 10
-200.7344494229803
 20
6.253337682990758
 30
0.0
 10
-200.6406483185143
 20
6.349404770307549
 30
0.0
 10
-200.5535448457638
 20
6.432980662529541
 30
0.0
 10
-200.4739687703258
 20
6.505077630406855
 30
0.0
 10
-200.400305705217
 20
6.564125767486149
 30
0.0
 10
-200.3129095216285
 20
6.62620013105093
 30
0.0
 10
-200.2069708429885
 20
6.686126958849998
 30
0.0
 10
-200.078835233416
 20
6.73695607938517
 30
0.0
 10
-199.9509890234571
 20
6.77011802108442
 30
0.0
 10
-199.8651338770592
 20
6.773819288779298
 30
0.0
 10
-199.8228766025641
 20
6.77564102564103
 30
0.0
  0
SPLINE
  5
155
330
1F
100
AcDbEntity
  8
0
  6
Continuous
 62
     7
370
    15
100
AcDbSpline
210
0.0
220
0.0
230
1.0
 70
     8
 71
     3
 72
    23
 73
    19
 74
     0
 42
0.000000001
 43
0.00000001
 40
0.0
 40
0.0
 40
0.0
 40
0.0
 40
0.0631850733308873
 40
0.1244813817387866
 40
0.1848765920640538
 40
0.2446140261845249
 40
0.3045951715262464
 40
0.3654875361548378
 40
0.4274211420567791
 40
0.4916102763536953
 40
0.5558599878817855
 40
0.6189776843158545
 40
0.6808798757568002
 40
0.7424235991087913
 40
0.8049530253129344
 40
0.8682265420237935
 40
0.9328742635863608
 40
1.0
 40
1.0
 40
1.0
 40
1.0
 10
-199.8228766025641
 20
2.916666666666665
 30
0.0
 10
-199.7929120562267
 20
2.915906248026556
 30
0.0
 10
-199.7338786811808
 20
2.914408141622136
 30
0.0
 10
-199.6470687597274
 20
2.90108390220387
 30
0.0
 10
-199.5633431598084
 20
2.881078803892136
 30
0.0
 10
-199.4827273694814
 20
2.852326239436015
 30
0.0
 10
-199.4061135296196
 20
2.813775862891902
 30
0.0
 10
-199.3323226624068
 20
2.768186755982384
 30
0.0
 10
-199.2614833488921
 20
2.714617899386621
 30
0.0
 10
-199.1959053720084
 20
2.652441240270635
 30
0.0
 10
-199.1349867747072
 20
2.584990941002317
 30
0.0
 10
-199.0815139712774
 20
2.512748332351173
 30
0.0
 10
-199.0365421862511
 20
2.43646774263717
 30
0.0
 10
-198.9986885547593
 20
2.356688759502078
 30
0.0
 10
-198.9702004154087
 20
2.272386158604844
 30
0.0
 10
-198.949826431912
 20
2.184326089084165
 30
0.0
 10
-198.9377404138133
 20
2.092483178558984
 30
0.0
 10
-198.9360947272165
 20
2.030017362035374
 30
0.0
 10
-198.9352564102564
 20
1.998197115384613
 30
0.0
  0
SPLINE
  5
156
330
1F
100
AcDbEntity
  8
0
  6
Continuous
 62
     7
370
    15
100
AcDbSpline
210
0.0
220
0.0
230
1.0
 70
     8
 71
     3
 72
    19
 73
    15
 74
     0
 42
0.000000001
 43
0.00000001
 40
0.0
 40
0.0
 40
0.0
 40
0.0
 40
0.1069056268358758
 40
0.2129673781103931
 40
0.3197629383150266
 40
0.4290888891507278
 40
0.4858617937680995
 40
0.5465610693704713
 40
0.6114310937038764
 40
0.6798175678418426
 40
0.7535942034993746
 40
0.8307601400324623
 40
0.913136806468793
 40
1.0
 40
1.0
 40
1.0
 40
1.0
 10
-198.9352564102564
 20
1.998197115384613
 30
0.0
 10
-198.9367690516531
 20
1.956961281447088
 30
0.0
 10
-198.9397823941853
 20
1.874815114797202
 30
0.0
 10
-198.9632217124877
 20
1.753323110416537
 30
0.0
 10
-199.0004744303463
 20
1.634598711249615
 30
0.0
 10
-199.0443470338897
 20
1.538624601629702
 30
0.0
 10
-199.0882230654949
 20
1.462934363274794
 30
0.0
 10
-199.1277352526257
 20
1.404730232553645
 30
0.0
 10
-199.1732826554351
 20
1.345388916619688
 30
0.0
 10
-199.2250468086103
 20
1.284604596159347
 30
0.0
 10
-199.2826820022643
 20
1.222686170755123
 30
0.0
 10
-199.3473602609268
 20
1.160154641521195
 30
0.0
 10
-199.4169733265275
 20
1.095486731089106
 30
0.0
 10
-199.4669813647247
 20
1.053566861858839
 30
0.0
 10
-199.4926482371794
 20
1.03205128205128
 30
0.0
  0
LINE
  5
157
330
1F
100
AcDbEntity
  8
0
  6
Continuous
 62
     7
370
    15
100
AcDbLine
 10
-199.4926482372
 20
1.0320512821
 30
0.0
 11
-199.9224358974
 21
1.5018028846
 31
0.0
  0
SPLINE
  5
158
330
1F
100
AcDbEntity
  8
0
  6
Continuous
 62
     7
370
    15
100
AcDbSpline
210
0.0
220
0.0
230
1.0
 70
     8
 71
     3
 72
    15
 73
    11
 74
     0
 42
0.000000001
 43
0.00000001
 40
0.0
 40
0.0
 40
0.0
 40
0.0
 40
0.1624324631371251
 40
0.3118476774343847
 40
0.4484663286049484
 40
0.5742746092459081
 40
0.6890538766417044
 40
0.7975577503587322
 40
0.9002855807634343
 40
1.0
 40
1.0
 40
1.0
 40
1.0
 10
-199.9224358974359
 20
1.501802884615383
 30
0.0
 10
-199.8940464500232
 20
1.521921157015155
 30
0.0
 10
-199.8395426700011
 20
1.560545434457556
 30
0.0
 10
-199.7666404949392
 20
1.623214290472608
 30
0.0
 10
-199.7040415309175
 20
1.685508744684144
 30
0.0
 10
-199.6535355548822
 20
1.748702470229829
 30
0.0
 10
-199.6128766528061
 20
1.811707470244952
 30
0.0
 10
-199.5848325686792
 20
1.875862318954657
 30
0.0
 10
-199.5667972502711
 20
1.940428959392959
 30
0.0
 10
-199.5645623533701
 20
1.983830557112267
 30
0.0
 10
-199.5634615384615
 20
2.005208333333332
 30
0.0
  0
SPLINE
  5
159
330
1F
100
AcDbEntity
  8
0
  6
Continuous
 62
     7
370
    15
100
AcDbSpline
210
0.0
220
0.0
230
1.0
 70
     8
 71
     3
 72
    15
 73
    11
 74
     0
 42
0.000000001
 43
0.00000001
 40
0.0
 40
0.0
 40
0.0
 40
0.0
 40
0.1481262583591589
 40
0.285992887489703
 40
0.4166343935606127
 40
0.5473799458012856
 40
0.671582837610222
 40
0.7844007386959819
 40
0.8932655763009947
 40
1.0
 40
1.0
 40
1.0
 40
1.0
 10
-199.5634615384615
 20
2.005208333333332
 30
0.0
 10
-199.5641607943637
 20
2.025147235923875
 30
0.0
 10
-199.5655108737943
 20
2.063644018252766
 30
0.0
 10
-199.5789305627088
 20
2.11852403745596
 30
0.0
 10
-199.6020909750461
 20
2.167247300076729
 30
0.0
 10
-199.6323751625818
 20
2.209766254361914
 30
0.0
 10
-199.6688605875759
 20
2.243447539313575
 30
0.0
 10
-199.7071244171993
 20
2.270339433436146
 30
0.0
 10
-199.749359031526
 20
2.285481829532347
 30
0.0
 10
-199.778367468367
 20
2.287474866791324
 30
0.0
 10
-199.7927283653846
 20
2.288461538461537
 30
0.0
  0
SPLINE
  5
15A
330
1F
100
AcDbEntity
  8
0
  6
Continuous
 62
     7
370
    15
100
AcDbSpline
210
0.0
220
0.0
230
1.0
 70
     8
 71
     3
 72
    11
 73
     7
 74
     0
 42
0.000000001
 43
0.00000001
 40
0.0
 40
0.0
 40
0.0
 40
0.0
 40
0.2418813747502615
 40
0.4871154746783667
 40
0.7378378396464641
 40
1.0
 40
1.0
 40
1.0
 40
1.0
 10
-199.7927283653846
 20
2.288461538461537
 30
0.0
 10
-199.8072963529325
 20
2.287843241341725
 30
0.0
 10
-199.836634255352
 20
2.286598076866699
 30
0.0
 10
-199.879632605082
 20
2.274571483006376
 30
0.0
 10
-199.9216469981541
 20
2.256443972026106
 30
0.0
 10
-199.947223158434
 20
2.239122395199518
 30
0.0
 10
-199.9602964743589
 20
2.230268429487177
 30
0.0
  0
SPLINE
  5
15B
330
1F
100
AcDbEntity
  8
0
  6
Continuous
 62
     7
370
    15
100
AcDbSpline
210
0.0
220
0.0
230
1.0
 70
     8
 71
     3
 72
    15
 73
    11
 74
     0
 42
0.000000001
 43
0.00000001
 40
0.0
 40
0.0
 40
0.0
 40
0.0
 40
0.0592335520959269
 40
0.1363478141758867
 40
0.2338026976314762
 40
0.3486397474973471
 40
0.4831847084375116
 40
0.6359707705102406
 40
0.8092454078372132
 40
0.9999999999999999
 40
0.9999999999999999
 40
0.9999999999999999
 40
0.9999999999999999
 10
-199.9602964743589
 20
2.230268429487177
 30
0.0
 10
-199.9704570032536
 20
2.222218039813856
 30
0.0
 10
-199.9938451989066
 20
2.20368710597008
 30
0.0
 10
-200.0309214162437
 20
2.168385014363411
 30
0.0
 10
-200.076036521078
 20
2.123990083891396
 30
0.0
 10
-200.1289433918837
 20
2.069590549779732
 30
0.0
 10
-200.1889527296641
 20
2.005253152815377
 30
0.0
 10
-200.2564155473211
 20
1.930408489702992
 30
0.0
 10
-200.3317552880866
 20
1.84611399353632
 30
0.0
 10
-200.3842901630254
 20
1.786267797726296
 30
0.0
 10
-200.4118189102564
 20
1.754907852564101
 30
0.0
  0
SPLINE
  5
15C
330
1F
100
AcDbEntity
  8
0
  6
Continuous
 62
     7
370
    15
100
AcDbSpline
210
0.0
220
0.0
230
1.0
 70
     8
 71
     3
 72
    15
 73
    11
 74
     0
 42
0.000000001
 43
0.00000001
 40
0.0
 40
0.0
 40
0.0
 40
0.0
 40
0.1929527021649435
 40
0.366184141384075
 40
0.5204572982944603
 40
0.6550121351900234
 40
0.7706242255759985
 40
0.8656771846793858
 40
0.9426745273198769
 40
1.0
 40
1.0
 40
1.0
 40
1.0
 10
-200.4118189102564
 20
1.754907852564101
 30
0.0
 10
-200.437299173687
 20
1.725466202096071
 30
0.0
 10
-200.4856554199686
 20
1.669592066224425
 30
0.0
 10
-200.5542893474993
 20
1.590094266467554
 30
0.0
 10
-200.6160376185814
 20
1.520228940704773
 30
0.0
 10
-200.6699735237953
 20
1.458978310573485
 30
0.0
 10
-200.7166629742723
 20
1.407270875880007
 30
0.0
 10
-200.756329145045
 20
1.364889258398149
 30
0.0
 10
-200.7881998087192
 20
1.33131583852196
 30
0.0
 10
-200.8074497089665
 20
1.312231315088535
 30
0.0
 10
-200.8156650641025
 20
1.304086538461537
 30
0.0
  0
SPLINE
  5
15D
330
1F
100
AcDbEntity
  8
0
  6
Continuous
 62
     7
370
    15
100
AcDbSpline
210
0.0
220
0.0
230
1.0
 70
     8
 71
     3
 72
    15
 73
    11
 74
     0
 42
0.000000001
 43
0.00000001
 40
0.0
 40
0.0
 40
0.0
 40
0.0
 40
0.1508106400420945
 40
0.2899110125011787
 40
0.4174979202142059
 40
0.5355968697862725
 40
0.6488033921814548
 40
0.7624408366570415
 40
0.8798445936604016
 40
0.9999999999999999
 40
0.9999999999999999
 40
0.9999999999999999
 40
0.9999999999999999
 10
-200.8156650641025
 20
1.304086538461537
 30
0.0
 10
-200.8490930361704
 20
1.273169336996852
 30
0.0
 10
-200.9133533378662
 20
1.213735618143675
 30
0.0
 10
-201.0132312903341
 20
1.136691243896045
 30
0.0
 10
-201.1100640484809
 20
1.072316768425841
 30
0.0
 10
-201.2068269163071
 20
1.023036729287768
 30
0.0
 10
-201.3046821563127
 20
0.9869645588693565
 30
0.0
 10
-201.4053147471508
 20
0.9605444794502739
 30
0.0
 10
-201.510451937267
 20
0.9449433074262611
 30
0.0
 10
-201.5821734084867
 20
0.943192988665084
 30
0.0
 10
-201.6184495192307
 20
0.9423076923076902
 30
0.0
  0
SPLINE
  5
15E
330
1F
100
AcDbEntity
  8
0
  6
Continuous
 62
     7
370
    15
100
AcDbSpline
210
0.0
220
0.0
230
1.0
 70
     8
 71
     3
 72
    23
 73
    19
 74
     0
 42
0.000000001
 43
0.00000001
 40
0.0
 40
0.0
 40
0.0
 40
0.0
 40
0.0651926320498854
 40
0.1279103704827421
 40
0.1890230091324154
 40
0.2485122701035399
 40
0.3075682367646648
 40
0.3669776705042326
 40
0.4269483183881603
 40
0.488299545625459
 40
0.5500664619412364
 40
0.6113493988790688
 40
0.6721904041098479
 40
0.7340476449920043
 40
0.7969446514064065
 40
0.8622670428671886
 40
0.929634363410024
 40
0.9999999999999999
 40
0.9999999999999999
 40
0.9999999999999999
 40
0.9999999999999999
 10
-201.6184495192307
 20
0.9423076923076902
 30
0.0
 10
-201.6537976644274
 20
0.9429346245483847
 30
0.0
 10
-201.7231520409239
 20
0.9441646889383827
 30
0.0
 10
-201.8246465465958
 20
0.9592143067337551
 30
0.0
 10
-201.9217631895502
 20
0.980704848593431
 30
0.0
 10
-202.013529002634
 20
1.013819259382512
 30
0.0
 10
-202.1010316850407
 20
1.054519411623098
 30
0.0
 10
-202.1842999199105
 20
1.104123329478266
 30
0.0
 10
-202.2613925222526
 20
1.164768139105855
 30
0.0
 10
-202.3343789010964
 20
1.232130349796531
 30
0.0
 10
-202.399923183818
 20
1.307791412679009
 30
0.0
 10
-202.457592780086
 20
1.389200233835808
 30
0.0
 10
-202.5066678249449
 20
1.476204797408044
 30
0.0
 10
-202.5455349281112
 20
1.569129703788276
 30
0.0
 10
-202.5767455133085
 20
1.667406133609488
 30
0.0
 10
-202.5989234419355
 20
1.771158325394019
 30
0.0
 10
-202.6126281760405
 20
1.880507616371201
 30
0.0
 10
-202.6140282921088
 20
1.955153722324533
 30
0.0
 10
-202.6147435897435
 20
1.993289262820511
 30
0.0
  0
SPLINE
  5
15F
330
1F
100
AcDbEntity
  8
0
  6
Continuous
 62
     7
370
    15
100
AcDbSpline
210
0.0
220
0.0
230
1.0
 70
     8
 71
     3
 72
    23
 73
    19
 74
     0
 42
0.000000001
 43
0.00000001
 40
0.0
 40
0.0
 40
0.0
 40
0.0
 40
0.0635598333685086
 40
0.1258849216775664
 40
0.1862647235539334
 40
0.2450088423677242
 40
0.3033975511110018
 40
0.3608184535539172
 40
0.4180847097604789
 40
0.4755399215065911
 40
0.5338146103142002
 40
0.5936781609403996
 40
0.6550954958623865
 40
0.7187347294284485
 40
0.7849463512991008
 40
0.8535030681304823
 40
0.9251726191950422
 40
1.0
 40
1.0
 40
1.0
 40
1.0
 10
-202.6147435897435
 20
1.993289262820511
 30
0.0
 10
-202.6142127113608
 20
2.023223592017072
 30
0.0
 10
-202.6131612677036
 20
2.082510731184534
 30
0.0
 10
-202.6045717324371
 20
2.169889768241168
 30
0.0
 10
-202.5907224682209
 20
2.254268868001062
 30
0.0
 10
-202.5708257804175
 20
2.335530852161899
 30
0.0
 10
-202.5458445278812
 20
2.41391648258806
 30
0.0
 10
-202.5147568573683
 20
2.489352899956794
 30
0.0
 10
-202.4781663037342
 20
2.561760225723545
 30
0.0
 10
-202.4360520543984
 20
2.631604693055095
 30
0.0
 10
-202.3871794999781
 20
2.698404884718435
 30
0.0
 10
-202.332564865237
 20
2.7630588728863
 30
0.0
 10
-202.2710242660129
 20
2.824759092355547
 30
0.0
 10
-202.2037579145117
 20
2.884771015432975
 30
0.0
 10
-202.1290419391078
 20
2.940972721809695
 30
0.0
 10
-202.0490316369113
 20
2.996245886714646
 30
0.0
 10
-201.9618408881524
 20
3.047915007643396
 30
0.0
 10
-201.9006871127539
 20
3.079844811257533
 30
0.0
 10
-201.8694511217948
 20
3.096153846153844
 30
0.0
  0
LINE
  5
160
330
1F
100
AcDbEntity
  8
0
  6
Continuous
 62
     7
370
    15
100
AcDbLine
 10
-201.8694511218
 20
3.0961538462
 30
0.0
 11
-201.5378205128
 21
2.5436698718
 31
0.0
  0
SPLINE
  5
161
330
1F
100
AcDbEntity
  8
0
  6
Continuous
 62
     7
370
    15
100
AcDbSpline
210
0.0
220
0.0
230
1.0
 70
     8
 71
     3
 72
    15
 73
    11
 74
     0
 42
0.000000001
 43
0.00000001
 40
0.0
 40
0.0
 40
0.0
 40
0.0
 40
0.1604579205559314
 40
0.3076115473748541
 40
0.4421388877557698
 40
0.5662291941703401
 40
0.6812222080152069
 40
0.7895580052436324
 40
0.8950288924051358
 40
1.0
 40
1.0
 40
1.0
 40
1.0
 10
-201.5378205128204
 20
2.54366987179487
 30
0.0
 10
-201.573278526615
 20
2.523271061161458
 30
0.0
 10
-201.6412545695077
 20
2.484164797775955
 30
0.0
 10
-201.7325889985392
 20
2.417895578538658
 30
0.0
 10
-201.8108018183895
 20
2.350006146573854
 30
0.0
 10
-201.8745106124505
 20
2.278926959042934
 30
0.0
 10
-201.924567249188
 20
2.205522312269946
 30
0.0
 10
-201.9603411944947
 20
2.129437644753889
 30
0.0
 10
-201.982485226171
 20
2.050619500872169
 30
0.0
 10
-201.9851895238986
 20
1.99693216192253
 30
0.0
 10
-201.9865384615384
 20
1.970152243589741
 30
0.0
  0
SPLINE
  5
162
330
1F
100
AcDbEntity
  8
0
  6
Continuous
 62
     7
370
    15
100
AcDbSpline
210
0.0
220
0.0
230
1.0
 70
     8
 71
     3
 72
    15
 73
    11
 74
     0
 42
0.000000001
 43
0.00000001
 40
0.0
 40
0.0
 40
0.0
 40
0.0
 40
0.1419220537039422
 40
0.275349453930712
 40
0.4052739146043871
 40
0.5362988456774452
 40
0.6622398855707438
 40
0.7779667146108882
 40
0.8883299802554527
 40
1.0
 40
1.0
 40
1.0
 40
1.0
 10
-201.9865384615384
 20
1.970152243589741
 30
0.0
 10
-201.9854473139727
 20
1.942908216359379
 30
0.0
 10
-201.9833303287789
 20
1.890050835670662
 30
0.0
 10
-201.9633904738338
 20
1.814479484281546
 30
0.0
 10
-201.9327854267492
 20
1.744889150308078
 30
0.0
 10
-201.8882750918903
 20
1.685059135619542
 30
0.0
 10
-201.8375203631637
 20
1.634251951592138
 30
0.0
 10
-201.7802770215345
 20
1.597828422206799
 30
0.0
 10
-201.719084598447
 20
1.574201751304435
 30
0.0
 10
-201.6763838714397
 20
1.571747279291017
 30
0.0
 10
-201.6549078525641
 20
1.570512820512818
 30
0.0
  0
SPLINE
  5
163
330
1F
100
AcDbEntity
  8
0
  6
Continuous
 62
     7
370
    15
100
AcDbSpline
210
0.0
220
0.0
230
1.0
 70
     8
 71
     3
 72
    19
 73
    15
 74
     0
 42
0.000000001
 43
0.00000001
 40
0.0
 40
0.0
 40
0.0
 40
0.0
 40
0.076338088859656
 40
0.1550735193420063
 40
0.2383249699275625
 40
0.327891212702593
 40
0.3788652448457347
 40
0.4396801623837742
 40
0.5098861007471452
 40
0.5889205115746338
 40
0.6774723407341112
 40
0.7755717604100194
 40
0.8826489652770955
 40
1.0
 40
1.0
 40
1.0
 40
1.0
 10
-201.6549078525641
 20
1.570512820512818
 30
0.0
 10
-201.6349379396038
 20
1.571668309232178
 30
0.0
 10
-201.5943709732317
 20
1.574015573945609
 30
0.0
 10
-201.5340194009532
 20
1.59121070774659
 30
0.0
 10
-201.4739604711649
 20
1.61831751794568
 30
0.0
 10
-201.4241771400554
 20
1.649425766809147
 30
0.0
 10
-201.3826806633827
 20
1.681857791555373
 30
0.0
 10
-201.3472664756478
 20
1.713647388682656
 30
0.0
 10
-201.3073213725919
 20
1.751323559632209
 30
0.0
 10
-201.2639346138812
 20
1.795846314186367
 30
0.0
 10
-201.2162720101286
 20
1.846349691642041
 30
0.0
 10
-201.1644468832404
 20
1.902999030006834
 30
0.0
 10
-201.1088816846675
 20
1.966404389574789
 30
0.0
 10
-201.0710327663451
 20
2.011221223727313
 30
0.0
 10
-201.0512419871795
 20
2.034655448717947
 30
0.0
  0
SPLINE
  5
164
330
1F
100
AcDbEntity
  8
0
  6
Continuous
 62
     7
370
    15
100
AcDbSpline
210
0.0
220
0.0
230
1.0
 70
     8
 71
     3
 72
    19
 73
    15
 74
     0
 42
0.000000001
 43
0.00000001
 40
0.0
 40
0.0
 40
0.0
 40
0.0
 40
0.1121348941902076
 40
0.2152208026729073
 40
0.3099309564683274
 40
0.39599551556025
 40
0.473179401051489
 40
0.5418785527950055
 40
0.6022671121470827
 40
0.65447491341397
 40
0.747780859025051
 40
0.8352632661870467
 40
0.9189177856863651
 40
1.0
 40
1.0
 40
1.0
 40
1.0
 10
-201.0512419871795
 20
2.034655448717947
 30
0.0
 10
-201.0135478381518
 20
2.079203137620426
 30
0.0
 10
-200.9412013569928
 20
2.164703636212342
 30
0.0
 10
-200.8343694622014
 20
2.285548856345213
 30
0.0
 10
-200.7344494229803
 20
2.394363324016394
 30
0.0
 10
-200.6406483185142
 20
2.490430411333187
 30
0.0
 10
-200.5535448457638
 20
2.574006303555177
 30
0.0
 10
-200.4739687703258
 20
2.64610327143249
 30
0.0
 10
-200.4003057052169
 20
2.705151408511784
 30
0.0
 10
-200.3129095216285
 20
2.767225772076565
 30
0.0
 10
-200.2069708429885
 20
2.827152599875635
 30
0.0
 10
-200.078835233416
 20
2.877981720410807
 30
0.0
 10
-199.950989023457
 20
2.911143662110054
 30
0.0
 10
-199.8651338770592
 20
2.914844929804933
 30
0.0
 10
-199.8228766025641
 20
2.916666666666665
 30
0.0
  0
LINE
  5
165
330
1F
100
AcDbEntity
  8
0
  6
Continuous
 62
     7
370
    15
100
AcDbLine
 10
-202.525
 20
-0.2243589744
 30
0.0
 11
-202.525
 21
0.4038461538
 31
0.0
  0
LINE
  5
166
330
1F
100
AcDbEntity
  8
0
  6
Continuous
 62
     7
370
    15
100
AcDbLine
 10
-202.525
 20
0.4038461538
 30
0.0
 11
-199.025
 21
0.4038461538
 31
0.0
  0
LINE
  5
167
330
1F
100
AcDbEntity
  8
0
  6
Continuous
 62
     7
370
    15
100
AcDbLine
 10
-199.025
 20
0.4038461538
 30
0.0
 11
-199.025
 21
-0.2243589744
 31
0.0
  0
LINE
  5
168
330
1F
100
AcDbEntity
  8
0
  6
Continuous
 62
     7
370
    15
100
AcDbLine
 10
-199.025
 20
-0.2243589744
 30
0.0
 11
-202.525
 21
-0.2243589744
 31
0.0
  0
LINE
  5
169
330
1F
100
AcDbEntity
  8
0
  6
Continuous
 62
     7
370
    15
100
AcDbLine
 10
-202.525
 20
-12.0256410256
 30
0.0
 11
-202.525
 21
-11.3974358974
 31
0.0
  0
LINE
  5
16A
330
1F
100
AcDbEntity
  8
0
  6
Continuous
 62
     7
370
    15
100
AcDbLine
 10
-202.525
 20
-11.3974358974
 30
0.0
 11
-199.025
 21
-11.3974358974
 31
0.0
  0
LINE
  5
16B
330
1F
100
AcDbEntity
  8
0
  6
Continuous
 62
     7
370
    15
100
AcDbLine
 10
-199.025
 20
-11.3974358974
 30
0.0
 11
-199.025
 21
-12.0985576923
 31
0.0
  0
SPLINE
  5
16C
330
1F
100
AcDbEntity
  8
0
  6
Continuous
 62
     7
370
    15
100
AcDbSpline
210
0.0
220
0.0
230
1.0
 70
     8
 71
     3
 72
    31
 73
    27
 74
     0
 42
0.000000001
 43
0.00000001
 40
0.0
 40
0.0
 40
0.0
 40
0.0
 40
0.0707811610050439
 40
0.1365516962322776
 40
0.1970124824343236
 40
0.2529226940754277
 40
0.3036865320400965
 40
0.3497191510228075
 40
0.3912404712771962
 40
0.4284785554869214
 40
0.4630565648912373
 40
0.4971503576227097
 40
0.531002333742697
 40
0.5642263769534202
 40
0.5977006695240358
 40
0.6314214209809049
 40
0.6655973468372176
 40
0.7004514363038999
 40
0.7358806839801201
 40
0.7710921079261236
 40
0.8069748450233094
 40
0.8435344028448073
 40
0.8809401955444246
 40
0.9192943843072708
 40
0.9591802403135331
 40
1.0
 40
1.0
 40
1.0
 40
1.0
 10
-199.0249999999999
 20
-12.0985576923077
 30
0.0
 10
-199.0252050570495
 20
-12.14436808083059
 30
0.0
 10
-199.0256006550808
 20
-12.23274592274553
 30
0.0
 10
-199.0303978074296
 20
-12.36019404194693
 30
0.0
 10
-199.0389945966458
 20
-12.47777117209501
 30
0.0
 10
-199.0496188685792
 20
-12.58545030005721
 30
0.0
 10
-199.06451368444
 20
-12.68318715083491
 30
0.0
 10
-199.0815894246017
 20
-12.77110412029577
 30
0.0
 10
-199.1023926459383
 20
-12.84921945330927
 30
0.0
 10
-199.1270857813316
 20
-12.91841401637932
 30
0.0
 10
-199.1561980232031
 20
-12.9805139016601
 30
0.0
 10
-199.1872046388463
 20
-13.03928042220464
 30
0.0
 10
-199.2242099410412
 20
-13.09338544815522
 30
0.0
 10
-199.2632256554648
 20
-13.14555982360549
 30
0.0
 10
-199.3079789383422
 20
-13.19282064954136
 30
0.0
 10
-199.3554913937315
 20
-13.23811633921898
 30
0.0
 10
-199.4076473265537
 20
-13.27952849663234
 30
0.0
 10
-199.463815403283
 20
-13.31724901032729
 30
0.0
 10
-199.5229578780246
 20
-13.35146732854382
 30
0.0
 10
-199.5851804799873
 20
-13.38136274047252
 30
0.0
 10
-199.65058166993
 20
-13.40561222446636
 30
0.0
 10
-199.7187383765081
 20
-13.42595452624954
 30
0.0
 10
-199.7896476293034
 20
-13.44229366121541
 30
0.0
 10
-199.8637455265291
 20
-13.45316950958533
 30
0.0
 10
-199.9405146885153
 20
-13.46055693293303
 30
0.0
 10
-199.9927638285915
 20
-13.46120877103824
 30
0.0
 10
-200.0191907051282
 20
-13.46153846153847
 30
0.0
  0
SPLINE
  5
16D
330
1F
100
AcDbEntity
  8
0
  6
Continuous
 62
     7
370
    15
100
AcDbSpline
210
0.0
220
0.0
230
1.0
 70
     8
 71
     3
 72
    23
 73
    19
 74
     0
 42
0.000000001
 43
0.00000001
 40
0.0
 40
0.0
 40
0.0
 40
0.0
 40
0.0688629457237717
 40
0.1353241505551056
 40
0.1992532055206079
 40
0.2615026895215868
 40
0.3226613719707253
 40
0.3827472969749223
 40
0.4425220969946949
 40
0.5023197171472115
 40
0.5627703590291184
 40
0.6223521071762516
 40
0.6822889949099387
 40
0.7433757536621304
 40
0.8050478443414611
 40
0.8680910255873849
 40
0.9331226909144497
 40
1.0
 40
1.0
 40
1.0
 40
1.0
 10
-200.0191907051282
 20
-13.46153846153847
 30
0.0
 10
-200.0484269764743
 20
-13.46106350863629
 30
0.0
 10
-200.1058798423622
 20
-13.46013016781903
 30
0.0
 10
-200.190084256664
 20
-13.45091128944405
 30
0.0
 10
-200.270420195666
 20
-13.43531807338148
 30
0.0
 10
-200.3472308065646
 20
-13.41444309687356
 30
0.0
 10
-200.4203482257715
 20
-13.38721469513057
 30
0.0
 10
-200.4892914940724
 20
-13.35308804892839
 30
0.0
 10
-200.5549268678678
 20
-13.31405308513283
 30
0.0
 10
-200.616045175934
 20
-13.2679660774876
 30
0.0
 10
-200.6729902485832
 20
-13.21705707571472
 30
0.0
 10
-200.7262600768004
 20
-13.16217597144009
 30
0.0
 10
-200.7740353183538
 20
-13.10207876936942
 30
0.0
 10
-200.8172273142105
 20
-13.03760291586923
 30
0.0
 10
-200.8567359917861
 20
-12.9692820058723
 30
0.0
 10
-200.8920100005415
 20
-12.8968027542925
 30
0.0
 10
-200.9222505692622
 20
-12.81965335233863
 30
0.0
 10
-200.9380589392122
 20
-12.76592297300597
 30
0.0
 10
-200.9460737179487
 20
-12.73868189102565
 30
0.0
  0
SPLINE
  5
16E
330
1F
100
AcDbEntity
  8
0
  6
Continuous
 62
     7
370
    15
100
AcDbSpline
210
0.0
220
0.0
230
1.0
 70
     8
 71
     3
 72
    15
 73
    11
 74
     0
 42
0.000000001
 43
0.00000001
 40
0.0
 40
0.0
 40
0.0
 40
0.0
 40
0.0773727494946817
 40
0.1676142909211519
 40
0.2721083165199
 40
0.390015992275444
 40
0.5213633102089975
 40
0.6672722540317901
 40
0.8268095210701734
 40
1.0
 40
1.0
 40
1.0
 40
1.0
 10
-200.9460737179487
 20
-12.73868189102565
 30
0.0
 10
-200.9505377715506
 20
-12.72073967012064
 30
0.0
 10
-200.9602083491636
 20
-12.68187104189967
 30
0.0
 10
-200.9700264126744
 20
-12.61755413802366
 30
0.0
 10
-200.9790535184006
 20
-12.54343565924128
 30
0.0
 10
-200.9868112229443
 20
-12.45927593206886
 30
0.0
 10
-200.9920846543938
 20
-12.36502643639871
 30
0.0
 10
-200.9962029698275
 20
-12.26077843038502
 30
0.0
 10
-200.9991974104475
 20
-12.14648467048207
 30
0.0
 10
-200.999303666347
 20
-12.06700930947754
 30
0.0
 10
-200.9993589743589
 20
-12.02564102564103
 30
0.0
  0
LINE
  5
16F
330
1F
100
AcDbEntity
  8
0
  6
Continuous
 62
     7
370
    15
100
AcDbLine
 10
-200.9993589744
 20
-12.0256410256
 30
0.0
 11
-202.525
 21
-12.0256410256
 31
0.0
  0
SPLINE
  5
170
330
1F
100
AcDbEntity
  8
0
  6
Continuous
 62
     7
370
    15
100
AcDbSpline
210
0.0
220
0.0
230
1.0
 70
     8
 71
     3
 72
    15
 73
    11
 74
     0
 42
0.000000001
 43
0.00000001
 40
0.0
 40
0.0
 40
0.0
 40
0.0
 40
0.1016634760927296
 40
0.2076361382691187
 40
0.3187445673333768
 40
0.436679941563699
 40
0.5635066463765707
 40
0.6986812076536849
 40
0.8444465558739926
 40
1.0
 40
1.0
 40
1.0
 40
1.0
 10
-199.9336538461538
 20
-2.855669070512823
 30
0.0
 10
-199.9108693757929
 20
-2.829636876347724
 30
0.0
 10
-199.8643346750324
 20
-2.77646906746636
 30
0.0
 10
-199.8085742030008
 20
-2.683123866844571
 30
0.0
 10
-199.7595831628756
 20
-2.580262290273603
 30
0.0
 10
-199.7207387316023
 20
-2.465531173163845
 30
0.0
 10
-199.6900188994207
 20
-2.340039340904944
 30
0.0
 10
-199.6688321823026
 20
-2.203039361546355
 30
0.0
 10
-199.6552178225055
 20
-2.055264899618662
 30
0.0
 10
-199.6538903997218
 20
-1.952890195607295
 30
0.0
 10
-199.6532051282051
 20
-1.900040064102567
 30
0.0
  0
LINE
  5
171
330
1F
100
AcDbEntity
  8
0
  6
Continuous
 62
     7
370
    15
100
AcDbLine
 10
-199.6532051282
 20
-1.9000400641
 30
0.0
 11
-199.6532051282
 21
-1.6602564103
 31
0.0
  0
LINE
  5
172
330
1F
100
AcDbEntity
  8
0
  6
Continuous
 62
     7
370
    15
100
AcDbLine
 10
-199.6532051282
 20
-1.6602564103
 30
0.0
 11
-201.8967948718
 21
-1.6602564103
 31
0.0
  0
LINE
  5
173
330
1F
100
AcDbEntity
  8
0
  6
Continuous
 62
     7
370
    15
100
AcDbLine
 10
-201.8967948718
 20
-1.6602564103
 30
0.0
 11
-201.8967948718
 21
-1.9883814103
 31
0.0
  0
SPLINE
  5
174
330
1F
100
AcDbEntity
  8
0
  6
Continuous
 62
     7
370
    15
100
AcDbSpline
210
0.0
220
0.0
230
1.0
 70
     8
 71
     3
 72
    31
 73
    27
 74
     0
 42
0.000000001
 43
0.00000001
 40
0.0
 40
0.0
 40
0.0
 40
0.0
 40
0.0626160527711083
 40
0.1204315145229131
 40
0.1742033943356913
 40
0.2237296835065532
 40
0.2690344864199702
 40
0.3107719735607389
 40
0.3481230679444138
 40
0.3823866935741441
 40
0.4147624664682367
 40
0.4472054653270653
 40
0.4800553495843259
 40
0.5137501675800162
 40
0.5479747977862263
 40
0.5829308929685342
 40
0.6193289962377851
 40
0.6571382886589195
 40
0.6957021850392734
 40
0.7355302177476033
 40
0.775840606866898
 40
0.8175780940076699
 40
0.8607394591450981
 40
0.905384804708264
 40
0.9519971201562595
 40
1.0
 40
1.0
 40
1.0
 40
1.0
 10
-201.8967948717948
 20
-1.988381410256413
 30
0.0
 10
-201.8967233309847
 20
-2.027423246030017
 30
0.0
 10
-201.8965857341907
 20
-2.102513693349615
 30
0.0
 10
-201.890031880451
 20
-2.210927301728514
 30
0.0
 10
-201.883453618567
 20
-2.311182400319364
 30
0.0
 10
-201.8709678575198
 20
-2.403003010470277
 30
0.0
 10
-201.8570595983304
 20
-2.487057373827643
 30
0.0
 10
-201.8377043512766
 20
-2.56219080364705
 30
0.0
 10
-201.8173733039174
 20
-2.629952126469743
 30
0.0
 10
-201.791489360626
 20
-2.689513650459667
 30
0.0
 10
-201.7623552599602
 20
-2.744067154122079
 30
0.0
 10
-201.7282212828719
 20
-2.794577464883389
 30
0.0
 10
-201.6903167909005
 20
-2.843334065513607
 30
0.0
 10
-201.6475269483417
 20
-2.88942536829921
 30
0.0
 10
-201.600418413745
 20
-2.9330259865692
 30
0.0
 10
-201.548748300301
 20
-2.97387730053652
 30
0.0
 10
-201.4926748712915
 20
-3.012527126645014
 30
0.0
 10
-201.4318992256564
 20
-3.047973392462809
 30
0.0
 10
-201.3670725971274
 20
-3.080394953632108
 30
0.0
 10
-201.2987863287779
 20
-3.10903856081192
 30
0.0
 10
-201.2266681595495
 20
-3.13321900992957
 30
0.0
 10
-201.1507500105475
 20
-3.151581705165186
 30
0.0
 10
-201.0715029874241
 20
-3.167224301892148
 30
0.0
 10
-200.9884175563173
 20
-3.178519456449123
 30
0.0
 10
-200.9017651621737
 20
-3.184673095507599
 30
0.0
 10
-200.8427843865053
 20
-3.185485343218684
 30
0.0
 10
-200.812860576923
 20
-3.185897435897438
 30
0.0
  0
SPLINE
  5
175
330
1F
100
AcDbEntity
  8
0
  6
Continuous
 62
     7
370
    15
100
AcDbSpline
210
0.0
220
0.0
230
1.0
 70
     8
 71
     3
 72
    15
 73
    11
 74
     0
 42
0.000000001
 43
0.00000001
 40
0.0
 40
0.0
 40
0.0
 40
0.0
 40
0.1422766862527687
 40
0.2774285141643341
 40
0.4064771515299085
 40
0.5305950716916219
 40
0.6501429215018463
 40
0.7668506965409287
 40
0.8835020926432433
 40
0.9999999999999999
 40
0.9999999999999999
 40
0.9999999999999999
 40
0.9999999999999999
 10
-200.812860576923
 20
-3.185897435897438
 30
0.0
 10
-200.7670077401603
 20
-3.185060305975938
 30
0.0
 10
-200.6775982612897
 20
-3.183427967492376
 30
0.0
 10
-200.5473714037446
 20
-3.16768604838683
 30
0.0
 10
-200.4247433084782
 20
-3.142061207030595
 30
0.0
 10
-200.3101690812745
 20
-3.105497027328492
 30
0.0
 10
-200.2033267083862
 20
-3.059406745611879
 30
0.0
 10
-200.1051213710694
 20
-3.001714014020586
 30
0.0
 10
-200.0139033548608
 20
-2.934901705603251
 30
0.0
 10
-199.9603919396995
 20
-2.882068354982616
 30
0.0
 10
-199.9336538461538
 20
-2.855669070512823
 30
0.0
  0
LINE
  5
176
330
1F
100
AcDbEntity
  8
0
  6
Continuous
 62
     7
370
    15
100
AcDbLine
 10
-199.6532051282
 20
-12.2233573718
 30
0.0
 11
-199.6532051282
 21
-12.0256410256
 31
0.0
  0
LINE
  5
177
330
1F
100
AcDbEntity
  8
0
  6
Continuous
 62
     7
370
    15
100
AcDbLine
 10
-199.6532051282
 20
-12.0256410256
 30
0.0
 11
-200.3711538462
 21
-12.0256410256
 31
0.0
  0
LINE
  5
178
330
1F
100
AcDbEntity
  8
0
  6
Continuous
 62
     7
370
    15
100
AcDbLine
 10
-200.3711538462
 20
-12.0256410256
 30
0.0
 11
-200.3711538462
 21
-12.2478966346
 31
0.0
  0
SPLINE
  5
179
330
1F
100
AcDbEntity
  8
0
  6
Continuous
 62
     7
370
    15
100
AcDbSpline
210
0.0
220
0.0
230
1.0
 70
     8
 71
     3
 72
    19
 73
    15
 74
     0
 42
0.000000001
 43
0.00000001
 40
0.0
 40
0.0
 40
0.0
 40
0.0
 40
0.1551724566305675
 40
0.2855196254373047
 40
0.3905351838475998
 40
0.4710140952538556
 40
0.5384901716379571
 40
0.6029424696752267
 40
0.6665595245806589
 40
0.730176579486065
 40
0.7949276728574598
 40
0.8602168475102262
 40
0.9281147463098524
 40
1.0
 40
1.0
 40
1.0
 40
1.0
 10
-200.3711538461538
 20
-12.24789663461539
 30
0.0
 10
-200.3708983202214
 20
-12.28834016480991
 30
0.0
 10
-200.3704281487095
 20
-12.36275686119563
 30
0.0
 10
-200.3635944953392
 20
-12.46437527251035
 30
0.0
 10
-200.3532026606482
 20
-12.5460626288757
 30
0.0
 10
-200.3381819612516
 20
-12.6105314139623
 30
0.0
 10
-200.3158011738819
 20
-12.66144066150144
 30
0.0
 10
-200.2888533615406
 20
-12.70486973200254
 30
0.0
 10
-200.2564219184742
 20
-12.74313770946917
 30
0.0
 10
-200.2181869289612
 20
-12.77573020426512
 30
0.0
 10
-200.1746766446997
 20
-12.80185855117462
 30
0.0
 10
-200.1261593169559
 20
-12.81993675600734
 30
0.0
 10
-200.0737377663283
 20
-12.83169060567278
 30
0.0
 10
-200.0372525613431
 20
-12.83277544235304
 30
0.0
 10
-200.0184895833333
 20
-12.83333333333334
 30
0.0
  0
SPLINE
  5
17A
330
1F
100
AcDbEntity
  8
0
  6
Continuous
 62
     7
370
    15
100
AcDbSpline
210
0.0
220
0.0
230
1.0
 70
     8
 71
     3
 72
    15
 73
    11
 74
     0
 42
0.000000001
 43
0.00000001
 40
0.0
 40
0.0
 40
0.0
 40
0.0
 40
0.1377876848510487
 40
0.2673412375379136
 40
0.3904443306691147
 40
0.5117778827581105
 40
0.6295089809480797
 40
0.7478290655177582
 40
0.8718853097298843
 40
0.9999999999999999
 40
0.9999999999999999
 40
0.9999999999999999
 40
0.9999999999999999
 10
-200.0184895833333
 20
-12.83333333333334
 30
0.0
 10
-200.0020968617669
 20
-12.83278095328925
 30
0.0
 10
-199.9702910405506
 20
-12.83170920319246
 30
0.0
 10
-199.9243873514621
 20
-12.82383583513857
 30
0.0
 10
-199.8815956437296
 20
-12.81128795131482
 30
0.0
 10
-199.8423628200857
 20
-12.79310655001416
 30
0.0
 10
-199.8067555433605
 20
-12.76960230327066
 30
0.0
 10
-199.7747878405007
 20
-12.74094587003587
 30
0.0
 10
-199.7457750961332
 20
-12.70750496860461
 30
0.0
 10
-199.7304182073748
 20
-12.68168663754077
 30
0.0
 10
-199.7226161858974
 20
-12.66856971153847
 30
0.0
  0
SPLINE
  5
17B
330
1F
100
AcDbEntity
  8
0
  6
Continuous
 62
     7
370
    15
100
AcDbSpline
210
0.0
220
0.0
230
1.0
 70
     8
 71
     3
 72
    15
 73
    11
 74
     0
 42
0.000000001
 43
0.00000001
 40
0.0
 40
0.0
 40
0.0
 40
0.0
 40
0.0821011604414657
 40
0.1738249811011307
 40
0.2789530937157327
 40
0.3966390953456102
 40
0.5273155915890694
 40
0.6712981430820412
 40
0.8287543799634361
 40
1.0
 40
1.0
 40
1.0
 40
1.0
 10
-199.7226161858974
 20
-12.66856971153847
 30
0.0
 10
-199.7169971390288
 20
-12.65745891805657
 30
0.0
 10
-199.705100465334
 20
-12.63393509139414
 30
0.0
 10
-199.6912697123259
 20
-12.59387173391515
 30
0.0
 10
-199.6796019485696
 20
-12.5476392311728
 30
0.0
 10
-199.6699178173007
 20
-12.49492546165566
 30
0.0
 10
-199.6624019257204
 20
-12.43594071577004
 30
0.0
 10
-199.6566541488658
 20
-12.37069551731917
 30
0.0
 10
-199.6543427439069
 20
-12.29909385190576
 30
0.0
 10
-199.6535947925503
 20
-12.24929917787215
 30
0.0
 10
-199.6532051282051
 20
-12.22335737179488
 30
0.0
  0
LINE
  5
17C
330
1F
100
AcDbEntity
  8
0
  6
Continuous
 62
     7
370
    15
100
AcDbLine
 10
-211.1788461538
 20
2.5661057692
 30
0.0
 11
-211.1788461538
 21
1.5172275641
 31
0.0
  0
LINE
  5
17D
330
1F
100
AcDbEntity
  8
0
  6
Continuous
 62
     7
370
    15
100
AcDbLine
 10
-211.1788461538
 20
1.5172275641
 30
0.0
 11
-209.9638020833
 21
2.0416666667
 31
0.0
  0
LINE
  5
17E
330
1F
100
AcDbEntity
  8
0
  6
Continuous
 62
     7
370
    15
100
AcDbLine
 10
-209.9638020833
 20
2.0416666667
 30
0.0
 11
-211.1788461538
 21
2.5661057692
 31
0.0
  0
SPLINE
  5
17F
330
1F
100
AcDbEntity
  8
0
  6
Continuous
 62
     7
370
    15
100
AcDbSpline
210
0.0
220
0.0
230
1.0
 70
     8
 71
     3
 72
    23
 73
    19
 74
     0
 42
0.000000001
 43
0.00000001
 40
0.0
 40
0.0
 40
0.0
 40
0.0
 40
0.0528194385873513
 40
0.1028780572239285
 40
0.1516783010944802
 40
0.1995514795690401
 40
0.2471912428135634
 40
0.2956844341600605
 40
0.3457341447765486
 40
0.3979806644641345
 40
0.4537563690002459
 40
0.5141051591398762
 40
0.5791477813065459
 40
0.650082930262095
 40
0.727486655371152
 40
0.8114766722624537
 40
0.9024886378385071
 40
1.0
 40
1.0
 40
1.0
 40
1.0
 10
-211.4873397435897
 20
4.666666666666666
 30
0.0
 10
-211.4688494608661
 20
4.667192720834553
 30
0.0
 10
-211.4328353642568
 20
4.668217332837902
 30
0.0
 10
-211.3801978745852
 20
4.676587022234718
 30
0.0
 10
-211.3310536539833
 20
4.691793226807103
 30
0.0
 10
-211.2841632015205
 20
4.710960104245771
 30
0.0
 10
-211.2411425593418
 20
4.737578922978373
 30
0.0
 10
-211.2008748129095
 20
4.769305458189167
 30
0.0
 10
-211.1636323286623
 20
4.806858930258449
 30
0.0
 10
-211.1287794230854
 20
4.849964956261406
 30
0.0
 10
-211.0977268684184
 20
4.900256434308223
 30
0.0
 10
-211.0714090480677
 20
4.958080150974996
 30
0.0
 10
-211.0488768803246
 20
5.023101971322282
 30
0.0
 10
-211.0311615157222
 20
5.095719256905336
 30
0.0
 10
-211.0160726332653
 20
5.175688381049336
 30
0.0
 10
-211.0070757615246
 20
5.263631400878077
 30
0.0
 10
-211.0003798958707
 20
5.358804285034725
 30
0.0
 10
-210.9997070141275
 20
5.42479922665366
 30
0.0
 10
-210.999358974359
 20
5.458934294871794
 30
0.0
  0
LINE
  5
180
330
1F
100
AcDbEntity
  8
0
  6
Continuous
 62
     7
370
    15
100
AcDbLine
 10
-210.9993589744
 20
5.4589342949
 30
0.0
 11
-210.9993589744
 21
5.608974359
 31
0.0
  0
LINE
  5
181
330
1F
100
AcDbEntity
  8
0
  6
Continuous
 62
     7
370
    15
100
AcDbLine
 10
-210.9993589744
 20
5.608974359
 30
0.0
 11
-211.8967948718
 21
5.608974359
 31
0.0
  0
LINE
  5
182
330
1F
100
AcDbEntity
  8
0
  6
Continuous
 62
     7
370
    15
100
AcDbLine
 10
-211.8967948718
 20
5.608974359
 30
0.0
 11
-211.8967948718
 21
5.4280849359
 31
0.0
  0
SPLINE
  5
183
330
1F
100
AcDbEntity
  8
0
  6
Continuous
 62
     7
370
    15
100
AcDbSpline
210
0.0
220
0.0
230
1.0
 70
     8
 71
     3
 72
    23
 73
    19
 74
     0
 42
0.000000001
 43
0.00000001
 40
0.0
 40
0.0
 40
0.0
 40
0.0
 40
0.1095674252695429
 40
0.2106570473717315
 40
0.3020024587326189
 40
0.3851432164195918
 40
0.4590126129308738
 40
0.5247192090460491
 40
0.5832266479389019
 40
0.6342083193258347
 40
0.681185727793257
 40
0.7262751343643332
 40
0.7701133344783326
 40
0.8140800070141017
 40
0.8579941680783252
 40
0.9033387195085172
 40
0.9505447828389951
 40
1.0
 40
1.0
 40
1.0
 40
1.0
 10
-211.8967948717949
 20
5.428084935897435
 30
0.0
 10
-211.896590564423
 20
5.392322866639153
 30
0.0
 10
-211.8961977580063
 20
5.323565825946442
 30
0.0
 10
-211.8914517223538
 20
5.225071486983732
 30
0.0
 10
-211.882897829334
 20
5.135515509268815
 30
0.0
 10
-211.87221898295
 20
5.055135182355892
 30
0.0
 10
-211.8577508164026
 20
4.983807388557675
 30
0.0
 10
-211.8393563968313
 20
4.921773232890198
 30
0.0
 10
-211.8191193314386
 20
4.868181997323566
 30
0.0
 10
-211.7941241528822
 20
4.823355017558701
 30
0.0
 10
-211.7650359634098
 20
4.786733943098602
 30
0.0
 10
-211.7353071350303
 20
4.753687262966177
 30
0.0
 10
-211.7010121228143
 20
4.726743059187836
 30
0.0
 10
-211.663623116587
 20
4.705424302341279
 30
0.0
 10
-211.6240688862512
 20
4.68697295593922
 30
0.0
 10
-211.5808048533474
 20
4.675844406760235
 30
0.0
 10
-211.5351132600572
 20
4.667371519988462
 30
0.0
 10
-211.5035093730936
 20
4.666905234348317
 30
0.0
 10
-211.4873397435897
 20
4.666666666666666
 30
0.0
  0
SPLINE
  5
184
330
1F
100
AcDbEntity
  8
0
  6
Continuous
 62
     7
370
    15
100
AcDbSpline
210
0.0
220
0.0
230
1.0
 70
     8
 71
     3
 72
    19
 73
    15
 74
     0
 42
0.000000001
 43
0.00000001
 40
0.0
 40
0.0
 40
0.0
 40
0.0
 40
0.1123098564909145
 40
0.2171465939879064
 40
0.3207135257200632
 40
0.4286594472757097
 40
0.486091590785357
 40
0.5465383799643774
 40
0.6106279227056596
 40
0.6786034101709987
 40
0.7510545545723157
 40
0.8285969377511901
 40
0.9115111464602516
 40
1.0
 40
1.0
 40
1.0
 40
1.0
 10
-210.0219951923077
 20
4.891025641025641
 30
0.0
 10
-209.994891461318
 20
4.89222509397659
 30
0.0
 10
-209.9424874867011
 20
4.894544188053327
 30
0.0
 10
-209.8688562083494
 20
4.920683529378317
 30
0.0
 10
-209.8039474531676
 20
4.961404883007578
 30
0.0
 10
-209.7588675397209
 20
5.008752342006083
 30
0.0
 10
-209.7285917198523
 20
5.053911314216101
 30
0.0
 10
-209.7083024622915
 20
5.092754666015339
 30
0.0
 10
-209.6906843291759
 20
5.135623650686195
 30
0.0
 10
-209.6767472427985
 20
5.182860389208595
 30
0.0
 10
-209.6664783779758
 20
5.23429420972503
 30
0.0
 10
-209.6588954558466
 20
5.289787111349854
 30
0.0
 10
-209.6537458170127
 20
5.349463141957241
 30
0.0
 10
-209.6533892237071
 20
5.39068029366195
 30
0.0
 10
-209.6532051282051
 20
5.411959134615384
 30
0.0
  0
LINE
  5
185
330
1F
100
AcDbEntity
  8
0
  6
Continuous
 62
     7
370
    15
100
AcDbLine
 10
-209.6532051282
 20
5.4119591346
 30
0.0
 11
-209.6532051282
 21
5.608974359
 31
0.0
  0
LINE
  5
186
330
1F
100
AcDbEntity
  8
0
  6
Continuous
 62
     7
370
    15
100
AcDbLine
 10
-209.6532051282
 20
5.608974359
 30
0.0
 11
-210.416025641
 21
5.608974359
 31
0.0
  0
LINE
  5
187
330
1F
100
AcDbEntity
  8
0
  6
Continuous
 62
     7
370
    15
100
AcDbLine
 10
-210.416025641
 20
5.608974359
 30
0.0
 11
-210.416025641
 21
5.4421073718
 31
0.0
  0
SPLINE
  5
188
330
1F
100
AcDbEntity
  8
0
  6
Continuous
 62
     7
370
    15
100
AcDbSpline
210
0.0
220
0.0
230
1.0
 70
     8
 71
     3
 72
    19
 73
    15
 74
     0
 42
0.000000001
 43
0.00000001
 40
0.0
 40
0.0
 40
0.0
 40
0.0
 40
0.088764830842956
 40
0.1713551338288952
 40
0.2480819556364503
 40
0.321119953497327
 40
0.3888601443721351
 40
0.4520616053939529
 40
0.5122302123037881
 40
0.5695781645389848
 40
0.6769774789983498
 40
0.7810398434564637
 40
0.8869321650381305
 40
1.0
 40
1.0
 40
1.0
 40
1.0
 10
-210.4160256410256
 20
5.44210737179487
 30
0.0
 10
-210.4158287753347
 20
5.419428367522334
 30
0.0
 10
-210.4154487380326
 20
5.375647922324368
 30
0.0
 10
-210.4105195089312
 20
5.312416267277943
 30
0.0
 10
-210.4021719417455
 20
5.253604602140968
 30
0.0
 10
-210.3902779833952
 20
5.199290734718825
 30
0.0
 10
-210.3758654853536
 20
5.149157389468052
 30
0.0
 10
-210.357534166931
 20
5.103798313401334
 30
0.0
 10
-210.3356620356312
 20
5.063066214223297
 30
0.0
 10
-210.3038765532062
 20
5.015073804723487
 30
0.0
 10
-210.255200998664
 20
4.965638748944238
 30
0.0
 10
-210.1864919371156
 20
4.921372285381263
 30
0.0
 10
-210.1069636771861
 20
4.895428991672474
 30
0.0
 10
-210.0509301100585
 20
4.892525145094432
 30
0.0
 10
-210.0219951923077
 20
4.891025641025641
 30
0.0
  0
ENDSEC
  0
SECTION
  2
OBJECTS
  0
DICTIONARY
  5
C
330
0
100
AcDbDictionary
281
     1
  3
ACAD_GROUP
350
D
  3
ACAD_LAYOUT
350
1A
  3
ACAD_MLINESTYLE
350
17
  3
ACAD_PLOTSETTINGS
350
19
  3
ACAD_PLOTSTYLENAME
350
E
  3
ACAD_SCALELIST
350
47
  0
DICTIONARY
  5
D
102
{ACAD_REACTORS
330
C
102
}
330
C
100
AcDbDictionary
281
     1
  0
DICTIONARY
  5
1A
102
{ACAD_REACTORS
330
C
102
}
330
C
100
AcDbDictionary
281
     1
  3
Layout1
350
1E
  3
Layout2
350
26
  3
Model
350
22
  0
DICTIONARY
  5
17
102
{ACAD_REACTORS
330
C
102
}
330
C
100
AcDbDictionary
281
     1
  3
Standard
350
18
  0
DICTIONARY
  5
19
102
{ACAD_REACTORS
330
C
102
}
330
C
100
AcDbDictionary
281
     1
  0
ACDBDICTIONARYWDFLT
  5
E
102
{ACAD_REACTORS
330
C
102
}
330
C
100
AcDbDictionary
281
     1
  3
Normal
350
F
100
AcDbDictionaryWithDefault
340
F
  0
DICTIONARY
  5
47
102
{ACAD_REACTORS
330
C
102
}
330
C
100
AcDbDictionary
281
     1
  3
A0
350
48
  3
A1
350
49
  3
A2
350
4A
  3
A3
350
4B
  3
A4
350
4C
  3
A5
350
4D
  3
A6
350
4E
  3
A7
350
4F
  3
A8
350
50
  3
A9
350
51
  3
B0
350
52
  3
B1
350
53
  3
B2
350
54
  3
B3
350
55
  3
B4
350
56
  3
B5
350
57
  3
B6
350
58
  3
B7
350
59
  3
B8
350
5A
  3
B9
350
5B
  3
C0
350
5C
  3
C1
350
5D
  3
C2
350
5E
  3
C3
350
5F
  3
C4
350
60
  3
C5
350
61
  3
C6
350
62
  3
C7
350
63
  3
C8
350
64
  3
C9
350
65
  3
D0
350
66
  3
D1
350
67
  3
D2
350
68
  0
LAYOUT
  5
1E
102
{ACAD_REACTORS
330
1A
102
}
330
1A
100
AcDbPlotSettings
  1

  2
none_device
  4

  6

 40
0.0
 41
0.0
 42
0.0
 43
0.0
 44
0.0
 45
0.0
 46
0.0
 47
0.0
 48
0.0
 49
0.0
140
0.0
141
0.0
142
1.0
143
1.0
 70
   688
 72
     1
 73
     0
 74
     5
  7

 75
    16
147
1.0
148
0.0
149
0.0
100
AcDbLayout
  1
Layout1
 70
     1
 71
     1
 10
0.0
 20
0.0
 11
420.0
 21
297.0
 12
0.0
 22
0.0
 32
0.0
 14
1.0000000000E+20
 24
1.0000000000E+20
 34
1.0000000000E+20
 15
-1.0000000000E+20
 25
-1.0000000000E+20
 35
-1.0000000000E+20
146
0.0
 13
0.0
 23
0.0
 33
0.0
 16
1.0
 26
0.0
 36
0.0
 17
0.0
 27
1.0
 37
0.0
 76
     0
330
1B
  0
LAYOUT
  5
26
102
{ACAD_REACTORS
330
1A
102
}
330
1A
100
AcDbPlotSettings
  1

  2
none_device
  4

  6

 40
0.0
 41
0.0
 42
0.0
 43
0.0
 44
0.0
 45
0.0
 46
0.0
 47
0.0
 48
0.0
 49
0.0
140
0.0
141
0.0
142
1.0
143
1.0
 70
   688
 72
     1
 73
     0
 74
     5
  7

 75
    16
147
1.0
148
0.0
149
0.0
100
AcDbLayout
  1
Layout2
 70
     1
 71
     2
 10
0.0
 20
0.0
 11
0.0
 21
0.0
 12
0.0
 22
0.0
 32
0.0
 14
0.0
 24
0.0
 34
0.0
 15
0.0
 25
0.0
 35
0.0
146
0.0
 13
0.0
 23
0.0
 33
0.0
 16
1.0
 26
0.0
 36
0.0
 17
0.0
 27
1.0
 37
0.0
 76
     0
330
23
  0
LAYOUT
  5
22
102
{ACAD_REACTORS
330
1A
102
}
330
1A
100
AcDbPlotSettings
  1

  2
none_device
  4
ANSI_A_(11.00_x_8.50_Inches)
  6

 40
6.35
 41
19.05
 42
6.35000508
 43
19.05000254
 44
279.4
 45
215.9
 46
131.8119235814
 47
88.89999873
 48
0.0
 49
0.0
140
0.0
141
0.0
142
0.0201846966
143
1.0
 70
  1696
 72
     0
 73
     0
 74
     0
  7

 75
     0
147
0.0179189148
148
-1300.4909072572
149
0.0
100
AcDbLayout
  1
Model
 70
     1
 71
     0
 10
0.0
 20
0.0
 11
420.0
 21
297.0
 12
0.0
 22
0.0
 32
0.0
 14
-225.525
 24
-208.45
 34
0.0
 15
231.525
 25
208.45
 35
0.0
146
0.0
 13
0.0
 23
0.0
 33
0.0
 16
1.0
 26
0.0
 36
0.0
 17
0.0
 27
1.0
 37
0.0
 76
     0
330
1F
331
29
  0
MLINESTYLE
  5
18
102
{ACAD_REACTORS
330
17
102
}
330
17
100
AcDbMlineStyle
  2
Standard
 70
     0
  3

 62
   256
 51
90.0
 52
90.0
 71
     2
 49
0.5
 62
   256
  6
BYLAYER
 49
-0.5
 62
   256
  6
BYLAYER
  0
ACDBPLACEHOLDER
  5
F
102
{ACAD_REACTORS
330
E
102
}
330
E
  0
SCALE
  5
48
102
{ACAD_REACTORS
330
47
102
}
330
47
100
AcDbScale
 70
     0
300
1:1
140
1.0
141
1.0
290
     1
  0
SCALE
  5
49
102
{ACAD_REACTORS
330
47
102
}
330
47
100
AcDbScale
 70
     0
300
1:2
140
1.0
141
2.0
290
     0
  0
SCALE
  5
4A
102
{ACAD_REACTORS
330
47
102
}
330
47
100
AcDbScale
 70
     0
300
1:4
140
1.0
141
4.0
290
     0
  0
SCALE
  5
4B
102
{ACAD_REACTORS
330
47
102
}
330
47
100
AcDbScale
 70
     0
300
1:5
140
1.0
141
5.0
290
     0
  0
SCALE
  5
4C
102
{ACAD_REACTORS
330
47
102
}
330
47
100
AcDbScale
 70
     0
300
1:8
140
1.0
141
8.0
290
     0
  0
SCALE
  5
4D
102
{ACAD_REACTORS
330
47
102
}
330
47
100
AcDbScale
 70
     0
300
1:10
140
1.0
141
10.0
290
     0
  0
SCALE
  5
4E
102
{ACAD_REACTORS
330
47
102
}
330
47
100
AcDbScale
 70
     0
300
1:16
140
1.0
141
16.0
290
     0
  0
SCALE
  5
4F
102
{ACAD_REACTORS
330
47
102
}
330
47
100
AcDbScale
 70
     0
300
1:20
140
1.0
141
20.0
290
     0
  0
SCALE
  5
50
102
{ACAD_REACTORS
330
47
102
}
330
47
100
AcDbScale
 70
     0
300
1:30
140
1.0
141
30.0
290
     0
  0
SCALE
  5
51
102
{ACAD_REACTORS
330
47
102
}
330
47
100
AcDbScale
 70
     0
300
1:40
140
1.0
141
40.0
290
     0
  0
SCALE
  5
52
102
{ACAD_REACTORS
330
47
102
}
330
47
100
AcDbScale
 70
     0
300
1:50
140
1.0
141
50.0
290
     0
  0
SCALE
  5
53
102
{ACAD_REACTORS
330
47
102
}
330
47
100
AcDbScale
 70
     0
300
1:100
140
1.0
141
100.0
290
     0
  0
SCALE
  5
54
102
{ACAD_REACTORS
330
47
102
}
330
47
100
AcDbScale
 70
     0
300
2:1
140
2.0
141
1.0
290
     0
  0
SCALE
  5
55
102
{ACAD_REACTORS
330
47
102
}
330
47
100
AcDbScale
 70
     0
300
4:1
140
4.0
141
1.0
290
     0
  0
SCALE
  5
56
102
{ACAD_REACTORS
330
47
102
}
330
47
100
AcDbScale
 70
     0
300
8:1
140
8.0
141
1.0
290
     0
  0
SCALE
  5
57
102
{ACAD_REACTORS
330
47
102
}
330
47
100
AcDbScale
 70
     0
300
10:1
140
10.0
141
1.0
290
     0
  0
SCALE
  5
58
102
{ACAD_REACTORS
330
47
102
}
330
47
100
AcDbScale
 70
     0
300
100:1
140
100.0
141
1.0
290
     0
  0
SCALE
  5
59
102
{ACAD_REACTORS
330
47
102
}
330
47
100
AcDbScale
 70
     0
300
1/128" = 1'-0"
140
0.0078125
141
12.0
290
     0
  0
SCALE
  5
5A
102
{ACAD_REACTORS
330
47
102
}
330
47
100
AcDbScale
 70
     0
300
1/64" = 1'-0"
140
0.015625
141
12.0
290
     0
  0
SCALE
  5
5B
102
{ACAD_REACTORS
330
47
102
}
330
47
100
AcDbScale
 70
     0
300
1/32" = 1'-0"
140
0.03125
141
12.0
290
     0
  0
SCALE
  5
5C
102
{ACAD_REACTORS
330
47
102
}
330
47
100
AcDbScale
 70
     0
300
1/16" = 1'-0"
140
0.0625
141
12.0
290
     0
  0
SCALE
  5
5D
102
{ACAD_REACTORS
330
47
102
}
330
47
100
AcDbScale
 70
     0
300
3/32" = 1'-0"
140
0.09375
141
12.0
290
     0
  0
SCALE
  5
5E
102
{ACAD_REACTORS
330
47
102
}
330
47
100
AcDbScale
 70
     0
300
1/8" = 1'-0"
140
0.125
141
12.0
290
     0
  0
SCALE
  5
5F
102
{ACAD_REACTORS
330
47
102
}
330
47
100
AcDbScale
 70
     0
300
3/16" = 1'-0"
140
0.1875
141
12.0
290
     0
  0
SCALE
  5
60
102
{ACAD_REACTORS
330
47
102
}
330
47
100
AcDbScale
 70
     0
300
1/4" = 1'-0"
140
0.25
141
12.0
290
     0
  0
SCALE
  5
61
102
{ACAD_REACTORS
330
47
102
}
330
47
100
AcDbScale
 70
     0
300
3/8" = 1'-0"
140
0.375
141
12.0
290
     0
  0
SCALE
  5
62
102
{ACAD_REACTORS
330
47
102
}
330
47
100
AcDbScale
 70
     0
300
1/2" = 1'-0"
140
0.5
141
12.0
290
     0
  0
SCALE
  5
63
102
{ACAD_REACTORS
330
47
102
}
330
47
100
AcDbScale
 70
     0
300
3/4" = 1'-0"
140
0.75
141
12.0
290
     0
  0
SCALE
  5
64
102
{ACAD_REACTORS
330
47
102
}
330
47
100
AcDbScale
 70
     0
300
1" = 1'-0"
140
1.0
141
12.0
290
     0
  0
SCALE
  5
65
102
{ACAD_REACTORS
330
47
102
}
330
47
100
AcDbScale
 70
     0
300
1-1/2" = 1'-0"
140
1.5
141
12.0
290
     0
  0
SCALE
  5
66
102
{ACAD_REACTORS
330
47
102
}
330
47
100
AcDbScale
 70
     0
300
3" = 1'-0"
140
3.0
141
12.0
290
     0
  0
SCALE
  5
67
102
{ACAD_REACTORS
330
47
102
}
330
47
100
AcDbScale
 70
     0
300
6" = 1'-0"
140
6.0
141
12.0
290
     0
  0
SCALE
  5
68
102
{ACAD_REACTORS
330
47
102
}
330
47
100
AcDbScale
 70
     0
300
1'-0" = 1'-0"
140
12.0
141
12.0
290
     0
  0
ENDSEC
  0
EOF
