  0
SECTION
  2
HEADER
  9
$ACADVER
  1
AC1015
  9
$ACADMAINTVER
 70
     6
  9
$DWGCODEPAGE
  3
ANSI_1250
  9
$INSBASE
 10
0.0
 20
0.0
 30
0.0
  9
$EXTMIN
 10
-218.55
 20
0.0
 30
0.0
  9
$EXTMAX
 10
218.55
 20
652.35
 30
0.0
  9
$LIMMIN
 10
0.0
 20
0.0
  9
$LIMMAX
 10
420.0
 20
297.0
  9
$ORTHOMODE
 70
     0
  9
$REGENMODE
 70
     1
  9
$FILLMODE
 70
     1
  9
$QTEXTMODE
 70
     0
  9
$MIRRTEXT
 70
     1
  9
$LTSCALE
 40
1.0
  9
$ATTMODE
 70
     1
  9
$TEXTSIZE
 40
3.5
  9
$TRACEWID
 40
1.0
  9
$TEXTSTYLE
  7
Standard
  9
$CLAYER
  8
0
  9
$CELTYPE
  6
ByLayer
  9
$CECOLOR
 62
   256
  9
$CELTSCALE
 40
1.0
  9
$DISPSILH
 70
     0
  9
$DIMSCALE
 40
1.0
  9
$DIMASZ
 40
3.302
  9
$DIMEXO
 40
1.0
  9
$DIMDLI
 40
3.75
  9
$DIMRND
 40
0.0
  9
$DIMDLE
 40
0.0
  9
$DIMEXE
 40
1.0
  9
$DIMTP
 40
0.0
  9
$DIMTM
 40
0.0
  9
$DIMTXT
 40
3.5
  9
$DIMCEN
 40
2.5
  9
$DIMTSZ
 40
0.0
  9
$DIMTOL
 70
     0
  9
$DIMLIM
 70
     0
  9
$DIMTIH
 70
     1
  9
$DIMTOH
 70
     1
  9
$DIMSE1
 70
     0
  9
$DIMSE2
 70
     0
  9
$DIMTAD
 70
     1
  9
$DIMZIN
 70
     0
  9
$DIMBLK
  1

  9
$DIMASO
 70
     1
  9
$DIMSHO
 70
     1
  9
$DIMPOST
  1

  9
$DIMAPOST
  1

  9
$DIMALT
 70
     0
  9
$DIMALTD
 70
     3
  9
$DIMALTF
 40
0.0393700787
  9
$DIMLFAC
 40
1.0
  9
$DIMTOFL
 70
     1
  9
$DIMTVP
 40
0.0
  9
$DIMTIX
 70
     0
  9
$DIMSOXD
 70
     0
  9
$DIMSAH
 70
     0
  9
$DIMBLK1
  1

  9
$DIMBLK2
  1

  9
$DIMSTYLE
  2
ISO-25
  9
$DIMCLRD
 70
     0
  9
$DIMCLRE
 70
     0
  9
$DIMCLRT
 70
     0
  9
$DIMTFAC
 40
1.0
  9
$DIMGAP
 40
1.524
  9
$DIMJUST
 70
     0
  9
$DIMSD1
 70
     0
  9
$DIMSD2
 70
     0
  9
$DIMTOLJ
 70
     0
  9
$DIMTZIN
 70
     0
  9
$DIMALTZ
 70
     0
  9
$DIMALTTZ
 70
     0
  9
$DIMUPT
 70
     0
  9
$DIMDEC
 70
     2
  9
$DIMTDEC
 70
     2
  9
$DIMALTU
 70
     2
  9
$DIMALTTD
 70
     3
  9
$DIMTXSTY
  7
Standard
  9
$DIMAUNIT
 70
     0
  9
$DIMADEC
 70
     2
  9
$DIMALTRND
 40
0.0
  9
$DIMAZIN
 70
     0
  9
$DIMDSEP
 70
    44
  9
$DIMATFIT
 70
     3
  9
$DIMFRAC
 70
     0
  9
$DIMLDRBLK
  1

  9
$DIMLUNIT
 70
     2
  9
$DIMLWD
 70
    -2
  9
$DIMLWE
 70
    -2
  9
$DIMTMOVE
 70
     0
  9
$LUNITS
 70
     2
  9
$LUPREC
 70
     2
  9
$SKETCHINC
 40
1.0
  9
$FILLETRAD
 40
10.0
  9
$AUNITS
 70
     0
  9
$AUPREC
 70
     2
  9
$MENU
  1
.
  9
$ELEVATION
 40
0.0
  9
$PELEVATION
 40
0.0
  9
$THICKNESS
 40
0.0
  9
$LIMCHECK
 70
     0
  9
$CHAMFERA
 40
0.0
  9
$CHAMFERB
 40
0.0
  9
$CHAMFERC
 40
0.0
  9
$CHAMFERD
 40
0.0
  9
$SKPOLY
 70
     0
  9
$TDCREATE
 40
2457611.385269294
  9
$TDUCREATE
 40
2457611.301935961
  9
$TDUPDATE
 40
2457611.385293866
  9
$TDUUPDATE
 40
2457611.301960533
  9
$TDINDWG
 40
0.0000000116
  9
$TDUSRTIMER
 40
0.0000000116
  9
$USRTIMER
 70
     1
  9
$ANGBASE
 50
0.0
  9
$ANGDIR
 70
     0
  9
$PDMODE
 70
     0
  9
$PDSIZE
 40
-1.0
  9
$PLINEWID
 40
0.0
  9
$SPLFRAME
 70
     0
  9
$SPLINETYPE
 70
     6
  9
$SPLINESEGS
 70
     8
  9
$HANDSEED
  5
190
  9
$SURFTAB1
 70
     6
  9
$SURFTAB2
 70
     6
  9
$SURFTYPE
 70
     6
  9
$SURFU
 70
     6
  9
$SURFV
 70
     6
  9
$UCSBASE
  2

  9
$UCSNAME
  2

  9
$UCSORG
 10
0.0
 20
0.0
 30
0.0
  9
$UCSXDIR
 10
1.0
 20
0.0
 30
0.0
  9
$UCSYDIR
 10
0.0
 20
1.0
 30
0.0
  9
$UCSORTHOREF
  2

  9
$UCSORTHOVIEW
 70
     0
  9
$UCSORGTOP
 10
0.0
 20
0.0
 30
0.0
  9
$UCSORGBOTTOM
 10
0.0
 20
0.0
 30
0.0
  9
$UCSORGLEFT
 10
0.0
 20
0.0
 30
0.0
  9
$UCSORGRIGHT
 10
0.0
 20
0.0
 30
0.0
  9
$UCSORGFRONT
 10
0.0
 20
0.0
 30
0.0
  9
$UCSORGBACK
 10
0.0
 20
0.0
 30
0.0
  9
$PUCSBASE
  2

  9
$PUCSNAME
  2

  9
$PUCSORG
 10
0.0
 20
0.0
 30
0.0
  9
$PUCSXDIR
 10
1.0
 20
0.0
 30
0.0
  9
$PUCSYDIR
 10
0.0
 20
1.0
 30
0.0
  9
$PUCSORTHOREF
  2

  9
$PUCSORTHOVIEW
 70
     0
  9
$PUCSORGTOP
 10
0.0
 20
0.0
 30
0.0
  9
$PUCSORGBOTTOM
 10
0.0
 20
0.0
 30
0.0
  9
$PUCSORGLEFT
 10
0.0
 20
0.0
 30
0.0
  9
$PUCSORGRIGHT
 10
0.0
 20
0.0
 30
0.0
  9
$PUCSORGFRONT
 10
0.0
 20
0.0
 30
0.0
  9
$PUCSORGBACK
 10
0.0
 20
0.0
 30
0.0
  9
$USERI1
 70
     0
  9
$USERI2
 70
     0
  9
$USERI3
 70
     0
  9
$USERI4
 70
     0
  9
$USERI5
 70
     0
  9
$USERR1
 40
0.0
  9
$USERR2
 40
0.0
  9
$USERR3
 40
0.0
  9
$USERR4
 40
0.0
  9
$USERR5
 40
0.0
  9
$WORLDVIEW
 70
     1
  9
$SHADEDGE
 70
     3
  9
$SHADEDIF
 70
    70
  9
$TILEMODE
 70
     1
  9
$MAXACTVP
 70
    64
  9
$PINSBASE
 10
0.0
 20
0.0
 30
0.0
  9
$PLIMCHECK
 70
     0
  9
$PEXTMIN
 10
1.0000000000E+20
 20
1.0000000000E+20
 30
1.0000000000E+20
  9
$PEXTMAX
 10
-1.0000000000E+20
 20
-1.0000000000E+20
 30
-1.0000000000E+20
  9
$PLIMMIN
 10
0.0
 20
0.0
  9
$PLIMMAX
 10
420.0
 20
297.0
  9
$UNITMODE
 70
     0
  9
$VISRETAIN
 70
     1
  9
$PLINEGEN
 70
     0
  9
$PSLTSCALE
 70
     1
  9
$TREEDEPTH
 70
  3020
  9
$CMLSTYLE
  2
Standard
  9
$CMLJUST
 70
     0
  9
$CMLSCALE
 40
20.0
  9
$PROXYGRAPHICS
 70
     1
  9
$MEASUREMENT
 70
     1
  9
$CELWEIGHT
370
    -1
  9
$ENDCAPS
280
     0
  9
$JOINSTYLE
280
     0
  9
$LWDISPLAY
290
     1
  9
$INSUNITS
 70
     4
  9
$HYPERLINKBASE
  1

  9
$STYLESHEET
  1

  9
$XEDIT
290
     1
  9
$CEPSNTYPE
380
     0
  9
$PSTYLEMODE
290
     1
  9
$FINGERPRINTGUID
  2
{743A9875-901A-4D8A-99A2-09374F9C34CC}
  9
$VERSIONGUID
  2
{FAEB1C32-E019-11D5-929B-00C0DF256EC4}
  9
$EXTNAMES
290
     1
  9
$PSVPSCALE
 40
0.0
  9
$OLESTARTUP
290
     0
  0
ENDSEC
  0
SECTION
  2
CLASSES
  0
CLASS
  1
ACDBDICTIONARYWDFLT
  2
AcDbDictionaryWithDefault
  3
ObjectDBX Classes
 90
        0
280
     0
281
     0
  0
CLASS
  1
VISUALSTYLE
  2
AcDbVisualStyle
  3
ObjectDBX Classes
 90
     4095
280
     0
281
     0
  0
CLASS
  1
MATERIAL
  2
AcDbMaterial
  3
ObjectDBX Classes
 90
     1153
280
     0
281
     0
  0
CLASS
  1
SCALE
  2
AcDbScale
  3
ObjectDBX Classes
 90
     1153
280
     0
281
     0
  0
CLASS
  1
TABLESTYLE
  2
AcDbTableStyle
  3
ObjectDBX Classes
 90
     4095
280
     0
281
     0
  0
CLASS
  1
MLEADERSTYLE
  2
AcDbMLeaderStyle
  3
ACDB_MLEADERSTYLE_CLASS
 90
     4095
280
     0
281
     0
  0
CLASS
  1
SUN
  2
AcDbSun
  3
SCENEOE
 90
     1153
280
     0
281
     0
  0
CLASS
  1
ACDBPLACEHOLDER
  2
AcDbPlaceHolder
  3
ObjectDBX Classes
 90
        0
280
     0
281
     0
  0
CLASS
  1
LAYOUT
  2
AcDbLayout
  3
ObjectDBX Classes
 90
        0
280
     0
281
     0
  0
ENDSEC
  0
SECTION
  2
TABLES
  0
TABLE
  2
VPORT
  5
8
330
0
100
AcDbSymbolTable
 70
     1
  0
VPORT
  5
29
330
8
100
AcDbSymbolTableRecord
100
AcDbViewportTableRecord
  2
*Active
 70
     0
 10
0.0
 20
0.0
 11
1.0
 21
1.0
 12
0.0
 22
326.175
 13
0.0
 23
0.0
 14
10.0
 24
10.0
 15
10.0
 25
10.0
 16
0.0
 26
0.0
 36
1.0
 17
0.0
 27
0.0
 37
0.0
 40
665.397
 41
0.6700390894
 42
50.0
 43
0.0
 44
0.0
 50
0.0
 51
0.0
 71
     0
 72
   100
 73
     1
 74
     3
 75
     0
 76
     0
 77
     0
 78
     0
281
     0
 65
     1
110
0.0
120
0.0
130
0.0
111
1.0
121
0.0
131
0.0
112
0.0
122
1.0
132
0.0
 79
     0
146
0.0
  0
ENDTAB
  0
TABLE
  2
LTYPE
  5
5
330
0
100
AcDbSymbolTable
 70
     6
  0
LTYPE
  5
14
330
5
100
AcDbSymbolTableRecord
100
AcDbLinetypeTableRecord
  2
ByBlock
 70
     0
  3

 72
    65
 73
     0
 40
0.0
  0
LTYPE
  5
15
330
5
100
AcDbSymbolTableRecord
100
AcDbLinetypeTableRecord
  2
ByLayer
 70
     0
  3

 72
    65
 73
     0
 40
0.0
  0
LTYPE
  5
16
330
5
100
AcDbSymbolTableRecord
100
AcDbLinetypeTableRecord
  2
Continuous
 70
     0
  3
Solid line
 72
    65
 73
     0
 40
0.0
  0
LTYPE
  5
6E
330
5
100
AcDbSymbolTableRecord
100
AcDbLinetypeTableRecord
  2
HIDDEN
 70
     0
  3
Hidden __ __ __ __ __ __ __ __ __ __ __ __ __ __
 72
    65
 73
     2
 40
1.905
 49
1.27
 74
     0
 49
-0.635
 74
     0
  0
LTYPE
  5
6F
330
5
100
AcDbSymbolTableRecord
100
AcDbLinetypeTableRecord
  2
PHANTOM
 70
     0
  3
Phantom ______  __  __  ______  __  __  ______
 72
    65
 73
     6
 40
12.7
 49
6.35
 74
     0
 49
-1.27
 74
     0
 49
1.27
 74
     0
 49
-1.27
 74
     0
 49
1.27
 74
     0
 49
-1.27
 74
     0
  0
LTYPE
  5
70
330
5
100
AcDbSymbolTableRecord
100
AcDbLinetypeTableRecord
  2
CENTER
 70
     0
  3
Center ____ _ ____ _ ____ _ ____ _ ____ _ ____
 72
    65
 73
     4
 40
10.16
 49
6.35
 74
     0
 49
-1.27
 74
     0
 49
1.27
 74
     0
 49
-1.27
 74
     0
  0
LTYPE
  5
71
330
5
100
AcDbSymbolTableRecord
100
AcDbLinetypeTableRecord
  2
CENTERX2
 70
     0
  3
Center (2x) ________  __  ________  __  _____
 72
    65
 73
     4
 40
20.32
 49
12.7
 74
     0
 49
-2.54
 74
     0
 49
2.54
 74
     0
 49
-2.54
 74
     0
  0
LTYPE
  5
72
330
5
100
AcDbSymbolTableRecord
100
AcDbLinetypeTableRecord
  2
DOT2
 70
     0
  3
Dot (.5x) ........................................
 72
    65
 73
     2
 40
0.635
 49
0.0
 74
     0
 49
-0.635
 74
     0
  0
ENDTAB
  0
TABLE
  2
LAYER
  5
2
330
0
100
AcDbSymbolTable
 70
     1
  0
LAYER
  5
10
330
2
100
AcDbSymbolTableRecord
100
AcDbLayerTableRecord
  2
0
 70
     0
 62
     7
  6
Continuous
370
    -3
390
F
  0
ENDTAB
  0
TABLE
  2
STYLE
  5
3
330
0
100
AcDbSymbolTable
 70
     1
  0
STYLE
  5
11
330
3
100
AcDbSymbolTableRecord
100
AcDbTextStyleTableRecord
  2
Standard
 70
     0
 40
0.0
 41
1.0
 50
0.0
 71
     0
 42
3.5
  3
txt
  4

  0
ENDTAB
  0
TABLE
  2
VIEW
  5
6
330
0
100
AcDbSymbolTable
 70
     0
  0
ENDTAB
  0
TABLE
  2
UCS
  5
7
330
0
100
AcDbSymbolTable
 70
     0
  0
ENDTAB
  0
TABLE
  2
APPID
  5
9
330
0
100
AcDbSymbolTable
 70
     1
  0
APPID
  5
12
330
9
100
AcDbSymbolTableRecord
100
AcDbRegAppTableRecord
  2
ACAD
 70
     0
  0
ENDTAB
  0
TABLE
  2
DIMSTYLE
  5
A
330
0
100
AcDbSymbolTable
 70
     1
100
AcDbDimStyleTable
  0
DIMSTYLE
105
27
330
A
100
AcDbSymbolTableRecord
100
AcDbDimStyleTableRecord
  2
ISO-25
 70
     0
 41
2.5
 42
0.625
 43
3.75
 44
1.25
 73
     0
 74
     0
 77
     1
 78
     8
140
2.5
141
2.5
143
0.0393700787
147
0.625
171
     3
172
     1
178
     0
271
     2
272
     2
274
     3
278
    44
283
     0
284
     8
340
11
  0
ENDTAB
  0
TABLE
  2
BLOCK_RECORD
  5
1
330
0
100
AcDbSymbolTable
 70
     1
  0
BLOCK_RECORD
  5
1F
330
1
100
AcDbSymbolTableRecord
100
AcDbBlockTableRecord
  2
*Model_Space
340
22
  0
BLOCK_RECORD
  5
1B
330
1
100
AcDbSymbolTableRecord
100
AcDbBlockTableRecord
  2
*Paper_Space
340
1E
  0
BLOCK_RECORD
  5
23
330
1
100
AcDbSymbolTableRecord
100
AcDbBlockTableRecord
  2
*Paper_Space0
340
26
  0
ENDTAB
  0
ENDSEC
  0
SECTION
  2
BLOCKS
  0
BLOCK
  5
20
330
1F
100
AcDbEntity
  8
0
100
AcDbBlockBegin
  2
*Model_Space
 70
     0
 10
0.0
 20
0.0
 30
0.0
  3
*Model_Space
  1

  0
ENDBLK
  5
21
330
1F
100
AcDbEntity
  8
0
100
AcDbBlockEnd
  0
BLOCK
  5
1C
330
1B
100
AcDbEntity
 67
     1
  8
0
100
AcDbBlockBegin
  2
*Paper_Space
 70
     0
 10
0.0
 20
0.0
 30
0.0
  3
*Paper_Space
  1

  0
ENDBLK
  5
1D
330
1B
100
AcDbEntity
 67
     1
  8
0
100
AcDbBlockEnd
  0
BLOCK
  5
24
330
23
100
AcDbEntity
  8
0
100
AcDbBlockBegin
  2
*Paper_Space0
 70
     0
 10
0.0
 20
0.0
 30
0.0
  3
*Paper_Space0
  1

  0
ENDBLK
  5
25
330
23
100
AcDbEntity
  8
0
100
AcDbBlockEnd
  0
ENDSEC
  0
SECTION
  2
ENTITIES
  0
SPLINE
  5
73
330
1F
100
AcDbEntity
  8
0
  6
Continuous
 62
     7
370
    15
100
AcDbSpline
210
0.0
220
0.0
230
1.0
 70
     8
 71
     3
 72
    31
 73
    27
 74
     0
 42
0.000000001
 43
0.00000001
 40
0.0
 40
0.0
 40
0.0
 40
0.0
 40
0.0446633309063579
 40
0.0885118057801197
 40
0.1309255913017679
 40
0.1729040372808942
 40
0.2140001199049718
 40
0.2549850203589872
 40
0.2952912763870529
 40
0.3357724419527729
 40
0.3761808205537629
 40
0.4161784084745214
 40
0.4563500514444676
 40
0.4965121666444038
 40
0.5370405736377821
 40
0.5781187440077474
 40
0.6197245605547993
 40
0.6624219701988875
 40
0.7052989535208913
 40
0.7474300005339138
 40
0.789432984039381
 40
0.831267421203064
 40
0.8728250959642275
 40
0.9148701104843907
 40
0.9570270028394995
 40
1.0
 40
1.0
 40
1.0
 40
1.0
 10
0.0000000000000023
 20
637.0056089743589
 30
0.0
 10
0.0005765083879272
 20
637.0486409935443
 30
0.0
 10
0.0017190071095206
 20
637.1339199381995
 30
0.0
 10
0.013726774481749
 20
637.2595427327445
 30
0.0
 10
0.0304663004150234
 20
637.3820024869406
 30
0.0
 10
0.0570220361688759
 20
637.5000276627467
 30
0.0
 10
0.0890323564684738
 20
637.6152082769567
 30
0.0
 10
0.1288413954369663
 20
637.726292450811
 30
0.0
 10
0.1763855725391874
 20
637.8335994514101
 30
0.0
 10
0.2301324269869313
 20
637.9373089171226
 30
0.0
 10
0.2909357056925641
 20
638.0367414398258
 30
0.0
 10
0.3588596429603877
 20
638.131042737444
 30
0.0
 10
0.4321556117786984
 20
638.2209407986335
 30
0.0
 10
0.5125847948691492
 20
638.3052429587274
 30
0.0
 10
0.598978450822927
 20
638.3846894070819
 30
0.0
 10
0.6917266370950039
 20
638.4588496081725
 30
0.0
 10
0.790271519673755
 20
638.5287871029497
 30
0.0
 10
0.8948798229140229
 20
638.5926983731665
 30
0.0
 10
1.003519286221455
 20
638.650509514094
 30
0.0
 10
1.114819680066809
 20
638.7015014094544
 30
0.0
 10
1.228507552296064
 20
638.7441188913981
 30
0.0
 10
1.344102220285526
 20
638.7794685205964
 30
0.0
 10
1.462092070025811
 20
638.8058545192843
 30
0.0
 10
1.581634919997114
 20
638.8258278690686
 30
0.0
 10
1.70374793630422
 20
638.8369930993003
 30
0.0
 10
1.785736247790381
 20
638.8388209187477
 30
0.0
 10
1.8271233974359
 20
638.8397435897435
 30
0.0
  0
SPLINE
  5
74
330
1F
100
AcDbEntity
  8
0
  6
Continuous
 62
     7
370
    15
100
AcDbSpline
210
0.0
220
0.0
230
1.0
 70
     8
 71
     3
 72
    23
 73
    19
 74
     0
 42
0.000000001
 43
0.00000001
 40
0.0
 40
0.0
 40
0.0
 40
0.0
 40
0.0622757783707693
 40
0.1239040620075157
 40
0.1850672407687247
 40
0.2468401515202102
 40
0.3084353298497799
 40
0.3702412507091021
 40
0.4325865888798447
 40
0.4959245816612484
 40
0.5593510709509271
 40
0.6219426542010943
 40
0.6843928672351728
 40
0.7469858082644948
 40
0.8094414645316722
 40
0.872507832713924
 40
0.9357692970661907
 40
1.0
 40
1.0
 40
1.0
 40
1.0
 10
1.8271233974359
 20
638.8397435897435
 30
0.0
 10
1.862430879670446
 20
638.8392146917073
 30
0.0
 10
1.932678744611977
 20
638.8381623947025
 30
0.0
 10
2.037289603586338
 20
638.8293903542176
 30
0.0
 10
2.141063833887597
 20
638.8156139533681
 30
0.0
 10
2.243629891926288
 20
638.7948282982969
 30
0.0
 10
2.345721434999758
 20
638.7701530990537
 30
0.0
 10
2.445996865831676
 20
638.7378443292849
 30
0.0
 10
2.546038083566452
 20
638.7018301167562
 30
0.0
 10
2.644276090273917
 20
638.6587824793402
 30
0.0
 10
2.74084801180773
 20
638.6117920946712
 30
0.0
 10
2.833491498802966
 20
638.5584797967687
 30
0.0
 10
2.923762026840029
 20
638.5021263649094
 30
0.0
 10
3.009659255214918
 20
638.4393965560851
 30
0.0
 10
3.092792223978571
 20
638.3725656970971
 30
0.0
 10
3.172726223566564
 20
638.3013219844664
 30
0.0
 10
3.24875978639267
 20
638.2244775763407
 30
0.0
 10
3.296474228695972
 20
638.1701824658063
 30
0.0
 10
3.320512820512823
 20
638.1428285256409
 30
0.0
  0
LINE
  5
75
330
1F
100
AcDbEntity
  8
0
  6
Continuous
 62
     7
370
    15
100
AcDbLine
 10
3.3205128205
 20
638.1428285256
 30
0.0
 11
2.8598758013
 21
637.7025240385
 31
0.0
  0
SPLINE
  5
76
330
1F
100
AcDbEntity
  8
0
  6
Continuous
 62
     7
370
    15
100
AcDbSpline
210
0.0
220
0.0
230
1.0
 70
     8
 71
     3
 72
    15
 73
    11
 74
     0
 42
0.000000001
 43
0.00000001
 40
0.0
 40
0.0
 40
0.0
 40
0.0
 40
0.1394064381817511
 40
0.2723044483741547
 40
0.3995253362717419
 40
0.5228108782578087
 40
0.6426627165918587
 40
0.7610226208095289
 40
0.8798007967838026
 40
1.0
 40
1.0
 40
1.0
 40
1.0
 10
2.859875801282054
 20
637.7025240384614
 30
0.0
 10
2.820800816589594
 20
637.7429276381243
 30
0.0
 10
2.744475129693867
 20
637.8218485262987
 30
0.0
 10
2.621485724728064
 20
637.9263328271851
 30
0.0
 10
2.493581221661832
 20
638.0134063547273
 30
0.0
 10
2.363249747295905
 20
638.0867391252493
 30
0.0
 10
2.228147016221486
 20
638.1422205925674
 30
0.0
 10
2.089835183909408
 20
638.1826508723474
 30
0.0
 10
1.947431088626891
 20
638.2072996857786
 30
0.0
 10
1.851057474229615
 20
638.2101199462625
 30
0.0
 10
1.802584134615387
 20
638.2115384615385
 30
0.0
  0
SPLINE
  5
77
330
1F
100
AcDbEntity
  8
0
  6
Continuous
 62
     7
370
    15
100
AcDbSpline
210
0.0
220
0.0
230
1.0
 70
     8
 71
     3
 72
    23
 73
    19
 74
     0
 42
0.000000001
 43
0.00000001
 40
0.0
 40
0.0
 40
0.0
 40
0.0
 40
0.0647145165408353
 40
0.1277069683294534
 40
0.1888821628171193
 40
0.2491582987223185
 40
0.3096610287488841
 40
0.3702248860571701
 40
0.4323322219725894
 40
0.4957818589938661
 40
0.5593040765204218
 40
0.6218605583615183
 40
0.683321537332511
 40
0.7445229747823101
 40
0.8060883712105251
 40
0.868994314670202
 40
0.9334190568081273
 40
1.0
 40
1.0
 40
1.0
 40
1.0
 10
1.802584134615387
 20
638.2115384615383
 30
0.0
 10
1.762103005393771
 20
638.2104177848836
 30
0.0
 10
1.682217956972164
 20
638.208206252979
 30
0.0
 10
1.564925772015829
 20
638.1919935428164
 30
0.0
 10
1.452729735324253
 20
638.164423123621
 30
0.0
 10
1.345245782083866
 20
638.126425978878
 30
0.0
 10
1.242790188443212
 20
638.0772596902946
 30
0.0
 10
1.145148143516292
 20
638.016962311298
 30
0.0
 10
1.052560379715355
 20
637.9460784129773
 30
0.0
 10
0.9662499277652111
 20
637.864974751883
 30
0.0
 10
0.8872961595884735
 20
637.7763629074524
 30
0.0
 10
0.8175354781347622
 20
637.6818142808319
 30
0.0
 10
0.7590997171500788
 20
637.5815454776396
 30
0.0
 10
0.7111424386281373
 20
637.4765719466097
 30
0.0
 10
0.6737855725118514
 20
637.3664078182807
 30
0.0
 10
0.6471080766661589
 20
637.2511272595075
 30
0.0
 10
0.6316785260166198
 20
637.1305929800536
 30
0.0
 10
0.6293755621768006
 20
637.0486546750175
 30
0.0
 10
0.6282051282051305
 20
637.0070112179486
 30
0.0
  0
SPLINE
  5
78
330
1F
100
AcDbEntity
  8
0
  6
Continuous
 62
     7
370
    15
100
AcDbSpline
210
0.0
220
0.0
230
1.0
 70
     8
 71
     3
 72
    31
 73
    27
 74
     0
 42
0.000000001
 43
0.00000001
 40
0.0
 40
0.0
 40
0.0
 40
0.0
 40
0.0459858533955441
 40
0.0906390618643989
 40
0.1344852733868318
 40
0.1773313561259208
 40
0.219264832978243
 40
0.2607850023581449
 40
0.302316572337839
 40
0.3434357294037327
 40
0.3841814737656157
 40
0.4243757389977444
 40
0.4641811219517649
 40
0.504011982527587
 40
0.5438224623103973
 40
0.583802464576002
 40
0.6244185350988937
 40
0.665547559578519
 40
0.7066749396536144
 40
0.7478269788975663
 40
0.7888951165570484
 40
0.830219357972802
 40
0.8717069369478613
 40
0.9137338536047337
 40
0.9565878279841853
 40
1.0
 40
1.0
 40
1.0
 40
1.0
 10
0.6282051282051305
 20
637.0070112179486
 30
0.0
 10
0.6285424339276281
 20
636.9777829260836
 30
0.0
 10
0.629207270436928
 20
636.9201733622951
 30
0.0
 10
0.6364850817525864
 20
636.83495282848
 30
0.0
 10
0.6482040740847029
 20
636.7522687635944
 30
0.0
 10
0.6651643594317239
 20
636.6722464119629
 30
0.0
 10
0.6863733629845142
 20
636.5948164254959
 30
0.0
 10
0.7112563534144145
 20
636.5193108196424
 30
0.0
 10
0.742471698877563
 20
636.4467729118631
 30
0.0
 10
0.7771212033268164
 20
636.376360221447
 30
0.0
 10
0.8174181777072863
 20
636.3099940467931
 30
0.0
 10
0.8608657498933071
 20
636.2467083913522
 30
0.0
 10
0.9079775483795608
 20
636.1868134751065
 30
0.0
 10
0.9590587190755306
 20
636.1305541503034
 30
0.0
 10
1.0148281658859
 20
636.078809624191
 30
0.0
 10
1.073844454959656
 20
636.0300238773021
 30
0.0
 10
1.137103109429083
 20
635.9854181821257
 30
0.0
 10
1.20329008672916
 20
635.9438731096255
 30
0.0
 10
1.27297715870295
 20
635.9077825516891
 30
0.0
 10
1.344273553515655
 20
635.8750914786475
 30
0.0
 10
1.418260268209272
 20
635.8485414668788
 30
0.0
 10
1.494036470094288
 20
635.8271397352776
 30
0.0
 10
1.571331361732671
 20
635.8089407588673
 30
0.0
 10
1.650900958952169
 20
635.7977350897902
 30
0.0
 10
1.73205549299201
 20
635.7892491677543
 30
0.0
 10
1.786902336259591
 20
635.7887252116703
 30
0.0
 10
1.814503205128208
 20
635.7884615384613
 30
0.0
  0
SPLINE
  5
79
330
1F
100
AcDbEntity
  8
0
  6
Continuous
 62
     7
370
    15
100
AcDbSpline
210
0.0
220
0.0
230
1.0
 70
     8
 71
     3
 72
    19
 73
    15
 74
     0
 42
0.000000001
 43
0.00000001
 40
0.0
 40
0.0
 40
0.0
 40
0.0
 40
0.1170484290483479
 40
0.2299697259035172
 40
0.3407035076587866
 40
0.4493551469115778
 40
0.5055565115208482
 40
0.5653026697757799
 40
0.6282049564766342
 40
0.6947289918311149
 40
0.7650188336519093
 40
0.8395802021957154
 40
0.9177497995909416
 40
1.0
 40
1.0
 40
1.0
 40
1.0
 10
1.814503205128208
 20
635.7884615384614
 30
0.0
 10
1.861319022061975
 20
635.7898157003258
 30
0.0
 10
1.953299928390589
 20
635.7924762762541
 30
0.0
 10
2.088295134108058
 20
635.8132816032693
 30
0.0
 10
2.216932116333084
 20
635.8475051888471
 30
0.0
 10
2.319712449566328
 20
635.8879212548195
 30
0.0
 10
2.400238125838862
 20
635.9278326446587
 30
0.0
 10
2.461541132766389
 20
635.9647487148363
 30
0.0
 10
2.524933219868421
 20
636.0060433924891
 30
0.0
 10
2.589361498790399
 20
636.0532751834718
 30
0.0
 10
2.655550659862709
 20
636.1058772873522
 30
0.0
 10
2.722332311771995
 20
636.1650017883536
 30
0.0
 10
2.791416076666575
 20
636.2287018014722
 30
0.0
 10
2.836672166259064
 20
636.2741657522415
 30
0.0
 10
2.859875801282054
 20
636.2974759615383
 30
0.0
  0
LINE
  5
7A
330
1F
100
AcDbEntity
  8
0
  6
Continuous
 62
     7
370
    15
100
AcDbLine
 10
2.8598758013
 20
636.2974759615
 30
0.0
 11
3.3064903846
 21
635.8284254808
 31
0.0
  0
SPLINE
  5
7B
330
1F
100
AcDbEntity
  8
0
  6
Continuous
 62
     7
370
    15
100
AcDbSpline
210
0.0
220
0.0
230
1.0
 70
     8
 71
     3
 72
    23
 73
    19
 74
     0
 42
0.000000001
 43
0.00000001
 40
0.0
 40
0.0
 40
0.0
 40
0.0
 40
0.0777829363133709
 40
0.1518156572691324
 40
0.2225398385800766
 40
0.2902775346823091
 40
0.354640607486389
 40
0.4157977534850276
 40
0.4747090076698581
 40
0.5304260996200507
 40
0.5855797458252651
 40
0.6409061648040386
 40
0.6979010906656776
 40
0.7554203208806066
 40
0.8145212584872942
 40
0.8744618312159111
 40
0.9366697167404237
 40
1.0
 40
1.0
 40
1.0
 40
1.0
 10
3.306490384615387
 20
635.8284254807692
 30
0.0
 10
3.275095783342221
 20
635.7981149788565
 30
0.0
 10
3.213820235607868
 20
635.7389553612312
 30
0.0
 10
3.121387772927241
 20
635.6549542246385
 30
0.0
 10
3.029071640156929
 20
635.57946986537
 30
0.0
 10
2.939102002747735
 20
635.5097625320119
 30
0.0
 10
2.850005064203768
 20
635.447862968489
 30
0.0
 10
2.76179027310787
 20
635.3937093549711
 30
0.0
 10
2.67545625945538
 20
635.3459320682396
 30
0.0
 10
2.589210269792466
 20
635.3053368487994
 30
0.0
 10
2.50251563705771
 20
635.2708672912904
 30
0.0
 10
2.413317047978915
 20
635.2411912647295
 30
0.0
 10
2.321341814076344
 20
635.216086413852
 30
0.0
 10
2.226028192590984
 20
635.195830096274
 30
0.0
 10
2.1282652109045
 20
635.1795872641767
 30
0.0
 10
2.027137937402131
 20
635.1686234464597
 30
0.0
 10
1.923287568937356
 20
635.1612528365785
 30
0.0
 10
1.852844255106545
 20
635.1605905262008
 30
0.0
 10
1.817307692307695
 20
635.1602564102564
 30
0.0
  0
SPLINE
  5
7C
330
1F
100
AcDbEntity
  8
0
  6
Continuous
 62
     7
370
    15
100
AcDbSpline
210
0.0
220
0.0
230
1.0
 70
     8
 71
     3
 72
    23
 73
    19
 74
     0
 42
0.000000001
 43
0.00000001
 40
0.0
 40
0.0
 40
0.0
 40
0.0
 40
0.0673762427992629
 40
0.1318365787763059
 40
0.1944610676015843
 40
0.2553459677434067
 40
0.3155883400136164
 40
0.3756274517722032
 40
0.436137852052527
 40
0.497778619574709
 40
0.5594703610940442
 40
0.6202777696790929
 40
0.680787688960401
 40
0.7414916215916376
 40
0.8032154362531647
 40
0.866492762748925
 40
0.9319104429113624
 40
1.0
 40
1.0
 40
1.0
 40
1.0
 10
1.817307692307695
 20
635.1602564102564
 30
0.0
 10
1.752031428359914
 20
635.1619204324033
 30
0.0
 10
1.624303924470834
 20
635.1651764612017
 30
0.0
 10
1.437122597809514
 20
635.1893014300746
 30
0.0
 10
1.259305362062253
 20
635.2297465153879
 30
0.0
 10
1.090419621182018
 20
635.286947021679
 30
0.0
 10
0.9305190769035733
 20
635.3600179877075
 30
0.0
 10
0.7796446366627292
 20
635.449599560928
 30
0.0
 10
0.6380394765155836
 20
635.555453737226
 30
0.0
 10
0.5068474874314731
 20
635.6763398028836
 30
0.0
 10
0.3881780896178756
 20
635.8098483140934
 30
0.0
 10
0.2832880845529628
 20
635.953199828363
 30
0.0
 10
0.1965230684072363
 20
636.1070988658623
 30
0.0
 10
0.124480205926206
 20
636.2692718461891
 30
0.0
 10
0.0681436349583912
 20
636.4404588276454
 30
0.0
 10
0.0284922396047698
 20
636.62084498241
 30
0.0
 10
0.0040395134695626
 20
636.8102561364968
 30
0.0
 10
0.0013643504793679
 20
636.9396283209979
 30
0.0
 10
0.0000000000000023
 20
637.0056089743589
 30
0.0
  0
LINE
  5
7D
330
1F
100
AcDbEntity
  8
0
  6
Continuous
 62
     7
370
    15
100
AcDbLine
 10
4.5769230769
 20
635.25
 30
0.0
 11
3.9487179487
 21
635.25
 31
0.0
  0
LINE
  5
7E
330
1F
100
AcDbEntity
  8
0
  6
Continuous
 62
     7
370
    15
100
AcDbLine
 10
3.9487179487
 20
635.25
 30
0.0
 11
3.9487179487
 21
638.75
 31
0.0
  0
LINE
  5
7F
330
1F
100
AcDbEntity
  8
0
  6
Continuous
 62
     7
370
    15
100
AcDbLine
 10
3.9487179487
 20
638.75
 30
0.0
 11
4.5769230769
 21
638.75
 31
0.0
  0
LINE
  5
80
330
1F
100
AcDbEntity
  8
0
  6
Continuous
 62
     7
370
    15
100
AcDbLine
 10
4.5769230769
 20
638.75
 30
0.0
 11
4.5769230769
 21
637.5181290064
 31
0.0
  0
LINE
  5
81
330
1F
100
AcDbEntity
  8
0
  6
Continuous
 62
     7
370
    15
100
AcDbLine
 10
4.5769230769
 20
637.5181290064
 30
0.0
 11
5.5697115385
 21
638.75
 31
0.0
  0
LINE
  5
82
330
1F
100
AcDbEntity
  8
0
  6
Continuous
 62
     7
370
    15
100
AcDbLine
 10
5.5697115385
 20
638.75
 30
0.0
 11
6.3626802885
 21
638.75
 31
0.0
  0
LINE
  5
83
330
1F
100
AcDbEntity
  8
0
  6
Continuous
 62
     7
370
    15
100
AcDbLine
 10
6.3626802885
 20
638.75
 30
0.0
 11
5.1153846154
 21
637.2019230769
 31
0.0
  0
LINE
  5
84
330
1F
100
AcDbEntity
  8
0
  6
Continuous
 62
     7
370
    15
100
AcDbLine
 10
5.1153846154
 20
637.2019230769
 30
0.0
 11
6.483974359
 21
635.25
 31
0.0
  0
LINE
  5
85
330
1F
100
AcDbEntity
  8
0
  6
Continuous
 62
     7
370
    15
100
AcDbLine
 10
6.483974359
 20
635.25
 30
0.0
 11
5.7274639423
 21
635.25
 31
0.0
  0
LINE
  5
86
330
1F
100
AcDbEntity
  8
0
  6
Continuous
 62
     7
370
    15
100
AcDbLine
 10
5.7274639423
 20
635.25
 30
0.0
 11
4.5769230769
 21
636.8913261218
 31
0.0
  0
LINE
  5
87
330
1F
100
AcDbEntity
  8
0
  6
Continuous
 62
     7
370
    15
100
AcDbLine
 10
4.5769230769
 20
636.8913261218
 30
0.0
 11
4.5769230769
 21
635.25
 31
0.0
  0
SPLINE
  5
88
330
1F
100
AcDbEntity
  8
0
  6
Continuous
 62
     7
370
    15
100
AcDbSpline
210
0.0
220
0.0
230
1.0
 70
     8
 71
     3
 72
    23
 73
    19
 74
     0
 42
0.000000001
 43
0.00000001
 40
0.0
 40
0.0
 40
0.0
 40
0.0
 40
0.0802588853381134
 40
0.1583905883454247
 40
0.2362576248303594
 40
0.315104765352088
 40
0.393221678624622
 40
0.468731283115903
 40
0.542781263915587
 40
0.6177081693395516
 40
0.6563652025204862
 40
0.6970796727899518
 40
0.7406969496811638
 40
0.7867286654533115
 40
0.8355790921841502
 40
0.8872495053564261
 40
0.941897666836158
 40
1.0
 40
1.0
 40
1.0
 40
1.0
 10
-4.038461538461541
 20
636.2631209935897
 30
0.0
 10
-4.040433722813876
 20
636.2153181313821
 30
0.0
 10
-4.044325820723985
 20
636.1209793745235
 30
0.0
 10
-4.072782941507519
 20
635.9824684130878
 30
0.0
 10
-4.122118546776408
 20
635.8511474587118
 30
0.0
 10
-4.188366091315157
 20
635.7275384370867
 30
0.0
 10
-4.269995812361787
 20
635.6152196264517
 30
0.0
 10
-4.363846582773252
 20
635.5168293234515
 30
0.0
 10
-4.468973540551961
 20
635.4335441162467
 30
0.0
 10
-4.565965865392407
 20
635.377333062436
 30
0.0
 10
-4.649856588152402
 20
635.3396101889106
 30
0.0
 10
-4.719341706427857
 20
635.3162875296495
 30
0.0
 10
-4.793967250610643
 20
635.2946814533548
 30
0.0
 10
-4.875100181440799
 20
635.27950922046
 30
0.0
 10
-4.961269669528316
 20
635.2656219245412
 30
0.0
 10
-5.053315872830698
 20
635.2570476203856
 30
0.0
 10
-5.151066758656788
 20
635.2512370257267
 30
0.0
 10
-5.218206292500373
 20
635.2504206783219
 30
0.0
 10
-5.252804487179489
 20
635.25
 30
0.0
  0
LINE
  5
89
330
1F
100
AcDbEntity
  8
0
  6
Continuous
 62
     7
370
    15
100
AcDbLine
 10
-5.2528044872
 20
635.25
 30
0.0
 11
-6.2371794872
 21
635.25
 31
0.0
  0
LINE
  5
8A
330
1F
100
AcDbEntity
  8
0
  6
Continuous
 62
     7
370
    15
100
AcDbLine
 10
-6.2371794872
 20
635.25
 30
0.0
 11
-6.2371794872
 21
638.75
 31
0.0
  0
LINE
  5
8B
330
1F
100
AcDbEntity
  8
0
  6
Continuous
 62
     7
370
    15
100
AcDbLine
 10
-6.2371794872
 20
638.75
 30
0.0
 11
-5.6762820513
 21
638.75
 31
0.0
  0
SPLINE
  5
8C
330
1F
100
AcDbEntity
  8
0
  6
Continuous
 62
     7
370
    15
100
AcDbSpline
210
0.0
220
0.0
230
1.0
 70
     8
 71
     3
 72
    15
 73
    11
 74
     0
 42
0.000000001
 43
0.00000001
 40
0.0
 40
0.0
 40
0.0
 40
0.0
 40
0.1639957318060742
 40
0.3173286319587159
 40
0.4580598946275443
 40
0.589158394585902
 40
0.7079520097453011
 40
0.8163219998754458
 40
0.9135847296003259
 40
1.0
 40
1.0
 40
1.0
 40
1.0
 10
-5.676282051282054
 20
638.7499999999999
 30
0.0
 10
-5.637015723632731
 20
638.7500044812598
 30
0.0
 10
-5.561036124055487
 20
638.7500131524124
 30
0.0
 10
-5.451417390746337
 20
638.7461637023902
 30
0.0
 10
-5.349755273183831
 20
638.7411840075385
 30
0.0
 10
-5.256373299627141
 20
638.735612886994
 30
0.0
 10
-5.171112527489537
 20
638.7260127331922
 30
0.0
 10
-5.094102609680038
 20
638.7158952197285
 30
0.0
 10
-5.025189679916951
 20
638.7036941220935
 30
0.0
 10
-4.98258456014102
 20
638.6927493594987
 30
0.0
 10
-4.962540064102567
 20
638.6876001602564
 30
0.0
  0
SPLINE
  5
8D
330
1F
100
AcDbEntity
  8
0
  6
Continuous
 62
     7
370
    15
100
AcDbSpline
210
0.0
220
0.0
230
1.0
 70
     8
 71
     3
 72
    23
 73
    19
 74
     0
 42
0.000000001
 43
0.00000001
 40
0.0
 40
0.0
 40
0.0
 40
0.0
 40
0.068749766315279
 40
0.1349091121452223
 40
0.1997210700545427
 40
0.2629736746369591
 40
0.325357023349064
 40
0.3873361409887799
 40
0.4494074874298318
 40
0.5111175193516623
 40
0.5724725853513789
 40
0.6330771719677406
 40
0.6928610080891481
 40
0.752560696754609
 40
0.8127375856308161
 40
0.873479312727957
 40
0.9357764600656187
 40
1.0
 40
1.0
 40
1.0
 40
1.0
 10
-4.962540064102567
 20
638.6876001602564
 30
0.0
 10
-4.936219605690656
 20
638.6803371230066
 30
0.0
 10
-4.884570416669097
 20
638.6660847122807
 30
0.0
 10
-4.810592295586727
 20
638.6373013528721
 30
0.0
 10
-4.740413728365965
 20
638.6053066081689
 30
0.0
 10
-4.67412040111414
 20
638.5688065884328
 30
0.0
 10
-4.612119381271435
 20
638.527360636149
 30
0.0
 10
-4.554646293830903
 20
638.4806398237665
 30
0.0
 10
-4.500461586508941
 20
638.4305195226876
 30
0.0
 10
-4.451489234560339
 20
638.375602894338
 30
0.0
 10
-4.407226297196603
 20
638.3175733037581
 30
0.0
 10
-4.368769740592574
 20
638.2564459562824
 30
0.0
 10
-4.335355921871431
 20
638.1931555289568
 30
0.0
 10
-4.308616114749207
 20
638.1269055538329
 30
0.0
 10
-4.28846817244441
 20
638.0580011299735
 30
0.0
 10
-4.273732051500909
 20
637.9867364899312
 30
0.0
 10
-4.264181049679611
 20
637.9128861348463
 30
0.0
 10
-4.263278605285919
 20
637.8626433245029
 30
0.0
 10
-4.262820512820515
 20
637.8371394230769
 30
0.0
  0
SPLINE
  5
8E
330
1F
100
AcDbEntity
  8
0
  6
Continuous
 62
     7
370
    15
100
AcDbSpline
210
0.0
220
0.0
230
1.0
 70
     8
 71
     3
 72
    15
 73
    11
 74
     0
 42
0.000000001
 43
0.00000001
 40
0.0
 40
0.0
 40
0.0
 40
0.0
 40
0.1232695606005534
 40
0.2426409842841001
 40
0.359427383939222
 40
0.4755502191345576
 40
0.593897674048271
 40
0.7202015971643189
 40
0.8544653148776239
 40
0.9999999999999999
 40
0.9999999999999999
 40
0.9999999999999999
 40
0.9999999999999999
 10
-4.262820512820515
 20
637.8371394230769
 30
0.0
 10
-4.26401828853683
 20
637.8043736041119
 30
0.0
 10
-4.266375962867317
 20
637.7398781153164
 30
0.0
 10
-4.281436947052481
 20
637.645145910872
 30
0.0
 10
-4.309678638981108
 20
637.5556103614962
 30
0.0
 10
-4.346632205995691
 20
637.4696213607905
 30
0.0
 10
-4.396877503887497
 20
637.3874996483501
 30
0.0
 10
-4.460679314669736
 20
637.3092842707694
 30
0.0
 10
-4.537004257988866
 20
637.2325668593153
 30
0.0
 10
-4.595549702897267
 20
637.186579946013
 30
0.0
 10
-4.626001602564105
 20
637.1626602564102
 30
0.0
  0
SPLINE
  5
8F
330
1F
100
AcDbEntity
  8
0
  6
Continuous
 62
     7
370
    15
100
AcDbSpline
210
0.0
220
0.0
230
1.0
 70
     8
 71
     3
 72
    23
 73
    19
 74
     0
 42
0.000000001
 43
0.00000001
 40
0.0
 40
0.0
 40
0.0
 40
0.0
 40
0.0727911822673769
 40
0.1427233695564833
 40
0.2094912699928708
 40
0.2747163184918585
 40
0.3368863886768049
 40
0.3976856020239852
 40
0.4570537497761176
 40
0.5153125941662903
 40
0.5728222022221183
 40
0.6307760073984715
 40
0.6895054947089676
 40
0.7487432781628003
 40
0.8092253247292808
 40
0.8707153202239847
 40
0.9342652493244573
 40
1.0
 40
1.0
 40
1.0
 40
1.0
 10
-4.626001602564105
 20
637.1626602564102
 30
0.0
 10
-4.601324843968174
 20
637.1500629851453
 30
0.0
 10
-4.552940547589987
 20
637.1253632214358
 30
0.0
 10
-4.484249061219796
 20
637.0847641832033
 30
0.0
 10
-4.420648243102208
 20
637.0415819570092
 30
0.0
 10
-4.36185292645532
 20
636.9966853866121
 30
0.0
 10
-4.309096410332717
 20
636.9481712413354
 30
0.0
 10
-4.260200289606524
 20
636.8988349728521
 30
0.0
 10
-4.217576845083252
 20
636.8458498181564
 30
0.0
 10
-4.1794616763428
 20
636.7911042690578
 30
0.0
 10
-4.146332591182079
 20
636.7338056036594
 30
0.0
 10
-4.117480811173754
 20
636.6740505864968
 30
0.0
 10
-4.093110747521077
 20
636.611635081425
 30
0.0
 10
-4.072473547297879
 20
636.5468767328309
 30
0.0
 10
-4.057082317899647
 20
636.4795528022925
 30
0.0
 10
-4.047046909027621
 20
636.4096392119732
 30
0.0
 10
-4.039363172717487
 20
636.3373744027684
 30
0.0
 10
-4.0387654502455
 20
636.2881494193618
 30
0.0
 10
-4.038461538461541
 20
636.2631209935897
 30
0.0
  0
ARC
  5
90
330
1F
100
AcDbEntity
  8
0
  6
Continuous
 62
     7
370
    15
100
AcDbCircle
 10
-13.1
 20
546.85
 30
0.0
 40
1.50000000000002
100
AcDbArc
 50
0.0
 51
180.0
  0
LINE
  5
91
330
1F
100
AcDbEntity
  8
0
  6
Continuous
 62
     7
370
    15
100
AcDbLine
 10
-11.6
 20
496.85
 30
0.0
 11
-11.6
 21
546.85
 31
0.0
  0
ARC
  5
92
330
1F
100
AcDbEntity
  8
0
  6
Continuous
 62
     7
370
    15
100
AcDbCircle
 10
-13.1
 20
496.85
 30
0.0
 40
1.500000000000014
100
AcDbArc
 50
180.0
 51
0.0
  0
LINE
  5
93
330
1F
100
AcDbEntity
  8
0
  6
Continuous
 62
     7
370
    15
100
AcDbLine
 10
-14.6
 20
546.85
 30
0.0
 11
-14.6
 21
496.85
 31
0.0
  0
ARC
  5
94
330
1F
100
AcDbEntity
  8
0
  6
Continuous
 62
     7
370
    15
100
AcDbCircle
 10
24.4
 20
546.85
 30
0.0
 40
1.499999999999986
100
AcDbArc
 50
0.0
 51
180.0
  0
LINE
  5
95
330
1F
100
AcDbEntity
  8
0
  6
Continuous
 62
     7
370
    15
100
AcDbLine
 10
25.9
 20
496.85
 30
0.0
 11
25.9
 21
546.85
 31
0.0
  0
ARC
  5
96
330
1F
100
AcDbEntity
  8
0
  6
Continuous
 62
     7
370
    15
100
AcDbCircle
 10
24.4
 20
496.85
 30
0.0
 40
1.499999999999986
100
AcDbArc
 50
180.0
 51
0.0
  0
LINE
  5
97
330
1F
100
AcDbEntity
  8
0
  6
Continuous
 62
     7
370
    15
100
AcDbLine
 10
22.9
 20
546.85
 30
0.0
 11
22.9
 21
496.85
 31
0.0
  0
ARC
  5
98
330
1F
100
AcDbEntity
  8
0
  6
Continuous
 62
     7
370
    15
100
AcDbCircle
 10
5.65
 20
502.85
 30
0.0
 40
1.500000000000001
100
AcDbArc
 50
180.0
 51
360.0
  0
LINE
  5
99
330
1F
100
AcDbEntity
  8
0
  6
Continuous
 62
     7
370
    15
100
AcDbLine
 10
4.15
 20
552.85
 30
0.0
 11
4.15
 21
502.85
 31
0.0
  0
ARC
  5
9A
330
1F
100
AcDbEntity
  8
0
  6
Continuous
 62
     7
370
    15
100
AcDbCircle
 10
5.65
 20
552.85
 30
0.0
 40
1.500000000000001
100
AcDbArc
 50
0.0
 51
180.0
  0
LINE
  5
9B
330
1F
100
AcDbEntity
  8
0
  6
Continuous
 62
     7
370
    15
100
AcDbLine
 10
7.15
 20
502.85
 30
0.0
 11
7.15
 21
552.85
 31
0.0
  0
CIRCLE
  5
9C
330
1F
100
AcDbEntity
  8
0
  6
Continuous
 62
     7
370
    15
100
AcDbCircle
 10
138.9666666667
 20
104.25
 30
0.0
 40
1.425000000000011
  0
CIRCLE
  5
9D
330
1F
100
AcDbEntity
  8
0
  6
Continuous
 62
     7
370
    15
100
AcDbCircle
 10
138.9666666667
 20
94.25
 30
0.0
 40
1.425000000000011
  0
CIRCLE
  5
9E
330
1F
100
AcDbEntity
  8
0
  6
Continuous
 62
     7
370
    15
100
AcDbCircle
 10
-138.9666666667
 20
104.25
 30
0.0
 40
1.425000000000011
  0
CIRCLE
  5
9F
330
1F
100
AcDbEntity
  8
0
  6
Continuous
 62
     7
370
    15
100
AcDbCircle
 10
-138.9666666667
 20
94.25
 30
0.0
 40
1.425000000000011
  0
CIRCLE
  5
A0
330
1F
100
AcDbEntity
  8
0
  6
Continuous
 62
     7
370
    15
100
AcDbCircle
 10
186.85
 20
404.0973522223
 30
0.0
 40
10.0
  0
CIRCLE
  5
A1
330
1F
100
AcDbEntity
  8
0
  6
Continuous
 62
     7
370
    15
100
AcDbCircle
 10
-186.85
 20
404.0973522223
 30
0.0
 40
10.0
  0
ARC
  5
A2
330
1F
100
AcDbEntity
  8
0
  6
Continuous
 62
     7
370
    15
100
AcDbCircle
 10
84.025
 20
457.35
 30
0.0
 40
1.500000000000014
100
AcDbArc
 50
180.0
 51
0.0
  0
LINE
  5
A3
330
1F
100
AcDbEntity
  8
0
  6
Continuous
 62
     7
370
    15
100
AcDbLine
 10
82.525
 20
507.35
 30
0.0
 11
82.525
 21
457.35
 31
0.0
  0
ARC
  5
A4
330
1F
100
AcDbEntity
  8
0
  6
Continuous
 62
     7
370
    15
100
AcDbCircle
 10
84.025
 20
507.35
 30
0.0
 40
1.500000000000028
100
AcDbArc
 50
0.0
 51
180.0
  0
LINE
  5
A5
330
1F
100
AcDbEntity
  8
0
  6
Continuous
 62
     7
370
    15
100
AcDbLine
 10
85.525
 20
457.35
 30
0.0
 11
85.525
 21
507.35
 31
0.0
  0
ARC
  5
A6
330
1F
100
AcDbEntity
  8
0
  6
Continuous
 62
     7
370
    15
100
AcDbCircle
 10
74.425
 20
457.35
 30
0.0
 40
1.500000000000014
100
AcDbArc
 50
180.0
 51
0.0
  0
LINE
  5
A7
330
1F
100
AcDbEntity
  8
0
  6
Continuous
 62
     7
370
    15
100
AcDbLine
 10
72.925
 20
507.35
 30
0.0
 11
72.925
 21
457.35
 31
0.0
  0
ARC
  5
A8
330
1F
100
AcDbEntity
  8
0
  6
Continuous
 62
     7
370
    15
100
AcDbCircle
 10
74.425
 20
507.35
 30
0.0
 40
1.500000000000014
100
AcDbArc
 50
360.0
 51
180.0
  0
LINE
  5
A9
330
1F
100
AcDbEntity
  8
0
  6
Continuous
 62
     7
370
    15
100
AcDbLine
 10
75.925
 20
457.35
 30
0.0
 11
75.925
 21
507.35
 31
0.0
  0
ARC
  5
AA
330
1F
100
AcDbEntity
  8
0
  6
Continuous
 62
     7
370
    15
100
AcDbCircle
 10
84.025
 20
133.85
 30
0.0
 40
1.5
100
AcDbArc
 50
180.0
 51
0.0
  0
LINE
  5
AB
330
1F
100
AcDbEntity
  8
0
  6
Continuous
 62
     7
370
    15
100
AcDbLine
 10
82.525
 20
183.85
 30
0.0
 11
82.525
 21
133.85
 31
0.0
  0
ARC
  5
AC
330
1F
100
AcDbEntity
  8
0
  6
Continuous
 62
     7
370
    15
100
AcDbCircle
 10
84.025
 20
183.85
 30
0.0
 40
1.500000000000014
100
AcDbArc
 50
0.0
 51
180.0
  0
LINE
  5
AD
330
1F
100
AcDbEntity
  8
0
  6
Continuous
 62
     7
370
    15
100
AcDbLine
 10
85.525
 20
133.85
 30
0.0
 11
85.525
 21
183.85
 31
0.0
  0
ARC
  5
AE
330
1F
100
AcDbEntity
  8
0
  6
Continuous
 62
     7
370
    15
100
AcDbCircle
 10
74.425
 20
133.85
 30
0.0
 40
1.500000000000014
100
AcDbArc
 50
180.0
 51
0.0
  0
LINE
  5
AF
330
1F
100
AcDbEntity
  8
0
  6
Continuous
 62
     7
370
    15
100
AcDbLine
 10
72.925
 20
183.85
 30
0.0
 11
72.925
 21
133.85
 31
0.0
  0
ARC
  5
B0
330
1F
100
AcDbEntity
  8
0
  6
Continuous
 62
     7
370
    15
100
AcDbCircle
 10
74.425
 20
183.85
 30
0.0
 40
1.500000000000014
100
AcDbArc
 50
0.0
 51
180.0
  0
LINE
  5
B1
330
1F
100
AcDbEntity
  8
0
  6
Continuous
 62
     7
370
    15
100
AcDbLine
 10
75.925
 20
133.85
 30
0.0
 11
75.925
 21
183.85
 31
0.0
  0
CIRCLE
  5
B2
330
1F
100
AcDbEntity
  8
0
  6
Continuous
 62
     7
370
    15
100
AcDbCircle
 10
-179.35
 20
434.0973522223
 30
0.0
 40
1.425000000000011
  0
CIRCLE
  5
B3
330
1F
100
AcDbEntity
  8
0
  6
Continuous
 62
     7
370
    15
100
AcDbCircle
 10
-194.35
 20
434.0973522223
 30
0.0
 40
1.425000000000011
  0
ARC
  5
B4
330
1F
100
AcDbEntity
  8
0
  6
Continuous
 62
     7
370
    15
100
AcDbCircle
 10
-186.85
 20
482.0973522223
 30
0.0
 40
11.0
100
AcDbArc
 50
180.0
 51
0.0
  0
LINE
  5
B5
330
1F
100
AcDbEntity
  8
0
  6
Continuous
 62
     7
370
    15
100
AcDbLine
 10
-197.85
 20
504.0973522223
 30
0.0
 11
-197.85
 21
482.0973522223
 31
0.0
  0
ARC
  5
B6
330
1F
100
AcDbEntity
  8
0
  6
Continuous
 62
     7
370
    15
100
AcDbCircle
 10
-186.85
 20
504.0973522223
 30
0.0
 40
11.0
100
AcDbArc
 50
0.0
 51
180.0
  0
LINE
  5
B7
330
1F
100
AcDbEntity
  8
0
  6
Continuous
 62
     7
370
    15
100
AcDbLine
 10
-175.85
 20
482.0973522223
 30
0.0
 11
-175.85
 21
504.0973522223
 31
0.0
  0
ARC
  5
B8
330
1F
100
AcDbEntity
  8
0
  6
Continuous
 62
     7
370
    15
100
AcDbCircle
 10
-202.35
 20
488.5973522223
 30
0.0
 40
1.500000000000085
100
AcDbArc
 50
0.0
 51
180.0
  0
LINE
  5
B9
330
1F
100
AcDbEntity
  8
0
  6
Continuous
 62
     7
370
    15
100
AcDbLine
 10
-200.85
 20
466.5973522223
 30
0.0
 11
-200.85
 21
488.5973522223
 31
0.0
  0
ARC
  5
BA
330
1F
100
AcDbEntity
  8
0
  6
Continuous
 62
     7
370
    15
100
AcDbCircle
 10
-202.35
 20
466.5973522223
 30
0.0
 40
1.500000000000398
100
AcDbArc
 50
180.0
 51
0.0
  0
LINE
  5
BB
330
1F
100
AcDbEntity
  8
0
  6
Continuous
 62
     7
370
    15
100
AcDbLine
 10
-203.85
 20
488.5973522223
 30
0.0
 11
-203.85
 21
466.5973522223
 31
0.0
  0
ARC
  5
BC
330
1F
100
AcDbEntity
  8
0
  6
Continuous
 62
     7
370
    15
100
AcDbCircle
 10
-171.35
 20
488.5973522223
 30
0.0
 40
1.500000000000369
100
AcDbArc
 50
0.0
 51
180.0
  0
LINE
  5
BD
330
1F
100
AcDbEntity
  8
0
  6
Continuous
 62
     7
370
    15
100
AcDbLine
 10
-169.85
 20
466.5973522223
 30
0.0
 11
-169.85
 21
488.5973522223
 31
0.0
  0
ARC
  5
BE
330
1F
100
AcDbEntity
  8
0
  6
Continuous
 62
     7
370
    15
100
AcDbCircle
 10
-171.35
 20
466.5973522223
 30
0.0
 40
1.500000000000085
100
AcDbArc
 50
180.0
 51
0.0
  0
LINE
  5
BF
330
1F
100
AcDbEntity
  8
0
  6
Continuous
 62
     7
370
    15
100
AcDbLine
 10
-172.85
 20
488.5973522223
 30
0.0
 11
-172.85
 21
466.5973522223
 31
0.0
  0
ARC
  5
C0
330
1F
100
AcDbEntity
  8
0
  6
Continuous
 62
     7
370
    15
100
AcDbCircle
 10
-171.35
 20
519.5973522223
 30
0.0
 40
1.500000000000398
100
AcDbArc
 50
0.0
 51
180.0
  0
LINE
  5
C1
330
1F
100
AcDbEntity
  8
0
  6
Continuous
 62
     7
370
    15
100
AcDbLine
 10
-169.85
 20
497.5973522223
 30
0.0
 11
-169.85
 21
519.5973522223
 31
0.0
  0
ARC
  5
C2
330
1F
100
AcDbEntity
  8
0
  6
Continuous
 62
     7
370
    15
100
AcDbCircle
 10
-171.35
 20
497.5973522223
 30
0.0
 40
1.500000000000057
100
AcDbArc
 50
180.0
 51
360.0
  0
LINE
  5
C3
330
1F
100
AcDbEntity
  8
0
  6
Continuous
 62
     7
370
    15
100
AcDbLine
 10
-172.85
 20
519.5973522223
 30
0.0
 11
-172.85
 21
497.5973522223
 31
0.0
  0
ARC
  5
C4
330
1F
100
AcDbEntity
  8
0
  6
Continuous
 62
     7
370
    15
100
AcDbCircle
 10
-202.35
 20
519.5973522223
 30
0.0
 40
1.500000000000114
100
AcDbArc
 50
360.0
 51
180.0
  0
LINE
  5
C5
330
1F
100
AcDbEntity
  8
0
  6
Continuous
 62
     7
370
    15
100
AcDbLine
 10
-200.85
 20
497.5973522223
 30
0.0
 11
-200.85
 21
519.5973522223
 31
0.0
  0
ARC
  5
C6
330
1F
100
AcDbEntity
  8
0
  6
Continuous
 62
     7
370
    15
100
AcDbCircle
 10
-202.35
 20
497.5973522223
 30
0.0
 40
1.500000000000085
100
AcDbArc
 50
180.0
 51
360.0
  0
LINE
  5
C7
330
1F
100
AcDbEntity
  8
0
  6
Continuous
 62
     7
370
    15
100
AcDbLine
 10
-203.85
 20
519.5973522223
 30
0.0
 11
-203.85
 21
497.5973522223
 31
0.0
  0
CIRCLE
  5
C8
330
1F
100
AcDbEntity
  8
0
  6
Continuous
 62
     7
370
    15
100
AcDbCircle
 10
60.4833333333
 20
32.35
 30
0.0
 40
1.425000000000004
  0
CIRCLE
  5
C9
330
1F
100
AcDbEntity
  8
0
  6
Continuous
 62
     7
370
    15
100
AcDbCircle
 10
78.4833333333
 20
32.35
 30
0.0
 40
1.424999999999997
  0
CIRCLE
  5
CA
330
1F
100
AcDbEntity
  8
0
  6
Continuous
 62
     7
370
    15
100
AcDbCircle
 10
-60.4833333333
 20
32.35
 30
0.0
 40
1.425000000000004
  0
CIRCLE
  5
CB
330
1F
100
AcDbEntity
  8
0
  6
Continuous
 62
     7
370
    15
100
AcDbCircle
 10
-78.4833333333
 20
32.35
 30
0.0
 40
1.424999999999997
  0
CIRCLE
  5
CC
330
1F
100
AcDbEntity
  8
0
  6
Continuous
 62
     7
370
    15
100
AcDbCircle
 10
158.45
 20
209.125
 30
0.0
 40
1.425000000000011
  0
CIRCLE
  5
CD
330
1F
100
AcDbEntity
  8
0
  6
Continuous
 62
     7
370
    15
100
AcDbCircle
 10
158.45
 20
253.625
 30
0.0
 40
1.425000000000011
  0
CIRCLE
  5
CE
330
1F
100
AcDbEntity
  8
0
  6
Continuous
 62
     7
370
    15
100
AcDbCircle
 10
149.55
 20
526.3
 30
0.0
 40
2.425000000000097
  0
CIRCLE
  5
CF
330
1F
100
AcDbEntity
  8
0
  6
Continuous
 62
     7
370
    15
100
AcDbCircle
 10
149.55
 20
588.3
 30
0.0
 40
2.425000000000125
  0
CIRCLE
  5
D0
330
1F
100
AcDbEntity
  8
0
  6
Continuous
 62
     7
370
    15
100
AcDbCircle
 10
0.0
 20
209.125
 30
0.0
 40
1.424999999999999
  0
CIRCLE
  5
D1
330
1F
100
AcDbEntity
  8
0
  6
Continuous
 62
     7
370
    15
100
AcDbCircle
 10
0.0
 20
253.625
 30
0.0
 40
1.424999999999999
  0
LINE
  5
D2
330
1F
100
AcDbEntity
  8
0
  6
Continuous
 62
     7
370
    15
100
AcDbLine
 10
16.0
 20
200.2
 30
0.0
 11
16.0
 21
262.7
 31
0.0
  0
LINE
  5
D3
330
1F
100
AcDbEntity
  8
0
  6
Continuous
 62
     7
370
    15
100
AcDbLine
 10
8.0
 20
200.2
 30
0.0
 11
16.0
 21
200.2
 31
0.0
  0
LINE
  5
D4
330
1F
100
AcDbEntity
  8
0
  6
Continuous
 62
     7
370
    15
100
AcDbLine
 10
8.0
 20
262.7
 30
0.0
 11
8.0
 21
200.2
 31
0.0
  0
LINE
  5
D5
330
1F
100
AcDbEntity
  8
0
  6
Continuous
 62
     7
370
    15
100
AcDbLine
 10
16.0
 20
262.7
 30
0.0
 11
8.0
 21
262.7
 31
0.0
  0
LINE
  5
D6
330
1F
100
AcDbEntity
  8
0
  6
Continuous
 62
     7
370
    15
100
AcDbLine
 10
-8.0
 20
200.2
 30
0.0
 11
-8.0
 21
262.7
 31
0.0
  0
LINE
  5
D7
330
1F
100
AcDbEntity
  8
0
  6
Continuous
 62
     7
370
    15
100
AcDbLine
 10
-16.0
 20
200.2
 30
0.0
 11
-8.0
 21
200.2
 31
0.0
  0
LINE
  5
D8
330
1F
100
AcDbEntity
  8
0
  6
Continuous
 62
     7
370
    15
100
AcDbLine
 10
-16.0
 20
262.7
 30
0.0
 11
-16.0
 21
200.2
 31
0.0
  0
LINE
  5
D9
330
1F
100
AcDbEntity
  8
0
  6
Continuous
 62
     7
370
    15
100
AcDbLine
 10
-8.0
 20
262.7
 30
0.0
 11
-16.0
 21
262.7
 31
0.0
  0
CIRCLE
  5
DA
330
1F
100
AcDbEntity
  8
0
  6
Continuous
 62
     7
370
    15
100
AcDbCircle
 10
-158.45
 20
209.125
 30
0.0
 40
1.425000000000011
  0
CIRCLE
  5
DB
330
1F
100
AcDbEntity
  8
0
  6
Continuous
 62
     7
370
    15
100
AcDbCircle
 10
-158.45
 20
253.625
 30
0.0
 40
1.425000000000011
  0
LINE
  5
DC
330
1F
100
AcDbEntity
  8
0
  6
Continuous
 62
     7
370
    15
100
AcDbLine
 10
-142.45
 20
200.2
 30
0.0
 11
-142.45
 21
262.7
 31
0.0
  0
LINE
  5
DD
330
1F
100
AcDbEntity
  8
0
  6
Continuous
 62
     7
370
    15
100
AcDbLine
 10
-150.45
 20
200.2
 30
0.0
 11
-142.45
 21
200.2
 31
0.0
  0
LINE
  5
DE
330
1F
100
AcDbEntity
  8
0
  6
Continuous
 62
     7
370
    15
100
AcDbLine
 10
-150.45
 20
262.7
 30
0.0
 11
-150.45
 21
200.2
 31
0.0
  0
LINE
  5
DF
330
1F
100
AcDbEntity
  8
0
  6
Continuous
 62
     7
370
    15
100
AcDbLine
 10
-142.45
 20
262.7
 30
0.0
 11
-150.45
 21
262.7
 31
0.0
  0
LINE
  5
E0
330
1F
100
AcDbEntity
  8
0
  6
Continuous
 62
     7
370
    15
100
AcDbLine
 10
-166.45
 20
200.2
 30
0.0
 11
-166.45
 21
262.7
 31
0.0
  0
LINE
  5
E1
330
1F
100
AcDbEntity
  8
0
  6
Continuous
 62
     7
370
    15
100
AcDbLine
 10
-174.45
 20
200.2
 30
0.0
 11
-166.45
 21
200.2
 31
0.0
  0
LINE
  5
E2
330
1F
100
AcDbEntity
  8
0
  6
Continuous
 62
     7
370
    15
100
AcDbLine
 10
-174.45
 20
262.7
 30
0.0
 11
-174.45
 21
200.2
 31
0.0
  0
LINE
  5
E3
330
1F
100
AcDbEntity
  8
0
  6
Continuous
 62
     7
370
    15
100
AcDbLine
 10
-166.45
 20
262.7
 30
0.0
 11
-174.45
 21
262.7
 31
0.0
  0
CIRCLE
  5
E4
330
1F
100
AcDbEntity
  8
0
  6
Continuous
 62
     7
370
    15
100
AcDbCircle
 10
-149.55
 20
526.3
 30
0.0
 40
2.425000000000097
  0
CIRCLE
  5
E5
330
1F
100
AcDbEntity
  8
0
  6
Continuous
 62
     7
370
    15
100
AcDbCircle
 10
-149.55
 20
588.3
 30
0.0
 40
2.425000000000125
  0
ARC
  5
E6
330
1F
100
AcDbEntity
  8
0
  6
Continuous
 62
     7
370
    15
100
AcDbCircle
 10
-50.0
 20
624.65
 30
0.0
 40
7.500000000000114
100
AcDbArc
 50
90.0
 51
270.0
  0
LINE
  5
E7
330
1F
100
AcDbEntity
  8
0
  6
Continuous
 62
     7
370
    15
100
AcDbLine
 10
50.0
 20
632.15
 30
0.0
 11
-50.0
 21
632.15
 31
0.0
  0
ARC
  5
E8
330
1F
100
AcDbEntity
  8
0
  6
Continuous
 62
     7
370
    15
100
AcDbCircle
 10
50.0
 20
624.65
 30
0.0
 40
7.500000000000114
100
AcDbArc
 50
270.0
 51
90.0
  0
LINE
  5
E9
330
1F
100
AcDbEntity
  8
0
  6
Continuous
 62
     7
370
    15
100
AcDbLine
 10
-50.0
 20
617.15
 30
0.0
 11
50.0
 21
617.15
 31
0.0
  0
CIRCLE
  5
EA
330
1F
100
AcDbEntity
  8
0
  6
Continuous
 62
     7
370
    15
100
AcDbCircle
 10
189.55
 20
551.8
 30
0.0
 40
2.425000000000125
  0
CIRCLE
  5
EB
330
1F
100
AcDbEntity
  8
0
  6
Continuous
 62
     7
370
    15
100
AcDbCircle
 10
189.55
 20
588.3
 30
0.0
 40
2.425000000000125
  0
CIRCLE
  5
EC
330
1F
100
AcDbEntity
  8
0
  6
Continuous
 62
     7
370
    15
100
AcDbCircle
 10
189.55
 20
570.05
 30
0.0
 40
7.900000000000006
  0
LINE
  5
ED
330
1F
100
AcDbEntity
  8
0
  6
Continuous
 62
     7
370
    15
100
AcDbLine
 10
185.6632486541
 20
5.0
 30
0.0
 11
182.6898947677
 21
10.15
 31
0.0
  0
ARC
  5
EE
330
1F
100
AcDbEntity
  8
0
  6
Continuous
 62
     7
370
    15
100
AcDbCircle
 10
194.3235026919
 20
10.0
 30
0.0
 40
10.0
100
AcDbArc
 50
210.0
 51
270.0
  0
LINE
  5
EF
330
1F
100
AcDbEntity
  8
0
  6
Continuous
 62
     7
370
    15
100
AcDbLine
 10
208.55
 20
0.0
 30
0.0
 11
194.3235026919
 21
0.0
 31
0.0
  0
ARC
  5
F0
330
1F
100
AcDbEntity
  8
0
  6
Continuous
 62
     7
370
    15
100
AcDbCircle
 10
208.55
 20
10.0
 30
0.0
 40
10.0
100
AcDbArc
 50
270.0
 51
0.0
  0
LINE
  5
F1
330
1F
100
AcDbEntity
  8
0
  6
Continuous
 62
     7
370
    15
100
AcDbLine
 10
218.55
 20
632.25
 30
0.0
 11
218.55
 21
10.0
 31
0.0
  0
ARC
  5
F2
330
1F
100
AcDbEntity
  8
0
  6
Continuous
 62
     7
370
    15
100
AcDbCircle
 10
208.55
 20
632.25
 30
0.0
 40
10.0
100
AcDbArc
 50
0.0
 51
90.0
  0
LINE
  5
F3
330
1F
100
AcDbEntity
  8
0
  6
Continuous
 62
     7
370
    15
100
AcDbLine
 10
191.2294919243
 20
642.25
 30
0.0
 11
208.55
 21
642.25
 31
0.0
  0
ARC
  5
F4
330
1F
100
AcDbEntity
  8
0
  6
Continuous
 62
     7
370
    15
100
AcDbCircle
 10
191.2294919243
 20
652.25
 30
0.0
 40
10.00000000000005
100
AcDbArc
 50
240.0
 51
270.0
  0
LINE
  5
F5
330
1F
100
AcDbEntity
  8
0
  6
Continuous
 62
     7
370
    15
100
AcDbLine
 10
173.3767949192
 20
651.0102540378
 30
0.0
 11
186.2294919243
 21
643.5897459622
 31
0.0
  0
ARC
  5
F6
330
1F
100
AcDbEntity
  8
0
  6
Continuous
 62
     7
370
    15
100
AcDbCircle
 10
168.3767949192
 20
642.35
 30
0.0
 40
10.00000000000005
100
AcDbArc
 50
60.0
 51
90.0
  0
LINE
  5
F7
330
1F
100
AcDbEntity
  8
0
  6
Continuous
 62
     7
370
    15
100
AcDbLine
 10
168.3767949192
 20
652.35
 30
0.0
 11
-168.3767949192
 21
652.35
 31
0.0
  0
ARC
  5
F8
330
1F
100
AcDbEntity
  8
0
  6
Continuous
 62
     7
370
    15
100
AcDbCircle
 10
-168.3767949192
 20
642.35
 30
0.0
 40
10.00000000000006
100
AcDbArc
 50
90.0
 51
120.0
  0
LINE
  5
F9
330
1F
100
AcDbEntity
  8
0
  6
Continuous
 62
     7
370
    15
100
AcDbLine
 10
-173.3767949192
 20
651.0102540378
 30
0.0
 11
-186.2294919243
 21
643.5897459622
 31
0.0
  0
ARC
  5
FA
330
1F
100
AcDbEntity
  8
0
  6
Continuous
 62
     7
370
    15
100
AcDbCircle
 10
-191.2294919243
 20
652.25
 30
0.0
 40
10.00000000000005
100
AcDbArc
 50
270.0
 51
300.0
  0
LINE
  5
FB
330
1F
100
AcDbEntity
  8
0
  6
Continuous
 62
     7
370
    15
100
AcDbLine
 10
-191.2294919243
 20
642.25
 30
0.0
 11
-208.55
 21
642.25
 31
0.0
  0
ARC
  5
FC
330
1F
100
AcDbEntity
  8
0
  6
Continuous
 62
     7
370
    15
100
AcDbCircle
 10
-208.55
 20
632.25
 30
0.0
 40
10.0
100
AcDbArc
 50
90.0
 51
180.0
  0
LINE
  5
FD
330
1F
100
AcDbEntity
  8
0
  6
Continuous
 62
     7
370
    15
100
AcDbLine
 10
-218.55
 20
632.25
 30
0.0
 11
-218.55
 21
10.0
 31
0.0
  0
ARC
  5
FE
330
1F
100
AcDbEntity
  8
0
  6
Continuous
 62
     7
370
    15
100
AcDbCircle
 10
-208.55
 20
10.0
 30
0.0
 40
10.0
100
AcDbArc
 50
180.0
 51
270.0
  0
LINE
  5
FF
330
1F
100
AcDbEntity
  8
0
  6
Continuous
 62
     7
370
    15
100
AcDbLine
 10
-208.55
 20
0.0
 30
0.0
 11
-194.3235026919
 21
0.0
 31
0.0
  0
ARC
  5
100
330
1F
100
AcDbEntity
  8
0
  6
Continuous
 62
     7
370
    15
100
AcDbCircle
 10
-194.3235026919
 20
10.0
 30
0.0
 40
10.0
100
AcDbArc
 50
270.0
 51
330.0
  0
LINE
  5
101
330
1F
100
AcDbEntity
  8
0
  6
Continuous
 62
     7
370
    15
100
AcDbLine
 10
-185.6632486541
 20
5.0
 30
0.0
 11
-182.6898947677
 21
10.15
 31
0.0
  0
ARC
  5
102
330
1F
100
AcDbEntity
  8
0
  6
Continuous
 62
     7
370
    15
100
AcDbCircle
 10
-174.0296407299
 20
5.15
 30
0.0
 40
10.0
100
AcDbArc
 50
90.0
 51
150.0
  0
LINE
  5
103
330
1F
100
AcDbEntity
  8
0
  6
Continuous
 62
     7
370
    15
100
AcDbLine
 10
-174.0296407299
 20
15.15
 30
0.0
 11
174.0296407299
 21
15.15
 31
0.0
  0
ARC
  5
104
330
1F
100
AcDbEntity
  8
0
  6
Continuous
 62
     7
370
    15
100
AcDbCircle
 10
174.0296407299
 20
5.15
 30
0.0
 40
9.999999999999996
100
AcDbArc
 50
30.0
 51
90.0
  0
CIRCLE
  5
105
330
1F
100
AcDbEntity
  8
0
  6
Continuous
 62
     7
370
    15
100
AcDbCircle
 10
-189.55
 20
551.8
 30
0.0
 40
2.425000000000097
  0
CIRCLE
  5
106
330
1F
100
AcDbEntity
  8
0
  6
Continuous
 62
     7
370
    15
100
AcDbCircle
 10
-189.55
 20
588.3
 30
0.0
 40
2.425000000000097
  0
CIRCLE
  5
107
330
1F
100
AcDbEntity
  8
0
  6
Continuous
 62
     7
370
    15
100
AcDbCircle
 10
-189.55
 20
570.05
 30
0.0
 40
7.899999999999977
  0
CIRCLE
  5
108
330
1F
100
AcDbEntity
  8
0
  6
Continuous
 62
     7
370
    15
100
AcDbCircle
 10
-138.9666666667
 20
129.25
 30
0.0
 40
1.425000000000011
  0
LINE
  5
109
330
1F
100
AcDbEntity
  8
0
  6
Continuous
 62
     7
370
    15
100
AcDbLine
 10
-208.35
 20
108.75
 30
0.0
 11
-214.55
 21
108.75
 31
0.0
  0
LINE
  5
10A
330
1F
100
AcDbEntity
  8
0
  6
Continuous
 62
     7
370
    15
100
AcDbLine
 10
-208.35
 20
98.75
 30
0.0
 11
-208.35
 21
108.75
 31
0.0
  0
LINE
  5
10B
330
1F
100
AcDbEntity
  8
0
  6
Continuous
 62
     7
370
    15
100
AcDbLine
 10
-214.55
 20
98.75
 30
0.0
 11
-208.35
 21
98.75
 31
0.0
  0
LINE
  5
10C
330
1F
100
AcDbEntity
  8
0
  6
Continuous
 62
     7
370
    15
100
AcDbLine
 10
-214.55
 20
108.75
 30
0.0
 11
-214.55
 21
98.75
 31
0.0
  0
LINE
  5
10D
330
1F
100
AcDbEntity
  8
0
  6
Continuous
 62
     7
370
    15
100
AcDbLine
 10
-208.35
 20
158.75
 30
0.0
 11
-214.55
 21
158.75
 31
0.0
  0
LINE
  5
10E
330
1F
100
AcDbEntity
  8
0
  6
Continuous
 62
     7
370
    15
100
AcDbLine
 10
-208.35
 20
148.75
 30
0.0
 11
-208.35
 21
158.75
 31
0.0
  0
LINE
  5
10F
330
1F
100
AcDbEntity
  8
0
  6
Continuous
 62
     7
370
    15
100
AcDbLine
 10
-214.55
 20
148.75
 30
0.0
 11
-208.35
 21
148.75
 31
0.0
  0
LINE
  5
110
330
1F
100
AcDbEntity
  8
0
  6
Continuous
 62
     7
370
    15
100
AcDbLine
 10
-214.55
 20
158.75
 30
0.0
 11
-214.55
 21
148.75
 31
0.0
  0
CIRCLE
  5
111
330
1F
100
AcDbEntity
  8
0
  6
Continuous
 62
     7
370
    15
100
AcDbCircle
 10
-211.45
 20
334.15
 30
0.0
 40
1.425000000000011
  0
LINE
  5
112
330
1F
100
AcDbEntity
  8
0
  6
Continuous
 62
     7
370
    15
100
AcDbLine
 10
-208.35
 20
519.55
 30
0.0
 11
-214.55
 21
519.55
 31
0.0
  0
LINE
  5
113
330
1F
100
AcDbEntity
  8
0
  6
Continuous
 62
     7
370
    15
100
AcDbLine
 10
-208.35
 20
509.55
 30
0.0
 11
-208.35
 21
519.55
 31
0.0
  0
LINE
  5
114
330
1F
100
AcDbEntity
  8
0
  6
Continuous
 62
     7
370
    15
100
AcDbLine
 10
-214.55
 20
509.55
 30
0.0
 11
-208.35
 21
509.55
 31
0.0
  0
LINE
  5
115
330
1F
100
AcDbEntity
  8
0
  6
Continuous
 62
     7
370
    15
100
AcDbLine
 10
-214.55
 20
519.55
 30
0.0
 11
-214.55
 21
509.55
 31
0.0
  0
LINE
  5
116
330
1F
100
AcDbEntity
  8
0
  6
Continuous
 62
     7
370
    15
100
AcDbLine
 10
-208.35
 20
569.55
 30
0.0
 11
-214.55
 21
569.55
 31
0.0
  0
LINE
  5
117
330
1F
100
AcDbEntity
  8
0
  6
Continuous
 62
     7
370
    15
100
AcDbLine
 10
-208.35
 20
559.55
 30
0.0
 11
-208.35
 21
569.55
 31
0.0
  0
LINE
  5
118
330
1F
100
AcDbEntity
  8
0
  6
Continuous
 62
     7
370
    15
100
AcDbLine
 10
-214.55
 20
559.55
 30
0.0
 11
-208.35
 21
559.55
 31
0.0
  0
LINE
  5
119
330
1F
100
AcDbEntity
  8
0
  6
Continuous
 62
     7
370
    15
100
AcDbLine
 10
-214.55
 20
569.55
 30
0.0
 11
-214.55
 21
559.55
 31
0.0
  0
LINE
  5
11A
330
1F
100
AcDbEntity
  8
0
  6
Continuous
 62
     7
370
    15
100
AcDbLine
 10
-108.9666666667
 20
132.35
 30
0.0
 11
-118.9666666667
 21
132.35
 31
0.0
  0
LINE
  5
11B
330
1F
100
AcDbEntity
  8
0
  6
Continuous
 62
     7
370
    15
100
AcDbLine
 10
-108.9666666667
 20
126.15
 30
0.0
 11
-108.9666666667
 21
132.35
 31
0.0
  0
LINE
  5
11C
330
1F
100
AcDbEntity
  8
0
  6
Continuous
 62
     7
370
    15
100
AcDbLine
 10
-118.9666666667
 20
126.15
 30
0.0
 11
-108.9666666667
 21
126.15
 31
0.0
  0
LINE
  5
11D
330
1F
100
AcDbEntity
  8
0
  6
Continuous
 62
     7
370
    15
100
AcDbLine
 10
-118.9666666667
 20
132.35
 30
0.0
 11
-118.9666666667
 21
126.15
 31
0.0
  0
LINE
  5
11E
330
1F
100
AcDbEntity
  8
0
  6
Continuous
 62
     7
370
    15
100
AcDbLine
 10
-108.9666666667
 20
648.35
 30
0.0
 11
-118.9666666667
 21
648.35
 31
0.0
  0
LINE
  5
11F
330
1F
100
AcDbEntity
  8
0
  6
Continuous
 62
     7
370
    15
100
AcDbLine
 10
-108.9666666667
 20
642.15
 30
0.0
 11
-108.9666666667
 21
648.35
 31
0.0
  0
LINE
  5
120
330
1F
100
AcDbEntity
  8
0
  6
Continuous
 62
     7
370
    15
100
AcDbLine
 10
-118.9666666667
 20
642.15
 30
0.0
 11
-108.9666666667
 21
642.15
 31
0.0
  0
LINE
  5
121
330
1F
100
AcDbEntity
  8
0
  6
Continuous
 62
     7
370
    15
100
AcDbLine
 10
-118.9666666667
 20
648.35
 30
0.0
 11
-118.9666666667
 21
642.15
 31
0.0
  0
CIRCLE
  5
122
330
1F
100
AcDbEntity
  8
0
  6
Continuous
 62
     7
370
    15
100
AcDbCircle
 10
0.0
 20
645.25
 30
0.0
 40
1.42500000000001
  0
CIRCLE
  5
123
330
1F
100
AcDbEntity
  8
0
  6
Continuous
 62
     7
370
    15
100
AcDbCircle
 10
-211.45
 20
539.55
 30
0.0
 40
1.42500000000004
  0
LINE
  5
124
330
1F
100
AcDbEntity
  8
0
  6
Continuous
 62
     7
370
    15
100
AcDbLine
 10
-208.35
 20
364.15
 30
0.0
 11
-214.55
 21
364.15
 31
0.0
  0
LINE
  5
125
330
1F
100
AcDbEntity
  8
0
  6
Continuous
 62
     7
370
    15
100
AcDbLine
 10
-208.35
 20
354.15
 30
0.0
 11
-208.35
 21
364.15
 31
0.0
  0
LINE
  5
126
330
1F
100
AcDbEntity
  8
0
  6
Continuous
 62
     7
370
    15
100
AcDbLine
 10
-214.55
 20
354.15
 30
0.0
 11
-208.35
 21
354.15
 31
0.0
  0
LINE
  5
127
330
1F
100
AcDbEntity
  8
0
  6
Continuous
 62
     7
370
    15
100
AcDbLine
 10
-214.55
 20
364.15
 30
0.0
 11
-214.55
 21
354.15
 31
0.0
  0
LINE
  5
128
330
1F
100
AcDbEntity
  8
0
  6
Continuous
 62
     7
370
    15
100
AcDbLine
 10
-208.35
 20
314.15
 30
0.0
 11
-214.55
 21
314.15
 31
0.0
  0
LINE
  5
129
330
1F
100
AcDbEntity
  8
0
  6
Continuous
 62
     7
370
    15
100
AcDbLine
 10
-208.35
 20
304.15
 30
0.0
 11
-208.35
 21
314.15
 31
0.0
  0
LINE
  5
12A
330
1F
100
AcDbEntity
  8
0
  6
Continuous
 62
     7
370
    15
100
AcDbLine
 10
-214.55
 20
304.15
 30
0.0
 11
-208.35
 21
304.15
 31
0.0
  0
LINE
  5
12B
330
1F
100
AcDbEntity
  8
0
  6
Continuous
 62
     7
370
    15
100
AcDbLine
 10
-214.55
 20
314.15
 30
0.0
 11
-214.55
 21
304.15
 31
0.0
  0
CIRCLE
  5
12C
330
1F
100
AcDbEntity
  8
0
  6
Continuous
 62
     7
370
    15
100
AcDbCircle
 10
-211.45
 20
128.75
 30
0.0
 40
1.425000000000011
  0
LINE
  5
12D
330
1F
100
AcDbEntity
  8
0
  6
Continuous
 62
     7
370
    15
100
AcDbLine
 10
-158.9666666667
 20
132.35
 30
0.0
 11
-168.9666666667
 21
132.35
 31
0.0
  0
LINE
  5
12E
330
1F
100
AcDbEntity
  8
0
  6
Continuous
 62
     7
370
    15
100
AcDbLine
 10
-158.9666666667
 20
126.15
 30
0.0
 11
-158.9666666667
 21
132.35
 31
0.0
  0
LINE
  5
12F
330
1F
100
AcDbEntity
  8
0
  6
Continuous
 62
     7
370
    15
100
AcDbLine
 10
-168.9666666667
 20
126.15
 30
0.0
 11
-158.9666666667
 21
126.15
 31
0.0
  0
LINE
  5
130
330
1F
100
AcDbEntity
  8
0
  6
Continuous
 62
     7
370
    15
100
AcDbLine
 10
-168.9666666667
 20
132.35
 30
0.0
 11
-168.9666666667
 21
126.15
 31
0.0
  0
CIRCLE
  5
131
330
1F
100
AcDbEntity
  8
0
  6
Continuous
 62
     7
370
    15
100
AcDbCircle
 10
-138.9666666667
 20
645.25
 30
0.0
 40
1.42500000000004
  0
LINE
  5
132
330
1F
100
AcDbEntity
  8
0
  6
Continuous
 62
     7
370
    15
100
AcDbLine
 10
-20.0
 20
648.35
 30
0.0
 11
-30.0
 21
648.35
 31
0.0
  0
LINE
  5
133
330
1F
100
AcDbEntity
  8
0
  6
Continuous
 62
     7
370
    15
100
AcDbLine
 10
-20.0
 20
642.15
 30
0.0
 11
-20.0
 21
648.35
 31
0.0
  0
LINE
  5
134
330
1F
100
AcDbEntity
  8
0
  6
Continuous
 62
     7
370
    15
100
AcDbLine
 10
-30.0
 20
642.15
 30
0.0
 11
-20.0
 21
642.15
 31
0.0
  0
LINE
  5
135
330
1F
100
AcDbEntity
  8
0
  6
Continuous
 62
     7
370
    15
100
AcDbLine
 10
-30.0
 20
648.35
 30
0.0
 11
-30.0
 21
642.15
 31
0.0
  0
LINE
  5
136
330
1F
100
AcDbEntity
  8
0
  6
Continuous
 62
     7
370
    15
100
AcDbLine
 10
-20.0
 20
132.35
 30
0.0
 11
-30.0
 21
132.35
 31
0.0
  0
LINE
  5
137
330
1F
100
AcDbEntity
  8
0
  6
Continuous
 62
     7
370
    15
100
AcDbLine
 10
-20.0
 20
126.15
 30
0.0
 11
-20.0
 21
132.35
 31
0.0
  0
LINE
  5
138
330
1F
100
AcDbEntity
  8
0
  6
Continuous
 62
     7
370
    15
100
AcDbLine
 10
-30.0
 20
126.15
 30
0.0
 11
-20.0
 21
126.15
 31
0.0
  0
LINE
  5
139
330
1F
100
AcDbEntity
  8
0
  6
Continuous
 62
     7
370
    15
100
AcDbLine
 10
-30.0
 20
132.35
 30
0.0
 11
-30.0
 21
126.15
 31
0.0
  0
LINE
  5
13A
330
1F
100
AcDbEntity
  8
0
  6
Continuous
 62
     7
370
    15
100
AcDbLine
 10
-168.9666666667
 20
642.15
 30
0.0
 11
-158.9666666667
 21
642.15
 31
0.0
  0
LINE
  5
13B
330
1F
100
AcDbEntity
  8
0
  6
Continuous
 62
     7
370
    15
100
AcDbLine
 10
-168.9666666667
 20
648.35
 30
0.0
 11
-168.9666666667
 21
642.15
 31
0.0
  0
LINE
  5
13C
330
1F
100
AcDbEntity
  8
0
  6
Continuous
 62
     7
370
    15
100
AcDbLine
 10
-158.9666666667
 20
648.35
 30
0.0
 11
-168.9666666667
 21
648.35
 31
0.0
  0
LINE
  5
13D
330
1F
100
AcDbEntity
  8
0
  6
Continuous
 62
     7
370
    15
100
AcDbLine
 10
-158.9666666667
 20
642.15
 30
0.0
 11
-158.9666666667
 21
648.35
 31
0.0
  0
LINE
  5
13E
330
1F
100
AcDbEntity
  8
0
  6
Continuous
 62
     7
370
    15
100
AcDbLine
 10
168.9666666667
 20
648.35
 30
0.0
 11
168.9666666667
 21
642.15
 31
0.0
  0
LINE
  5
13F
330
1F
100
AcDbEntity
  8
0
  6
Continuous
 62
     7
370
    15
100
AcDbLine
 10
168.9666666667
 20
642.15
 30
0.0
 11
158.9666666667
 21
642.15
 31
0.0
  0
LINE
  5
140
330
1F
100
AcDbEntity
  8
0
  6
Continuous
 62
     7
370
    15
100
AcDbLine
 10
158.9666666667
 20
642.15
 30
0.0
 11
158.9666666667
 21
648.35
 31
0.0
  0
LINE
  5
141
330
1F
100
AcDbEntity
  8
0
  6
Continuous
 62
     7
370
    15
100
AcDbLine
 10
158.9666666667
 20
648.35
 30
0.0
 11
168.9666666667
 21
648.35
 31
0.0
  0
LINE
  5
142
330
1F
100
AcDbEntity
  8
0
  6
Continuous
 62
     7
370
    15
100
AcDbLine
 10
20.0
 20
126.15
 30
0.0
 11
20.0
 21
132.35
 31
0.0
  0
LINE
  5
143
330
1F
100
AcDbEntity
  8
0
  6
Continuous
 62
     7
370
    15
100
AcDbLine
 10
20.0
 20
132.35
 30
0.0
 11
30.0
 21
132.35
 31
0.0
  0
LINE
  5
144
330
1F
100
AcDbEntity
  8
0
  6
Continuous
 62
     7
370
    15
100
AcDbLine
 10
30.0
 20
132.35
 30
0.0
 11
30.0
 21
126.15
 31
0.0
  0
LINE
  5
145
330
1F
100
AcDbEntity
  8
0
  6
Continuous
 62
     7
370
    15
100
AcDbLine
 10
30.0
 20
126.15
 30
0.0
 11
20.0
 21
126.15
 31
0.0
  0
LINE
  5
146
330
1F
100
AcDbEntity
  8
0
  6
Continuous
 62
     7
370
    15
100
AcDbLine
 10
20.0
 20
642.15
 30
0.0
 11
20.0
 21
648.35
 31
0.0
  0
LINE
  5
147
330
1F
100
AcDbEntity
  8
0
  6
Continuous
 62
     7
370
    15
100
AcDbLine
 10
20.0
 20
648.35
 30
0.0
 11
30.0
 21
648.35
 31
0.0
  0
LINE
  5
148
330
1F
100
AcDbEntity
  8
0
  6
Continuous
 62
     7
370
    15
100
AcDbLine
 10
30.0
 20
648.35
 30
0.0
 11
30.0
 21
642.15
 31
0.0
  0
LINE
  5
149
330
1F
100
AcDbEntity
  8
0
  6
Continuous
 62
     7
370
    15
100
AcDbLine
 10
30.0
 20
642.15
 30
0.0
 11
20.0
 21
642.15
 31
0.0
  0
CIRCLE
  5
14A
330
1F
100
AcDbEntity
  8
0
  6
Continuous
 62
     7
370
    15
100
AcDbCircle
 10
138.9666666667
 20
645.25
 30
0.0
 40
1.42500000000004
  0
CIRCLE
  5
14B
330
1F
100
AcDbEntity
  8
0
  6
Continuous
 62
     7
370
    15
100
AcDbCircle
 10
138.9666666667
 20
129.25
 30
0.0
 40
1.425000000000011
  0
LINE
  5
14C
330
1F
100
AcDbEntity
  8
0
  6
Continuous
 62
     7
370
    15
100
AcDbLine
 10
158.9666666667
 20
126.15
 30
0.0
 11
158.9666666667
 21
132.35
 31
0.0
  0
LINE
  5
14D
330
1F
100
AcDbEntity
  8
0
  6
Continuous
 62
     7
370
    15
100
AcDbLine
 10
158.9666666667
 20
132.35
 30
0.0
 11
168.9666666667
 21
132.35
 31
0.0
  0
LINE
  5
14E
330
1F
100
AcDbEntity
  8
0
  6
Continuous
 62
     7
370
    15
100
AcDbLine
 10
168.9666666667
 20
132.35
 30
0.0
 11
168.9666666667
 21
126.15
 31
0.0
  0
LINE
  5
14F
330
1F
100
AcDbEntity
  8
0
  6
Continuous
 62
     7
370
    15
100
AcDbLine
 10
168.9666666667
 20
126.15
 30
0.0
 11
158.9666666667
 21
126.15
 31
0.0
  0
CIRCLE
  5
150
330
1F
100
AcDbEntity
  8
0
  6
Continuous
 62
     7
370
    15
100
AcDbCircle
 10
211.45
 20
128.75
 30
0.0
 40
1.425000000000011
  0
LINE
  5
151
330
1F
100
AcDbEntity
  8
0
  6
Continuous
 62
     7
370
    15
100
AcDbLine
 10
208.35
 20
98.75
 30
0.0
 11
208.35
 21
108.75
 31
0.0
  0
LINE
  5
152
330
1F
100
AcDbEntity
  8
0
  6
Continuous
 62
     7
370
    15
100
AcDbLine
 10
208.35
 20
108.75
 30
0.0
 11
214.55
 21
108.75
 31
0.0
  0
LINE
  5
153
330
1F
100
AcDbEntity
  8
0
  6
Continuous
 62
     7
370
    15
100
AcDbLine
 10
214.55
 20
108.75
 30
0.0
 11
214.55
 21
98.75
 31
0.0
  0
LINE
  5
154
330
1F
100
AcDbEntity
  8
0
  6
Continuous
 62
     7
370
    15
100
AcDbLine
 10
214.55
 20
98.75
 30
0.0
 11
208.35
 21
98.75
 31
0.0
  0
LINE
  5
155
330
1F
100
AcDbEntity
  8
0
  6
Continuous
 62
     7
370
    15
100
AcDbLine
 10
208.35
 20
148.75
 30
0.0
 11
208.35
 21
158.75
 31
0.0
  0
LINE
  5
156
330
1F
100
AcDbEntity
  8
0
  6
Continuous
 62
     7
370
    15
100
AcDbLine
 10
208.35
 20
158.75
 30
0.0
 11
214.55
 21
158.75
 31
0.0
  0
LINE
  5
157
330
1F
100
AcDbEntity
  8
0
  6
Continuous
 62
     7
370
    15
100
AcDbLine
 10
214.55
 20
158.75
 30
0.0
 11
214.55
 21
148.75
 31
0.0
  0
LINE
  5
158
330
1F
100
AcDbEntity
  8
0
  6
Continuous
 62
     7
370
    15
100
AcDbLine
 10
214.55
 20
148.75
 30
0.0
 11
208.35
 21
148.75
 31
0.0
  0
CIRCLE
  5
159
330
1F
100
AcDbEntity
  8
0
  6
Continuous
 62
     7
370
    15
100
AcDbCircle
 10
211.45
 20
334.15
 30
0.0
 40
1.424999999999983
  0
LINE
  5
15A
330
1F
100
AcDbEntity
  8
0
  6
Continuous
 62
     7
370
    15
100
AcDbLine
 10
208.35
 20
304.15
 30
0.0
 11
208.35
 21
314.15
 31
0.0
  0
LINE
  5
15B
330
1F
100
AcDbEntity
  8
0
  6
Continuous
 62
     7
370
    15
100
AcDbLine
 10
208.35
 20
314.15
 30
0.0
 11
214.55
 21
314.15
 31
0.0
  0
LINE
  5
15C
330
1F
100
AcDbEntity
  8
0
  6
Continuous
 62
     7
370
    15
100
AcDbLine
 10
214.55
 20
314.15
 30
0.0
 11
214.55
 21
304.15
 31
0.0
  0
LINE
  5
15D
330
1F
100
AcDbEntity
  8
0
  6
Continuous
 62
     7
370
    15
100
AcDbLine
 10
214.55
 20
304.15
 30
0.0
 11
208.35
 21
304.15
 31
0.0
  0
LINE
  5
15E
330
1F
100
AcDbEntity
  8
0
  6
Continuous
 62
     7
370
    15
100
AcDbLine
 10
208.35
 20
354.15
 30
0.0
 11
208.35
 21
364.15
 31
0.0
  0
LINE
  5
15F
330
1F
100
AcDbEntity
  8
0
  6
Continuous
 62
     7
370
    15
100
AcDbLine
 10
208.35
 20
364.15
 30
0.0
 11
214.55
 21
364.15
 31
0.0
  0
LINE
  5
160
330
1F
100
AcDbEntity
  8
0
  6
Continuous
 62
     7
370
    15
100
AcDbLine
 10
214.55
 20
364.15
 30
0.0
 11
214.55
 21
354.15
 31
0.0
  0
LINE
  5
161
330
1F
100
AcDbEntity
  8
0
  6
Continuous
 62
     7
370
    15
100
AcDbLine
 10
214.55
 20
354.15
 30
0.0
 11
208.35
 21
354.15
 31
0.0
  0
CIRCLE
  5
162
330
1F
100
AcDbEntity
  8
0
  6
Continuous
 62
     7
370
    15
100
AcDbCircle
 10
211.45
 20
539.55
 30
0.0
 40
1.42500000000004
  0
LINE
  5
163
330
1F
100
AcDbEntity
  8
0
  6
Continuous
 62
     7
370
    15
100
AcDbLine
 10
208.35
 20
509.55
 30
0.0
 11
208.35
 21
519.55
 31
0.0
  0
LINE
  5
164
330
1F
100
AcDbEntity
  8
0
  6
Continuous
 62
     7
370
    15
100
AcDbLine
 10
208.35
 20
519.55
 30
0.0
 11
214.55
 21
519.55
 31
0.0
  0
LINE
  5
165
330
1F
100
AcDbEntity
  8
0
  6
Continuous
 62
     7
370
    15
100
AcDbLine
 10
214.55
 20
519.55
 30
0.0
 11
214.55
 21
509.55
 31
0.0
  0
LINE
  5
166
330
1F
100
AcDbEntity
  8
0
  6
Continuous
 62
     7
370
    15
100
AcDbLine
 10
214.55
 20
509.55
 30
0.0
 11
208.35
 21
509.55
 31
0.0
  0
LINE
  5
167
330
1F
100
AcDbEntity
  8
0
  6
Continuous
 62
     7
370
    15
100
AcDbLine
 10
208.35
 20
559.55
 30
0.0
 11
208.35
 21
569.55
 31
0.0
  0
LINE
  5
168
330
1F
100
AcDbEntity
  8
0
  6
Continuous
 62
     7
370
    15
100
AcDbLine
 10
208.35
 20
569.55
 30
0.0
 11
214.55
 21
569.55
 31
0.0
  0
LINE
  5
169
330
1F
100
AcDbEntity
  8
0
  6
Continuous
 62
     7
370
    15
100
AcDbLine
 10
214.55
 20
569.55
 30
0.0
 11
214.55
 21
559.55
 31
0.0
  0
LINE
  5
16A
330
1F
100
AcDbEntity
  8
0
  6
Continuous
 62
     7
370
    15
100
AcDbLine
 10
214.55
 20
559.55
 30
0.0
 11
208.35
 21
559.55
 31
0.0
  0
LINE
  5
16B
330
1F
100
AcDbEntity
  8
0
  6
Continuous
 62
     7
370
    15
100
AcDbLine
 10
108.9666666667
 20
126.15
 30
0.0
 11
108.9666666667
 21
132.35
 31
0.0
  0
LINE
  5
16C
330
1F
100
AcDbEntity
  8
0
  6
Continuous
 62
     7
370
    15
100
AcDbLine
 10
108.9666666667
 20
132.35
 30
0.0
 11
118.9666666667
 21
132.35
 31
0.0
  0
LINE
  5
16D
330
1F
100
AcDbEntity
  8
0
  6
Continuous
 62
     7
370
    15
100
AcDbLine
 10
118.9666666667
 20
132.35
 30
0.0
 11
118.9666666667
 21
126.15
 31
0.0
  0
LINE
  5
16E
330
1F
100
AcDbEntity
  8
0
  6
Continuous
 62
     7
370
    15
100
AcDbLine
 10
118.9666666667
 20
126.15
 30
0.0
 11
108.9666666667
 21
126.15
 31
0.0
  0
LINE
  5
16F
330
1F
100
AcDbEntity
  8
0
  6
Continuous
 62
     7
370
    15
100
AcDbLine
 10
108.9666666667
 20
642.15
 30
0.0
 11
108.9666666667
 21
648.35
 31
0.0
  0
LINE
  5
170
330
1F
100
AcDbEntity
  8
0
  6
Continuous
 62
     7
370
    15
100
AcDbLine
 10
108.9666666667
 20
648.35
 30
0.0
 11
118.9666666667
 21
648.35
 31
0.0
  0
LINE
  5
171
330
1F
100
AcDbEntity
  8
0
  6
Continuous
 62
     7
370
    15
100
AcDbLine
 10
118.9666666667
 20
648.35
 30
0.0
 11
118.9666666667
 21
642.15
 31
0.0
  0
LINE
  5
172
330
1F
100
AcDbEntity
  8
0
  6
Continuous
 62
     7
370
    15
100
AcDbLine
 10
118.9666666667
 20
642.15
 30
0.0
 11
108.9666666667
 21
642.15
 31
0.0
  0
LINE
  5
173
330
1F
100
AcDbEntity
  8
0
  6
Continuous
 62
     7
370
    15
100
AcDbLine
 10
174.45
 20
200.2
 30
0.0
 11
166.45
 21
200.2
 31
0.0
  0
LINE
  5
174
330
1F
100
AcDbEntity
  8
0
  6
Continuous
 62
     7
370
    15
100
AcDbLine
 10
166.45
 20
200.2
 30
0.0
 11
166.45
 21
262.7
 31
0.0
  0
LINE
  5
175
330
1F
100
AcDbEntity
  8
0
  6
Continuous
 62
     7
370
    15
100
AcDbLine
 10
166.45
 20
262.7
 30
0.0
 11
174.45
 21
262.7
 31
0.0
  0
LINE
  5
176
330
1F
100
AcDbEntity
  8
0
  6
Continuous
 62
     7
370
    15
100
AcDbLine
 10
174.45
 20
262.7
 30
0.0
 11
174.45
 21
200.2
 31
0.0
  0
LINE
  5
177
330
1F
100
AcDbEntity
  8
0
  6
Continuous
 62
     7
370
    15
100
AcDbLine
 10
150.45
 20
200.2
 30
0.0
 11
142.45
 21
200.2
 31
0.0
  0
LINE
  5
178
330
1F
100
AcDbEntity
  8
0
  6
Continuous
 62
     7
370
    15
100
AcDbLine
 10
142.45
 20
200.2
 30
0.0
 11
142.45
 21
262.7
 31
0.0
  0
LINE
  5
179
330
1F
100
AcDbEntity
  8
0
  6
Continuous
 62
     7
370
    15
100
AcDbLine
 10
142.45
 20
262.7
 30
0.0
 11
150.45
 21
262.7
 31
0.0
  0
LINE
  5
17A
330
1F
100
AcDbEntity
  8
0
  6
Continuous
 62
     7
370
    15
100
AcDbLine
 10
150.45
 20
262.7
 30
0.0
 11
150.45
 21
200.2
 31
0.0
  0
LINE
  5
17B
330
1F
100
AcDbEntity
  8
0
  6
Continuous
 62
     7
370
    15
100
AcDbLine
 10
-3.0765224359
 20
635.25
 30
0.0
 11
-3.7467948718
 21
635.25
 31
0.0
  0
LINE
  5
17C
330
1F
100
AcDbEntity
  8
0
  6
Continuous
 62
     7
370
    15
100
AcDbLine
 10
-3.7467948718
 20
635.25
 30
0.0
 11
-2.3326322115
 21
638.75
 31
0.0
  0
LINE
  5
17D
330
1F
100
AcDbEntity
  8
0
  6
Continuous
 62
     7
370
    15
100
AcDbLine
 10
-2.3326322115
 20
638.75
 30
0.0
 11
-1.75
 21
638.75
 31
0.0
  0
LINE
  5
17E
330
1F
100
AcDbEntity
  8
0
  6
Continuous
 62
     7
370
    15
100
AcDbLine
 10
-1.75
 20
638.75
 30
0.0
 11
-0.3365384615
 21
635.25
 31
0.0
  0
LINE
  5
17F
330
1F
100
AcDbEntity
  8
0
  6
Continuous
 62
     7
370
    15
100
AcDbLine
 10
-0.3365384615
 20
635.25
 30
0.0
 11
-1.0075120192
 21
635.25
 31
0.0
  0
LINE
  5
180
330
1F
100
AcDbEntity
  8
0
  6
Continuous
 62
     7
370
    15
100
AcDbLine
 10
-1.0075120192
 20
635.25
 30
0.0
 11
-1.2795472756
 21
635.9679487179
 31
0.0
  0
LINE
  5
181
330
1F
100
AcDbEntity
  8
0
  6
Continuous
 62
     7
370
    15
100
AcDbLine
 10
-1.2795472756
 20
635.9679487179
 30
0.0
 11
-2.8044871795
 21
635.9679487179
 31
0.0
  0
LINE
  5
182
330
1F
100
AcDbEntity
  8
0
  6
Continuous
 62
     7
370
    15
100
AcDbLine
 10
-2.8044871795
 20
635.9679487179
 30
0.0
 11
-3.0765224359
 21
635.25
 31
0.0
  0
SPLINE
  5
183
330
1F
100
AcDbEntity
  8
0
  6
Continuous
 62
     7
370
    15
100
AcDbSpline
210
0.0
220
0.0
230
1.0
 70
     8
 71
     3
 72
    19
 73
    15
 74
     0
 42
0.000000001
 43
0.00000001
 40
0.0
 40
0.0
 40
0.0
 40
0.0
 40
0.1123318680474738
 40
0.2171891524479441
 40
0.3207763822149665
 40
0.4294461252394361
 40
0.4868895248481673
 40
0.5473481609653503
 40
0.6105516098532499
 40
0.6785404198027756
 40
0.7510057638702069
 40
0.8285633445447141
 40
0.9114938035709843
 40
0.9999999999999999
 40
0.9999999999999999
 40
0.9999999999999999
 40
0.9999999999999999
 10
-4.891025641025643
 20
637.7530048076923
 30
0.0
 10
-4.892222180516697
 20
637.7801116703614
 30
0.0
 10
-4.894535641535815
 20
637.832521699955
 30
0.0
 10
-4.920714920649496
 20
637.9061100491574
 30
0.0
 10
-4.961376516680314
 20
637.9713243872661
 30
0.0
 10
-5.009383245945386
 20
638.0159582685285
 30
0.0
 10
-5.054590910043558
 20
638.0464418935258
 30
0.0
 10
-5.093300486243924
 20
638.0665140624628
 30
0.0
 10
-5.135787152834206
 20
638.0844824629452
 30
0.0
 10
-5.182873406167096
 20
638.0982215398795
 30
0.0
 10
-5.234290357912537
 20
638.1085308594564
 30
0.0
 10
-5.289788247241636
 20
638.116101820053
 30
0.0
 10
-5.349462827163554
 20
638.1212549379269
 30
0.0
 10
-5.390680186479964
 20
638.1216110333372
 30
0.0
 10
-5.411959134615387
 20
638.1217948717949
 30
0.0
  0
LINE
  5
184
330
1F
100
AcDbEntity
  8
0
  6
Continuous
 62
     7
370
    15
100
AcDbLine
 10
-5.4119591346
 20
638.1217948718
 30
0.0
 11
-5.608974359
 21
638.1217948718
 31
0.0
  0
LINE
  5
185
330
1F
100
AcDbEntity
  8
0
  6
Continuous
 62
     7
370
    15
100
AcDbLine
 10
-5.608974359
 20
638.1217948718
 30
0.0
 11
-5.608974359
 21
637.358974359
 31
0.0
  0
LINE
  5
186
330
1F
100
AcDbEntity
  8
0
  6
Continuous
 62
     7
370
    15
100
AcDbLine
 10
-5.608974359
 20
637.358974359
 30
0.0
 11
-5.4421073718
 21
637.358974359
 31
0.0
  0
SPLINE
  5
187
330
1F
100
AcDbEntity
  8
0
  6
Continuous
 62
     7
370
    15
100
AcDbSpline
210
0.0
220
0.0
230
1.0
 70
     8
 71
     3
 72
    19
 73
    15
 74
     0
 42
0.000000001
 43
0.00000001
 40
0.0
 40
0.0
 40
0.0
 40
0.0
 40
0.0887762289654578
 40
0.1713771372145652
 40
0.2481138113668593
 40
0.3211611878976252
 40
0.3880331325498145
 40
0.4520913744364493
 40
0.5122677074822533
 40
0.5688662368267394
 40
0.6769360002929657
 40
0.781011727200797
 40
0.8869176462132567
 40
1.0
 40
1.0
 40
1.0
 40
1.0
 10
-5.442107371794874
 20
637.3589743589744
 30
0.0
 10
-5.41942864900838
 20
637.3591721260185
 30
0.0
 10
-5.375648747202187
 20
637.3595539033286
 30
0.0
 10
-5.312413322808496
 20
637.3644710625116
 30
0.0
 10
-5.253614590279145
 20
637.3728600415136
 30
0.0
 10
-5.199475560518009
 20
637.3845647774923
 30
0.0
 10
-5.149491908799958
 20
637.3994280856145
 30
0.0
 10
-5.103982945091008
 20
637.417311846271
 30
0.0
 10
-5.063148764075567
 20
637.4391319781287
 30
0.0
 10
-5.015708890158308
 20
637.4716340274306
 30
0.0
 10
-4.965561522375446
 20
637.519462248123
 30
0.0
 10
-4.921417358505081
 20
637.5885600225063
 30
0.0
 10
-4.895416740759853
 20
637.6680222001453
 30
0.0
 10
-4.892520973204711
 20
637.7240650806494
 30
0.0
 10
-4.891025641025643
 20
637.7530048076923
 30
0.0
  0
SPLINE
  5
188
330
1F
100
AcDbEntity
  8
0
  6
Continuous
 62
     7
370
    15
100
AcDbSpline
210
0.0
220
0.0
230
1.0
 70
     8
 71
     3
 72
    23
 73
    19
 74
     0
 42
0.000000001
 43
0.00000001
 40
0.0
 40
0.0
 40
0.0
 40
0.0
 40
0.0528263492812402
 40
0.1028915173965017
 40
0.1516981461048603
 40
0.1995775881235499
 40
0.2472235843729505
 40
0.2957231203836274
 40
0.3462538147999484
 40
0.3985071702228823
 40
0.4542901722394447
 40
0.5140415865121303
 40
0.5790927186074079
 40
0.6500371484472833
 40
0.7274510007645255
 40
0.8114520065892903
 40
0.902475879823794
 40
1.0
 40
1.0
 40
1.0
 40
1.0
 10
-4.666666666666669
 20
636.2876602564103
 30
0.0
 10
-4.667192776871071
 20
636.3061504820736
 30
0.0
 10
-4.668217498018477
 20
636.3421644675445
 30
0.0
 10
-4.676586408065236
 20
636.3948027508065
 30
0.0
 10
-4.691795451388483
 20
636.4439440807876
 30
0.0
 10
-4.71095198352041
 20
636.4908450675875
 30
0.0
 10
-4.737609315785741
 20
636.5338264925105
 30
0.0
 10
-4.769290644182692
 20
636.5743757796824
 30
0.0
 10
-4.807569776667929
 20
636.6111198050852
 30
0.0
 10
-4.850616894285719
 20
636.6462809847067
 30
0.0
 10
-4.900827095068784
 20
636.6770665024134
 30
0.0
 10
-4.95822393619459
 20
636.7037783920434
 30
0.0
 10
-5.023119228543607
 20
636.7260871785626
 30
0.0
 10
-5.095713992153759
 20
636.7438494490225
 30
0.0
 10
-5.175689977214099
 20
636.7589240424488
 30
0.0
 10
-5.263630920555553
 20
636.767925238829
 30
0.0
 10
-5.35880441946078
 20
636.774619824164
 30
0.0
 10
-5.424799272480508
 20
636.7752928904303
 30
0.0
 10
-5.458934294871797
 20
636.775641025641
 30
0.0
  0
LINE
  5
189
330
1F
100
AcDbEntity
  8
0
  6
Continuous
 62
     7
370
    15
100
AcDbLine
 10
-5.4589342949
 20
636.7756410256
 30
0.0
 11
-5.608974359
 21
636.7756410256
 31
0.0
  0
LINE
  5
18A
330
1F
100
AcDbEntity
  8
0
  6
Continuous
 62
     7
370
    15
100
AcDbLine
 10
-5.608974359
 20
636.7756410256
 30
0.0
 11
-5.608974359
 21
635.8782051282
 31
0.0
  0
LINE
  5
18B
330
1F
100
AcDbEntity
  8
0
  6
Continuous
 62
     7
370
    15
100
AcDbLine
 10
-5.608974359
 20
635.8782051282
 30
0.0
 11
-5.4280849359
 21
635.8782051282
 31
0.0
  0
SPLINE
  5
18C
330
1F
100
AcDbEntity
  8
0
  6
Continuous
 62
     7
370
    15
100
AcDbSpline
210
0.0
220
0.0
230
1.0
 70
     8
 71
     3
 72
    23
 73
    19
 74
     0
 42
0.000000001
 43
0.00000001
 40
0.0
 40
0.0
 40
0.0
 40
0.0
 40
0.1095674252695366
 40
0.2106570473717231
 40
0.3020024587326074
 40
0.3851432164195767
 40
0.4590126129308489
 40
0.5247192090460374
 40
0.5832266479388565
 40
0.6342083193258011
 40
0.6811857277932222
 40
0.7262751343642958
 40
0.7701133344782933
 40
0.8140800070141343
 40
0.85799416807833
 40
0.9033387195084928
 40
0.9505447828389124
 40
1.0
 40
1.0
 40
1.0
 40
1.0
 10
-5.428084935897438
 20
635.8782051282052
 30
0.0
 10
-5.392322866639154
 20
635.878409435577
 30
0.0
 10
-5.323565825946442
 20
635.8788022419936
 30
0.0
 10
-5.225071486983735
 20
635.8835482776462
 30
0.0
 10
-5.135515509268815
 20
635.8921021706658
 30
0.0
 10
-5.055135182355903
 20
635.9027810170498
 30
0.0
 10
-4.983807388557657
 20
635.9172491835974
 30
0.0
 10
-4.921773232890235
 20
635.935643603169
 30
0.0
 10
-4.868181997323542
 20
635.9558806685613
 30
0.0
 10
-4.823355017558713
 20
635.9808758471177
 30
0.0
 10
-4.786733943098603
 20
636.0099640365902
 30
0.0
 10
-4.753687262966184
 20
636.0396928649698
 30
0.0
 10
-4.72674305918781
 20
636.0739878771857
 30
0.0
 10
-4.705424302341314
 20
636.111376883413
 30
0.0
 10
-4.686972955939219
 20
636.1509311137492
 30
0.0
 10
-4.675844406760237
 20
636.1941951466524
 30
0.0
 10
-4.667371519988459
 20
636.2398867399426
 30
0.0
 10
-4.666905234348318
 20
636.2714906269064
 30
0.0
 10
-4.666666666666669
 20
636.2876602564103
 30
0.0
  0
LINE
  5
18D
330
1F
100
AcDbEntity
  8
0
  6
Continuous
 62
     7
370
    15
100
AcDbLine
 10
-2.5661057692
 20
636.5961538462
 30
0.0
 11
-1.5172275641
 21
636.5961538462
 31
0.0
  0
LINE
  5
18E
330
1F
100
AcDbEntity
  8
0
  6
Continuous
 62
     7
370
    15
100
AcDbLine
 10
-1.5172275641
 20
636.5961538462
 30
0.0
 11
-2.0416666667
 21
637.8111979167
 31
0.0
  0
LINE
  5
18F
330
1F
100
AcDbEntity
  8
0
  6
Continuous
 62
     7
370
    15
100
AcDbLine
 10
-2.0416666667
 20
637.8111979167
 30
0.0
 11
-2.5661057692
 21
636.5961538462
 31
0.0
  0
ENDSEC
  0
SECTION
  2
OBJECTS
  0
DICTIONARY
  5
C
330
0
100
AcDbDictionary
281
     1
  3
ACAD_GROUP
350
D
  3
ACAD_LAYOUT
350
1A
  3
ACAD_MLINESTYLE
350
17
  3
ACAD_PLOTSETTINGS
350
19
  3
ACAD_PLOTSTYLENAME
350
E
  3
ACAD_SCALELIST
350
47
  0
DICTIONARY
  5
D
102
{ACAD_REACTORS
330
C
102
}
330
C
100
AcDbDictionary
281
     1
  0
DICTIONARY
  5
1A
102
{ACAD_REACTORS
330
C
102
}
330
C
100
AcDbDictionary
281
     1
  3
Layout1
350
1E
  3
Layout2
350
26
  3
Model
350
22
  0
DICTIONARY
  5
17
102
{ACAD_REACTORS
330
C
102
}
330
C
100
AcDbDictionary
281
     1
  3
Standard
350
18
  0
DICTIONARY
  5
19
102
{ACAD_REACTORS
330
C
102
}
330
C
100
AcDbDictionary
281
     1
  0
ACDBDICTIONARYWDFLT
  5
E
102
{ACAD_REACTORS
330
C
102
}
330
C
100
AcDbDictionary
281
     1
  3
Normal
350
F
100
AcDbDictionaryWithDefault
340
F
  0
DICTIONARY
  5
47
102
{ACAD_REACTORS
330
C
102
}
330
C
100
AcDbDictionary
281
     1
  3
A0
350
48
  3
A1
350
49
  3
A2
350
4A
  3
A3
350
4B
  3
A4
350
4C
  3
A5
350
4D
  3
A6
350
4E
  3
A7
350
4F
  3
A8
350
50
  3
A9
350
51
  3
B0
350
52
  3
B1
350
53
  3
B2
350
54
  3
B3
350
55
  3
B4
350
56
  3
B5
350
57
  3
B6
350
58
  3
B7
350
59
  3
B8
350
5A
  3
B9
350
5B
  3
C0
350
5C
  3
C1
350
5D
  3
C2
350
5E
  3
C3
350
5F
  3
C4
350
60
  3
C5
350
61
  3
C6
350
62
  3
C7
350
63
  3
C8
350
64
  3
C9
350
65
  3
D0
350
66
  3
D1
350
67
  3
D2
350
68
  0
LAYOUT
  5
1E
102
{ACAD_REACTORS
330
1A
102
}
330
1A
100
AcDbPlotSettings
  1

  2
none_device
  4

  6

 40
0.0
 41
0.0
 42
0.0
 43
0.0
 44
0.0
 45
0.0
 46
0.0
 47
0.0
 48
0.0
 49
0.0
140
0.0
141
0.0
142
1.0
143
1.0
 70
   688
 72
     1
 73
     0
 74
     5
  7

 75
    16
147
1.0
148
0.0
149
0.0
100
AcDbLayout
  1
Layout1
 70
     1
 71
     1
 10
0.0
 20
0.0
 11
420.0
 21
297.0
 12
0.0
 22
0.0
 32
0.0
 14
1.0000000000E+20
 24
1.0000000000E+20
 34
1.0000000000E+20
 15
-1.0000000000E+20
 25
-1.0000000000E+20
 35
-1.0000000000E+20
146
0.0
 13
0.0
 23
0.0
 33
0.0
 16
1.0
 26
0.0
 36
0.0
 17
0.0
 27
1.0
 37
0.0
 76
     0
330
1B
  0
LAYOUT
  5
26
102
{ACAD_REACTORS
330
1A
102
}
330
1A
100
AcDbPlotSettings
  1

  2
none_device
  4

  6

 40
0.0
 41
0.0
 42
0.0
 43
0.0
 44
0.0
 45
0.0
 46
0.0
 47
0.0
 48
0.0
 49
0.0
140
0.0
141
0.0
142
1.0
143
1.0
 70
   688
 72
     1
 73
     0
 74
     5
  7

 75
    16
147
1.0
148
0.0
149
0.0
100
AcDbLayout
  1
Layout2
 70
     1
 71
     2
 10
0.0
 20
0.0
 11
0.0
 21
0.0
 12
0.0
 22
0.0
 32
0.0
 14
0.0
 24
0.0
 34
0.0
 15
0.0
 25
0.0
 35
0.0
146
0.0
 13
0.0
 23
0.0
 33
0.0
 16
1.0
 26
0.0
 36
0.0
 17
0.0
 27
1.0
 37
0.0
 76
     0
330
23
  0
LAYOUT
  5
22
102
{ACAD_REACTORS
330
1A
102
}
330
1A
100
AcDbPlotSettings
  1

  2
none_device
  4
ANSI_A_(11.00_x_8.50_Inches)
  6

 40
6.35
 41
19.05
 42
6.35000508
 43
19.05000254
 44
279.4
 45
215.9
 46
133.34999746
 47
-17.97050127
 48
0.0
 49
0.0
140
0.0
141
0.0
142
0.0128995171
143
1.0
 70
  1696
 72
     0
 73
     0
 74
     0
  7

 75
     0
147
0.0179189148
148
-1300.4909072572
149
0.0
100
AcDbLayout
  1
Model
 70
     1
 71
     0
 10
0.0
 20
0.0
 11
420.0
 21
297.0
 12
0.0
 22
0.0
 32
0.0
 14
-218.55
 24
0.0
 34
0.0
 15
218.55
 25
652.35
 35
0.0
146
0.0
 13
0.0
 23
0.0
 33
0.0
 16
1.0
 26
0.0
 36
0.0
 17
0.0
 27
1.0
 37
0.0
 76
     0
330
1F
331
29
  0
MLINESTYLE
  5
18
102
{ACAD_REACTORS
330
17
102
}
330
17
100
AcDbMlineStyle
  2
Standard
 70
     0
  3

 62
   256
 51
90.0
 52
90.0
 71
     2
 49
0.5
 62
   256
  6
BYLAYER
 49
-0.5
 62
   256
  6
BYLAYER
  0
ACDBPLACEHOLDER
  5
F
102
{ACAD_REACTORS
330
E
102
}
330
E
  0
SCALE
  5
48
102
{ACAD_REACTORS
330
47
102
}
330
47
100
AcDbScale
 70
     0
300
1:1
140
1.0
141
1.0
290
     1
  0
SCALE
  5
49
102
{ACAD_REACTORS
330
47
102
}
330
47
100
AcDbScale
 70
     0
300
1:2
140
1.0
141
2.0
290
     0
  0
SCALE
  5
4A
102
{ACAD_REACTORS
330
47
102
}
330
47
100
AcDbScale
 70
     0
300
1:4
140
1.0
141
4.0
290
     0
  0
SCALE
  5
4B
102
{ACAD_REACTORS
330
47
102
}
330
47
100
AcDbScale
 70
     0
300
1:5
140
1.0
141
5.0
290
     0
  0
SCALE
  5
4C
102
{ACAD_REACTORS
330
47
102
}
330
47
100
AcDbScale
 70
     0
300
1:8
140
1.0
141
8.0
290
     0
  0
SCALE
  5
4D
102
{ACAD_REACTORS
330
47
102
}
330
47
100
AcDbScale
 70
     0
300
1:10
140
1.0
141
10.0
290
     0
  0
SCALE
  5
4E
102
{ACAD_REACTORS
330
47
102
}
330
47
100
AcDbScale
 70
     0
300
1:16
140
1.0
141
16.0
290
     0
  0
SCALE
  5
4F
102
{ACAD_REACTORS
330
47
102
}
330
47
100
AcDbScale
 70
     0
300
1:20
140
1.0
141
20.0
290
     0
  0
SCALE
  5
50
102
{ACAD_REACTORS
330
47
102
}
330
47
100
AcDbScale
 70
     0
300
1:30
140
1.0
141
30.0
290
     0
  0
SCALE
  5
51
102
{ACAD_REACTORS
330
47
102
}
330
47
100
AcDbScale
 70
     0
300
1:40
140
1.0
141
40.0
290
     0
  0
SCALE
  5
52
102
{ACAD_REACTORS
330
47
102
}
330
47
100
AcDbScale
 70
     0
300
1:50
140
1.0
141
50.0
290
     0
  0
SCALE
  5
53
102
{ACAD_REACTORS
330
47
102
}
330
47
100
AcDbScale
 70
     0
300
1:100
140
1.0
141
100.0
290
     0
  0
SCALE
  5
54
102
{ACAD_REACTORS
330
47
102
}
330
47
100
AcDbScale
 70
     0
300
2:1
140
2.0
141
1.0
290
     0
  0
SCALE
  5
55
102
{ACAD_REACTORS
330
47
102
}
330
47
100
AcDbScale
 70
     0
300
4:1
140
4.0
141
1.0
290
     0
  0
SCALE
  5
56
102
{ACAD_REACTORS
330
47
102
}
330
47
100
AcDbScale
 70
     0
300
8:1
140
8.0
141
1.0
290
     0
  0
SCALE
  5
57
102
{ACAD_REACTORS
330
47
102
}
330
47
100
AcDbScale
 70
     0
300
10:1
140
10.0
141
1.0
290
     0
  0
SCALE
  5
58
102
{ACAD_REACTORS
330
47
102
}
330
47
100
AcDbScale
 70
     0
300
100:1
140
100.0
141
1.0
290
     0
  0
SCALE
  5
59
102
{ACAD_REACTORS
330
47
102
}
330
47
100
AcDbScale
 70
     0
300
1/128" = 1'-0"
140
0.0078125
141
12.0
290
     0
  0
SCALE
  5
5A
102
{ACAD_REACTORS
330
47
102
}
330
47
100
AcDbScale
 70
     0
300
1/64" = 1'-0"
140
0.015625
141
12.0
290
     0
  0
SCALE
  5
5B
102
{ACAD_REACTORS
330
47
102
}
330
47
100
AcDbScale
 70
     0
300
1/32" = 1'-0"
140
0.03125
141
12.0
290
     0
  0
SCALE
  5
5C
102
{ACAD_REACTORS
330
47
102
}
330
47
100
AcDbScale
 70
     0
300
1/16" = 1'-0"
140
0.0625
141
12.0
290
     0
  0
SCALE
  5
5D
102
{ACAD_REACTORS
330
47
102
}
330
47
100
AcDbScale
 70
     0
300
3/32" = 1'-0"
140
0.09375
141
12.0
290
     0
  0
SCALE
  5
5E
102
{ACAD_REACTORS
330
47
102
}
330
47
100
AcDbScale
 70
     0
300
1/8" = 1'-0"
140
0.125
141
12.0
290
     0
  0
SCALE
  5
5F
102
{ACAD_REACTORS
330
47
102
}
330
47
100
AcDbScale
 70
     0
300
3/16" = 1'-0"
140
0.1875
141
12.0
290
     0
  0
SCALE
  5
60
102
{ACAD_REACTORS
330
47
102
}
330
47
100
AcDbScale
 70
     0
300
1/4" = 1'-0"
140
0.25
141
12.0
290
     0
  0
SCALE
  5
61
102
{ACAD_REACTORS
330
47
102
}
330
47
100
AcDbScale
 70
     0
300
3/8" = 1'-0"
140
0.375
141
12.0
290
     0
  0
SCALE
  5
62
102
{ACAD_REACTORS
330
47
102
}
330
47
100
AcDbScale
 70
     0
300
1/2" = 1'-0"
140
0.5
141
12.0
290
     0
  0
SCALE
  5
63
102
{ACAD_REACTORS
330
47
102
}
330
47
100
AcDbScale
 70
     0
300
3/4" = 1'-0"
140
0.75
141
12.0
290
     0
  0
SCALE
  5
64
102
{ACAD_REACTORS
330
47
102
}
330
47
100
AcDbScale
 70
     0
300
1" = 1'-0"
140
1.0
141
12.0
290
     0
  0
SCALE
  5
65
102
{ACAD_REACTORS
330
47
102
}
330
47
100
AcDbScale
 70
     0
300
1-1/2" = 1'-0"
140
1.5
141
12.0
290
     0
  0
SCALE
  5
66
102
{ACAD_REACTORS
330
47
102
}
330
47
100
AcDbScale
 70
     0
300
3" = 1'-0"
140
3.0
141
12.0
290
     0
  0
SCALE
  5
67
102
{ACAD_REACTORS
330
47
102
}
330
47
100
AcDbScale
 70
     0
300
6" = 1'-0"
140
6.0
141
12.0
290
     0
  0
SCALE
  5
68
102
{ACAD_REACTORS
330
47
102
}
330
47
100
AcDbScale
 70
     0
300
1'-0" = 1'-0"
140
12.0
141
12.0
290
     0
  0
ENDSEC
  0
EOF
